<?xml version="1.0" standalone="no"?>
<!DOCTYPE svg PUBLIC "-//W3C//DTD SVG 20010904//EN"
 "http://www.w3.org/TR/2001/REC-SVG-20010904/DTD/svg10.dtd">
<svg version="1.0" xmlns="http://www.w3.org/2000/svg"
 width="700.000000pt" height="700.000000pt" viewBox="0 0 700.000000 700.000000"
 preserveAspectRatio="xMidYMid meet">
<metadata>
Created by potrace 1.11, written by Peter Selinger 2001-2013
</metadata>
<g transform="translate(0.000000,700.000000) scale(0.100000,-0.100000)"
fill="#000000" stroke="none">
<path d="M3278 6995 c-2 -1 -37 -5 -78 -9 -97 -8 -222 -23 -285 -36 -27 -5
-61 -12 -75 -14 -209 -38 -523 -132 -677 -202 -28 -13 -54 -24 -57 -24 -16 0
-262 -126 -372 -190 -390 -228 -721 -518 -998 -874 -74 -94 -246 -347 -246
-360 0 -4 -12 -25 -27 -49 -15 -23 -59 -107 -98 -187 -145 -293 -245 -588
-300 -885 -10 -49 -18 -97 -20 -105 -2 -9 -6 -43 -10 -75 -4 -33 -9 -69 -11
-79 -25 -139 -25 -674 0 -813 2 -10 7 -45 11 -78 4 -32 9 -68 11 -80 2 -11 7
-36 10 -55 15 -94 61 -280 101 -410 197 -638 565 -1198 1073 -1632 344 -293
772 -534 1190 -666 195 -62 440 -119 590 -137 30 -4 66 -9 80 -11 183 -27 638
-25 844 3 34 4 196 32 341 59 55 11 329 92 425 128 386 140 780 371 1080 631
106 91 297 283 365 365 21 25 40 47 44 50 11 9 135 171 185 244 258 372 471
864 551 1276 52 268 67 409 70 675 1 132 -1 276 -5 320 -17 169 -22 220 -25
225 -2 3 -6 30 -10 60 -9 75 -69 337 -99 435 -206 677 -588 1255 -1128 1705
-226 187 -585 409 -819 505 -35 14 -73 30 -84 35 -173 80 -587 195 -780 216
-27 3 -53 8 -56 9 -3 2 -35 7 -71 10 -35 4 -78 9 -94 11 -33 5 -540 14 -546 9z
m78 -1053 c-2 -4 -7 -50 -11 -102 -3 -52 -8 -111 -10 -130 -2 -19 -7 -80 -10
-135 -3 -55 -8 -120 -10 -145 -2 -25 -7 -88 -10 -140 -4 -52 -8 -111 -10 -131
-2 -20 -6 -81 -10 -135 -3 -55 -7 -119 -9 -144 -3 -25 -7 -85 -11 -135 -3 -49
-8 -112 -10 -140 -2 -27 -7 -88 -10 -135 -3 -47 -8 -110 -10 -140 -2 -30 -7
-91 -10 -135 -5 -82 -12 -179 -20 -275 -2 -30 -7 -98 -10 -150 -3 -52 -8 -104
-10 -115 -4 -20 1 -20 198 -20 l202 0 1 495 c1 534 5 587 54 738 59 182 141
321 267 452 136 143 341 258 508 286 109 17 136 20 185 18 52 -3 127 -11 160
-17 64 -13 94 -22 155 -44 174 -64 349 -199 428 -330 132 -219 171 -458 117
-723 -28 -140 -53 -216 -110 -333 -99 -200 -244 -365 -435 -492 -229 -152
-488 -254 -760 -299 -70 -12 -107 -16 -209 -21 -55 -3 -101 -7 -103 -8 -4 -4
-10 -83 -28 -357 -9 -127 -16 -233 -20 -280 -2 -25 -7 -90 -10 -145 -4 -55 -8
-120 -10 -145 -2 -25 -6 -90 -10 -144 -3 -55 -8 -104 -11 -108 -12 -20 12 -3
96 64 193 156 398 246 637 281 90 13 273 15 346 3 20 -3 54 -9 75 -12 62 -10
62 -8 31 -143 -16 -68 -31 -126 -33 -128 -2 -2 -33 1 -67 8 -91 16 -220 17
-317 2 -213 -34 -417 -140 -584 -305 -132 -132 -153 -163 -372 -583 -93 -176
-170 -322 -173 -325 -4 -5 -2 31 12 215 3 39 8 99 10 135 7 86 15 183 20 245
2 28 7 91 10 140 3 50 8 106 10 125 2 19 7 80 10 135 4 55 8 111 10 125 2 14
7 68 10 120 3 52 8 115 10 140 2 25 7 83 10 130 3 47 8 105 10 130 2 25 7 79
10 120 3 41 8 107 11 145 3 39 7 90 9 115 2 25 7 88 11 140 3 52 7 111 8 130
l1 35 -200 0 -200 -1 -1 -459 c-2 -526 -4 -568 -39 -722 -3 -13 -17 -55 -31
-95 -153 -424 -529 -712 -929 -710 -169 1 -305 32 -440 99 -205 102 -329 239
-426 468 -50 119 -71 363 -43 510 87 462 374 804 850 1013 144 64 327 119 449
137 22 3 46 8 52 10 13 4 173 16 252 19 44 1 45 2 47 36 1 19 5 71 8 115 4 44
9 109 11 145 3 36 7 94 10 130 3 36 8 92 10 125 3 33 7 85 10 115 2 30 7 93
10 140 3 47 8 103 10 125 3 22 7 81 10 130 3 50 8 100 10 113 5 31 -3 28 -60
-23 -141 -127 -354 -238 -546 -284 -120 -28 -160 -33 -288 -35 -116 -2 -190 5
-297 29 l-21 5 23 92 c13 51 26 110 30 131 l6 38 41 -5 c23 -4 65 -10 92 -14
63 -10 189 -7 274 8 202 34 404 143 572 310 115 114 172 197 268 390 40 80 76
152 81 160 4 8 45 90 91 182 45 92 86 165 91 162 5 -3 6 -8 4 -12z"/>
<path d="M4474 5344 c-33 -7 -89 -23 -126 -37 -251 -95 -452 -366 -494 -667
-8 -55 -11 -978 -4 -991 12 -19 163 -9 322 21 282 54 593 211 756 380 226 235
336 595 263 858 -54 196 -161 317 -347 395 -112 47 -262 64 -370 41z"/>
<path d="M2665 3343 c-185 -26 -342 -76 -517 -164 -333 -167 -531 -406 -609
-735 -42 -177 -20 -349 64 -507 64 -121 209 -225 374 -268 158 -41 333 -21
485 57 80 40 101 56 193 149 79 79 143 179 185 288 57 145 62 199 62 707 0
250 -1 463 -1 473 -1 16 -10 17 -74 15 -40 -1 -113 -8 -162 -15z"/>
</g>
</svg>
