<svg xmlns="http://www.w3.org/2000/svg" width="100mm" height="210mm" viewBox="0 0 283.46 595.28">
  <defs>
    <style>
      .cls-1 {
        fill: #f3cdb5;
      }

      .cls-2 {
        fill: #fff;
      }

      .cls-3 {
        fill: #1d1d1b;
      }

      .cls-4 {
        fill: #744631;
      }

      .cls-5 {
        fill: #203457;
      }

      .cls-6 {
        fill: #3c3c3b;
      }

      .cls-7 {
        fill: #635a2c;
      }

      .cls-8 {
        fill: #4a441e;
      }

      .cls-9 {
        fill: #abd3cc;
      }

      .cls-10 {
        fill: #7fada3;
      }

      .cls-11 {
        fill: #292b2a;
      }

      .cls-12 {
        fill: #313534;
      }

      .cls-13 {
        fill: #cd6c6d;
      }

      .cls-14 {
        fill: #b5565b;
      }

      .cls-15 {
        fill: #e8e8e8;
      }
    </style>
  </defs>
  <g id="Anton">
    <g>
      <path class="cls-1" d="M73.4,437.85l17.41,5s8.93,36.9,2.69,76.17c-2,12.73-21.63,10-17.77-1C83.08,497,79,438.48,73.4,437.85Z"/>
      <path class="cls-1" d="M118.62,437.85l17.41,5s8.93,36.9,2.68,76.17c-2,12.73-21.62,10-17.76-1C128.29,497,124.2,438.48,118.62,437.85Z"/>
      <path class="cls-1" d="M190.93,222.76c-4.62,20.43-24.66,33-53.27,26.52a55.25,55.25,0,0,1-14-4.66c-15.26-7.73-33.12-26.68-29.47-44.08C98.54,180,131,170,154.42,175.27,183,181.75,195.56,202.32,190.93,222.76Z"/>
      <ellipse class="cls-1" cx="131.93" cy="168.94" rx="41.61" ry="58.51"/>
      <circle class="cls-2" cx="161.05" cy="172.43" r="16.98"/>
      <circle class="cls-3" cx="166.49" cy="172.43" r="3.96"/>
      <circle class="cls-2" cx="137.46" cy="172.43" r="16.98"/>
      <circle class="cls-3" cx="145.62" cy="173.29" r="3.96"/>
      <g>
        <ellipse class="cls-4" cx="84.7" cy="212.6" rx="16.39" ry="13.16"/>
        <ellipse class="cls-4" cx="80.6" cy="199.44" rx="16.39" ry="13.16"/>
        <path class="cls-4" d="M76.1,197.14c0,7.26-7.34,13.16-16.39,13.16s-16.4-5.9-16.4-13.16,7.34-15.33,16.4-15.33S76.1,189.87,76.1,197.14Z"/>
        <ellipse class="cls-4" cx="86.02" cy="197.14" rx="13.16" ry="20.4" transform="translate(-67.34 46.33) rotate(-21.91)"/>
        <ellipse class="cls-4" cx="49.13" cy="172.2" rx="16.39" ry="13.16" transform="translate(-91.12 60.86) rotate(-35.63)"/>
        <ellipse class="cls-4" cx="45.46" cy="142.73" rx="16.53" ry="19.62" transform="translate(-102.31 118.18) rotate(-62.9)"/>
        <ellipse class="cls-4" cx="53.2" cy="122.41" rx="16.53" ry="19.62" transform="translate(-70.98 73.47) rotate(-45)"/>
        <ellipse class="cls-4" cx="90.56" cy="69.29" rx="32.22" ry="25.83" transform="translate(-21.06 46) rotate(-25.64)"/>
        <ellipse class="cls-4" cx="141.56" cy="73.24" rx="25.83" ry="32.22" transform="translate(55.24 207.23) rotate(-84.57)"/>
        <ellipse class="cls-4" cx="152.96" cy="97.77" rx="25.83" ry="32.22" transform="translate(41.14 240.78) rotate(-84.57)"/>
        <ellipse class="cls-4" cx="109.4" cy="105.61" rx="25.83" ry="32.22" transform="translate(-6.1 204.51) rotate(-84.57)"/>
        <ellipse class="cls-4" cx="83.46" cy="121.1" rx="25.83" ry="32.22" transform="translate(-45 192.71) rotate(-84.57)"/>
        <ellipse class="cls-4" cx="72.4" cy="143.96" rx="25.83" ry="32.22" transform="matrix(0.09, -1, 1, 0.09, -77.77, 202.4)"/>
        <ellipse class="cls-4" cx="71.62" cy="170.88" rx="23.52" ry="19.88" transform="translate(-102.59 233.98) rotate(-87.17)"/>
        <ellipse class="cls-4" cx="190.93" cy="85.3" rx="21.1" ry="22.75" transform="translate(87.94 267.29) rotate(-84.57)"/>
        <ellipse class="cls-4" cx="206.61" cy="111.37" rx="17.44" ry="19.96" transform="translate(76.17 306.5) rotate(-84.57)"/>
        <ellipse class="cls-4" cx="182.83" cy="122.77" rx="19.96" ry="17.44" transform="translate(51.17 299.32) rotate(-87.17)"/>
        <circle class="cls-4" cx="159.58" cy="126.04" r="13.54"/>
        <ellipse class="cls-4" cx="141.56" cy="127.63" rx="13.54" ry="11.28" transform="translate(7.1 262.71) rotate(-87.17)"/>
        <ellipse class="cls-4" cx="120.48" cy="133.26" rx="13.54" ry="11.28" transform="matrix(0.5, -0.87, 0.87, 0.5, -55.17, 170.97)"/>
        <ellipse class="cls-4" cx="104.29" cy="146.99" rx="13.54" ry="11.28" transform="translate(-51.92 236.89) rotate(-84.57)"/>
        <ellipse class="cls-4" cx="93.61" cy="165.13" rx="10.15" ry="13.54"/>
        <ellipse class="cls-4" cx="56.16" cy="97.77" rx="21.66" ry="25.67" transform="translate(-52.69 68.34) rotate(-45)"/>
      </g>
      <ellipse class="cls-1" cx="84.7" cy="187.72" rx="12.3" ry="11.72"/>
      <path class="cls-5" d="M65.62,398.72a40.25,40.25,0,0,1,2.84,16c-.34,9.46-4.22,15.48-.83,19.92.87,1.14,2,1.84,5.77,3.22,7.19,2.6,22.59,8.18,25.89,3.34.68-1,.29-3.81-.5-9.47-.84-6.05-1.59-7.89-.49-8.87,1.56-1.39,4.14,1.38,9.73,1.12,4.36-.21,5.83-2,7.06-1,1.88,1.52-1.24,6.15-1.15,14.92,0,3.9.06,5.84,1.4,7.53,2.5,3.14,7.45,2.88,16.35,2.29,7-.46,10.55-.7,12.45-2.59,3.36-3.34,2.29-8.89.9-18.44-1-6.63-2.22-16.13-3.34-27.92Z"/>
      <path class="cls-6" d="M158.25,226.88c-8.87-.42-10.94-1.17-16.7-4.48-3-1.71-9.42-6.72-10.54-9.78l1.85-.69c.81,2.2,6.52,6.94,9.68,8.76,5.5,3.16,7.32,3.81,15.81,4.21Z"/>
      <path class="cls-6" d="M162.6,204.39a13.38,13.38,0,0,1-6.32-1.79l.93-1.74c3.23,1.72,6.13,2,8.4.86a6.36,6.36,0,0,0,3.34-4.51c.13-1-.78-3.66-3-5.38a6,6,0,0,0-6.39-.68l-.76-1.83a8,8,0,0,1,8.36,1c2.56,2,4,5.33,3.74,7.21a8.26,8.26,0,0,1-4.39,6A8.61,8.61,0,0,1,162.6,204.39Z"/>
      <path class="cls-1" d="M105.34,229.36a74.57,74.57,0,0,1,1.13,12.77,76.38,76.38,0,0,1-.94,12.07,10.61,10.61,0,0,0,19.59,4.12,11.91,11.91,0,0,1-1.68-2.69c-2.12-4.78-.34-9.57.26-11Z"/>
      <g>
        <path class="cls-7" d="M96.11,280.25H24.32a1.17,1.17,0,0,0-1.16,1,408.92,408.92,0,0,0-4,43.67C17.82,360,22,369.24,28.07,374.71a29.92,29.92,0,0,0,12.68,6.57c10.6,2.53,17.34-2.41,31.93-5.16a94.68,94.68,0,0,1,23.43-1.41Z"/>
        <path class="cls-8" d="M24.23,280.27a1,1,0,0,0-1,.86,403.73,403.73,0,0,0-4.08,43.8c-1.34,35.11,2.92,44.31,9,49.78A30.33,30.33,0,0,0,41,381.28a1.42,1.42,0,0,0,.77,0c5.17-1.11,3.08-22.34,3.67-45.06.84-31.88,7.13-52.85,0-55.95-.89-.39-1.12-.12-8.64,0C31.61,280.38,27.29,280.33,24.23,280.27Z"/>
      </g>
      <g>
        <path class="cls-9" d="M32.07,231.28a103.7,103.7,0,0,0,23.81,6.33c11.37,1.55,19.55,4.71,25.22,6.06,11.39,2.72,13.37,4.79,17,9.06,1.38,1.61-4.15,3.17-5.49,4.63-13.29,14.4-9.5,23.41-21,24.09a190.11,190.11,0,0,1-21.4-.34c-7.47-.66-18.21.72-16.41-2.1,10.71-16.71,7.53-41.41,2-45.13Z"/>
        <path class="cls-10" d="M19.37,255.94c0,13.62,5.5,24.65,12.28,24.65,2.74,0,4.4.82,6.45-2.22,3-4.5,5.84-14.31,5.84-22.43,0-13.62-5.5-24.66-12.29-24.66S19.37,242.32,19.37,255.94Z"/>
        <path class="cls-11" d="M28.53,255.82a.4.4,0,0,1,.51-.25.41.41,0,0,1,.25.51.4.4,0,0,1-.51.25.25.25,0,0,1-.14-.08A.38.38,0,0,1,28.53,255.82Z"/>
        <path class="cls-11" d="M28.65,256.06a1.51,1.51,0,0,0-1.11.86C27.06,257.74,28.65,256.06,28.65,256.06Z"/>
        <path class="cls-11" d="M30.34,255.16a1.52,1.52,0,0,1-1.18.77C28.23,256.11,30.34,255.16,30.34,255.16Z"/>
        <path class="cls-11" d="M29,255.57a2.4,2.4,0,0,1-.5-2C28.79,252.3,29,255.57,29,255.57Z"/>
        <path class="cls-11" d="M29.29,256.08a6.93,6.93,0,0,0,1.2,3.27C31.57,260.81,29.29,256.08,29.29,256.08Z"/>
        <path class="cls-12" d="M49.13,236.42l1.48.25c.46.08,5,11.56,5.4,20.47a194.74,194.74,0,0,1-.6,24.32c0,.19-.15-.14-1-.07-1.29.11,1.46-10.8-.2-27.48a54.23,54.23,0,0,0-2.67-11.76C50.84,240,49.66,238.4,49.13,236.42Z"/>
        <path class="cls-12" d="M86.55,261.9c-2.67-14.15-4.13-18.09-5-18.25l-1.49-.25h0a50.7,50.7,0,0,1,5.12,17.48c.09.63.18,1.26.26,1.88"/>
      </g>
      <path class="cls-13" d="M125.12,258.32a10.35,10.35,0,0,1-5,4.6c-4.69,1.91-9.13-.79-9.84-1.23-4.65-2.94-3.43-7-6.55-8.49-7.25-3.53-22.31,13.95-23.21,15a69,69,0,0,0-8.83,13.24c-3.8,17.85-7.22,37.38-9.81,58.42-2.45,19.89-3.86,38.64-4.55,56a208.9,208.9,0,0,0,89.26,11.84,159,159,0,0,0,2-19.94c.3-6.41-2.16-13.23,0-23,2.31-10.54,3.41-23.8,3.6-39.18.05-4.67,2.33-17.58-.13-33.82a61.07,61.07,0,0,0-7.17-21.33c-4.28-7.55-7.93-9.86-10.6-10.95A18.37,18.37,0,0,0,125.12,258.32Z"/>
      <path class="cls-7" d="M55.41,366.52q.2-3.87.37-7.75c1.66-.12,32-3,45.47-29.76,8.17-16.25,8.28-37.74-2.8-53.19a44.55,44.55,0,0,0-13.75-12.4l9.72-8A66.18,66.18,0,0,1,109,277.22c1.7,4.19,14.82,37-5.25,64.39C86.86,364.55,59.39,366.33,55.41,366.52Z"/>
      <path class="cls-7" d="M144.53,360.31q-.25-5.25-.52-10.5c-5.06-1.63-9.4-85.35-5.54-87.69l-4.24-2.65C128.9,268.3,133.31,349.85,144.53,360.31Z"/>
      <path class="cls-1" d="M101.12,404.84a8.1,8.1,0,0,1-1.94,6.83A7.84,7.84,0,0,1,90.44,413c-3.75-1.79-5.79-7-4.06-12.19.28-1.94.68-4.72,1.15-8.08.91-6.55,1-7.74,1.13-9a77.71,77.71,0,0,0-.13-10.17c-.38-7.28-.71-10-.92-13.54-.47-8,.41-10.68.3-17.65a156.33,156.33,0,0,0-2.09-23.12l15.3,5.37c-.64,13.19-.64,23.77-.5,31.21.16,8.91.46,10.52,0,15.44-.92,9.76-3.1,14-2.4,22A38.81,38.81,0,0,0,101.12,404.84Z"/>
      <path class="cls-1" d="M147.94,380.41c-.45-1.72-1.09-4.13-1.93-7-.71-2.43-1.27-4.17-1.36-4.45-1.47-4.67-1-11.17-1.11-17.87-.22-10.74.39-21.31.39-21.31.35-4.19.16-10.2,1.2-17.34,3.46,0,4.48-.9,7.94-.87,0,8.1-.47,17.56-.79,26.75C151.73,354,151.38,368.17,147.94,380.41Z"/>
      <path class="cls-14" d="M92.45,280.74c-7.64,2.85-11.13,17.93-8.51,38.15l20.55,6.68c4.76-22.45,3-40.33-5.19-44.4A9.12,9.12,0,0,0,92.45,280.74Z"/>
      <path class="cls-14" d="M144.53,316.63c1.31.82,0,.31,3.2.76a17.42,17.42,0,0,0,6.52-.31,86.56,86.56,0,0,0-1.59-24.14c-3.25-15.42-10.49-28.52-11.6-28.13-.56.2.83,3.63,1.61,10.78C142.93,277.93,145.33,309.11,144.53,316.63Z"/>
      <g>
        <ellipse class="cls-15" cx="104.05" cy="553.39" rx="16.27" ry="42.56" transform="translate(-373.44 254.94) rotate(-47.34)"/>
        <path class="cls-12" d="M135.35,582.22c-8.22,5.1-10.32.9-26-6.36-6.66-3.08-24.68-21.54-28.26-26.54-7.9-11-12.55-20.23-8.36-24.77,3.25-3.53,10.14-3,18.78-1.6,7.88,1.27,14.79,11.91,23.54,18.47C133.88,555.51,143,577.49,135.35,582.22Z"/>
        <rect class="cls-12" x="86.76" y="516.44" width="13.35" height="16.12" rx="1.94"/>
      </g>
      <g>
        <ellipse class="cls-15" cx="161.35" cy="539.99" rx="16.43" ry="44.47" transform="translate(-402.18 532.41) rotate(-72.59)"/>
        <path class="cls-12" d="M203.73,553.46c-5.66,8.08-9.49,5.1-27.59,4.93-7.7-.07-32.89-9.53-38.48-12.63-12.32-6.83-20.74-13.34-18.7-19.24,1.59-4.58,8.42-6.94,17.27-9.24,8.08-2.1,19.29,4.79,30.49,7.18C190.79,529.59,209,546,203.73,553.46Z"/>
        <path class="cls-12" d="M141.81,526.12l-5.9-.1a4.11,4.11,0,0,1-4.07-4l-.14-8.53a3.82,3.82,0,0,1,4-3.84l5.89.09a4.11,4.11,0,0,1,4.07,4l.14,8.54A3.81,3.81,0,0,1,141.81,526.12Z"/>
      </g>
      <path class="cls-6" d="M122.16,158a.8.8,0,0,1-.36-.26c-.21-.35-.39-.61,0-1.08A22.09,22.09,0,0,1,131.83,149s5.11-1.83,13.47.64c.16,0,.62.18.72.51a.61.61,0,0,1-.32.82c-1.26.77-8.81-2-13.58-.4S123,158.25,122.16,158Z"/>
      <path class="cls-6" d="M170.5,146.94c-2.27-.3-6.33-1.29-9.15-.35-3.84,1.21-7.15,6.08-7.85,5.86a.69.69,0,0,1-.28-.2c-.17-.28-.31-.48,0-.85a17.45,17.45,0,0,1,7.93-6.05s3.34-1.19,8.92.06"/>
    </g>
  </g>
</svg>
