<svg xmlns="http://www.w3.org/2000/svg" width="240mm" height="420mm" viewBox="0 0 680.31 1190.55">
  <defs>
    <style>
      .cls-1 {
        fill: #f3cdb5;
      }

      .cls-2 {
        fill: #fff;
      }

      .cls-3 {
        fill: #1d1d1b;
      }

      .cls-4 {
        fill: #744631;
      }

      .cls-5 {
        fill: #203457;
      }

      .cls-6 {
        fill: #3c3c3b;
      }

      .cls-7 {
        fill: #cd6c6d;
      }

      .cls-8 {
        fill: #b5565b;
      }

      .cls-9 {
        fill: #e8e8e8;
      }

      .cls-10 {
        fill: #313534;
      }
    </style>
  </defs>
  <g id="Inde_i_bussen" data-name="Inde i bussen">
    <g id="a8H7DY.tif">
      <g>
        <path class="cls-1" d="M283.33,964.79l42-16.16s84.06,57.54,143.76,142.06c19.36,27.4-22.72,51-35.46,24.26C409.35,1063.94,295,957.74,283.33,964.79Z"/>
        <path class="cls-1" d="M368.73,897.93l41-17.17c46.08,25.31,59.6,48.56,62.93,65.72,2.71,14,.33,12.17,7.4,49.76,6.89,36.6,13.61,51.77,3.88,61-6.1,5.76-17.07,7.71-24.35,4.51-10-4.38-11.44-17.72-13.59-40-5.9-60.74-5.4-62-7.09-69.25C435.27,936.87,420.38,916.46,368.73,897.93Z"/>
        <path class="cls-1" d="M474.48,393.53c-4.78,47.25-50.23,81.38-123.07,75.31-6.92-.58-20.06-1.24-36-6.32-40.24-12.83-90.57-50.08-87.22-90.22,4-47.36,81-79.51,140.55-74.54C441.56,303.83,479.26,346.29,474.48,393.53Z"/>
        <ellipse class="cls-1" cx="311.06" cy="290.2" rx="103.53" ry="132.78" transform="matrix(0.98, -0.18, 0.18, 0.98, -47.67, 61.53)"/>
        <ellipse class="cls-2" cx="384.18" cy="289.42" rx="42.34" ry="38.44"/>
        <ellipse class="cls-3" cx="397.63" cy="287.8" rx="9.87" ry="8.96"/>
        <ellipse class="cls-2" cx="325.87" cy="296.4" rx="42.34" ry="38.44"/>
        <ellipse class="cls-3" cx="346.32" cy="295.92" rx="9.87" ry="8.96"/>
        <g>
          <ellipse class="cls-4" cx="208.52" cy="402.19" rx="40.84" ry="29.83" transform="translate(-35.47 20.48) rotate(-5.18)"/>
          <ellipse class="cls-4" cx="194.1" cy="373.86" rx="40.84" ry="29.83" transform="translate(-32.97 19.06) rotate(-5.18)"/>
          <path class="cls-4" d="M182.22,370c2.37,16.32-13.86,31.72-36.25,34.4s-42.45-8.38-44.82-24.69,13.15-36.58,35.53-39.26S179.85,353.7,182.22,370Z"/>
          <ellipse class="cls-4" cx="206.73" cy="367.08" rx="31.92" ry="47.51" transform="translate(-175.61 190.16) rotate(-35.78)"/>
          <ellipse class="cls-4" cx="107.39" cy="322.02" rx="39.47" ry="30.87" transform="translate(-152.09 103.16) rotate(-31.41)"/>
          <ellipse class="cls-4" cx="88.72" cy="256.96" rx="37.69" ry="48.58" transform="translate(-181.37 287.73) rotate(-77.45)"/>
          <ellipse class="cls-4" cx="101.23" cy="209.06" rx="38.38" ry="47.71" transform="translate(-131 213.85) rotate(-65.34)"/>
          <ellipse class="cls-4" cx="176.28" cy="78.75" rx="78.64" ry="59.75" transform="translate(-16.79 77.13) rotate(-23.59)"/>
          <ellipse class="cls-4" cx="303.67" cy="72.53" rx="80.34" ry="58.49" transform="translate(-1.72 7.62) rotate(-1.43)"/>
          <ellipse class="cls-4" cx="339.84" cy="124.2" rx="80.34" ry="58.49" transform="translate(-3 8.54) rotate(-1.43)"/>
          <ellipse class="cls-4" cx="234.69" cy="154.71" rx="80.34" ry="58.49" transform="translate(-3.8 5.92) rotate(-1.43)"/>
          <ellipse class="cls-4" cx="175.62" cy="197.15" rx="80.34" ry="58.49" transform="translate(-4.88 4.46) rotate(-1.43)"/>
          <ellipse class="cls-4" cx="155.73" cy="251.74" rx="80.34" ry="58.49" transform="translate(-6.25 3.98) rotate(-1.43)"/>
          <ellipse class="cls-4" cx="162.59" cy="312.41" rx="49.51" ry="53.33" transform="translate(-55.85 36.15) rotate(-10.84)"/>
          <ellipse class="cls-4" cx="429.66" cy="84.96" rx="56.74" ry="47.79" transform="translate(-1.29 6.81) rotate(-0.91)"/>
          <ellipse class="cls-4" cx="476.92" cy="138.86" rx="49.77" ry="39.49" transform="translate(-2.81 10.06) rotate(-1.2)"/>
          <ellipse class="cls-4" cx="421.85" cy="171.49" rx="43.39" ry="45.29" transform="translate(-30.5 119.1) rotate(-15.52)"/>
          <ellipse class="cls-4" cx="365.42" cy="185.72" rx="33.76" ry="30.65"/>
          <ellipse class="cls-4" cx="321.4" cy="194.6" rx="28.08" ry="30.69" transform="translate(-28.46 57.62) rotate(-9.81)"/>
          <ellipse class="cls-4" cx="271.12" cy="213.5" rx="31.39" ry="27.46" transform="translate(-64.07 295.59) rotate(-51.98)"/>
          <ellipse class="cls-4" cx="235.55" cy="249.11" rx="28.11" ry="30.66" transform="translate(-18.46 18.85) rotate(-4.41)"/>
          <ellipse class="cls-4" cx="215.08" cy="292.99" rx="25.26" ry="30.73" transform="translate(-53.1 47.67) rotate(-11.27)"/>
          <ellipse class="cls-4" cx="100.5" cy="152.86" rx="50.3" ry="62.43" transform="translate(-80.31 180.72) rotate(-65.44)"/>
        </g>
        <ellipse class="cls-1" cx="200.41" cy="346.34" rx="30.66" ry="26.54" transform="translate(-14.9 9.06) rotate(-2.5)"/>
        <path class="cls-5" d="M204.9,909.2c16.2,7.92,25.79,16.86,31.41,23.22,14.76,16.72,17.24,32.77,30.88,35.39,3.49.67,6.67.26,16.14-3,17.8-6.17,56-19.38,54.34-32.55-.34-2.7-5.68-7-16.36-15.5-11.45-9.14-15.87-11.18-15.39-14.49.67-4.69,10.06-3.76,20.2-12.47,7.9-6.8,7.71-12.1,11.63-12.21,6.05-.18,7.67,12.37,22.13,27.28,6.43,6.62,9.64,9.93,14.91,10.84,9.84,1.69,18.76-6.07,34.61-20.24,12.53-11.21,18.79-16.81,19.31-22.87.91-10.69-10.16-18.62-28.34-32.94-12.61-9.94-30.46-24.37-51.78-42.95-2.83-2.31-47.31-37.6-91.53-25C211.36,784.79,179,845.33,204.9,909.2Z"/>
        <path class="cls-6" d="M395,412.46c-22.07,1.69-27.44.62-42.75-5.1-7.95-3-25.48-12.31-29.27-18.84l4.36-2.09c2.73,4.7,18.39,13.65,26.78,16.79,14.63,5.46,19.34,6.39,40.46,4.78Z"/>
        <path class="cls-6" d="M398.44,360.7c-4.29.51-9.64.09-16.21-2.14l1.72-4.2c8.56,2.9,15.84,2.72,21.06-.56a14,14,0,0,0,6.78-11.1c0-2.21-3.12-8-9.17-11.18-5.09-2.69-10.48-2.57-16,.34L384.12,328c9-4.71,16.35-2.79,21-.34,7,3.68,11.66,10.77,11.62,15.08a18.27,18.27,0,0,1-8.91,14.76A22.66,22.66,0,0,1,398.44,360.7Z"/>
        <path class="cls-1" d="M265,433.7A157.31,157.31,0,0,1,272,462a154.55,154.55,0,0,1,1.59,27.37c2.92,9.73,12.23,16.81,23.22,17.7,11.22.91,21.95-4.83,26.57-14.24a27.32,27.32,0,0,1-5-5.55c-6.81-10.09-4-21.38-3-24.79Z"/>
        <path class="cls-1" d="M382.63,804.92c-.14.88-1.36,9.47,5.45,15.29,6.47,5.52,16,5,21.92,2.18,9.16-4.36,13.76-16.26,9-27.93-.88-4.36-2.13-10.62-3.62-18.19-2.89-14.73-3.31-17.42-3.66-20.33-.64-5.37-.84-10.1-.63-23,.28-16.49.84-22.63,1-30.7.42-18.05-2-24.13-2.4-39.91a322.57,322.57,0,0,1,3.05-52.51l-37.62,13.47c2.82,29.78,3.8,53.73,4.16,70.56.43,20.18-.17,23.85,1.45,34.95,3.19,22,9,31.5,8,49.58A81.76,81.76,0,0,1,382.63,804.92Z"/>
        <path class="cls-7" d="M323.36,492.86a24,24,0,0,1-10.94,11.81c-11,5.67-22.83.94-24.72.14-12.47-5.22-10.75-14.61-19-17.11-19.07-5.78-50.61,37.93-52.49,40.58a150.13,150.13,0,0,0-17.5,32.32c-3.6,41.2-5.66,86-5.21,134,.42,45.39,3,87.88,7,127.1,61.28-4.2,95.18,3.13,115,11.19A133,133,0,0,0,355,843.15a135.52,135.52,0,0,0,45.33-3.51c-.55-7.71-1.31-18.9-2-32.41-2.13-41-3.25-62.64-1.88-84.66,3-48-7.26-61.16-6.11-104.56.22-8,22.34-20.88,10.35-58.08-6.45-20-11-33.48-24.68-45.75C357.55,497.61,334.27,493.9,323.36,492.86Z"/>
        <path class="cls-1" d="M311.79,828.87c.3.85,3.09,9.13-2.55,15.9-5.36,6.43-14.88,7.36-21.21,5.49-9.83-2.9-16.57-13.93-14-26.17.06-4.43.14-10.79.2-18.48.13-15,0-17.68-.15-20.6-.36-5.39-1-10.08-3.63-22.8-3.32-16.21-5-22.18-6.69-30.1-3.75-17.74-2.46-24.1-5-39.72A328.64,328.64,0,0,0,246,641.1l39.57,7.54c2.73,29.78,6.19,53.55,8.94,70.19,3.31,20,4.58,23.49,5,34.68.91,22.17-3.09,32.43,1.24,50.1A84.3,84.3,0,0,0,311.79,828.87Z"/>
        <path class="cls-8" d="M249.9,552.86c-18,8.65-21.68,43.54-8.6,88.16l53,8.91c4.46-51.82-5.83-91.42-27.31-98.13C266,551.49,257.79,549.06,249.9,552.86Z"/>
        <path class="cls-8" d="M384.39,524.64c-4.73.66-3.67,29.57-2.67,43.1A267.21,267.21,0,0,0,390.37,618c3.5,1.45,0,.7,8.15.76a48,48,0,0,0,16-2.63c-5-24.82-12.73-57.42-23.51-81.93C389,529.6,386.47,524.35,384.39,524.64Z"/>
        <g>
          <ellipse class="cls-9" cx="538.35" cy="1071.97" rx="32.23" ry="97.21" transform="translate(-541.76 1593.79) rotate(-89.12)"/>
          <path class="cls-10" d="M635.54,1073.85c-6.89,18.33-16.75,14.84-54.81,24.55-16.19,4.12-74.86.28-88.49-2.46-30-6-51.71-13.63-51.07-25.86.5-9.5,13.37-17.72,30.51-26.95,15.65-8.43,43.39-1.66,68.36-3.37C593.68,1036.09,641.94,1056.83,635.54,1073.85Z"/>
          <path class="cls-10" d="M483.71,1059.14l-12.88-.39c-4.84-.14-8.75-3.68-8.74-7.9l0-16.76c0-4.22,3.93-7.52,8.77-7.38l12.88.38c4.83.15,8.75,3.69,8.74,7.91l0,16.75C492.47,1056,488.55,1059.28,483.71,1059.14Z"/>
        </g>
        <g>
          <ellipse class="cls-9" cx="546.81" cy="1129.66" rx="36.84" ry="106.13" transform="translate(-598.22 1643.51) rotate(-88.34)"/>
          <path class="cls-10" d="M652.89,1132.83c-7.23,20.89-18,16.79-59.43,27.5-17.6,4.56-81.69-.45-96.6-3.72-32.88-7.22-56.64-16.13-56.14-30.11.4-10.86,14.31-20.13,32.88-30.51,16.94-9.48,47.33-1.45,74.54-3.15C606.62,1089.2,659.61,1113.42,652.89,1132.83Z"/>
          <path class="cls-10" d="M499.53,1094.88l-21.69,17a2.49,2.49,0,0,1-3.28-.22l-23.22-24.44a2,2,0,0,1,.25-3l21.69-17a2.48,2.48,0,0,1,3.28.22l23.21,24.44A2,2,0,0,1,499.53,1094.88Z"/>
        </g>
        <path class="cls-6" d="M283.33,268.46a2,2,0,0,1-1-.47c-.65-.73-1.17-1.26-.45-2.41a53,53,0,0,1,22.38-20.21s12-5.61,33.52-2.56c.41.06,1.58.23,1.94.95a1.31,1.31,0,0,1-.51,1.93c-2.88,2.1-22.44-1.83-33.72,3.12C294,253.72,285.6,268.83,283.33,268.46Z"/>
        <path class="cls-6" d="M399.24,229.39c-5.7,0-16.06-1-22.74,1.92-9.09,3.87-15.7,15.77-17.49,15.48a1.55,1.55,0,0,1-.76-.37c-.51-.57-.92-1-.36-1.9a41.73,41.73,0,0,1,17.64-15.92s7.88-3.67,22.08-2.5"/>
      </g>
    </g>
  </g>
</svg>
