<svg xmlns="http://www.w3.org/2000/svg" width="80mm" height="170mm" viewBox="0 0 226.77 481.89">
  <defs>
    <style>
      .cls-1 {
        fill: #353537;
      }

      .cls-2 {
        fill: #f3cdb5;
      }

      .cls-3 {
        fill: #476144;
      }

      .cls-4 {
        fill: #9f9f9f;
      }

      .cls-5 {
        fill: #f1f2f0;
      }

      .cls-6 {
        fill: #3a3a3e;
      }

      .cls-7 {
        fill: #1d1d1b;
      }

      .cls-8 {
        fill: #2a2a2d;
      }
    </style>
  </defs>
  <g id="Inde_i_bussen" data-name="Inde i bussen">
    <g>
      <path class="cls-1" d="M16.57,446.53a442.27,442.27,0,0,0,88,20.94c11.85,1.54,47.21,5.66,81.59-6,7.71-2.63,16.65-6.48,22.07-15.44,8.08-13.33,3.06-29.19,1.52-33.55a353.74,353.74,0,0,1-3.84-67.32c1.25-32.5,6.39-48.27,8.12-68.41,2.19-25.43-3.7-72-28-119.73-48.16-3.43-93.28,2.76-141.44-.67-18.8,33.86-24.26,62.3-25.69,82.32-2.6,36.48,8.2,44.9,1.45,81.15C16.26,342,10.32,349,3.61,386.09c-2.78,15.42-5.42,34.47,5,51A47.41,47.41,0,0,0,16.57,446.53Z"/>
      <path class="cls-2" d="M75.41,270l14.45-.9-.71-11.41-14.46.9Z"/>
      <g>
        <path class="cls-3" d="M74.93,264.46c-2.55-16.95-1.61-20-4.46-28.77a70.11,70.11,0,0,0-3.88-9.46q-1-2-1.94-4.2c-.51-1.2-1-2.36-1.43-3.5-1.2-3.09-2-5.85-4.88-16.76-.58-2.17-.69-4.49-1.42-6.61a7.26,7.26,0,0,1-.42-3.75,4.1,4.1,0,0,1,.15-.61c.26-1,.1-2.69-1.77-6-1.05,0-2.55,0-4.36.17-3.15.24-3.63.52-4,.88-1.77,1.76-1.51,6.25-.51,6.79a.54.54,0,0,0,.43,0q.42,4.95.74,10.11c.36,5.85.59,11.52.72,17-.53,4.13-1,7.78-1.36,10.82a72.31,72.31,0,0,0-.84,9.11,51.71,51.71,0,0,0,1.09,9.9c1.06,6.14,1.62,12.35,2.44,18.52.77,5.87,1.89,11.7,2.59,17.58.67,5.55.76,7.59,2.3,9.25.57.61,2.24,2.15,11.57.91,7.33-1,11-1.51,12.37-4.35,1-2.2.36-4.33-.76-10.27C76.28,275.71,75.77,270.06,74.93,264.46Z"/>
        <path class="cls-4" d="M57,186.28c.21,1.41-1.89.72-5.89,1.32s-6.75,2.19-6.66.79c.25-3.5,2.33-3.82,6.33-4.42S56.64,183.72,57,186.28Z"/>
        <path class="cls-5" d="M64.81,249.82a4.58,4.58,0,0,0,1.08-3.58c-.42-2.78-3.53-4.62-7-4.1s-5.86,3.18-5.45,6A4.53,4.53,0,0,0,55.25,251c-3.48,3.79-5.16,11.37-3.91,19.71C53,282,59.48,290.4,65.73,289.46S75.67,278.6,74,267.3C72.76,259.18,69.1,252.56,64.81,249.82Z"/>
        <path class="cls-5" d="M62.2,215.45a12.18,12.18,0,0,0-4.81,0c-6.31,1.34-9.59,7.45-10.39,9l1.26,7.61a48.15,48.15,0,0,1,7.83-5.75l.34-.2a44.27,44.27,0,0,1,8.31-3.7Z"/>
      </g>
      <g>
        <path class="cls-2" d="M46.86,121c20.31,36.33,39,57.68,52,51.46,10.63-5.08,26.42-14.18,35.21-20.72,14.65-10.88,19.94-19,19.06-38.64A56.87,56.87,0,0,0,93.8,58.85c-15.44.69-21.53,8.84-33.09,19.79C48.78,90,39.07,107.1,46.86,121Z"/>
        <path class="cls-6" d="M43.56,100.65c3.87-31.17,8.13-65.57,37-83,26.17-15.79,61-10.61,83.69,4.72,39.62,26.75,43.23,84.93,27.84,123.6-18.31,46-70.69,82.44-104.93,69.81C74,211,66.66,200,59.56,189.47,37.21,156.2,41.3,118.89,43.56,100.65ZM47.86,121c20.31,36.33,39,57.68,52,51.46,10.63-5.08,26.42-14.18,35.21-20.72,14.65-10.88,19.94-19,19.06-38.64A56.87,56.87,0,0,0,94.8,58.85c-15.44.69-21.53,8.84-33.09,19.79C49.78,90,40.07,107.1,47.86,121Z"/>
        <rect class="cls-7" x="39.2" y="97.43" width="51" height="40.17" rx="1.97" transform="translate(134.61 232.02) rotate(177.43)"/>
        <path class="cls-2" d="M50.63,191.48h0c.54.51,5,.55,8.93-2,15.89-10.38,50.63-41.33,50.63-41.33,4.47-4.74,3.68-12.76-1.78-17.9h0c-5.45-5.15-13.5-5.47-18-.73C88.4,127,40.63,179.83,50.63,191.48Z"/>
        <rect class="cls-7" x="95.63" y="93.9" width="51" height="40.17" rx="1.97" transform="translate(247.25 222.43) rotate(177.43)"/>
        <path class="cls-8" d="M124.53,272.44c9.74-1.12,11.31-.15,21.11-1.91,10.26-1.83,15.53-2.77,22.19-5.91a62.77,62.77,0,0,0,23.08-18.94c1.67-2.21.15-.52,9-15,4.85-7.95,6.53-10.24,6.75-14a20.71,20.71,0,0,0-5.11-14.65L199,199.23a20.27,20.27,0,0,0-28.62-1.64A78.28,78.28,0,0,1,157.87,220c-24.92,31-66,32.08-74.46,32.13-.92,16.92,3,22.95,6.9,25.25C96.55,281.09,102.33,275,124.53,272.44Z"/>
        <ellipse class="cls-2" cx="61.54" cy="263.77" rx="14.15" ry="16.37" transform="translate(-208.66 282.51) rotate(-80.84)"/>
        <path class="cls-8" d="M96.31,167.29c3.28-3.63,6.88-5.72,8-4.67s-.55,4.84-3.83,8.47-6.88,5.73-8,4.68S93,170.92,96.31,167.29Zm2.77,4.07c1.86-2.07,2.84-4.23,2.18-4.83s-2.71.6-4.58,2.67-2.85,4.23-2.19,4.83S97.21,173.43,99.08,171.36Z"/>
        <path class="cls-8" d="M92.16,166.23c-2.85-4-6.2-6.46-7.47-5.54s0,4.87,2.86,8.85,6.2,6.46,7.47,5.54S95,170.21,92.16,166.23ZM89,170c-1.63-2.27-2.36-4.52-1.64-5s2.63.89,4.26,3.15,2.36,4.53,1.63,5S90.58,172.23,89,170Z"/>
        <rect class="cls-7" x="89.92" y="117.53" width="6.55" height="2.92" transform="translate(191.63 233.68) rotate(177.43)"/>
      </g>
    </g>
  </g>
</svg>
