<svg xmlns="http://www.w3.org/2000/svg" width="100mm" height="210mm" viewBox="0 0 283.46 595.28">
  <defs>
    <style>
      .cls-1 {
        fill: #2a2a2d;
      }

      .cls-2 {
        fill: #353537;
      }

      .cls-3 {
        fill: #f3cdb5;
      }

      .cls-4 {
        fill: #3a3a3e;
      }

      .cls-5 {
        fill: #1d1d1b;
      }

      .cls-6 {
        fill: #e8e8e8;
      }

      .cls-7 {
        fill: #313534;
      }
    </style>
  </defs>
  <g id="Mysteriusman">
    <g>
      <path class="cls-1" d="M121.88,496.93l18.05,1.32q.09-29.72,1.52-61.47.92-19.54,2.32-38.26H125.11l1.31,13.53q-.37,31.72-.76,63.46ZM77.32,475.51A136.35,136.35,0,0,1,75,454.63c-.16-5.45.28-10.76,1.15-21.15,1.53-18.22,2.51-21.84,2-30.21a89,89,0,0,0-2.5-16l18,8.29c-6.26,20.79-6.73,35.38-6.2,44.27.24,4,.6,5.53,1.65,18.68.73,9.1,1,14.27,2.57,21.54.92,4.32,1.93,7.79,2.65,10l-11.54,6.05A142.41,142.41,0,0,1,77.32,475.51Z"/>
      <path class="cls-2" d="M46.34,380.41a347.49,347.49,0,0,0,68.28,19.51c9.24,1.63,36.83,6.1,64.19-1.87,6.14-1.79,13.29-4.5,17.86-11.33,6.8-10.17,3.42-22.78,2.36-26.26a277.87,277.87,0,0,1-.64-52.92c2.12-25.45,6.7-37.63,8.77-53.36,2.62-19.87-.36-56.63-17.71-94.87-37.65-4.39-73.24-1.11-110.89-5.5-15.94,25.89-21.22,48-23,63.65C52.2,246,60.37,253,53.8,281.14c-4,17.25-8.93,22.57-15.49,51.41-2.73,12-5.46,26.84,2.15,40.15A37.3,37.3,0,0,0,46.34,380.41Z"/>
      <path class="cls-3" d="M81.54,126.21c14.65,29.21,28.57,46.6,39,42.19,8.52-3.61,21.21-10.2,28.34-15,11.87-8,16.31-14.23,16.31-29.64a44.65,44.65,0,0,0-44.65-44.64c-12.13,0-17.19,6.17-26.64,14.36C84.14,101.92,75.92,115,81.54,126.21Z"/>
      <path class="cls-4" d="M78.88,110.09c.83-25.47,8.29-58,31.92-63.78,18.87-4.59,42.62-10.77,58.7-5.46C203.24,52,213,110,193.74,150.85c-18.84,40-47.09,58.87-82.3,53.57S77.2,162.07,78.88,110.09Zm2.66,16.12c14.65,29.21,28.57,46.6,39,42.19,8.52-3.61,21.21-10.2,28.34-15,11.87-8,16.31-14.23,16.31-29.64a44.65,44.65,0,0,0-44.65-44.64c-12.13,0-17.19,6.17-26.64,14.36C84.14,101.92,75.92,115,81.54,126.21Z"/>
      <rect class="cls-5" x="75.64" y="108.33" width="40.04" height="31.53" rx="1.97" transform="translate(191.31 248.19) rotate(180)"/>
      <path class="cls-3" d="M82,181.6h0c.41.42,3.9.61,7.07-1.27,12.83-7.57,41.16-30.62,41.16-30.62,3.67-3.56,3.33-9.88-.77-14.1h0c-4.09-4.23-10.39-4.77-14.07-1.21C113.9,132.36,74.58,172.11,82,181.6Z"/>
      <rect class="cls-5" x="119.98" y="108.33" width="40.04" height="31.53" rx="1.97" transform="translate(279.99 248.19) rotate(180)"/>
      <path class="cls-3" d="M96.73,295.87l10.76-3.66-2.9-8.5-10.76,3.67Z"/>
      <path class="cls-1" d="M136,286c7.14-2.86,8.54-2.45,15.59-5.8,7.39-3.51,11.19-5.31,15.59-9.06a49.29,49.29,0,0,0,13.57-19.11c.81-2,0-.42,3.71-13.21,2-7,2.84-9.1,2.23-12a16.24,16.24,0,0,0-6.89-10l-2.5-1.63a15.91,15.91,0,0,0-22,4.67,61.86,61.86,0,0,1-4.86,19.56c-12.47,28.63-43.37,37.92-49.76,39.7,2.79,13,7,16.76,10.44,17.7C116.59,298.35,119.71,292.56,136,286Z"/>
      <ellipse class="cls-3" cx="85.67" cy="289.43" rx="11.11" ry="12.85" transform="translate(-215.2 313.63) rotate(-78.11)"/>
      <path class="cls-1" d="M118.69,164.24c2.7-2.74,5.6-4.25,6.47-3.39s-.6,3.78-3.3,6.52-5.6,4.24-6.48,3.38S116,167,118.69,164.24Zm2,3.29c1.53-1.56,2.38-3.22,1.88-3.71s-2.15.37-3.69,1.92-2.38,3.22-1.88,3.72S119.18,169.08,120.72,167.53Z"/>
      <path class="cls-1" d="M115.44,164.05c-2.1-3.22-4.64-5.29-5.67-4.62s-.16,3.83,1.94,7,4.63,5.28,5.66,4.61S117.54,167.26,115.44,164.05Zm-2.65,2.81c-1.19-1.83-1.69-3.63-1.1-4s2,.79,3.23,2.63,1.69,3.63,1.1,4S114,168.7,112.79,166.86Z"/>
      <rect class="cls-5" x="115.13" y="130.59" width="5.14" height="2.29" transform="translate(235.4 263.48) rotate(180)"/>
      <g>
        <ellipse class="cls-6" cx="116.09" cy="524.13" rx="40.29" ry="14.88" transform="translate(-333.17 230.28) rotate(-44.32)"/>
        <path class="cls-7" d="M87.38,552.39c7.88,4.2,9.75.22,24.3-7.34,6.19-3.21,22.67-21.18,25.91-26,7.14-10.57,11.27-19.28,7.21-23.21-3.16-3.05-9.65-2.15-17.74-.38-7.39,1.62-13.61,11.78-21.68,18.3C88,527.8,80.06,548.49,87.38,552.39Z"/>
        <path class="cls-7" d="M122.35,502.58l5.35,0a3.73,3.73,0,0,0,3.76-3.51l.28-7.73a3.44,3.44,0,0,0-3.49-3.55l-5.35,0a3.72,3.72,0,0,0-3.76,3.51l-.28,7.73A3.44,3.44,0,0,0,122.35,502.58Z"/>
      </g>
      <g>
        <ellipse class="cls-6" cx="72.43" cy="520.93" rx="40.29" ry="14.88" transform="translate(-343.36 198.86) rotate(-44.32)"/>
        <path class="cls-7" d="M43.72,549.19c7.89,4.2,9.75.22,24.31-7.33,6.19-3.22,22.66-21.19,25.9-26,7.15-10.57,11.28-19.29,7.21-23.21-3.16-3.06-9.64-2.16-17.74-.39-7.38,1.62-13.61,11.78-21.68,18.3C44.38,524.6,36.4,545.29,43.72,549.19Z"/>
        <path class="cls-7" d="M78.7,499.38l5.34,0a3.72,3.72,0,0,0,3.76-3.51l.29-7.73a3.45,3.45,0,0,0-3.5-3.55l-5.34,0a3.72,3.72,0,0,0-3.76,3.51l-.29,7.73A3.45,3.45,0,0,0,78.7,499.38Z"/>
      </g>
    </g>
  </g>
</svg>
