<svg xmlns="http://www.w3.org/2000/svg" width="140mm" height="260mm" viewBox="0 0 396.85 737.01">
  <defs>
    <style>
      .cls-1 {
        fill: #f3cdb5;
      }

      .cls-2 {
        fill: #635a2c;
      }

      .cls-3 {
        fill: #4a441e;
      }

      .cls-4 {
        fill: #353537;
      }

      .cls-5 {
        fill: #fff;
      }

      .cls-6 {
        fill: #1d1d1b;
      }

      .cls-7 {
        fill: #3c3c3b;
      }

      .cls-8 {
        fill: #efc0a5;
      }

      .cls-9 {
        fill: #7db145;
      }

      .cls-10 {
        fill: #476144;
      }

      .cls-11 {
        fill: #9f9f9f;
      }

      .cls-12 {
        fill: #f1f2f0;
      }
    </style>
  </defs>
  <g id="Inde_i_bussen" data-name="Inde i bussen">
    <g>
      <rect class="cls-1" x="100.82" y="95.96" width="159.32" height="130.64"/>
      <path class="cls-2" d="M260.14,96c-27.9,1.18-57.58,1.54-88.86.71-26.37-.69-51.54-2.16-75.4-4.19A112.41,112.41,0,0,1,94.1,71.33c.13-12.68.24-23.46,6.91-33.4,2.29-3.41,7.72-10.26,19-15a375.84,375.84,0,0,1,115.86,7.6,9.6,9.6,0,0,1,6.57,5.17A189.77,189.77,0,0,1,260.14,96Z"/>
      <path class="cls-3" d="M135.46,96s-37.18-8.1-55.91-15.63C62.32,73.41,45.16,61.94,33.7,54.68c-.76,1.55.51,12.51,1.74,15.61,4.82,12.14,15.5,15.83,37,31.68a291.39,291.39,0,0,1,28.41,23.1c-.19-1.89.34-8.71.07-11.74a15.52,15.52,0,0,1,5.46-13C114.7,93.61,135.46,96,135.46,96Z"/>
      <path class="cls-1" d="M135.67,418.9l-18.1,4c-8.77-23.29-16.7-41.78-22.07-53.86C74.6,322,63,305.89,61.73,277.61a118.53,118.53,0,0,1,6.38-43.54l40.24-.53q7.52,63.53,18.05,130.18Q130.86,391.65,135.67,418.9Z"/>
      <path class="cls-2" d="M171.06,431.78l-21.58,49a2.53,2.53,0,0,0,1.49,3.42,118.66,118.66,0,0,0,26,5.62,117.11,117.11,0,0,0,20.09.28,2.52,2.52,0,0,0,1.9-3.93c-5.26-7.94-5.08-16.25-1.23-19.89,3.42-3.23,11.33-4.32,15,.33,2.33,2.94,2.49,7.55.25,11.4a2.54,2.54,0,0,0,2,3.85A96.38,96.38,0,0,0,242.18,480a95,95,0,0,0,18.51-6.05,2.52,2.52,0,0,0,1.22-3.45l-19.78-39.11a2.55,2.55,0,0,0-2.27-1.39l-66.5.32A2.54,2.54,0,0,0,171.06,431.78Z"/>
      <path class="cls-4" d="M62,220.23c7.27-12.4,31.4-13.19,42-12.26,15.64,1.37,17.36,7.94,39.91,13.71a135.32,135.32,0,0,0,44.17,3.89c10.09-.83,24.84-2,39.06-9.54,31.09-16.43,27.11-45.82,52.41-57,15.14-6.72,41-7,50.84,5.62,26.22,33.49-90.61,119.4-68.38,215.9,2.47,10.73,11.16,30.9,1.5,43-7.9,9.84-24.32,10-52.3,10.4-21.82.27-32.73.41-40.07-2.57-26.61-10.79-24.89-44.91-44-92.05C97.61,266.44,50.12,240.54,62,220.23Z"/>
      <path class="cls-2" d="M33.75,54.16c.45-1.38,4.45-4.1,78.51,11.69C164.37,77,206.51,87.71,234.69,95.28c-31.86,5.45-80.08,9-133.65-7.47C67,77.33,32.11,59.17,33.75,54.16Z"/>
      <ellipse class="cls-3" cx="174.13" cy="486.15" rx="6.35" ry="24.65" transform="translate(-331.92 589.01) rotate(-81.78)"/>
      <ellipse class="cls-3" cx="237.69" cy="477.03" rx="24.65" ry="6.35" transform="translate(-68.19 40.57) rotate(-8.54)"/>
      <path class="cls-4" d="M282,565.12a59.5,59.5,0,0,0-1.72-10.51c-1.77-6.79-4.46-10.91-5.08-12.54-4.77-12.45-6.92-22.55-16.52-50.32-1.8-5.22-4.55-12.82-8.28-22-2.33,0-4.84.05-7.5.26a87.63,87.63,0,0,0-10.35,1.44c3.14,6.11,6.26,12.55,9.31,19.33q3,6.68,5.64,13.11s13.28,31.74,18.27,53.44c.13.54.23,1,.31,1.37,1.6,7.26,2.61,13.32,3.2,17.19l.27-.24c.6,6.25,1.09,11.78,1.48,16.43,1.22,14.7,1.35,19.38,1.32,23.8-.07,9.35-.84,14.69-1.94,25.92-.8,8.13-1.81,19.69-2.61,33.93h13.62a629.8,629.8,0,0,0,1.82-92.69Q282.75,573.87,282,565.12Z"/>
      <path class="cls-4" d="M168.13,479.21q-1.06,2-2.11,4.06-2.34,4.65-4.25,9.09s-12.9,28-25,63.43a54.26,54.26,0,0,0-1.59,5.44c-2.86,12-1.51,22.88-1,27.35,1.64,15.15,1,29.75-.38,58.95-.54,11.48-1.41,20.69-2,26.22l17.24,1.76c-.59-4-1.44-10.48-2.1-18.45-.41-5-1.86-24.21.95-64.61.47-6.72,1.16-15.48,2.18-25.79,1.11-4,2.07-7.68,2.88-10.79,2.85-11.06,4-16.52,7.12-25,.28-.76.56-1.52.89-2.34,1.57-4,3.07-7.42,4.39-10.26,1.51-3.23,2.82-5.75,3.52-7.08.23-.45.41-.78.44-.84,1.22-2.27,5-10.12,13.92-28.87-2.6-.54-5.36-1-8.28-1.45C172.6,479.65,170.31,479.39,168.13,479.21Z"/>
      <circle class="cls-1" cx="93.28" cy="165.22" r="11.88"/>
      <circle class="cls-1" cx="267.86" cy="148.94" r="12.34"/>
      <circle class="cls-5" cx="202.76" cy="138.38" r="16.03"/>
      <circle class="cls-6" cx="197.23" cy="139.2" r="3.74"/>
      <path class="cls-5" d="M181.34,139.2a16,16,0,1,1-16-16A16,16,0,0,1,181.34,139.2Z"/>
      <circle class="cls-6" cx="159.77" cy="140.01" r="3.74"/>
      <path class="cls-7" d="M179.61,151.19a28.07,28.07,0,0,1,11.47,2.19l-1.56,2.68c-5.92-2.33-11.16-2.56-15.16-.66-3.55,1.69-5.43,4.72-5.71,7-.18,1.45,1.62,5.41,5.72,7.81,3.45,2,7.33,2.2,11.53.55l1.48,2.67c-6.8,2.67-11.95,1-15.09-.79-4.73-2.77-7.54-7.66-7.18-10.5s2.53-6.91,7.53-9.28A17.71,17.71,0,0,1,179.61,151.19Z"/>
      <path class="cls-7" d="M195.41,202.52c-13-.61-16.09-1.71-24.56-6.58-4.4-2.52-13.86-9.9-15.52-14.4l2.73-1c1.19,3.23,9.59,10.21,14.23,12.88,8.1,4.65,10.77,5.61,23.26,6.2Z"/>
      <path class="cls-8" d="M218.8,138.38c0,.54-32.07.57-32.07,0a16,16,0,0,1,32.07,0Z"/>
      <path class="cls-8" d="M181.34,138.78c0,.54-32.07.57-32.07,0a16,16,0,0,1,32.07,0Z"/>
      <path class="cls-1" d="M148.78,433.28c-1.52,1.08-5.06-3.3-10.17-6-5.47-2.87-12.4-2.8-25.81,1.93a4.82,4.82,0,0,1-2.91.12c-2.45-.68-6.78-2.24-7.1-3.83-.11-.54.06-1.56,2.58-3.39,7.58-5.49,21.62-7.56,33.72-3.39a14.87,14.87,0,0,1,6,3.55C148.84,426.09,150.31,432.17,148.78,433.28Z"/>
      <g>
        <ellipse class="cls-9" cx="113.16" cy="682.49" rx="36.38" ry="13.44" transform="translate(-36.75 7.12) rotate(-3.1)"/>
        <path class="cls-3" d="M76.84,684.6c2.86,7.55,6.49,6,20.88,9.48,6.11,1.5,28-.9,33.05-2.23,11.15-2.92,19.14-6.38,18.71-11.47-.33-4-5.27-7.2-11.82-10.82-6-3.29-16.25-.1-25.62-.47C91.92,668.29,74.19,677.59,76.84,684.6Z"/>
        <path class="cls-3" d="M120.46,673.23l4.82-.08a3.36,3.36,0,0,0,3.33-3.24l.12-7a3.12,3.12,0,0,0-3.23-3.14l-4.82.07a3.35,3.35,0,0,0-3.33,3.24l-.12,7A3.13,3.13,0,0,0,120.46,673.23Z"/>
      </g>
      <g>
        <ellipse class="cls-9" cx="290.98" cy="687.85" rx="13.44" ry="36.38" transform="translate(-444.14 819.77) rotate(-77.24)"/>
        <path class="cls-3" d="M326.43,696c-4.08,7-7.39,4.78-22.16,5.85-6.28.45-27.46-5.59-32.22-7.74-10.49-4.76-17.79-9.51-16.52-14.46,1-3.84,6.4-6.21,13.47-8.68,6.45-2.24,16,2.63,25.33,3.84C314.3,677.41,330.23,689.56,326.43,696Z"/>
        <path class="cls-3" d="M286.54,675.36l-4.82-.24a3.36,3.36,0,0,1-3.22-3.35l.12-7a3.11,3.11,0,0,1,3.33-3l4.81.23a3.37,3.37,0,0,1,3.23,3.35l-.12,7A3.12,3.12,0,0,1,286.54,675.36Z"/>
      </g>
      <path class="cls-2" d="M199.67,30.53l-12.08-1.75a2.27,2.27,0,0,1-1.92-2.58l1.12-7.76a1.78,1.78,0,0,1,2.3-1.65l5.57,1.63a2.82,2.82,0,0,0,.58.1l5.82.51c1.47-.08,2.5.57,2.32,1.82l-1.13,7.76A2.27,2.27,0,0,1,199.67,30.53Z"/>
      <g>
        <path class="cls-10" d="M244.68,325.34c-2.55-16.95-1.61-20-4.46-28.77a68.81,68.81,0,0,0-3.88-9.46q-1-2-1.93-4.2c-.52-1.19-1-2.36-1.44-3.5-1.2-3.09-1.95-5.85-4.88-16.76-.58-2.17-.69-4.49-1.42-6.61a7.26,7.26,0,0,1-.42-3.75c.06-.3.12-.48.15-.61.27-1,.11-2.69-1.76-6-1.06,0-2.56,0-4.37.16-3.14.24-3.62.52-4,.88-1.77,1.76-1.51,6.25-.51,6.79a.57.57,0,0,0,.44,0c.27,3.3.52,6.67.73,10.11q.54,8.78.72,17c-.53,4.13-1,7.78-1.35,10.82a73.13,73.13,0,0,0-.85,9.11,50.89,50.89,0,0,0,1.1,9.9c1.05,6.14,1.61,12.35,2.43,18.53.78,5.86,1.89,11.69,2.6,17.57.66,5.55.75,7.59,2.3,9.25.56.61,2.23,2.15,11.56.91,7.33-1,11-1.51,12.37-4.35,1-2.2.36-4.33-.75-10.27C246,336.59,245.52,330.94,244.68,325.34Z"/>
        <path class="cls-11" d="M226.78,247.16c.21,1.41-1.89.72-5.89,1.32s-6.75,2.19-6.65.79c.24-3.5,2.33-3.82,6.33-4.42S226.39,244.6,226.78,247.16Z"/>
        <path class="cls-12" d="M234.57,310.7a4.57,4.57,0,0,0,1.07-3.58c-.41-2.78-3.53-4.61-7-4.1s-5.86,3.18-5.44,6a4.47,4.47,0,0,0,1.76,2.88c-3.47,3.79-5.16,11.37-3.91,19.71,1.7,11.31,8.14,19.71,14.39,18.78s9.94-10.87,8.25-22.17C242.51,320.06,238.85,313.44,234.57,310.7Z"/>
        <path class="cls-12" d="M232,276.33a12.23,12.23,0,0,0-4.82,0c-6.3,1.34-9.59,7.45-10.39,9.05L218,293a48.15,48.15,0,0,1,7.83-5.75l.34-.2a44.84,44.84,0,0,1,8.31-3.7Z"/>
      </g>
      <path class="cls-1" d="M348.05,208.84c-8.65-24-11.75-35.18-19.1-40.11-5.9-4-12.21-3.53-17.38-3.51-3.3,0-26.27.46-38,19-6.63,10.43-6.33,21.33-5.9,26l18.06,41.87C273.85,267.85,249.88,299,249.88,299a21.56,21.56,0,0,1-8.22,8.17A30.07,30.07,0,0,1,228,310.29a7.16,7.16,0,0,0-2.27.13,16.73,16.73,0,0,0-5.41,2.55c-4.19,2.89-6.51,6.78-5.2,8.69a3,3,0,0,0,2.45,1c-3,2.11-4.61,4.66-3.8,6.31.55,1.11,2.11,1.56,4.12,1.42-1.9.83-3.11,2-3.25,3.44-.29,3.14,4.87,6.18,11.52,6.8a24,24,0,0,0,4.65,0q11.9-6.61,24.5-13.2,9.58-5,18.95-9.63a321.16,321.16,0,0,0,36.33-20.6c13.07-8.58,21-13.78,29.29-23.12a106.27,106.27,0,0,0,17.79-27.81S350.3,215.08,348.05,208.84Z"/>
    </g>
  </g>
</svg>
