<svg xmlns="http://www.w3.org/2000/svg" width="100mm" height="210mm" viewBox="0 0 283.46 595.28">
  <defs>
    <style>
      .cls-1 {
        fill: #f3cdb5;
      }

      .cls-2 {
        fill: #635a2c;
      }

      .cls-3 {
        fill: #4a441e;
      }

      .cls-4 {
        fill: #353537;
      }

      .cls-5 {
        fill: #fff;
      }

      .cls-6 {
        fill: #1d1d1b;
      }

      .cls-7 {
        fill: #3c3c3b;
      }

      .cls-8 {
        fill: #efc0a5;
      }

      .cls-9 {
        fill: #7db145;
      }
    </style>
  </defs>
  <g id="Brian">
    <g>
      <rect class="cls-1" x="71.87" y="120.33" width="132.41" height="108.58"/>
      <path class="cls-2" d="M204.28,120.33c-23.18,1-47.86,1.28-73.86.6-21.91-.58-42.83-1.8-62.66-3.49a93.23,93.23,0,0,1-1.48-17.58c.11-10.54.2-19.49,5.74-27.76,1.9-2.83,6.42-8.53,15.8-12.45A312.21,312.21,0,0,1,184.12,66a8,8,0,0,1,5.46,4.29,158.12,158.12,0,0,1,10.73,29.13A157,157,0,0,1,204.28,120.33Z"/>
      <path class="cls-3" d="M100.66,120.33s-30.9-6.73-46.48-13C39.87,101.59,25.6,92.06,16.07,86c-.63,1.29.43,10.4,1.45,13,4,10.09,12.89,13.15,30.73,26.33a242.87,242.87,0,0,1,23.62,19.2c-.17-1.58.28-7.24.06-9.76A12.86,12.86,0,0,1,76.46,124C83.4,118.38,100.66,120.33,100.66,120.33Z"/>
      <path class="cls-1" d="M100.83,388.74l-15,3.3c-7.3-19.36-13.88-34.72-18.35-44.76-17.36-39.07-27-52.47-28.06-76a98.66,98.66,0,0,1,5.3-36.19l33.44-.44q6.24,52.8,15,108.19Q96.82,366.11,100.83,388.74Z"/>
      <polygon class="cls-3" points="125.46 395.02 125.46 444.32 148.7 444.32 148.7 423.16 160.58 423.16 160.58 444.32 187.92 444.32 187.92 395.02 125.46 395.02"/>
      <path class="cls-4" d="M39.63,223.62c6-10.31,26.1-11,34.92-10.19,13,1.14,14.43,6.59,33.17,11.39a112.54,112.54,0,0,0,36.71,3.24c8.39-.69,20.65-1.69,32.46-7.93,25.85-13.66,22.54-38.08,43.56-47.41,12.59-5.58,34.05-5.82,42.26,4.68,21.79,27.84-75.31,99.24-56.84,179.44,2.06,8.92,9.29,25.68,1.25,35.7-6.56,8.18-20.21,8.35-43.46,8.65-18.14.22-27.2.34-33.31-2.14-22.12-9-20.69-37.32-36.59-76.5C69.2,262,29.72,240.5,39.63,223.62Z"/>
      <path class="cls-2" d="M16.12,85.59c.38-1.14,3.7-3.41,65.25,9.71,43.31,9.24,78.33,18.18,101.75,24.47-26.47,4.53-66.55,7.48-111.07-6.21C43.72,104.85,14.75,89.75,16.12,85.59Z"/>
      <path class="cls-2" d="M154,66,144,64.5a1.89,1.89,0,0,1-1.6-2.14l.94-6.45a1.48,1.48,0,0,1,1.9-1.38l4.64,1.35a2,2,0,0,0,.48.09l4.84.42c1.22-.06,2.07.48,1.92,1.52l-.93,6.44A1.89,1.89,0,0,1,154,66Z"/>
      <circle class="cls-1" cx="65.6" cy="177.89" r="9.87"/>
      <circle class="cls-1" cx="210.7" cy="164.37" r="10.26"/>
      <circle class="cls-5" cx="156.59" cy="155.59" r="13.33"/>
      <circle class="cls-6" cx="151.99" cy="156.27" r="3.11"/>
      <path class="cls-5" d="M138.78,156.27a13.33,13.33,0,1,1-13.32-13.33A13.32,13.32,0,0,1,138.78,156.27Z"/>
      <circle class="cls-6" cx="120.86" cy="156.95" r="3.11"/>
      <path class="cls-7" d="M137.35,166.23a23.43,23.43,0,0,1,9.53,1.83l-1.29,2.22c-4.92-1.93-9.28-2.12-12.6-.54a8.08,8.08,0,0,0-4.75,5.8c-.15,1.21,1.35,4.5,4.75,6.49a10.56,10.56,0,0,0,9.58.46l1.23,2.22c-5.64,2.21-9.93.86-12.53-.67-3.94-2.29-6.27-6.36-6-8.72a10.53,10.53,0,0,1,6.25-7.71A14.83,14.83,0,0,1,137.35,166.23Z"/>
      <path class="cls-7" d="M150.48,208.9c-10.84-.51-13.37-1.43-20.42-5.47-3.65-2.1-11.51-8.22-12.89-12l2.27-.83c1,2.69,8,8.49,11.83,10.7,6.73,3.87,8.95,4.67,19.33,5.16Z"/>
      <path class="cls-8" d="M169.92,155.59c0,.45-26.65.48-26.65,0a13.33,13.33,0,0,1,26.65,0Z"/>
      <path class="cls-8" d="M138.78,155.92c0,.45-26.65.48-26.65,0a13.33,13.33,0,0,1,26.65,0Z"/>
      <path class="cls-1" d="M111.72,400.69c-1.26.9-4.2-2.74-8.45-5-4.54-2.37-10.31-2.32-21.45,1.62a4.08,4.08,0,0,1-2.42.09c-2-.56-5.63-1.86-5.9-3.18-.09-.45,0-1.3,2.15-2.82,6.29-4.56,18-6.28,28-2.81a12.27,12.27,0,0,1,5,2.95C111.77,394.72,113,399.77,111.72,400.69Z"/>
      <path class="cls-1" d="M277.34,214.15c-7.18-19.92-9.76-29.24-15.87-33.34-4.9-3.29-10.14-2.93-14.45-2.92-2.74,0-21.83.39-31.6,15.76a34.72,34.72,0,0,0-4.9,21.64q7.51,17.4,15,34.8c-9.85,13.11-29.78,39-29.78,39a17.83,17.83,0,0,1-6.83,6.78,24.93,24.93,0,0,1-11.39,2.64,5.81,5.81,0,0,0-1.89.11,13.93,13.93,0,0,0-4.5,2.11c-3.48,2.41-5.41,5.64-4.32,7.23a2.46,2.46,0,0,0,2,.85c-2.48,1.75-3.84,3.87-3.16,5.24.46.92,1.75,1.3,3.43,1.19-1.58.68-2.59,1.67-2.7,2.85-.25,2.61,4,5.14,9.57,5.65a19.9,19.9,0,0,0,3.86,0q9.88-5.51,20.37-11,8-4.14,15.74-8a267.71,267.71,0,0,0,30.2-17.12c10.86-7.13,17.43-11.45,24.34-19.21a88.27,88.27,0,0,0,14.79-23.12S279.21,219.34,277.34,214.15Z"/>
      <path class="cls-4" d="M171.51,509.48c.51-2.23,1.24-5.77,1.8-10.15.36-2.75,1.6-13.3-.81-35.5-.53-4.8-1.36-11.5-2.74-19.51l13.35-.7c.78,7.74,1,14,1.17,18.08.38,13.77-.6,19.95.32,32.4.47,6.31,1.21,11.37,1.71,14.4Z"/>
      <path class="cls-4" d="M140.45,512H128.62a243.12,243.12,0,0,1-1.57-53.52q.6-7.31,1.57-14.12h11.83c-1.29,7.84-2.19,14.42-2.81,19.34-1.06,8.49-1.17,11.19-1.14,13.75.06,5.4.73,8.48,1.68,15C138.88,497.06,139.75,503.74,140.45,512Z"/>
      <g>
        <ellipse class="cls-9" cx="112.98" cy="512.6" rx="11.17" ry="30.24" transform="translate(-410.43 552.2) rotate(-81.9)"/>
        <path class="cls-3" d="M83,508.46c1.11,6.61,4.33,5.9,15.48,11.1,4.75,2.21,23,3.79,27.32,3.52,9.55-.59,16.63-2.12,17.1-6.33.37-3.28-3.13-6.73-7.89-10.73-4.34-3.65-13.24-2.71-20.81-4.52C98,497.6,82,502.32,83,508.46Z"/>
        <path class="cls-3" d="M122.53,505.94l3.65,1.67a2.78,2.78,0,0,0,3.65-1.24l2.59-5.2a2.58,2.58,0,0,0-1.3-3.5L127.48,496a2.79,2.79,0,0,0-3.66,1.23l-2.59,5.2A2.59,2.59,0,0,0,122.53,505.94Z"/>
      </g>
      <g>
        <ellipse class="cls-9" cx="168.47" cy="519.32" rx="30.24" ry="11.17" transform="translate(-110.51 50.02) rotate(-12.76)"/>
        <path class="cls-3" d="M139,526.11c3.39,5.78,6.14,4,18.42,4.86,5.22.37,22.82-4.64,26.78-6.44,8.72-3.95,14.78-7.9,13.73-12-.83-3.19-5.32-5.16-11.2-7.21-5.36-1.87-13.33,2.18-21.05,3.18C149.09,510.64,135.86,520.74,139,526.11Z"/>
        <path class="cls-3" d="M172.17,508.93l4-.19a2.8,2.8,0,0,0,2.68-2.78l-.1-5.81a2.6,2.6,0,0,0-2.77-2.52l-4,.2a2.8,2.8,0,0,0-2.68,2.78l.1,5.81A2.58,2.58,0,0,0,172.17,508.93Z"/>
      </g>
    </g>
  </g>
</svg>
