<svg xmlns="http://www.w3.org/2000/svg" width="631.73mm" height="235.22mm" viewBox="0 0 1790.73 666.77">
  <defs>
    <style>
      .cls-1 {
        fill: #252a51;
      }

      .cls-1, .cls-7 {
        opacity: 0.6;
      }

      .cls-2 {
        fill: #adc0b3;
      }

      .cls-3 {
        fill: #c4d2c9;
      }

      .cls-4 {
        fill: #9aa99f;
      }

      .cls-5 {
        fill: #343333;
      }

      .cls-6 {
        fill: #acb7af;
      }

      .cls-7 {
        fill: #cccdce;
      }
    </style>
  </defs>
  <g id="spilbaggrund">
    <g>
      <rect class="cls-1" x="614.53" y="138.83" width="161.45" height="189.76"/>
      <rect class="cls-1" x="803.24" y="138.83" width="161.45" height="189.76"/>
      <rect class="cls-1" x="993.4" y="138.83" width="161.45" height="189.76"/>
      <rect class="cls-1" x="1177.69" y="138.83" width="161.45" height="189.76"/>
      <rect class="cls-1" x="1361.25" y="138.83" width="161.45" height="189.76"/>
      <g>
        <path class="cls-2" d="M1760.1,356.72a590.14,590.14,0,0,0-1.13-66.14c-1.27-20.07-3.66-45.63-8.39-75.28a695.81,695.81,0,0,1,6.34,180.77C1756.9,396.33,1759.19,378.56,1760.1,356.72Z"/>
        <path class="cls-2" d="M1787.12,104.55c-2.55-2.75-10.56-9.54-33-5.34q-13.45,20.17-26.9,40.36a166.48,166.48,0,0,0-53.81-57.65c-42.61-27.81-85.66-27.48-101.2-26.61-551.35-69.84-967-69.23-1003.75,5.47-14.69,29.84-23.21,63.9-23.21,63.9q-2.06,8.23-3.57,16c-9.64,49.67-3.85,87.7-.12,133.35,10.37,127-9.7,136.2,2.7,299.8,2.4,31.64,5.12,57.27,6.91,73,20.7,1.81,50.47,4.07,86.65,5.64,39.63,1.73,44.79.79,50.09-2.71,34.29-22.6-9.09-96.92,24.37-139.45,34.33-43.63,138.91-40.3,167.89,2.71C906.88,552.69,864,618,891,636.28c5.54,3.74,8.54,1.8,54.15,0,29.75-1.18,22.24-.11,56.87-1.36,9.32-.33,29.13-1.11,88-4.84,57-3.63,68.88-4.84,108.27-6.82,27.1-1.37,40.66-2,54.17-2.15,40-.27,43.64,3.59,51.54-.75,29.5-16.18-1.11-76.85,27.71-113.84,33-42.35,134.65-41.81,169.3,2,29.28,37-.09,91.36,30.46,110.14,7.82,4.81,28.22,2.22,69-2.7,51.3-6.19,58.66-12,62.67-16.09,18.43-19,.64-42.76,19.61-58.8,25.86-21.89,67-4.57,77.87-23.84,5.67-10-1.57-21.54-6.88-36.56-8.55-24.13-5-37.06-.47-61.78a48.37,48.37,0,0,1-20-5c-26.25-13.34-31.46-49.37-43.67-132.5-4.26-29-10.75-73.08-13.37-90.87l71.34,8.06q.53,2.76,1.05,5.57a3.46,3.46,0,0,1,.35-.53c4.09-4.9,17.27,5.66,26.49,1.06,7.83-3.9,6.76-15.75,9.53-43.44C1789,121.71,1794.47,112.47,1787.12,104.55ZM776,328.59H614.53V138.83H776Zm188.71,0H803.24V138.83H964.69Zm190.16,0H993.4V138.83h161.45Zm184.29,0H1177.69V138.83h161.45Zm183.56,0H1361.25V138.83H1522.7Zm134.71-54.26-106.56-2.05q-1-66.72-2-133.45l104.48,1.41Q1655.37,207.29,1657.41,274.33Z"/>
      </g>
      <path class="cls-1" d="M1759.28,296.58a695.81,695.81,0,0,0-11.7-98l-71.34-8.06c2.62,17.79,9.11,61.82,13.37,90.87,12.21,83.13,17.42,119.16,43.67,132.5a48.69,48.69,0,0,0,21.09,5.05A696.69,696.69,0,0,0,1759.28,296.58Z"/>
      <path class="cls-3" d="M544.41,107.31a2.58,2.58,0,0,0,4.39,2.1c9.25-9.32,33.25-32.53,81.29-26.48,105.39,13.27,1080.5,29.55,1080.73,29,3.42-7.84-17.68-28.9-40-43.78-23.16-15.44-46.36-18.29-55-19.37-181-22.79-512.52-36.94-512.52-36.94-15-.64-118.51-5.16-245.2-11.44C795-2.7,731.94,12.41,668.8,9.8c-13.09-.54-49.42-2.23-80,19.26a105.84,105.84,0,0,0-26.48,27.61A111.38,111.38,0,0,0,544.41,107.31Z"/>
      <path class="cls-3" d="M1177.21,470.64l-26.62-18.79q43.52-61.64,87-123.26h39.89Z"/>
      <rect class="cls-3" x="849.46" y="142.89" width="32.59" height="622.92" transform="translate(1320.1 -411.41) rotate(90)"/>
      <path class="cls-4" d="M1190.47,502.44l-26.62-18.8,109.47-155h39.88Z"/>
      <rect class="cls-4" x="854.14" y="166.11" width="32.59" height="640.07" transform="translate(1356.58 -384.29) rotate(90)"/>
      <path class="cls-3" d="M1763.22,495.52c-17.28,3.4-32.07,6.59-43.71,9.21-34.14,7.68-40.56,10.26-46.41,16.53-6.26,6.69-9,15.72-14.64,33.76-3.76,12.15-6.35,25.3-6.35,25.3-.84,4.35-.62,3.84-.82,4.46-3.2,9.77-18.41,12.41-75.92,18.75-15.65,1.72-25.43,2.67-36.29-2.76a46.71,46.71,0,0,1-16.84-14.61V482.36c0-6.92-5-12.53-11.14-12.53H1324.57L1313.43,481V602.52h-41.07a12,12,0,0,0,0,24.09h41.07s25.9,1.09,23.67-11.39V510.53c0-6.92,5-12.52,11.13-12.52h140.6c6.15,0,11.14,5.6,11.14,12.52v88.91a23,23,0,0,0,22.33,23c7.92.23,16.7.25,26.21-.08,19.59-.7,34.32-2.64,55-5.35,13.08-1.73,30-4.22,49.78-7.84,10.72-5.29,17.94-11.88,20-17.52,2.5-9.48,4.18-17.59,5.31-23.83,2.8-15.37,2.51-20.4,7.14-25.7,4.27-4.9,9.6-6.31,18.49-8.91,12.74-3.71,26.23-3.81,30.87-3.81,5.71,0,11.21.36,18-2.43a35,35,0,0,0,8.32-4.86,25.07,25.07,0,0,0,3.7-7.66C1767.67,505.59,1764.42,498,1763.22,495.52Z"/>
      <path class="cls-3" d="M930.68,618.35H905.86a0,0,0,0,1,0,0V494.62a11.17,11.17,0,0,0-11.16-11.17H708.2A11.17,11.17,0,0,0,697,494.62V631.06a0,0,0,0,1,0,0H674.67a11.41,11.41,0,0,0-11.54,11,11.15,11.15,0,0,0,11.14,11.32h35.25a11.17,11.17,0,0,0,11.17-11.17V519.67a11.18,11.18,0,0,1,11.17-11.17H872.39a11.18,11.18,0,0,1,11.17,11.17c0,27,.35,48.65,0,109.82,0,2,0,3.64,0,4.49a7.94,7.94,0,0,0,2.17,4.73c1.72,1.67,5,1.78,11.6,2,4,.14,8-.09,8.5-.09h25.24a11.14,11.14,0,0,0,11.14-11.31A11.4,11.4,0,0,0,930.68,618.35Z"/>
      <ellipse class="cls-5" cx="803.76" cy="585.92" rx="88.54" ry="80.85"/>
      <circle class="cls-3" cx="804.36" cy="585.64" r="42.01"/>
      <circle class="cls-5" cx="803.88" cy="587.58" r="10.18"/>
      <g>
        <g>
          <ellipse class="cls-6" cx="804.28" cy="562.2" rx="3.19" ry="10.37"/>
          <circle class="cls-5" cx="804.28" cy="585.92" r="0.64"/>
        </g>
        <g>
          <ellipse class="cls-6" cx="818.6" cy="566.85" rx="10.37" ry="3.19" transform="translate(-121.15 895.93) rotate(-54)"/>
          <circle class="cls-5" cx="804.66" cy="586.04" r="0.64"/>
        </g>
        <g>
          <ellipse class="cls-6" cx="827.45" cy="579.03" rx="10.37" ry="3.19" transform="translate(-138.43 284.04) rotate(-18)"/>
          <circle class="cls-5" cx="804.89" cy="586.36" r="0.64"/>
        </g>
        <g>
          <ellipse class="cls-6" cx="827.45" cy="594.09" rx="3.19" ry="10.37" transform="translate(6.74 1197.46) rotate(-72)"/>
          <circle class="cls-5" cx="804.89" cy="586.76" r="0.64"/>
        </g>
        <g>
          <ellipse class="cls-6" cx="818.6" cy="606.27" rx="3.19" ry="10.37" transform="translate(-200.02 596.95) rotate(-36)"/>
          <circle class="cls-5" cx="804.66" cy="587.08" r="0.64"/>
        </g>
        <g>
          <ellipse class="cls-6" cx="804.28" cy="610.92" rx="3.19" ry="10.37"/>
          <circle class="cls-5" cx="804.28" cy="587.2" r="0.64"/>
        </g>
        <g>
          <ellipse class="cls-6" cx="789.96" cy="606.27" rx="10.37" ry="3.19" transform="translate(-164.85 889.01) rotate(-54)"/>
          <circle class="cls-5" cx="803.9" cy="587.08" r="0.64"/>
        </g>
        <g>
          <ellipse class="cls-6" cx="781.11" cy="594.09" rx="10.37" ry="3.19" transform="matrix(0.95, -0.31, 0.31, 0.95, -145.35, 270.45)"/>
          <circle class="cls-5" cx="803.67" cy="586.76" r="0.64"/>
        </g>
        <g>
          <ellipse class="cls-6" cx="781.11" cy="579.03" rx="3.19" ry="10.37" transform="translate(-10.95 1142.98) rotate(-72)"/>
          <circle class="cls-5" cx="803.67" cy="586.36" r="0.64"/>
        </g>
        <g>
          <ellipse class="cls-6" cx="789.96" cy="566.85" rx="3.19" ry="10.37" transform="translate(-182.32 572.59) rotate(-36)"/>
          <circle class="cls-5" cx="803.9" cy="586.04" r="0.64"/>
        </g>
        <g>
          <ellipse class="cls-6" cx="804.28" cy="562.2" rx="3.19" ry="10.37"/>
          <circle class="cls-5" cx="804.28" cy="585.92" r="0.64"/>
        </g>
      </g>
      <ellipse class="cls-5" cx="1414.54" cy="568.41" rx="88.54" ry="80.85"/>
      <circle class="cls-3" cx="1415.14" cy="568.13" r="42.01"/>
      <circle class="cls-5" cx="1414.66" cy="570.08" r="10.18"/>
      <g>
        <g>
          <ellipse class="cls-6" cx="1415.06" cy="544.69" rx="3.19" ry="10.37"/>
          <circle class="cls-5" cx="1415.06" cy="568.41" r="0.64"/>
        </g>
        <g>
          <ellipse class="cls-6" cx="1429.38" cy="549.34" rx="10.37" ry="3.19" transform="translate(144.78 1382.84) rotate(-54)"/>
          <circle class="cls-5" cx="1415.44" cy="568.53" r="0.64"/>
        </g>
        <g>
          <ellipse class="cls-6" cx="1438.23" cy="561.52" rx="10.37" ry="3.19" transform="translate(-103.13 471.92) rotate(-18)"/>
          <circle class="cls-5" cx="1415.67" cy="568.85" r="0.64"/>
        </g>
        <g>
          <ellipse class="cls-6" cx="1438.23" cy="576.58" rx="3.19" ry="10.37" transform="translate(445.43 1766.24) rotate(-72)"/>
          <circle class="cls-5" cx="1415.67" cy="569.25" r="0.64"/>
        </g>
        <g>
          <ellipse class="cls-6" cx="1429.38" cy="588.76" rx="3.19" ry="10.37" transform="translate(-73.08 952.61) rotate(-36)"/>
          <circle class="cls-5" cx="1415.44" cy="569.57" r="0.64"/>
        </g>
        <g>
          <ellipse class="cls-6" cx="1415.06" cy="593.41" rx="3.19" ry="10.37"/>
          <circle class="cls-5" cx="1415.06" cy="569.69" r="0.64"/>
        </g>
        <g>
          <ellipse class="cls-6" cx="1400.74" cy="588.76" rx="10.37" ry="3.19" transform="matrix(0.59, -0.81, 0.81, 0.59, 101.09, 1375.92)"/>
          <circle class="cls-5" cx="1414.68" cy="569.57" r="0.64"/>
        </g>
        <g>
          <ellipse class="cls-6" cx="1391.89" cy="576.58" rx="10.37" ry="3.19" transform="matrix(0.95, -0.31, 0.31, 0.95, -110.05, 458.34)"/>
          <circle class="cls-5" cx="1414.45" cy="569.25" r="0.64"/>
        </g>
        <g>
          <ellipse class="cls-6" cx="1391.89" cy="561.52" rx="3.19" ry="10.37" transform="matrix(0.31, -0.95, 0.95, 0.31, 427.73, 1711.77)"/>
          <circle class="cls-5" cx="1414.45" cy="568.85" r="0.64"/>
        </g>
        <g>
          <ellipse class="cls-6" cx="1400.74" cy="549.34" rx="3.19" ry="10.37" transform="translate(-55.38 928.25) rotate(-36)"/>
          <circle class="cls-5" cx="1414.68" cy="568.53" r="0.64"/>
        </g>
        <g>
          <ellipse class="cls-6" cx="1415.06" cy="544.69" rx="3.19" ry="10.37"/>
          <circle class="cls-5" cx="1415.06" cy="568.41" r="0.64"/>
        </g>
      </g>
      <path class="cls-4" d="M1658.29,128.37h-123V559.89c31,2.78,91.84,4.18,115.34-31.36,8.76-13.24,9.34-27.11,9.53-33.34C1661.76,442.94,1661.47,308.32,1658.29,128.37Zm-18.61,131.77-84.24-1.62q-.81-52.75-1.6-105.5l84.78,1Q1639.15,207.1,1639.68,260.14Z"/>
      <path class="cls-1" d="M1639.68,260.14l-84.24-1.62q-.81-52.75-1.6-105.5l85.84.9Z"/>
      <path class="cls-7" d="M541.05,496.47l-79.37.48c-47.9.29-84.19-8.44-108.18-32.24-32.91-32.64-6.27-67.55-33.05-125.31-28.07-60.52-98.9-111.67-132.57-92.92-25.62,14.27-32.22,61.15-24,110.85A90.47,90.47,0,1,0,63.44,496.53a67.26,67.26,0,0,0,60,94.64,50.06,50.06,0,1,0,98.67,15.9A409.4,409.4,0,0,1,324,559.65c93.65-28.65,175.37-16.44,218.41-6.52Q541.75,524.8,541.05,496.47Z"/>
    </g>
  </g>
</svg>
