<svg xmlns="http://www.w3.org/2000/svg" width="50mm" height="50mm" viewBox="0 0 141.73 141.73">
  <defs>
    <style>
      .cls-1 {
        fill: #747474;
      }
    </style>
  </defs>
  <g id="Layer_5" data-name="Layer 5">
    <path class="cls-1" d="M70.76,114.25a11,11,0,0,1,21.39-2.13,48.08,48.08,0,0,0,10.24-7,11,11,0,0,1,7.94-19.6,10.79,10.79,0,0,1,4.58,1.59,47.38,47.38,0,0,0,3.28-17.06,10,10,0,0,1-1.11.06,11,11,0,0,1-3.74-21.32,47.63,47.63,0,0,0-12.12-15.45,11,11,0,0,1-20.74-5.06,10.77,10.77,0,0,1,1.11-4.78,47.2,47.2,0,0,0-10.9-1.28A47.85,47.85,0,0,0,60.4,23.35a11,11,0,1,1-19.76,9.59A47.76,47.76,0,0,0,31.41,43a11,11,0,0,1-7.79,20.36,46.9,46.9,0,0,0,.63,16.37c.32-.1.65-.19,1-.26a11,11,0,0,1,8.34,19.89,47.75,47.75,0,0,0,7,7.09,11,11,0,0,1,19.72,7.79,12.32,12.32,0,0,1-.35,1.75,47.17,47.17,0,0,0,10.77,1.24h.16A11,11,0,0,1,70.76,114.25Zm-.35-24A21.06,21.06,0,1,1,91.47,69.19,21.06,21.06,0,0,1,70.41,90.25Z"/>
  </g>
</svg>
