<svg xmlns="http://www.w3.org/2000/svg" xmlns:xlink="http://www.w3.org/1999/xlink" width="1920" height="1080" viewBox="0 0 1920 1080">
  <defs>
    <style>
      .cls-1, .cls-18 {
        stroke: #1d1d1b;
        stroke-miterlimit: 10;
      }

      .cls-1 {
        fill: url(#linear-gradient);
      }

      .cls-2 {
        fill: #97c7da;
      }

      .cls-3 {
        fill: #719eae;
      }

      .cls-4 {
        fill: #3b5a6d;
      }

      .cls-5 {
        fill: #555656;
      }

      .cls-6 {
        fill: #636768;
      }

      .cls-7 {
        fill: #7b8187;
      }

      .cls-8 {
        fill: #85898c;
      }

      .cls-9 {
        fill: #faccb2;
      }

      .cls-10 {
        fill: #fff;
      }

      .cls-11 {
        fill: #1d1d1b;
      }

      .cls-12 {
        fill: #7b432c;
      }

      .cls-13 {
        fill: #1c335a;
      }

      .cls-14 {
        fill: #3c3c3b;
      }

      .cls-15, .cls-21 {
        fill: #db666a;
      }

      .cls-16 {
        fill: #1a3151;
      }

      .cls-17 {
        fill: #c24f58;
      }

      .cls-18 {
        fill: none;
        stroke-width: 4px;
      }

      .cls-19 {
        fill: #e8e8e8;
      }

      .cls-20 {
        fill: #303534;
      }

      .cls-21 {
        opacity: 0.65;
      }

      .cls-22 {
        fill: #274157;
      }
    </style>
    <linearGradient id="linear-gradient" x1="-1151.09" y1="-968.61" x2="-31.7" y2="-968.61" gradientTransform="translate(1548.51 1508.61)" gradientUnits="userSpaceOnUse">
      <stop offset="0" stop-color="#98d4e1" stop-opacity="0"/>
      <stop offset="0" stop-color="#9bd5e1" stop-opacity="0.07"/>
      <stop offset="0" stop-color="#a3d8e2" stop-opacity="0.24"/>
      <stop offset="0" stop-color="#b1dde3" stop-opacity="0.52"/>
      <stop offset="0" stop-color="#c3e4e5" stop-opacity="0.9"/>
      <stop offset="0" stop-color="#c8e6e5"/>
      <stop offset="0.23" stop-color="#b7e0ea"/>
      <stop offset="0.58" stop-color="#96d5f4"/>
      <stop offset="0.68" stop-color="#7ec3e9" stop-opacity="0.98"/>
      <stop offset="0.79" stop-color="#69b2e0" stop-opacity="0.96"/>
      <stop offset="0.9" stop-color="#5ca8da" stop-opacity="0.95"/>
      <stop offset="1" stop-color="#58a5d8" stop-opacity="0.95"/>
    </linearGradient>
  </defs>
  <g id="vinder">
    <rect class="cls-1" x="397.42" y="-441.53" width="1119.39" height="1963.06" transform="translate(1497.11 -417.11) rotate(90)"/>
    <g>
      <g>
        <polygon class="cls-2" points="651.02 1004.92 392.14 999.04 353.17 983.34 229.79 997.94 293.82 1080 605.52 1080 677.1 1004.92 651.02 1004.92"/>
        <polygon class="cls-2" points="11.65 935.97 63.17 908.11 100.55 935.97 157.94 935.97 229.79 1002.85 321.57 1080 4.82 1080 11.65 935.97"/>
        <polygon class="cls-2" points="767.9 944.33 565.59 1080 990.36 1080 767.9 944.33"/>
        <path class="cls-2" d="M1382.41,907.91c-28.38,19.19-72.53,42.94-130.3,52.44-50.77,8.36-112.92,18.59-145-14.55-9.78-10.1-24.38-32.1-38-28.72-7.47,1.84-9.44,10-18.89,12.47-10,2.63-20.19-3.17-27.3-8.52,1.07,51.73,17.51,83,30.73,100.93,64.71,87.79,234.11,102.75,415.17,21.62,39.54-14.81,94.29-13.35,134.61-28,10.62-3.87,105.49,34.94,112.43,27s-74-62.54-63.15-66.36l-95.94-.33-87.93-30.46Z"/>
        <polygon class="cls-2" points="1862.42 994.05 1781.08 1012.17 1781.08 983.34 1725.28 994.05 1636.19 1080 1862.42 1080 1862.42 994.05"/>
        <polygon class="cls-3" points="1028.48 928.63 866.74 994.05 817.73 1031.67 764.66 1080 1161.21 1080 1028.48 928.63"/>
        <polygon class="cls-3" points="1357.76 924.77 1254.36 1080 1598.44 1080 1357.76 924.77"/>
        <polygon class="cls-3" points="121.63 1080 37.17 897.35 4.82 897.35 4.82 1080 121.63 1080"/>
        <polygon class="cls-3" points="1808.84 960.09 1675.26 1080 1915.37 1080 1881.9 944.33 1849.4 986.11 1808.84 960.09"/>
        <path class="cls-4" d="M1181.34,924.77s42.63,54.86,64.84,58.57,51.14,5.34,51.14,5.34v23.49l40.46,70.92L1067.62,1080h-65.89l35.88-74.83,75.1-51.77Z"/>
        <polygon class="cls-4" points="432.31 944.33 357.77 1080 605.52 1080 565.59 1025.32 552.89 1002.38 517.82 983.34 481.65 944.33 432.31 944.33"/>
        <polygon class="cls-4" points="1001.73 1080 915.67 1012.17 808.06 1063.25 777.98 1046.08 753.35 1054.13 727.81 1054.13 693.15 1031.67 662.15 1046.08 634.79 1055.96 616.55 1065.08 605.52 1080 1001.73 1080"/>
        <polygon class="cls-4" points="1720.01 1080 1929.44 1005.45 1929.44 1080 1720.01 1080"/>
      </g>
      <polygon class="cls-4" points="1246.18 1080 1729.45 1080 1715.82 1042.57 1643.21 1015.55 1618.44 1015.55 1570.76 1015.55 1535.12 1018.25 1487.82 1001.84 1453.52 969.61 1404.17 924.77 1246.18 1080"/>
      <polygon class="cls-3" points="121.63 1080 271.03 994.05 353.17 983.34 390.24 1080 121.63 1080"/>
      <polygon class="cls-4" points="4.82 1080 107.67 988.68 145.97 1002.38 198.87 1004.31 357.77 1080 4.82 1080"/>
    </g>
    <g>
      <path class="cls-5" d="M1026.31,540l-690.7,27a107.75,107.75,0,0,0-22.25,10.7c-15,9.48-32.52,25.86-29.38,31.84,1.12,2.13,5.31,3.83,19.76,1a32.71,32.71,0,0,1,5.43-13.82c7.07-10.22,17.85-13,20.81-13.66,2.95-.94,8-2.48,14.43-4a246.44,246.44,0,0,1,45.49-5.85c12.42-.29,605.59-9,625.29-16.53a19,19,0,0,0,7.69-5.43A18.34,18.34,0,0,0,1026.31,540Z"/>
      <path class="cls-6" d="M906.48,736.74,122.79,763.68c-1.35-1.74-12.42-16.48-7.35-34.29A37.34,37.34,0,0,1,127.69,711l781.24-29.39a40.37,40.37,0,0,0-12.24,24.49C894.84,723,904.78,734.79,906.48,736.74Z"/>
      <path class="cls-7" d="M1004.68,681.63l-794.93,26.3,34.32-97.32,782.24-34.29Z"/>
      <path class="cls-5" d="M1007.29,685l-47,76.72c-27-.16-49.69-11.92-57.57-27.53a65,65,0,0,1-6-31.58,29.55,29.55,0,0,1,.94-7.49c10.18-39.06,100.69-44.72,113.55-45.41Q1009.23,667.33,1007.29,685Z"/>
      <path class="cls-5" d="M209.75,707.93l-88.13,3.32s15.87-41.86,33-37S209.75,707.93,209.75,707.93Z"/>
      <path class="cls-8" d="M1001.73,689l-44.62,74.7s64.84-55.91,84.39-97.95,13.69-252.24,13.69-252.24c-8-40.37-33.13-136.84-115.83-186.39-40.46-24.24-82.77-26.71-165.74-30.65C740,194.85,696.9,194.33,489.11,214c-22.32,2.12-36.76,3.51-197.49,19.56-18.73,5.09-48.7,16-75.85,41.13-62.22,57.54-60.71,144.38-60.05,182.76.88,50.86,14.6,86.38,42,157.4,17.54,45.39,24.32,48.12,26.93,47.57,3.38-.71,4.75-8.05,5.37-14.33-27.21-55.79-36.52-104.36-40.12-135.89-4.77-41.84-18.19-159.45,49.84-216.9,21.29-18,43.6-24.19,56.73-27.52,140.06-35.53,417.06-41.78,484.93-43a247.79,247.79,0,0,1,90.82,11.43s48.58,15.68,90,52.12c54.12,47.55,82.83,178.61,53.24,339.34Q1010,657.69,1001.73,689Z"/>
      <polygon class="cls-5" points="856.62 0 1541.17 975.88 1556.73 975.88 877.37 0 856.62 0"/>
      <path class="cls-5" d="M727.16,0H767.9a149.25,149.25,0,0,1,3.73,63c-1.47,9.29-8.65,54.79-44.74,84.6-18.25,15.08-34.52,17.84-33.49,23.36,2.3,12.32,83.78,3.22,86.32,16.9.59,3.17-3.27,6.54-6.1,8.62l-420.45,31c-2.09-2.42-4.51-6-3.58-9.2,2.3-8,23.63-8.37,29.61-8.6,19.21-.73,51.07-6.85,106-31.52l123.22-9.55,38.2-3.82c7.3-2.54,61.22-22.33,81.19-79.28C741.79,45.72,731.07,11,727.16,0Z"/>
    </g>
    <g>
      <path class="cls-9" d="M746.45,416.28c-2.67,26.33-28,45.36-68.61,42a83.61,83.61,0,0,1-20.08-3.53c-22.43-7.15-50.49-27.91-48.62-50.29,2.2-26.4,45.16-44.32,78.35-41.55C728.09,366.28,749.11,389.94,746.45,416.28Z"/>
      <ellipse class="cls-9" cx="655.35" cy="358.68" rx="57.71" ry="74.01" transform="translate(-54.38 125.4) rotate(-10.5)"/>
      <ellipse class="cls-10" cx="696.11" cy="358.24" rx="23.6" ry="21.43"/>
      <ellipse class="cls-11" cx="703.6" cy="357.34" rx="5.5" ry="5"/>
      <ellipse class="cls-10" cx="663.6" cy="362.13" rx="23.6" ry="21.43"/>
      <ellipse class="cls-11" cx="675.01" cy="361.87" rx="5.5" ry="5"/>
      <ellipse class="cls-12" cx="598.19" cy="421.1" rx="22.76" ry="16.63" transform="translate(-35.59 55.75) rotate(-5.18)"/>
      <ellipse class="cls-12" cx="590.16" cy="405.31" rx="22.76" ry="16.63" transform="translate(-34.19 54.96) rotate(-5.18)"/>
      <path class="cls-12" d="M583.53,403.17c1.32,9.1-7.72,17.68-20.2,19.18s-23.67-4.67-25-13.77,7.33-20.39,19.81-21.88S582.21,394.08,583.53,403.17Z"/>
      <ellipse class="cls-12" cx="597.2" cy="401.53" rx="17.79" ry="26.48" transform="translate(-122.06 424.97) rotate(-35.78)"/>
      <path class="cls-12" d="M558.45,362.27c5.92,6.56,2.92,19.42-4.12,26.27-8,7.79-23.1,9.58-29.14,2-5.27-6.6-1.87-18.14,4.12-24.48C537,358,551.94,355.05,558.45,362.27Z"/>
      <path class="cls-12" d="M557.11,348.45c-4,8.45-19.79,9.07-30.07,5.8-10.72-3.41-23-13.49-21.32-22.4,1.86-9.65,19.88-16.32,33.4-11.36C551.46,325,561.23,339.69,557.11,348.45Z"/>
      <ellipse class="cls-12" cx="538.39" cy="313.45" rx="21.39" ry="26.59" transform="translate(28.91 671.99) rotate(-65.34)"/>
      <ellipse class="cls-12" cx="580.22" cy="240.81" rx="43.84" ry="33.31" transform="translate(-47.88 252.32) rotate(-23.59)"/>
      <ellipse class="cls-12" cx="651.23" cy="237.34" rx="44.78" ry="32.6" transform="translate(-5.74 16.37) rotate(-1.43)"/>
      <ellipse class="cls-12" cx="671.39" cy="266.15" rx="44.78" ry="32.6" transform="translate(-6.45 16.89) rotate(-1.43)"/>
      <ellipse class="cls-12" cx="612.78" cy="283.15" rx="44.78" ry="32.6" transform="translate(-6.89 15.43) rotate(-1.43)"/>
      <ellipse class="cls-12" cx="579.85" cy="306.81" rx="44.78" ry="32.6" transform="translate(-7.5 14.61) rotate(-1.43)"/>
      <ellipse class="cls-12" cx="568.76" cy="337.24" rx="44.78" ry="32.6" transform="translate(-8.26 14.34) rotate(-1.43)"/>
      <ellipse class="cls-12" cx="572.59" cy="371.06" rx="27.6" ry="29.72" transform="translate(-59.57 114.3) rotate(-10.84)"/>
      <ellipse class="cls-12" cx="721.46" cy="244.27" rx="31.63" ry="26.64" transform="matrix(1, -0.02, 0.02, 1, -3.78, 11.45)"/>
      <ellipse class="cls-12" cx="747.8" cy="274.32" rx="27.74" ry="22.01" transform="translate(-5.6 15.78) rotate(-1.2)"/>
      <ellipse class="cls-12" cx="717.11" cy="292.51" rx="24.19" ry="25.24" transform="matrix(0.96, -0.27, 0.27, 0.96, -52.12, 202.5)"/>
      <ellipse class="cls-12" cx="685.65" cy="300.44" rx="18.82" ry="17.09"/>
      <ellipse class="cls-12" cx="661.11" cy="305.39" rx="15.65" ry="17.11" transform="translate(-42.37 117.13) rotate(-9.81)"/>
      <ellipse class="cls-12" cx="633.09" cy="315.92" rx="17.49" ry="15.31" transform="matrix(0.62, -0.79, 0.79, 0.62, -5.73, 620.1)"/>
      <ellipse class="cls-12" cx="613.26" cy="335.78" rx="15.67" ry="17.09" transform="translate(-24.01 48.16) rotate(-4.41)"/>
      <ellipse class="cls-12" cx="601.85" cy="360.24" rx="14.08" ry="17.13" transform="translate(-58.79 124.54) rotate(-11.27)"/>
      <ellipse class="cls-12" cx="537.98" cy="282.12" rx="28.04" ry="34.8" transform="translate(57.75 654.13) rotate(-65.44)"/>
      <ellipse class="cls-9" cx="593.67" cy="389.97" rx="17.09" ry="14.8" transform="translate(-16.43 26.24) rotate(-2.5)"/>
      <path class="cls-13" d="M692.91,688.33a55.15,55.15,0,0,0-17.51,12.95c-8.23,9.32-9.61,18.27-17.21,19.73-2,.37-3.72.14-9-1.69-9.92-3.43-31.21-10.8-30.29-18.14.19-1.5,3.17-3.88,9.12-8.64,6.38-5.1,8.84-6.23,8.58-8.07-.38-2.62-5.61-2.1-11.26-7-4.41-3.79-4.3-6.74-6.49-6.81-3.37-.09-4.27,6.9-12.33,15.21-3.58,3.69-5.37,5.54-8.31,6-5.49.95-10.46-3.38-19.29-11.28-7-6.24-10.48-9.37-10.77-12.74-.5-6,5.66-10.39,15.8-18.37,7-5.54,17-13.58,28.86-23.94,1.58-1.28,26.37-21,51-13.92C689.31,619,707.36,652.74,692.91,688.33Z"/>
      <path class="cls-14" d="M702.15,426.83c-12.3.94-15.29.35-23.82-2.84-4.43-1.66-14.21-6.87-16.32-10.51l2.43-1.16c1.52,2.62,10.25,7.61,14.93,9.36,8.16,3,10.78,3.56,22.55,2.66Z"/>
      <path class="cls-14" d="M704.06,398a20.34,20.34,0,0,1-9-1.19l1-2.34c4.77,1.62,8.83,1.52,11.74-.31a7.82,7.82,0,0,0,3.78-6.19c0-1.23-1.74-4.45-5.11-6.23a9.12,9.12,0,0,0-8.93.19l-1.38-2.16a12,12,0,0,1,11.69-.19c3.9,2.06,6.5,6,6.48,8.41a10.22,10.22,0,0,1-5,8.23A12.6,12.6,0,0,1,704.06,398Z"/>
      <path class="cls-9" d="M629.68,438.67a87.37,87.37,0,0,1,3.89,15.79,86.23,86.23,0,0,1,.88,15.26c-.49,15.34,7.86,25.58,13.9,25.53,5.81,0,13.43-9.59,13.86-23.6a15.49,15.49,0,0,1-2.8-3.1c-3.8-5.62-2.22-11.91-1.65-13.82Z"/>
      <path class="cls-15" d="M634.47,460a48.07,48.07,0,0,0,.84,18.2c.55,2.27,3.43,14.12,6.87,14.06,5.19-.09,2.22-27.33,15.17-33.77,10.41-5.18,26,5.57,32.92,12.18,14,13.46,16,31.6,16.35,38.73q-2.73,36.93-5,74.69-2.18,35.77-3.9,70.85c-34.16-2.33-53.06,1.75-64.13,6.24a73.88,73.88,0,0,1-22,5.69A75.68,75.68,0,0,1,586.28,665c.31-4.3.73-10.54,1.12-18.07,1.19-22.86,1.82-34.92,1.05-47.19-1.66-26.73-5.14-20.51-5.78-44.7-.1-3.56-.92-38.45.34-50.54,1-10,2.8-26.93,16.64-37.45S630.71,459.3,634.47,460Z"/>
      <path class="cls-16" d="M673.23,858.61l-51.9-22.49c.37-12.06.62-30.61-.42-53.24-1.5-32.41-4.69-45.06-4.23-73.93.48-30.11,1-49.68,10.24-61.31,8.81-11,22.72-11.39,32.42-2.7,13.42,12,15.45,38.29,16.74,55,1.82,23.61-1.36,39.65-3.41,55.9C669.66,779.57,667.78,813.8,673.23,858.61Z"/>
      <path class="cls-16" d="M619.71,857l-57.79-23.52c4.34-37.07,6.23-51.47,7-56.12.17-1,.94-5.51,1.55-11.68.17-1.71.32-3.54.45-5.57,1.63-26.8-4.27-38.45-6.09-60.49-.64-7.7-3.86-46.55,9.93-64.47,8.52-11.07,22.38-12.66,31.46-2.84,12.49,13.51,12.28,44.7,12.14,64.12-.15,22-3.55,26.06-3.92,55.43-.09,7,0,13.24,1.43,40.09C616.72,808,618,830.2,619.71,857Z"/>
      <path class="cls-9" d="M675.23,638.68a6,6,0,0,1-4.93,5c-4.1.87-8.94-1.34-11.59-3.71-4.11-3.67-4.83-9.42-.75-13.12,1.06-1.57,2.58-3.83,4.39-6.56,3.53-5.33,4.12-6.32,4.7-7.42,1.08-2,1.84-3.89,3.52-9.14,2.15-6.69,2.71-9.28,3.73-12.57,2.29-7.35,4.4-9.28,6.77-15.56a107.82,107.82,0,0,0,5.72-21.77l17.5,13.29c-5.58,11.4-9.41,20.84-11.93,27.53-3,8-3.22,9.64-5.59,13.77-4.7,8.19-9,10.79-11,18.27A29.62,29.62,0,0,0,675.23,638.68Z"/>
      <path class="cls-17" d="M681.27,488c-3.86,1.12-6.76,5.95-8.88,17.05-2.5,13.09-4.39,37.28,7.63,72.81l-19.72,33.7,23.21,11.6c11.14-20.89,42.87-84.9,20.32-117.83C702.26,503,690.19,485.36,681.27,488Z"/>
      <line class="cls-18" x1="645.71" y1="595.29" x2="532.2" y2="745.47"/>
      <path class="cls-9" d="M604.94,581.84c9.22,8.28,11.83,13.92,20.53,19a45.25,45.25,0,0,0,14.22,5.35,9.58,9.58,0,0,1,5.41,7.25c.57,4.71-2.63,9-5.75,10.85-4.85,2.91-11.79,1.37-15.73-4.46-1.76-1.75-4.27-4.27-7.33-7.29-5.94-5.89-7.06-6.92-8.3-8a88.34,88.34,0,0,0-10.5-7.4"/>
      <path class="cls-17" d="M590.15,484.36c3.73,1.4,2.27,13.48,1.49,24-.53,7.17-6,33.62-9.08,44.88-9.49,11.37,23.39,24.48,40.21,33.06,10.76,5.48,11.44,16.44-1.25,21.2-5.25,2-12.67,2.21-16,2.43C569,607.2,537,540.67,579,493.67,581.14,491.27,586.79,483.09,590.15,484.36Z"/>
      <g>
        <ellipse class="cls-19" cx="541.41" cy="838.46" rx="20.09" ry="60.58" transform="translate(-453.94 764.83) rotate(-52.92)"/>
        <path class="cls-20" d="M492.94,802.13c-3.64,11.65,2.54,13.71,17.52,33.07,6.37,8.24,36.67,28.84,44.42,32.72,17.07,8.55,30.63,13.13,35,6.87,3.4-4.85.22-13.83-4.66-24.94-4.46-10.13-20.69-17.45-32.3-27.86C528,799.62,496.32,791.31,492.94,802.13Z"/>
        <path class="cls-20" d="M573.18,853.11l6.48,4.75c2.43,1.78,5.71,1.54,7.33-.54l6.4-8.24c1.62-2.08,1-5.21-1.47-7l-6.48-4.75c-2.43-1.78-5.71-1.54-7.33.54l-6.41,8.24C570.09,848.2,570.75,851.33,573.18,853.11Z"/>
      </g>
      <g>
        <ellipse class="cls-19" cx="623.95" cy="835.7" rx="20.09" ry="60.58" transform="translate(-413.23 726.34) rotate(-47.24)"/>
        <path class="cls-20" d="M579.31,794.75c-4.77,11.22,1.17,13.89,14.17,34.64,5.52,8.82,33.63,32.33,41,37,16.14,10.19,29.18,16.09,34.15,10.3,3.87-4.5,1.6-13.74-2.16-25.28C663,840.84,647.57,832,637.05,820.45,614.44,795.72,583.75,784.31,579.31,794.75Z"/>
        <path class="cls-20" d="M654.12,853.42l6,5.37c2.24,2,5.53,2.1,7.34.19l7.2-7.57c1.81-1.91,1.46-5.09-.78-7.1l-6-5.37c-2.24-2-5.53-2.1-7.34-.19l-7.19,7.57C651.53,848.22,651.87,851.4,654.12,853.42Z"/>
      </g>
      <path class="cls-14" d="M639.89,346.56a1.11,1.11,0,0,1-.54-.26c-.36-.41-.65-.7-.25-1.34a29.47,29.47,0,0,1,12.48-11.27s6.71-3.13,18.68-1.43c.23,0,.88.13,1.08.53a.73.73,0,0,1-.28,1.08c-1.61,1.17-12.51-1-18.8,1.74S641.16,346.77,639.89,346.56Z"/>
      <path class="cls-14" d="M704.5,324.78c-3.18,0-9-.56-12.67,1.07-5.07,2.16-8.75,8.79-9.75,8.63a.9.9,0,0,1-.43-.21c-.28-.31-.51-.55-.19-1a23.16,23.16,0,0,1,9.83-8.88s4.39-2,12.3-1.39"/>
      <path class="cls-15" d="M787.2,1012.2C641.77,869.56,537.69,763,533.64,753.25A108.41,108.41,0,0,1,530,743c-2.33-8.15-2-11.69-3.61-16.91A39.42,39.42,0,0,0,516.5,710c-1.67-1.73-17.44-17.65-31.23-11.86-8.88,3.72-11.87,14.32-12.24,15.71-3.82,14.29,5.8,27.92,14.29,39.95A109.51,109.51,0,0,0,502.39,771C634.91,901.67,723.12,989.74,733,1002.58c1.45,1.87,6.05,8.38,14.36,11.37,1.47.53,6.21,2.08,21.8.71C776.75,1014,782.94,1013,787.2,1012.2Z"/>
      <path class="cls-15" d="M694.58,992.33C528.93,839.55,410.43,725.82,405.9,715.85a102.22,102.22,0,0,1-4.09-10.43c-2.58-8.24-2.2-11.7-3.95-17C395,679.82,389,674,386.7,671.76c-1.9-1.84-19.85-18.85-35.81-14.29-10.27,2.93-13.85,13.14-14.29,14.47-4.58,13.78,6.33,28,15.95,40.59a125.79,125.79,0,0,0,17.13,18.21c150.94,139.91,251.4,234.11,262.65,247.6a39,39,0,0,0,16.39,12.41c1.69.64,7.12,2.57,25.09,2.52C682.52,993.24,689.67,992.77,694.58,992.33Z"/>
      <g>
        <path class="cls-13" d="M749.48,383.75a4.35,4.35,0,0,1-1.32,1,4.29,4.29,0,0,1-1.1.81,1.63,1.63,0,0,0-.09.19c-6.67,3.67-15.39,6.72-23.56,3.24-11.39-4.86-12.88-18.68-20.95-19s-10.55,13.76-22.28,21c-10.65,6.57-24.6,4.41-34.71.4a40.35,40.35,0,0,1-1.54-4.39c-4-7.81-3.22-23.55.4-31.06.78-1.63,1.93-4,2.74-5.29,2-.84,2.62-1.16,3.23-1.43,5.11-2.28,15.74-6,17.36-6.51s2.83-.8,4.37-1.28c1-.31,4-1.22,4.68-1.38,2.49-.61,10.36-2.41,11.21-2.58.67-.14,3.75-.67,3.78-.67a82,82,0,0,1,8.58-1.39c4.38-.39,9-.78,13.38-1.06,4.58-.29,9-.38,13.62-.29,4.26.09,8.73.61,12.75.77-.27-.58-.55-1.13-.55-1.13-.5-.95-1-1.75-1.38-2.38a137.34,137.34,0,0,0-19.33-1.2,139.32,139.32,0,0,0-20.39,1.72h0c-26,4.66-46.24,3.47-54.9,12.27a26.18,26.18,0,0,0-2.73,3.35,81.06,81.06,0,0,0-3.81,18.85,83.18,83.18,0,0,0,1.75,25,7.56,7.56,0,0,0,5.18,5.52c22.22,6.85,33.9,2.58,40.54-3.32,7.75-6.9,10.28-17.52,17.21-17.45,6.44.07,6.26,11.14,17.58,15.91,7.84,3.31,16.87,1.85,20.06,1.33,3.89-.63,5.84-.94,7.36-2.1a4.91,4.91,0,0,0,.89-.83,13.49,13.49,0,0,0,2.73-6.73A4.64,4.64,0,0,1,749.48,383.75Z"/>
        <path class="cls-21" d="M749.49,383.91c-6.24,5.07-16.19,8.67-25.12,5.72-11.43-3.79-13.08-16.79-21.58-17.08s-10.86,12.37-22.94,18.89c-11,5.92-24,3.6-34.38,0-2.73-6.82-7.17-21.14-1.14-35.45a37,37,0,0,1,2.74-5.29,183.23,183.23,0,0,1,93-15.82,127.63,127.63,0,0,1,9.46,49Z"/>
      </g>
      <path class="cls-13" d="M527,354.25l111.3,6-1.68,12.52-107.35-6.65Q528.17,360.17,527,354.25Z"/>
      <line class="cls-18" x1="675.76" y1="626.7" x2="803.63" y2="764.86"/>
      <path class="cls-6" d="M1015.55,627.69l-4.37,22s-58.66-69.06-106-99.92c-17.42-11.34-52-9.2-61.54-8.21-31.77,3.3-705.51,34.78-705.51,34.78s-16.5,3.38-2.93,9.24l68.92,45,5.64,12.53-88.13-56.59S95.1,567,128.35,564.05s719.57-38.13,719.57-38.13,42-6.06,72.35,14.08S1015.55,627.69,1015.55,627.69Z"/>
    </g>
    <g>
      <path class="cls-22" d="M1283.46,144.79l-1.18,36.33q-13.66.78-26,1.95-12.9,54.1-17.39,99.42l-33,8.59,18-103.91q-5.28.79-10.55,1.76L1203,190.88l-2.35-36.52Z"/>
      <path class="cls-22" d="M1292,153l33.59-6.25q-20.31,78.33-26.56,135.75L1268,291.08Z"/>
      <path class="cls-22" d="M1337.22,153l33.59-6.25q-14.07,54.1-21.68,99.81l34.37-5.27-2.92,36.32Q1354,280,1313.19,291.08Z"/>
      <path class="cls-22" d="M1407.65,153l33.59-6.25q-14.06,54.1-21.68,99.81l34.38-5.27L1451,277.6q-26.57,2.36-67.38,13.48Z"/>
      <path class="cls-22" d="M1527.89,150.06l31.44,5.47q-42.18,74-66.79,134l-30.08-2,20.7-43.55-16.4-78.52,38.08-17.57q-.58,9-.78,22.46a206.19,206.19,0,0,0,1.37,27Z"/>
      <path class="cls-22" d="M1558.09,153l33.59-6.25q-4.48,17.19-6.64,27.15,17-14.83,31.06-28.51l24.5,15.94-38.39,34.19,21.7,79.54-35.37,18.76L1574.86,220q-6.08,31.53-9.59,62.46l-31,8.58Z"/>
      <path class="cls-22" d="M1649.23,153l33.59-6.25q-4.5,17.19-6.64,27.15,17-14.83,31.06-28.51l24.5,15.94-38.39,34.19,21.7,79.54-35.37,18.76L1666,220q-6.07,31.53-9.59,62.46l-31,8.58Z"/>
      <path class="cls-22" d="M1766.33,182q-1.56,5.68-2.73,11.17L1761.46,204l31.25-6.64-1.76,27q-22.21,3.92-34.88,6.84c-.52,2.6-1,5.21-1.37,7.81l-1.46,7.61,36.34-5.27L1787,277.6q-28.12,2.36-71.29,13.48L1739,151l65-9.57-2.55,36.28Q1782.35,179.51,1766.33,182Z"/>
    </g>
    <g>
      <path class="cls-11" d="M1248.65,373.67c-2,1.38-4.94,2.08-8.74,2.08a14,14,0,0,1-3.28-.45,9.34,9.34,0,0,1-3.34-1.38h-.2a1.86,1.86,0,0,1-1.41-.59,2,2,0,0,1-.57-1.43q0-2.07.19-6.18t.18-6.18q0-2.3-.09-6.86c-.06-3.05-.08-5.33-.08-6.87a2.57,2.57,0,0,1,.82-1.69,2.31,2.31,0,0,1,1.65-.88,13.84,13.84,0,0,1,3.14,1.32c2,1,3.19,1.52,3.5,1.63a24.27,24.27,0,0,1,9.51,5.85q4.6,4.65,4.61,10.23a14,14,0,0,1-1.58,6.45A13.19,13.19,0,0,1,1248.65,373.67Zm-4.13-20.79a80.75,80.75,0,0,0-9.25-4.51l.1,5.65.06,5.64-.31,10.73a3,3,0,0,1,.41.25,7.67,7.67,0,0,0,4.36,1.16c3,0,5.16-.46,6.52-1.37a9.39,9.39,0,0,0,3-3.49,9.86,9.86,0,0,0,1.12-4.57Q1250.57,356.84,1244.52,352.88Z"/>
      <path class="cls-11" d="M1275.3,362.33c0,.95,0,2.36,0,4.25s0,3.3,0,4.24c0,.29,0,.73.07,1.31s.07,1,.07,1.32a1.84,1.84,0,0,1-.57,1.39,2,2,0,0,1-1.39.54c-1,0-1.65-.63-1.93-1.87a12.11,12.11,0,0,1-5.66,1.28,7.47,7.47,0,0,1-4.26-1.14,5.14,5.14,0,0,1-2.22-3.68,64.44,64.44,0,0,1-.76-9.27,36.1,36.1,0,0,1,.59-6.13,1.74,1.74,0,0,1,1.86-1.7,2,2,0,0,1,1.42.54,1.82,1.82,0,0,1,.57,1.38,23.33,23.33,0,0,1-.29,2.89,22.83,22.83,0,0,0-.28,3c0,2.19.07,4.06.21,5.62a19.58,19.58,0,0,0,.65,3.75,6,6,0,0,0,1.28.54,4.14,4.14,0,0,0,1.23.19,19.79,19.79,0,0,0,5.56-.85l0-4,0-3.81a62.67,62.67,0,0,1,.38-7.37,1.77,1.77,0,0,1,1.9-1.81,2,2,0,0,1,1.42.55,1.75,1.75,0,0,1,.53,1.38Z"/>
      <path class="cls-11" d="M1299.58,375a7.64,7.64,0,0,1-5.67-2.43,10.44,10.44,0,0,1-2.79-7.29,12.66,12.66,0,0,1,2.24-7.82,8.77,8.77,0,0,1,7.65-4,6.47,6.47,0,0,1,6,3.6,13.84,13.84,0,0,1,1.55,7,12.73,12.73,0,0,1-2.28,7.45A7.83,7.83,0,0,1,1299.58,375Zm1.18-17.54a5,5,0,0,0-4.5,2.75,10,10,0,0,0-1.27,5.07,6.06,6.06,0,0,0,1.55,4.44,4.12,4.12,0,0,0,3,1.32,4.78,4.78,0,0,0,3.52-1.5,6.29,6.29,0,0,0,1.76-4.46Q1305.15,357.45,1300.76,357.42Z"/>
      <path class="cls-11" d="M1322.43,372.78a1.62,1.62,0,0,1-1.79,1.81,2.19,2.19,0,0,1-2.08-1.69l-3-8-3.49-9a2.38,2.38,0,0,1-.2-.9,1.81,1.81,0,0,1,.61-1.38,2,2,0,0,1,1.41-.57,1.74,1.74,0,0,1,1.69,1.2l5,13.73q1.47-3.14,3.71-9.11c.36-1.05.91-2.53,1.67-4.44a1.89,1.89,0,0,1,1.73-1.26,2,2,0,0,1,1.41.57,1.78,1.78,0,0,1,.61,1.35q0,.75-3.24,8.41Z"/>
      <path class="cls-11" d="M1342.11,374.71a11.09,11.09,0,0,1-7.19-2.22,8.4,8.4,0,0,1-3-6.88,14.32,14.32,0,0,1,2.48-8.56,8.39,8.39,0,0,1,7.19-3.77,11.18,11.18,0,0,1,5.32,1.1,4.42,4.42,0,0,1,2.53,4.16,4.51,4.51,0,0,1-2.22,3.58,31.75,31.75,0,0,1-4.16,2.2l-7.5,3.55a7.08,7.08,0,0,0,2.74,2.46,8.37,8.37,0,0,0,3.82.82,12.09,12.09,0,0,0,3.18-.51,5.09,5.09,0,0,0,3-1.7c.44-.7.92-1.05,1.43-1.05a1.75,1.75,0,0,1,1.23.52,1.64,1.64,0,0,1,.54,1.21q0,2.17-3.52,3.75A14.34,14.34,0,0,1,1342.11,374.71Zm-.53-17.9a5,5,0,0,0-4,1.86,12.61,12.61,0,0,0-2.38,5.59l6-2.87a25.4,25.4,0,0,0,5.07-3A6.72,6.72,0,0,0,1341.58,356.81Z"/>
      <path class="cls-11" d="M1370.26,359.29c-.1,1.64-.75,2.45-2,2.45s-1.69-.64-1.69-1.94q0-.37-.06-1.38l-.06-1.65a10.45,10.45,0,0,0-5,1.75,9.45,9.45,0,0,0-2.9,3.85l0,10.77a1.74,1.74,0,0,1-2,2c-1.15,0-1.73-.66-1.73-2V359.35c0-.43,0-1.08,0-2s0-1.51,0-1.94c0-1.32.58-2,1.73-2s1.93,1.09,1.94,3.26a11.83,11.83,0,0,1,8.37-3.63,2.65,2.65,0,0,1,2.38,1.2,6.69,6.69,0,0,1,.79,3.61C1370.28,358.59,1370.27,359.05,1370.26,359.29Z"/>
      <path class="cls-11" d="M1379.29,358.37l-.29,9.76c0,1-.06,2.55-.16,4.55-.13,1.31-.77,2-1.93,2s-1.92-.67-1.92-2q0-2.38.22-7.15t.21-7.13q0-3.11.1-7.11t.1-7.1a1.94,1.94,0,1,1,3.87,0c0,2.07,0,4.44-.1,7.1S1379.29,356.3,1379.29,358.37Z"/>
      <path class="cls-11" d="M1394.49,374.71a11.11,11.11,0,0,1-7.19-2.22,8.4,8.4,0,0,1-3-6.88,14.32,14.32,0,0,1,2.47-8.56,8.4,8.4,0,0,1,7.19-3.77,11.22,11.22,0,0,1,5.33,1.1,4.42,4.42,0,0,1,2.53,4.16,4.51,4.51,0,0,1-2.22,3.58,31.75,31.75,0,0,1-4.16,2.2l-7.51,3.55a7.23,7.23,0,0,0,2.74,2.46,8.42,8.42,0,0,0,3.82.82,12.1,12.1,0,0,0,3.19-.51,5,5,0,0,0,3-1.7c.45-.7.92-1.05,1.44-1.05a1.75,1.75,0,0,1,1.22.52,1.64,1.64,0,0,1,.54,1.21q0,2.17-3.51,3.75A14.42,14.42,0,0,1,1394.49,374.71Zm-.53-17.9a5,5,0,0,0-4,1.86,12.49,12.49,0,0,0-2.38,5.59l6-2.87a25.4,25.4,0,0,0,5.07-3A6.74,6.74,0,0,0,1394,356.81Z"/>
      <path class="cls-11" d="M1416.42,372.78a1.62,1.62,0,0,1-1.79,1.81,2.19,2.19,0,0,1-2.08-1.69l-3-8-3.5-9a2.55,2.55,0,0,1-.19-.9,1.81,1.81,0,0,1,.61-1.38,2,2,0,0,1,1.41-.57,1.74,1.74,0,0,1,1.69,1.2l5,13.73q1.47-3.14,3.71-9.11c.36-1.05.91-2.53,1.67-4.44a1.89,1.89,0,0,1,1.73-1.26,2,2,0,0,1,1.41.57,1.78,1.78,0,0,1,.61,1.35q0,.75-3.24,8.41Z"/>
      <path class="cls-11" d="M1436.1,374.71a11.09,11.09,0,0,1-7.19-2.22,8.38,8.38,0,0,1-3-6.88,14.32,14.32,0,0,1,2.48-8.56,8.39,8.39,0,0,1,7.19-3.77,11.18,11.18,0,0,1,5.32,1.1,4.42,4.42,0,0,1,2.53,4.16,4.51,4.51,0,0,1-2.22,3.58,31.75,31.75,0,0,1-4.16,2.2l-7.5,3.55a7.08,7.08,0,0,0,2.74,2.46,8.37,8.37,0,0,0,3.82.82,12.09,12.09,0,0,0,3.18-.51,5.09,5.09,0,0,0,3-1.7c.44-.7.92-1.05,1.43-1.05a1.75,1.75,0,0,1,1.23.52,1.64,1.64,0,0,1,.54,1.21c0,1.45-1.18,2.7-3.52,3.75A14.34,14.34,0,0,1,1436.1,374.71Zm-.53-17.9a5,5,0,0,0-4,1.86,12.61,12.61,0,0,0-2.38,5.59l6-2.87a25.4,25.4,0,0,0,5.07-3A6.72,6.72,0,0,0,1435.57,356.81Z"/>
      <path class="cls-11" d="M1467.05,356.46c-.15,1.92-.23,3.85-.23,5.77a58.84,58.84,0,0,0,.61,9.88c0,.19,0,.34,0,.46a1.71,1.71,0,0,1-.55,1.29,1.84,1.84,0,0,1-1.28.51c-.81,0-1.41-.59-1.79-1.76a11.32,11.32,0,0,1-2.94,1.57,9.63,9.63,0,0,1-3.17.53A9.11,9.11,0,0,1,1451,372a9.69,9.69,0,0,1-2.75-7.11,12.29,12.29,0,0,1,2.78-8.41,9.16,9.16,0,0,1,7.22-3.16,7.22,7.22,0,0,1,3.52.7l1.85,1.36c.18-5.51.39-9.23.64-11.14.17-1.16.77-1.75,1.79-1.75,1.19,0,1.79.64,1.79,1.91Q1467.84,347.13,1467.05,356.46Zm-8.72.51a6.1,6.1,0,0,0-4.95,2q-1.65,1.95-1.65,5.88a6,6,0,0,0,1.8,4.36,5.72,5.72,0,0,0,4.21,1.83,5.93,5.93,0,0,0,2.79-.61,15.34,15.34,0,0,0,2.18-1.63,4.19,4.19,0,0,0,.57-.61l-.06-3.4,0-2.28,0-2.32a5.56,5.56,0,0,0-2-2.38A5.4,5.4,0,0,0,1458.33,357Z"/>
      <path class="cls-11" d="M1481.77,374.71a11.09,11.09,0,0,1-7.19-2.22,8.38,8.38,0,0,1-3-6.88,14.32,14.32,0,0,1,2.48-8.56,8.38,8.38,0,0,1,7.18-3.77,11.22,11.22,0,0,1,5.33,1.1,4.42,4.42,0,0,1,2.53,4.16,4.51,4.51,0,0,1-2.22,3.58,31.75,31.75,0,0,1-4.16,2.2l-7.51,3.55a7.23,7.23,0,0,0,2.74,2.46,8.44,8.44,0,0,0,3.83.82,12.09,12.09,0,0,0,3.18-.51,5,5,0,0,0,3-1.7q.67-1.05,1.44-1.05a1.73,1.73,0,0,1,1.22.52,1.64,1.64,0,0,1,.54,1.21q0,2.17-3.51,3.75A14.38,14.38,0,0,1,1481.77,374.71Zm-.54-17.9a5,5,0,0,0-4,1.86,12.49,12.49,0,0,0-2.38,5.59l6-2.87a25.4,25.4,0,0,0,5.07-3A6.74,6.74,0,0,0,1481.23,356.81Z"/>
      <path class="cls-11" d="M1519.79,357.07c-.27,0-.6,0-1,0s-.7,0-1,0-1.19.1-2.67.29l.37,11.61,0,.87,0,1q.08,4.31-2.06,4.3a2,2,0,0,1-1.37-.51,1.66,1.66,0,0,1-.58-1.28c0-.49,0-1.24.06-2.24s.06-1.74.06-2.23l-.39-11.48c-1,0-2.41-.15-4.36-.33a1.78,1.78,0,0,1-1.75-1.94,2,2,0,0,1,.53-1.44,1.77,1.77,0,0,1,1.36-.57l4.12.34c0-.67,0-1.57-.09-2.69s-.09-1.92-.09-2.42a1.81,1.81,0,0,1,.57-1.37,2,2,0,0,1,1.4-.54c1.18,0,1.86,1,2.06,2.89,0,.49.06,1.07.06,1.75l0,1.14,0,1.22c1.62-.21,2.55-.32,2.79-.32a11.19,11.19,0,0,1,2.67.2,1.72,1.72,0,0,1,1.2,1.84,2,2,0,0,1-.54,1.43A1.85,1.85,0,0,1,1519.79,357.07Z"/>
      <path class="cls-11" d="M1541.64,362.33c0,.95,0,2.36,0,4.25s0,3.3,0,4.24c0,.29,0,.73.06,1.31s.07,1,.07,1.32a1.84,1.84,0,0,1-.57,1.39,2,2,0,0,1-1.39.54c-1,0-1.65-.63-1.93-1.87a12.07,12.07,0,0,1-5.65,1.28,7.48,7.48,0,0,1-4.27-1.14,5.14,5.14,0,0,1-2.22-3.68,64.44,64.44,0,0,1-.76-9.27,36.1,36.1,0,0,1,.59-6.13,1.74,1.74,0,0,1,1.86-1.7,2,2,0,0,1,1.42.54,1.82,1.82,0,0,1,.57,1.38,23.33,23.33,0,0,1-.29,2.89,22.83,22.83,0,0,0-.28,3c0,2.19.07,4.06.21,5.62a19.58,19.58,0,0,0,.65,3.75,6,6,0,0,0,1.28.54,4.15,4.15,0,0,0,1.24.19,19.9,19.9,0,0,0,5.56-.85l0-4,0-3.81a62.88,62.88,0,0,1,.37-7.37A1.77,1.77,0,0,1,1540,353a2,2,0,0,1,1.42.55,1.71,1.71,0,0,1,.53,1.38Z"/>
      <path class="cls-11" d="M1561.81,359.29c-.09,1.64-.75,2.45-2,2.45s-1.69-.64-1.69-1.94c0-.25,0-.71-.05-1.38l-.06-1.65a10.41,10.41,0,0,0-5,1.75,9.38,9.38,0,0,0-2.91,3.85l0,10.77a1.74,1.74,0,0,1-2,2c-1.15,0-1.72-.66-1.72-2V359.35c0-.43,0-1.08,0-2s0-1.51,0-1.94c0-1.32.58-2,1.73-2s1.93,1.09,2,3.26a11.8,11.8,0,0,1,8.37-3.63,2.63,2.63,0,0,1,2.37,1.2,6.6,6.6,0,0,1,.79,3.61C1561.83,358.59,1561.82,359.05,1561.81,359.29Z"/>
      <path class="cls-11" d="M1575,374.71a11.09,11.09,0,0,1-7.19-2.22,8.38,8.38,0,0,1-3-6.88,14.32,14.32,0,0,1,2.48-8.56,8.39,8.39,0,0,1,7.19-3.77,11.18,11.18,0,0,1,5.32,1.1,4.42,4.42,0,0,1,2.53,4.16,4.51,4.51,0,0,1-2.22,3.58,31.75,31.75,0,0,1-4.16,2.2l-7.5,3.55a7.08,7.08,0,0,0,2.74,2.46,8.37,8.37,0,0,0,3.82.82,12.09,12.09,0,0,0,3.18-.51,5.09,5.09,0,0,0,3-1.7c.44-.7.92-1.05,1.43-1.05a1.75,1.75,0,0,1,1.23.52,1.64,1.64,0,0,1,.54,1.21c0,1.45-1.18,2.7-3.52,3.75A14.34,14.34,0,0,1,1575,374.71Zm-.53-17.9a5,5,0,0,0-4,1.86,12.61,12.61,0,0,0-2.38,5.59l6-2.87a25.4,25.4,0,0,0,5.07-3A6.72,6.72,0,0,0,1574.5,356.81Z"/>
      <path class="cls-11" d="M1603,375.2c-1.13,0-1.76-.62-1.91-1.85l-.55-4.3a37,37,0,0,1-.27-4.3c0-.37,0-1,.07-1.87s.07-1.5.07-1.86c0-2.83-.53-4.25-1.58-4.25-1.46,0-2.86.88-4.2,2.62a17.76,17.76,0,0,0-2.83,6c0,.51-.08,1.15-.17,1.92a15.8,15.8,0,0,0-.12,1.91q0,.58.12,1.77c.07.78.11,1.37.11,1.76a2,2,0,0,1-.54,1.44,2,2,0,0,1-2.78,0,2,2,0,0,1-.53-1.44c0-.39,0-1-.12-1.76a16.87,16.87,0,0,1-.13-1.77c0-1.35.09-3.22.28-5.61s.29-4.26.29-5.61c0-.42,0-1-.07-1.86s-.07-1.45-.07-1.87a1.87,1.87,0,0,1,.56-1.39,2,2,0,0,1,1.39-.54c1.2,0,1.86.86,2,2.56l.06,2.3c2.2-2.94,4.46-4.4,6.77-4.4a4.43,4.43,0,0,1,4.39,2.77,14.44,14.44,0,0,1,.92,5.46v2l0,1.83a27.4,27.4,0,0,0,.42,4.21,27.29,27.29,0,0,1,.42,4.19,1.85,1.85,0,0,1-.56,1.41A1.93,1.93,0,0,1,1603,375.2Z"/>
      <path class="cls-11" d="M1634.11,357.07c-.27,0-.6,0-1,0s-.7,0-1,0-1.19.1-2.67.29l.37,11.61,0,.87,0,1q.08,4.31-2.06,4.3a2,2,0,0,1-1.37-.51,1.63,1.63,0,0,1-.58-1.28c0-.49,0-1.24.06-2.24s.06-1.74.06-2.23l-.39-11.48c-1,0-2.41-.15-4.36-.33a1.78,1.78,0,0,1-1.75-1.94,2,2,0,0,1,.53-1.44,1.75,1.75,0,0,1,1.35-.57l4.13.34c0-.67,0-1.57-.09-2.69s-.09-1.92-.09-2.42a1.81,1.81,0,0,1,.57-1.37,2,2,0,0,1,1.4-.54c1.17,0,1.86,1,2.06,2.89,0,.49.06,1.07.06,1.75l0,1.14,0,1.22c1.62-.21,2.55-.32,2.79-.32a11.19,11.19,0,0,1,2.67.2,1.72,1.72,0,0,1,1.2,1.84,2,2,0,0,1-.54,1.43A1.87,1.87,0,0,1,1634.11,357.07Z"/>
      <path class="cls-11" d="M1644.56,364.89c0,.78,0,2,.07,3.52s.07,2.74.07,3.53a2,2,0,0,1-.53,1.41,2,2,0,0,1-2.78,0,1.92,1.92,0,0,1-.54-1.41c0-.79,0-2-.07-3.53s-.07-2.74-.07-3.52c0-1.23.07-2.77.2-4.61s.19-3.38.19-4.61a2,2,0,0,1,.55-1.43,2,2,0,0,1,2.76,0,2,2,0,0,1,.54,1.43c0,1.23-.06,2.77-.19,4.61S1644.56,363.66,1644.56,364.89Zm-.88-15.95a2.28,2.28,0,0,1-1.63-.67,2.22,2.22,0,0,1,0-3.22,2.24,2.24,0,0,1,1.63-.67,2.2,2.2,0,0,1,1.62.67,2.25,2.25,0,0,1,0,3.22A2.24,2.24,0,0,1,1643.68,348.94Z"/>
      <path class="cls-11" d="M1656.19,358.37l-.3,9.76c0,1-.05,2.55-.15,4.55-.13,1.31-.78,2-1.93,2s-1.92-.67-1.92-2q0-2.38.21-7.15t.22-7.13q0-3.11.1-7.11c.06-2.66.1-5,.1-7.1a1.94,1.94,0,1,1,3.87,0c0,2.07,0,4.44-.1,7.1S1656.19,356.3,1656.19,358.37Z"/>
      <path class="cls-11" d="M1697.16,346.87a19.6,19.6,0,0,0-2,3.83l-1.49,4.31-5.29,14.28a41.82,41.82,0,0,1-2.16,4.91,2,2,0,0,1-1.77,1.18,2.17,2.17,0,0,1-2.12-1.54,155,155,0,0,1-5.28-17.18l-1.55-5.41a25.42,25.42,0,0,1-1.16-5.34,1.86,1.86,0,0,1,.63-1.45,1.92,1.92,0,0,1,1.37-.53,1.89,1.89,0,0,1,1.93,1.61L1679,349l1.89,6.67c1.26,4.88,2.48,9.07,3.67,12.6l.12-.32,5.26-14.26,1.67-4.81a15.59,15.59,0,0,1,2.38-4.4,2,2,0,0,1,3.56,1.26A2,2,0,0,1,1697.16,346.87Z"/>
      <path class="cls-11" d="M1715.73,375.1c-.25,0-.7-.29-1.36-.86a9,9,0,0,1-1.32-1.44,23.82,23.82,0,0,1-3.32,1.54,7.18,7.18,0,0,1-2.39.52q-4.6,0-6.7-2.59-2-2.43-2-7.46a11.26,11.26,0,0,1,3.27-8.13,10.46,10.46,0,0,1,7.8-3.38,10,10,0,0,1,3.83.88c1.78.73,2.68,1.62,2.68,2.65a1.36,1.36,0,0,1-.4.95,14.13,14.13,0,0,0-.3,2.45c-.07,1.14-.12,2.6-.13,4.38a15.87,15.87,0,0,0,.34,3.85,29.46,29.46,0,0,0,1.23,3.46c.09.23.25.58.45,1l.12.33a1.68,1.68,0,0,1-.55,1.3A1.8,1.8,0,0,1,1715.73,375.1Zm-4.09-13.65a17.7,17.7,0,0,1,.11-1.84c.07-.66.18-1.36.32-2.11a9.26,9.26,0,0,0-1.25-.55,2.65,2.65,0,0,0-.83-.18,6.79,6.79,0,0,0-5.25,2.49,8.32,8.32,0,0,0-2.21,5.72,8.41,8.41,0,0,0,1.14,4.84,3.89,3.89,0,0,0,3.41,1.61,6.79,6.79,0,0,0,3.2-.69,11.74,11.74,0,0,0,2-1.49A71.23,71.23,0,0,1,1711.64,361.45Z"/>
      <path class="cls-11" d="M1726,358.37l-.3,9.76c0,1-.05,2.55-.15,4.55-.13,1.31-.78,2-1.93,2s-1.92-.67-1.92-2q0-2.38.21-7.15t.22-7.13q0-3.11.1-7.11c.06-2.66.1-5,.1-7.1a1.94,1.94,0,1,1,3.87,0c0,2.07,0,4.44-.1,7.1S1726,356.3,1726,358.37Z"/>
      <path class="cls-11" d="M1742.6,364.47q-2.67.28-9.51.28-1.65,0-1.65-1.53c0-1,.55-1.54,1.65-1.54s2.59,0,4.66-.13,3.62-.14,4.65-.14,1.75.51,1.75,1.53S1743.63,364.36,1742.6,364.47Z"/>
      <path class="cls-11" d="M1761.89,357.07c-.28,0-.6,0-1,0s-.69,0-1,0-1.19.1-2.67.29l.37,11.61,0,.87,0,1c0,2.87-.63,4.3-2.06,4.3a2,2,0,0,1-1.37-.51,1.65,1.65,0,0,1-.57-1.28c0-.49,0-1.24.06-2.24s0-1.74,0-2.23l-.39-11.48c-1,0-2.41-.15-4.36-.33a1.78,1.78,0,0,1-1.75-1.94,2,2,0,0,1,.53-1.44,1.79,1.79,0,0,1,1.36-.57l4.12.34c0-.67,0-1.57-.09-2.69s-.08-1.92-.08-2.42a1.84,1.84,0,0,1,.56-1.37,2,2,0,0,1,1.4-.54c1.18,0,1.87,1,2.06,2.89,0,.49.06,1.07.06,1.75l0,1.14,0,1.22c1.63-.21,2.56-.32,2.79-.32a11.19,11.19,0,0,1,2.67.2,1.72,1.72,0,0,1,1.2,1.84,2,2,0,0,1-.54,1.43A1.85,1.85,0,0,1,1761.89,357.07Z"/>
    </g>
  </g>
  <g id="Game_over" data-name="Game over">
    <path class="cls-22" d="M1520.85,470c4,.79,6.86,3.91,7.09,7.22.31,4.33-3.94,8.91-9.62,8.55a115.16,115.16,0,0,0-15.92,3.31c-12.91,3.64-28.62,8.06-40.07,21-14.12,16-14.32,36.46-14.17,42.09.61,22.58,13.44,49.23,38.54,58.51,19.73,7.29,37.13.54,40.66-.92,29.47-12.15,36-44.35,36.52-47-4.15,4.68-9.39,7-13.38,5.5a7,7,0,0,1-3.64-2.82c-2-3.21-.4-7.49,0-8.6,3.61-9.49,4.19-47.51,4.19-47.51s5.21-5.63,8.1-2,40.14,28.24,40.14,28.24,3.62,5.14,0,8.07-12.71,7.29-12.71,7.29a85.24,85.24,0,0,1-5,33.8c-2,5.38-9.91,27.1-30.37,39.62-15.06,9.21-36.53,13.2-36.53,13.2h0a88.5,88.5,0,0,1-44.47-9.53A90.07,90.07,0,0,1,1437,598.75c-4.76-9.33-13.74-30.34-10.13-56.49A79.27,79.27,0,0,1,1437,511.81c13.16-22.34,34-30.9,42.67-34.48A99.71,99.71,0,0,1,1520.85,470Z"/>
    <path class="cls-4" d="M1517.07,470c3.82.74,6.59,3.7,6.81,6.83.29,4.1-3.78,8.44-9.24,8.1a112.86,112.86,0,0,0-15.28,3.12c-12.4,3.45-27.48,7.64-38.48,19.89-13.56,15.1-13.75,34.5-13.6,39.84.58,21.37,12.9,46.6,37,55.38,19,6.9,35.66.51,39-.87,28.3-11.5,34.6-42,35.07-44.44-4,4.43-9,6.58-12.85,5.2a6.67,6.67,0,0,1-3.5-2.67c-1.87-3-.38-7.09,0-8.13,3.47-9,4-45,4-45s5-5.34,7.78-1.87,38.55,26.74,38.55,26.74,3.47,4.86,0,7.64-12.21,6.9-12.21,6.9a79.6,79.6,0,0,1-4.81,32c-1.89,5.09-9.51,25.65-29.16,37.5-14.46,8.72-35.07,12.5-35.07,12.5h0a85.66,85.66,0,0,1-74.64-36.81c-4.57-8.83-13.19-28.71-9.72-53.47a74.23,74.23,0,0,1,9.72-28.82c12.64-21.14,32.62-29.25,41-32.64A97.06,97.06,0,0,1,1517.07,470Z"/>
  </g>
</svg>
