<svg xmlns="http://www.w3.org/2000/svg" xmlns:xlink="http://www.w3.org/1999/xlink" width="80mm" height="210mm" viewBox="0 0 226.77 595.28">
  <defs>
    <style>
      .cls-1 {
        fill: none;
      }

      .cls-2 {
        fill: #f3cdb5;
      }

      .cls-3 {
        fill: #fff;
      }

      .cls-4 {
        fill: #1d1d1b;
      }

      .cls-5 {
        opacity: 0.4;
      }

      .cls-6 {
        clip-path: url(#clip-path);
      }

      .cls-7 {
        fill: #cee5e5;
      }

      .cls-8 {
        fill: #cde5e5;
      }

      .cls-9 {
        fill: #cde4e5;
      }

      .cls-10 {
        fill: #cce4e6;
      }

      .cls-11 {
        fill: #cbe4e6;
      }

      .cls-12 {
        fill: #cae3e6;
      }

      .cls-13 {
        fill: #c9e3e6;
      }

      .cls-14 {
        fill: #c8e3e7;
      }

      .cls-15 {
        fill: #c7e2e7;
      }

      .cls-16 {
        fill: #c6e2e7;
      }

      .cls-17 {
        fill: #c5e1e8;
      }

      .cls-18 {
        fill: #c4e1e8;
      }

      .cls-19 {
        fill: #c3e1e8;
      }

      .cls-20 {
        fill: #c2e0e8;
      }

      .cls-21 {
        fill: #c1e0e9;
      }

      .cls-22 {
        fill: #c0e0e9;
      }

      .cls-23 {
        fill: #bfdfe9;
      }

      .cls-24 {
        fill: #bedfea;
      }

      .cls-25 {
        fill: #bddeea;
      }

      .cls-26 {
        fill: #bcdeea;
      }

      .cls-27 {
        fill: #bbddeb;
      }

      .cls-28 {
        fill: #baddeb;
      }

      .cls-29 {
        fill: #b9ddeb;
      }

      .cls-30 {
        fill: #b8dceb;
      }

      .cls-31 {
        fill: #b6dcec;
      }

      .cls-32 {
        fill: #b5dbec;
      }

      .cls-33 {
        fill: #b4dbec;
      }

      .cls-34 {
        fill: #b3dbec;
      }

      .cls-35 {
        fill: #b2daed;
      }

      .cls-36 {
        fill: #b1daed;
      }

      .cls-37 {
        fill: #b0d9ed;
      }

      .cls-38 {
        fill: #afd9ed;
      }

      .cls-39 {
        fill: #aed9ee;
      }

      .cls-40 {
        fill: #add8ee;
      }

      .cls-41 {
        fill: #acd8ee;
      }

      .cls-42 {
        fill: #aad7ef;
      }

      .cls-43 {
        fill: #a9d7ef;
      }

      .cls-44 {
        fill: #a8d6ef;
      }

      .cls-45 {
        fill: #a7d6ef;
      }

      .cls-46 {
        fill: #a6d6f0;
      }

      .cls-47 {
        fill: #a5d5f0;
      }

      .cls-48 {
        fill: #a3d5f0;
      }

      .cls-49 {
        fill: #a2d4f0;
      }

      .cls-50 {
        fill: #a0d3ef;
      }

      .cls-51 {
        fill: #9fd1ef;
      }

      .cls-52 {
        fill: #9dd0ee;
      }

      .cls-53 {
        fill: #9bceed;
      }

      .cls-54 {
        fill: #99cdec;
      }

      .cls-55 {
        fill: #98cbeb;
      }

      .cls-56 {
        fill: #96caea;
      }

      .cls-57 {
        fill: #94c8e9;
      }

      .cls-58 {
        fill: #93c7e8;
      }

      .cls-59 {
        fill: #91c5e7;
      }

      .cls-60 {
        fill: #90c4e7;
      }

      .cls-61 {
        fill: #8ec3e6;
      }

      .cls-62 {
        fill: #8cc1e5;
      }

      .cls-63 {
        fill: #8bc0e4;
      }

      .cls-64 {
        fill: #89bfe3;
      }

      .cls-65 {
        fill: #88bde3;
      }

      .cls-66 {
        fill: #86bce2;
      }

      .cls-67 {
        fill: #85bbe1;
      }

      .cls-68 {
        fill: #84bae0;
      }

      .cls-69 {
        fill: #82b9e0;
      }

      .cls-70 {
        fill: #81b8df;
      }

      .cls-71 {
        fill: #80b7de;
      }

      .cls-72 {
        fill: #7eb6de;
      }

      .cls-73 {
        fill: #7db5dd;
      }

      .cls-74 {
        fill: #7cb4dd;
      }

      .cls-75 {
        fill: #7bb3dc;
      }

      .cls-76 {
        fill: #7ab2db;
      }

      .cls-77 {
        fill: #78b1db;
      }

      .cls-78 {
        fill: #77b0da;
      }

      .cls-79 {
        fill: #76afda;
      }

      .cls-80 {
        fill: #75aed9;
      }

      .cls-81 {
        fill: #74aed9;
      }

      .cls-82 {
        fill: #73add8;
      }

      .cls-83 {
        fill: #72acd8;
      }

      .cls-84 {
        fill: #72abd7;
      }

      .cls-85 {
        fill: #71abd7;
      }

      .cls-86 {
        fill: #70aad7;
      }

      .cls-87 {
        fill: #6faad6;
      }

      .cls-88 {
        fill: #6fa9d6;
      }

      .cls-89 {
        fill: #6ea8d6;
      }

      .cls-90 {
        fill: #6da8d5;
      }

      .cls-91 {
        fill: #6da7d5;
      }

      .cls-92 {
        fill: #6ca7d5;
      }

      .cls-93 {
        fill: #6ca7d4;
      }

      .cls-94 {
        fill: #6ba6d4;
      }

      .cls-95 {
        fill: #6aa6d4;
      }

      .cls-96 {
        fill: #6aa5d3;
      }

      .cls-97 {
        fill: #69a5d3;
      }

      .cls-98 {
        fill: #69a4d3;
      }

      .cls-99 {
        clip-path: url(#clip-path-2);
      }

      .cls-100 {
        fill: #efc0a5;
      }

      .cls-101 {
        fill: #a04725;
      }

      .cls-102 {
        fill: #242e59;
      }

      .cls-103 {
        fill: #183e63;
      }

      .cls-104 {
        fill: #929292;
      }

      .cls-105 {
        fill: #3c3c3b;
      }

      .cls-106 {
        fill: #e8e8e8;
      }

      .cls-107 {
        fill: #313534;
      }
    </style>
    <clipPath id="clip-path">
      <ellipse class="cls-1" cx="24.15" cy="160.3" rx="18.34" ry="14.02"/>
    </clipPath>
    <clipPath id="clip-path-2">
      <ellipse class="cls-1" cx="59.31" cy="159.99" rx="18.34" ry="14.02"/>
    </clipPath>
  </defs>
  <g id="Brian">
    <g>
      <ellipse class="cls-2" cx="65.8" cy="203.94" rx="60.11" ry="38.21"/>
      <ellipse class="cls-2" cx="87.86" cy="152.69" rx="56.86" ry="69.57"/>
      <circle class="cls-3" cx="28.8" cy="160.57" r="12.18"/>
      <circle class="cls-4" cx="25.96" cy="160.68" r="2.84"/>
      <circle class="cls-3" cx="53.15" cy="159.99" r="12.18"/>
      <circle class="cls-4" cx="49.17" cy="160.11" r="2.84"/>
      <g class="cls-5">
        <g class="cls-6">
          <rect class="cls-7" x="5.8" y="146.27" width="0.46" height="28.05"/>
          <rect class="cls-8" x="6.26" y="146.27" width="0.46" height="28.05"/>
          <rect class="cls-9" x="6.72" y="146.27" width="0.46" height="28.05"/>
          <rect class="cls-10" x="7.18" y="146.27" width="0.46" height="28.05"/>
          <rect class="cls-11" x="7.65" y="146.27" width="0.46" height="28.05"/>
          <rect class="cls-11" x="8.11" y="146.27" width="0.46" height="28.05"/>
          <rect class="cls-12" x="8.57" y="146.27" width="0.46" height="28.05"/>
          <rect class="cls-13" x="9.03" y="146.27" width="0.46" height="28.05"/>
          <rect class="cls-14" x="9.49" y="146.27" width="0.46" height="28.05"/>
          <rect class="cls-15" x="9.95" y="146.27" width="0.46" height="28.05"/>
          <rect class="cls-15" x="10.41" y="146.27" width="0.46" height="28.05"/>
          <rect class="cls-16" x="10.87" y="146.27" width="0.46" height="28.05"/>
          <rect class="cls-17" x="11.33" y="146.27" width="0.46" height="28.05"/>
          <rect class="cls-18" x="11.79" y="146.27" width="0.46" height="28.05"/>
          <rect class="cls-19" x="12.25" y="146.27" width="0.46" height="28.05"/>
          <rect class="cls-20" x="12.71" y="146.27" width="0.46" height="28.05"/>
          <rect class="cls-21" x="13.18" y="146.27" width="0.46" height="28.05"/>
          <rect class="cls-22" x="13.64" y="146.27" width="0.46" height="28.05"/>
          <rect class="cls-23" x="14.1" y="146.27" width="0.46" height="28.05"/>
          <rect class="cls-23" x="14.56" y="146.27" width="0.46" height="28.05"/>
          <rect class="cls-24" x="15.02" y="146.27" width="0.46" height="28.05"/>
          <rect class="cls-25" x="15.48" y="146.27" width="0.46" height="28.05"/>
          <rect class="cls-26" x="15.94" y="146.27" width="0.46" height="28.05"/>
          <rect class="cls-27" x="16.4" y="146.27" width="0.46" height="28.05"/>
          <rect class="cls-28" x="16.86" y="146.27" width="0.46" height="28.05"/>
          <rect class="cls-29" x="17.32" y="146.27" width="0.46" height="28.05"/>
          <rect class="cls-30" x="17.78" y="146.27" width="0.46" height="28.05"/>
          <rect class="cls-31" x="18.24" y="146.27" width="0.46" height="28.05"/>
          <rect class="cls-32" x="18.7" y="146.27" width="0.46" height="28.05"/>
          <rect class="cls-33" x="19.17" y="146.27" width="0.46" height="28.05"/>
          <rect class="cls-34" x="19.63" y="146.27" width="0.46" height="28.05"/>
          <rect class="cls-35" x="20.09" y="146.27" width="0.46" height="28.05"/>
          <rect class="cls-36" x="20.55" y="146.27" width="0.46" height="28.05"/>
          <rect class="cls-37" x="21.01" y="146.27" width="0.46" height="28.05"/>
          <rect class="cls-38" x="21.47" y="146.27" width="0.46" height="28.05"/>
          <rect class="cls-39" x="21.93" y="146.27" width="0.46" height="28.05"/>
          <rect class="cls-40" x="22.39" y="146.27" width="0.46" height="28.05"/>
          <rect class="cls-41" x="22.85" y="146.27" width="0.46" height="28.05"/>
          <rect class="cls-42" x="23.31" y="146.27" width="0.46" height="28.05"/>
          <rect class="cls-43" x="23.77" y="146.27" width="0.46" height="28.05"/>
          <rect class="cls-44" x="24.23" y="146.27" width="0.46" height="28.05"/>
          <rect class="cls-45" x="24.69" y="146.27" width="0.46" height="28.05"/>
          <rect class="cls-46" x="25.16" y="146.27" width="0.46" height="28.05"/>
          <rect class="cls-47" x="25.62" y="146.27" width="0.46" height="28.05"/>
          <rect class="cls-48" x="26.08" y="146.27" width="0.46" height="28.05"/>
          <rect class="cls-49" x="26.54" y="146.27" width="0.46" height="28.05"/>
          <rect class="cls-49" x="27" y="146.27" width="0.28" height="28.05"/>
          <rect class="cls-50" x="27.28" y="146.27" width="0.28" height="28.05"/>
          <rect class="cls-51" x="27.56" y="146.27" width="0.28" height="28.05"/>
          <rect class="cls-52" x="27.84" y="146.27" width="0.28" height="28.05"/>
          <rect class="cls-53" x="28.13" y="146.27" width="0.28" height="28.05"/>
          <rect class="cls-54" x="28.41" y="146.27" width="0.28" height="28.05"/>
          <rect class="cls-55" x="28.69" y="146.27" width="0.28" height="28.05"/>
          <rect class="cls-56" x="28.97" y="146.27" width="0.28" height="28.05"/>
          <rect class="cls-57" x="29.25" y="146.27" width="0.28" height="28.05"/>
          <rect class="cls-58" x="29.53" y="146.27" width="0.28" height="28.05"/>
          <rect class="cls-59" x="29.81" y="146.27" width="0.28" height="28.05"/>
          <rect class="cls-60" x="30.1" y="146.27" width="0.28" height="28.05"/>
          <rect class="cls-61" x="30.38" y="146.27" width="0.28" height="28.05"/>
          <rect class="cls-62" x="30.66" y="146.27" width="0.28" height="28.05"/>
          <rect class="cls-63" x="30.94" y="146.27" width="0.28" height="28.05"/>
          <rect class="cls-64" x="31.22" y="146.27" width="0.28" height="28.05"/>
          <rect class="cls-65" x="31.5" y="146.27" width="0.28" height="28.05"/>
          <rect class="cls-66" x="31.79" y="146.27" width="0.28" height="28.05"/>
          <rect class="cls-67" x="32.07" y="146.27" width="0.28" height="28.05"/>
          <rect class="cls-68" x="32.35" y="146.27" width="0.28" height="28.05"/>
          <rect class="cls-69" x="32.63" y="146.27" width="0.28" height="28.05"/>
          <rect class="cls-70" x="32.91" y="146.27" width="0.28" height="28.05"/>
          <rect class="cls-71" x="33.19" y="146.27" width="0.28" height="28.05"/>
          <rect class="cls-72" x="33.48" y="146.27" width="0.28" height="28.05"/>
          <rect class="cls-73" x="33.76" y="146.27" width="0.28" height="28.05"/>
          <rect class="cls-74" x="34.04" y="146.27" width="0.28" height="28.05"/>
          <rect class="cls-75" x="34.32" y="146.27" width="0.28" height="28.05"/>
          <rect class="cls-76" x="34.6" y="146.27" width="0.28" height="28.05"/>
          <rect class="cls-77" x="34.88" y="146.27" width="0.28" height="28.05"/>
          <rect class="cls-78" x="35.17" y="146.27" width="0.28" height="28.05"/>
          <rect class="cls-79" x="35.45" y="146.27" width="0.28" height="28.05"/>
          <rect class="cls-80" x="35.73" y="146.27" width="0.28" height="28.05"/>
          <rect class="cls-81" x="36.01" y="146.27" width="0.28" height="28.05"/>
          <rect class="cls-82" x="36.29" y="146.27" width="0.28" height="28.05"/>
          <rect class="cls-83" x="36.57" y="146.27" width="0.28" height="28.05"/>
          <rect class="cls-84" x="36.86" y="146.27" width="0.28" height="28.05"/>
          <rect class="cls-85" x="37.14" y="146.27" width="0.28" height="28.05"/>
          <rect class="cls-86" x="37.42" y="146.27" width="0.28" height="28.05"/>
          <rect class="cls-87" x="37.7" y="146.27" width="0.28" height="28.05"/>
          <rect class="cls-88" x="37.98" y="146.27" width="0.28" height="28.05"/>
          <rect class="cls-89" x="38.26" y="146.27" width="0.28" height="28.05"/>
          <rect class="cls-90" x="38.54" y="146.27" width="0.28" height="28.05"/>
          <rect class="cls-91" x="38.83" y="146.27" width="0.28" height="28.05"/>
          <rect class="cls-92" x="39.11" y="146.27" width="0.28" height="28.05"/>
          <rect class="cls-93" x="39.39" y="146.27" width="0.28" height="28.05"/>
          <rect class="cls-94" x="39.67" y="146.27" width="0.28" height="28.05"/>
          <rect class="cls-94" x="39.95" y="146.27" width="0.28" height="28.05"/>
          <rect class="cls-95" x="40.23" y="146.27" width="0.28" height="28.05"/>
          <rect class="cls-96" x="40.52" y="146.27" width="0.28" height="28.05"/>
          <rect class="cls-96" x="40.8" y="146.27" width="0.28" height="28.05"/>
          <rect class="cls-97" x="41.08" y="146.27" width="0.28" height="28.05"/>
          <rect class="cls-97" x="41.36" y="146.27" width="0.28" height="28.05"/>
          <rect class="cls-97" x="41.64" y="146.27" width="0.28" height="28.05"/>
          <rect class="cls-98" x="41.92" y="146.27" width="0.28" height="28.05"/>
          <rect class="cls-98" x="42.21" y="146.27" width="0.28" height="28.05"/>
        </g>
      </g>
      <g class="cls-5">
        <g class="cls-99">
          <rect class="cls-7" x="40.97" y="145.97" width="0.46" height="28.05"/>
          <rect class="cls-8" x="41.43" y="145.97" width="0.46" height="28.05"/>
          <rect class="cls-9" x="41.89" y="145.97" width="0.46" height="28.05"/>
          <rect class="cls-10" x="42.35" y="145.97" width="0.46" height="28.05"/>
          <rect class="cls-11" x="42.82" y="145.97" width="0.46" height="28.05"/>
          <rect class="cls-11" x="43.28" y="145.97" width="0.46" height="28.05"/>
          <rect class="cls-12" x="43.74" y="145.97" width="0.46" height="28.05"/>
          <rect class="cls-13" x="44.2" y="145.97" width="0.46" height="28.05"/>
          <rect class="cls-14" x="44.66" y="145.97" width="0.46" height="28.05"/>
          <rect class="cls-15" x="45.12" y="145.97" width="0.46" height="28.05"/>
          <rect class="cls-15" x="45.58" y="145.97" width="0.46" height="28.05"/>
          <rect class="cls-16" x="46.04" y="145.97" width="0.46" height="28.05"/>
          <rect class="cls-17" x="46.5" y="145.97" width="0.46" height="28.05"/>
          <rect class="cls-18" x="46.96" y="145.97" width="0.46" height="28.05"/>
          <rect class="cls-19" x="47.42" y="145.97" width="0.46" height="28.05"/>
          <rect class="cls-20" x="47.88" y="145.97" width="0.46" height="28.05"/>
          <rect class="cls-21" x="48.34" y="145.97" width="0.46" height="28.05"/>
          <rect class="cls-22" x="48.81" y="145.97" width="0.46" height="28.05"/>
          <rect class="cls-23" x="49.27" y="145.97" width="0.46" height="28.05"/>
          <rect class="cls-23" x="49.73" y="145.97" width="0.46" height="28.05"/>
          <rect class="cls-24" x="50.19" y="145.97" width="0.46" height="28.05"/>
          <rect class="cls-25" x="50.65" y="145.97" width="0.46" height="28.05"/>
          <rect class="cls-26" x="51.11" y="145.97" width="0.46" height="28.05"/>
          <rect class="cls-27" x="51.57" y="145.97" width="0.46" height="28.05"/>
          <rect class="cls-28" x="52.03" y="145.97" width="0.46" height="28.05"/>
          <rect class="cls-29" x="52.49" y="145.97" width="0.46" height="28.05"/>
          <rect class="cls-30" x="52.95" y="145.97" width="0.46" height="28.05"/>
          <rect class="cls-31" x="53.41" y="145.97" width="0.46" height="28.05"/>
          <rect class="cls-32" x="53.87" y="145.97" width="0.46" height="28.05"/>
          <rect class="cls-33" x="54.33" y="145.97" width="0.46" height="28.05"/>
          <rect class="cls-34" x="54.8" y="145.97" width="0.46" height="28.05"/>
          <rect class="cls-35" x="55.26" y="145.97" width="0.46" height="28.05"/>
          <rect class="cls-36" x="55.72" y="145.97" width="0.46" height="28.05"/>
          <rect class="cls-37" x="56.18" y="145.97" width="0.46" height="28.05"/>
          <rect class="cls-38" x="56.64" y="145.97" width="0.46" height="28.05"/>
          <rect class="cls-39" x="57.1" y="145.97" width="0.46" height="28.05"/>
          <rect class="cls-40" x="57.56" y="145.97" width="0.46" height="28.05"/>
          <rect class="cls-41" x="58.02" y="145.97" width="0.46" height="28.05"/>
          <rect class="cls-42" x="58.48" y="145.97" width="0.46" height="28.05"/>
          <rect class="cls-43" x="58.94" y="145.97" width="0.46" height="28.05"/>
          <rect class="cls-44" x="59.4" y="145.97" width="0.46" height="28.05"/>
          <rect class="cls-45" x="59.86" y="145.97" width="0.46" height="28.05"/>
          <rect class="cls-46" x="60.33" y="145.97" width="0.46" height="28.05"/>
          <rect class="cls-47" x="60.79" y="145.97" width="0.46" height="28.05"/>
          <rect class="cls-48" x="61.25" y="145.97" width="0.46" height="28.05"/>
          <rect class="cls-49" x="61.71" y="145.97" width="0.46" height="28.05"/>
          <rect class="cls-49" x="62.17" y="145.97" width="0.28" height="28.05"/>
          <rect class="cls-50" x="62.45" y="145.97" width="0.28" height="28.05"/>
          <rect class="cls-51" x="62.73" y="145.97" width="0.28" height="28.05"/>
          <rect class="cls-52" x="63.01" y="145.97" width="0.28" height="28.05"/>
          <rect class="cls-53" x="63.29" y="145.97" width="0.28" height="28.05"/>
          <rect class="cls-54" x="63.58" y="145.97" width="0.28" height="28.05"/>
          <rect class="cls-55" x="63.86" y="145.97" width="0.28" height="28.05"/>
          <rect class="cls-56" x="64.14" y="145.97" width="0.28" height="28.05"/>
          <rect class="cls-57" x="64.42" y="145.97" width="0.28" height="28.05"/>
          <rect class="cls-58" x="64.7" y="145.97" width="0.28" height="28.05"/>
          <rect class="cls-59" x="64.98" y="145.97" width="0.28" height="28.05"/>
          <rect class="cls-60" x="65.27" y="145.97" width="0.28" height="28.05"/>
          <rect class="cls-61" x="65.55" y="145.97" width="0.28" height="28.05"/>
          <rect class="cls-62" x="65.83" y="145.97" width="0.28" height="28.05"/>
          <rect class="cls-63" x="66.11" y="145.97" width="0.28" height="28.05"/>
          <rect class="cls-64" x="66.39" y="145.97" width="0.28" height="28.05"/>
          <rect class="cls-65" x="66.67" y="145.97" width="0.28" height="28.05"/>
          <rect class="cls-66" x="66.96" y="145.97" width="0.28" height="28.05"/>
          <rect class="cls-67" x="67.24" y="145.97" width="0.28" height="28.05"/>
          <rect class="cls-68" x="67.52" y="145.97" width="0.28" height="28.05"/>
          <rect class="cls-69" x="67.8" y="145.97" width="0.28" height="28.05"/>
          <rect class="cls-70" x="68.08" y="145.97" width="0.28" height="28.05"/>
          <rect class="cls-71" x="68.36" y="145.97" width="0.28" height="28.05"/>
          <rect class="cls-72" x="68.65" y="145.97" width="0.28" height="28.05"/>
          <rect class="cls-73" x="68.93" y="145.97" width="0.28" height="28.05"/>
          <rect class="cls-74" x="69.21" y="145.97" width="0.28" height="28.05"/>
          <rect class="cls-75" x="69.49" y="145.97" width="0.28" height="28.05"/>
          <rect class="cls-76" x="69.77" y="145.97" width="0.28" height="28.05"/>
          <rect class="cls-77" x="70.05" y="145.97" width="0.28" height="28.05"/>
          <rect class="cls-78" x="70.34" y="145.97" width="0.28" height="28.05"/>
          <rect class="cls-79" x="70.62" y="145.97" width="0.28" height="28.05"/>
          <rect class="cls-80" x="70.9" y="145.97" width="0.28" height="28.05"/>
          <rect class="cls-81" x="71.18" y="145.97" width="0.28" height="28.05"/>
          <rect class="cls-82" x="71.46" y="145.97" width="0.28" height="28.05"/>
          <rect class="cls-83" x="71.74" y="145.97" width="0.28" height="28.05"/>
          <rect class="cls-84" x="72.03" y="145.97" width="0.28" height="28.05"/>
          <rect class="cls-85" x="72.31" y="145.97" width="0.28" height="28.05"/>
          <rect class="cls-86" x="72.59" y="145.97" width="0.28" height="28.05"/>
          <rect class="cls-87" x="72.87" y="145.97" width="0.28" height="28.05"/>
          <rect class="cls-88" x="73.15" y="145.97" width="0.28" height="28.05"/>
          <rect class="cls-89" x="73.43" y="145.97" width="0.28" height="28.05"/>
          <rect class="cls-90" x="73.71" y="145.97" width="0.28" height="28.05"/>
          <rect class="cls-91" x="74" y="145.97" width="0.28" height="28.05"/>
          <rect class="cls-92" x="74.28" y="145.97" width="0.28" height="28.05"/>
          <rect class="cls-93" x="74.56" y="145.97" width="0.28" height="28.05"/>
          <rect class="cls-94" x="74.84" y="145.97" width="0.28" height="28.05"/>
          <rect class="cls-94" x="75.12" y="145.97" width="0.28" height="28.05"/>
          <rect class="cls-95" x="75.4" y="145.97" width="0.28" height="28.05"/>
          <rect class="cls-96" x="75.69" y="145.97" width="0.28" height="28.05"/>
          <rect class="cls-96" x="75.97" y="145.97" width="0.28" height="28.05"/>
          <rect class="cls-97" x="76.25" y="145.97" width="0.28" height="28.05"/>
          <rect class="cls-97" x="76.53" y="145.97" width="0.28" height="28.05"/>
          <rect class="cls-97" x="76.81" y="145.97" width="0.28" height="28.05"/>
          <rect class="cls-98" x="77.09" y="145.97" width="0.28" height="28.05"/>
          <rect class="cls-98" x="77.38" y="145.97" width="0.28" height="28.05"/>
        </g>
      </g>
      <ellipse class="cls-100" cx="40.82" cy="169.1" rx="5.96" ry="4.91"/>
      <path class="cls-101" d="M56.41,129s-10.16,15.33-16.48,15.67.58-6.33.58-6.33S28.06,143,28,149s-6.34-5.29-3.86-9.47,10-7.56,10-7.56A45.56,45.56,0,0,1,45.31,129,44.87,44.87,0,0,1,56.41,129Z"/>
      <path class="cls-101" d="M88.36,132.73s-8.63,35.1,9.28,48.07c2.13,1.53,6.85,3.76,7.66,2.77s-2.91-4.42-4.44-11.33c-.24-1.1-.93-4.22-.17-4.56,1-.42,3.89,3.48,5.75,7.1,4.61,9,2.78,16.77,4.73,17.24,1,.23,2.75-1.31,6.43-9.47a62.71,62.71,0,0,0-.75,19.75c.78,6.47,1.6,13.2,5.48,14.66,0,0,2.14.8,14.53-6.09h0s9.27-.74,11.12-16.49-3.26-36.27-3.26-36.27a141.35,141.35,0,0,0-37.6-20.18A139.66,139.66,0,0,0,88.36,132.73Z"/>
      <path class="cls-102" d="M33.48,132.31c16-3.76,37.49-6,59.79,1.59,26.8,9.08,45.88,29.21,51.45,24.21,1.84-1.65.36-4.41-1.59-22.69-1.36-12.64-.87-13.32-1.64-18.38-.58-3.81-3.82-22.84-13.87-33C111,67.13,71.25,69.73,49.79,92,35.61,106.66,33.8,125.36,33.48,132.31Z"/>
      <path class="cls-103" d="M33.48,132.31c24.94-5.81,43.06-3.07,54.88.42,28.29,8.35,51.89,30.2,56.36,25.38.62-.67.55-2.86.43-7.25a63.61,63.61,0,0,0-1.8-13.35c-10.74-7.65-38.82-25.33-76.18-23.13a111.13,111.13,0,0,0-32.31,6.87Z"/>
      <circle class="cls-103" cx="118.76" cy="72.13" r="11"/>
      <path class="cls-3" d="M55.12,216.9c-2,.16-3.76-2-4-4.92s6.89-3.47,7.13-.59S57.09,216.74,55.12,216.9Z"/>
      <rect class="cls-104" x="52.71" y="212.4" width="3.97" height="1.61" transform="translate(-17.42 5.25) rotate(-4.74)"/>
      <path class="cls-3" d="M62.94,215.29c-1.95.32-3.92-1.73-4.39-4.58s6.58-4,7.06-1.17S64.89,215,62.94,215.29Z"/>
      <rect class="cls-104" x="60.23" y="210.83" width="3.97" height="1.61" transform="translate(-33.99 13.13) rotate(-9.47)"/>
      <path class="cls-3" d="M70.56,213.49c-1.91.49-4-1.39-4.75-4.19s6.23-4.56,6.94-1.76S72.48,213,70.56,213.49Z"/>
      <rect class="cls-104" x="67.55" y="209.11" width="3.97" height="1.61" transform="translate(-49.41 23.5) rotate(-14.21)"/>
      <path class="cls-3" d="M79.08,210.59c-1.74.93-4.26-.38-5.62-2.93s5-5.92,6.32-3.37S80.83,209.66,79.08,210.59Z"/>
      <rect class="cls-104" x="75.25" y="206.56" width="3.97" height="1.61" transform="translate(-88.5 60.74) rotate(-28.07)"/>
      <path class="cls-3" d="M86.83,206.31c-1.53,1.24-4.25.42-6.07-1.83s3.76-6.74,5.57-4.5S88.37,205.06,86.83,206.31Z"/>
      <rect class="cls-104" x="82.42" y="202.68" width="3.97" height="1.61" transform="translate(-109.06 98.12) rotate(-38.9)"/>
      <path class="cls-105" d="M91.37,194.74c-9.66,9.37-12.63,10.88-22.26,13.81-5,1.52-17.2,3.43-21.75,1.51l1.17-2.76c3.27,1.38,14.43,0,19.71-1.62,9.19-2.8,11.8-4.13,21.05-13.1Z"/>
      <rect class="cls-2" x="111.04" y="227.27" width="9.56" height="20.35" transform="translate(-103.21 89.72) rotate(-30)"/>
      <path class="cls-103" d="M191.15,319.5c3.94,43.69-4.6,62.92-11.3,73.58-3.22,5.12-14.6,22.67-35.22,28.64-5,1.46-15.23,4.42-22.82-.75-7-4.77-8.7-14.36-9-25.63-1.11-36.72,13.7-46.27,13.56-71.59-.17-33.77-26.63-39.85-22.61-67.08,3.59-24.32,28.94-48.25,47.49-45.22C181.87,216.46,188.88,294.32,191.15,319.5Z"/>
      <path class="cls-102" d="M120.65,525.73,110,523.44c-2.62-15.11-4.61-28.15-6.08-38.45-5.63-39.48-5.75-53.34,1.74-66.21A49.27,49.27,0,0,1,114.13,408l7.68,13c-6,21.58-5.87,38.07-4.63,49.28.73,6.48,2,12.49,2.89,24A253.68,253.68,0,0,1,120.65,525.73Z"/>
      <path class="cls-102" d="M151.45,525.73H139.67c-1.91-18.55-4.11-33.25-5.72-43.05-3-18.18-5.42-28.44-1.73-41.93a60.6,60.6,0,0,1,8.3-17.92l19-8.17a102.65,102.65,0,0,0-13.19,35.92c-1.69,10.42-1.29,18.42-.57,31.23A310.9,310.9,0,0,0,151.45,525.73Z"/>
      <path class="cls-102" d="M152.66,366.75a7.23,7.23,0,0,1-5.36-2.22,7.55,7.55,0,0,1-2.22-5.36,181.35,181.35,0,0,0,4.81-61.62,178.13,178.13,0,0,0-4.81-27.5,7.72,7.72,0,0,1,2.22-5.35,7.58,7.58,0,0,1,12.94,5.35c.82,8.61,1.4,17.73,1.62,27.34a384.67,384.67,0,0,1-1.75,46.76C159.39,356.86,156.63,366.19,152.66,366.75Z"/>
      <ellipse class="cls-2" cx="147.98" cy="368.07" rx="12.91" ry="9.9" transform="translate(-248.71 364.56) rotate(-67.59)"/>
      <g>
        <ellipse class="cls-106" cx="90.16" cy="532.39" rx="33.22" ry="12.27" transform="translate(-161.97 54.9) rotate(-18.22)"/>
        <path class="cls-107" d="M58.65,542.9c4.32,6,7.14,3.71,20.66,3.39,5.75-.14,24.46-7.47,28.6-9.84,9.13-5.23,15.35-10.19,13.76-14.57-1.23-3.41-6.36-5.09-13-6.72-6-1.48-14.35,3.79-22.69,5.69C68.06,524.94,54.65,537.36,58.65,542.9Z"/>
        <path class="cls-107" d="M105.43,520.54l4.4-.25a3.07,3.07,0,0,0,2.91-3.08l-.16-6.38a2.85,2.85,0,0,0-3.06-2.74l-4.4.25a3.06,3.06,0,0,0-2.91,3.08l.16,6.38A2.85,2.85,0,0,0,105.43,520.54Z"/>
      </g>
      <g>
        <ellipse class="cls-106" cx="125.14" cy="535.28" rx="33.22" ry="12.27" transform="translate(-161.12 65.98) rotate(-18.22)"/>
        <path class="cls-107" d="M93.63,545.8c4.32,6,7.14,3.7,20.66,3.38,5.75-.13,24.47-7.46,28.61-9.84,9.12-5.23,15.34-10.18,13.75-14.57-1.23-3.4-6.36-5.09-13-6.72-6.06-1.48-14.35,3.79-22.69,5.69C103,527.83,89.63,540.25,93.63,545.8Z"/>
        <path class="cls-107" d="M140.41,523.43l4.4-.25a3.06,3.06,0,0,0,2.91-3.08l-.16-6.38A2.85,2.85,0,0,0,144.5,511l-4.39.25a3.08,3.08,0,0,0-2.92,3.08l.16,6.38A2.84,2.84,0,0,0,140.41,523.43Z"/>
      </g>
    </g>
  </g>
</svg>
