<svg xmlns="http://www.w3.org/2000/svg" xmlns:xlink="http://www.w3.org/1999/xlink" width="90mm" height="190mm" viewBox="0 0 255.12 538.58">
  <defs>
    <style>
      .cls-1 {
        fill: none;
      }

      .cls-2 {
        fill: #f3cdb5;
      }

      .cls-3 {
        fill: #fff;
      }

      .cls-4 {
        fill: #1d1d1b;
      }

      .cls-5 {
        opacity: 0.4;
      }

      .cls-6 {
        clip-path: url(#clip-path);
      }

      .cls-7 {
        fill: #cee5e5;
      }

      .cls-8 {
        fill: #cde5e5;
      }

      .cls-9 {
        fill: #cde4e5;
      }

      .cls-10 {
        fill: #cce4e6;
      }

      .cls-11 {
        fill: #cbe4e6;
      }

      .cls-12 {
        fill: #cae3e6;
      }

      .cls-13 {
        fill: #c9e3e6;
      }

      .cls-14 {
        fill: #c8e3e7;
      }

      .cls-15 {
        fill: #c7e2e7;
      }

      .cls-16 {
        fill: #c6e2e7;
      }

      .cls-17 {
        fill: #c5e1e8;
      }

      .cls-18 {
        fill: #c4e1e8;
      }

      .cls-19 {
        fill: #c3e1e8;
      }

      .cls-20 {
        fill: #c2e0e8;
      }

      .cls-21 {
        fill: #c1e0e9;
      }

      .cls-22 {
        fill: #c0e0e9;
      }

      .cls-23 {
        fill: #bfdfe9;
      }

      .cls-24 {
        fill: #bedfea;
      }

      .cls-25 {
        fill: #bddeea;
      }

      .cls-26 {
        fill: #bcdeea;
      }

      .cls-27 {
        fill: #bbddeb;
      }

      .cls-28 {
        fill: #baddeb;
      }

      .cls-29 {
        fill: #b9ddeb;
      }

      .cls-30 {
        fill: #b8dceb;
      }

      .cls-31 {
        fill: #b6dcec;
      }

      .cls-32 {
        fill: #b5dbec;
      }

      .cls-33 {
        fill: #b4dbec;
      }

      .cls-34 {
        fill: #b3dbec;
      }

      .cls-35 {
        fill: #b2daed;
      }

      .cls-36 {
        fill: #b1daed;
      }

      .cls-37 {
        fill: #b0d9ed;
      }

      .cls-38 {
        fill: #afd9ed;
      }

      .cls-39 {
        fill: #aed9ee;
      }

      .cls-40 {
        fill: #add8ee;
      }

      .cls-41 {
        fill: #acd8ee;
      }

      .cls-42 {
        fill: #aad7ef;
      }

      .cls-43 {
        fill: #a9d7ef;
      }

      .cls-44 {
        fill: #a8d6ef;
      }

      .cls-45 {
        fill: #a7d6ef;
      }

      .cls-46 {
        fill: #a6d6f0;
      }

      .cls-47 {
        fill: #a5d5f0;
      }

      .cls-48 {
        fill: #a3d5f0;
      }

      .cls-49 {
        fill: #a2d4f0;
      }

      .cls-50 {
        fill: #a0d3ef;
      }

      .cls-51 {
        fill: #9fd1ef;
      }

      .cls-52 {
        fill: #9dd0ee;
      }

      .cls-53 {
        fill: #9bceed;
      }

      .cls-54 {
        fill: #99cdec;
      }

      .cls-55 {
        fill: #98cbeb;
      }

      .cls-56 {
        fill: #96caea;
      }

      .cls-57 {
        fill: #94c8e9;
      }

      .cls-58 {
        fill: #93c7e8;
      }

      .cls-59 {
        fill: #91c5e7;
      }

      .cls-60 {
        fill: #90c4e7;
      }

      .cls-61 {
        fill: #8ec3e6;
      }

      .cls-62 {
        fill: #8cc1e5;
      }

      .cls-63 {
        fill: #8bc0e4;
      }

      .cls-64 {
        fill: #89bfe3;
      }

      .cls-65 {
        fill: #88bde3;
      }

      .cls-66 {
        fill: #86bce2;
      }

      .cls-67 {
        fill: #85bbe1;
      }

      .cls-68 {
        fill: #84bae0;
      }

      .cls-69 {
        fill: #82b9e0;
      }

      .cls-70 {
        fill: #81b8df;
      }

      .cls-71 {
        fill: #80b7de;
      }

      .cls-72 {
        fill: #7eb6de;
      }

      .cls-73 {
        fill: #7db5dd;
      }

      .cls-74 {
        fill: #7cb4dd;
      }

      .cls-75 {
        fill: #7bb3dc;
      }

      .cls-76 {
        fill: #7ab2db;
      }

      .cls-77 {
        fill: #78b1db;
      }

      .cls-78 {
        fill: #77b0da;
      }

      .cls-79 {
        fill: #76afda;
      }

      .cls-80 {
        fill: #75aed9;
      }

      .cls-81 {
        fill: #74aed9;
      }

      .cls-82 {
        fill: #73add8;
      }

      .cls-83 {
        fill: #72acd8;
      }

      .cls-84 {
        fill: #72abd7;
      }

      .cls-85 {
        fill: #71abd7;
      }

      .cls-86 {
        fill: #70aad7;
      }

      .cls-87 {
        fill: #6faad6;
      }

      .cls-88 {
        fill: #6fa9d6;
      }

      .cls-89 {
        fill: #6ea8d6;
      }

      .cls-90 {
        fill: #6da8d5;
      }

      .cls-91 {
        fill: #6da7d5;
      }

      .cls-92 {
        fill: #6ca7d5;
      }

      .cls-93 {
        fill: #6ca7d4;
      }

      .cls-94 {
        fill: #6ba6d4;
      }

      .cls-95 {
        fill: #6aa6d4;
      }

      .cls-96 {
        fill: #6aa5d3;
      }

      .cls-97 {
        fill: #69a5d3;
      }

      .cls-98 {
        fill: #69a4d3;
      }

      .cls-99 {
        clip-path: url(#clip-path-2);
      }

      .cls-100 {
        fill: #efc0a5;
      }

      .cls-101 {
        fill: #a04725;
      }

      .cls-102 {
        fill: #242e59;
      }

      .cls-103 {
        fill: #183e63;
      }

      .cls-104 {
        fill: #929292;
      }

      .cls-105 {
        fill: #3c3c3b;
      }

      .cls-106 {
        fill: #e8e8e8;
      }

      .cls-107 {
        fill: #313534;
      }
    </style>
    <clipPath id="clip-path">
      <ellipse class="cls-1" cx="204.28" cy="135.68" rx="18.34" ry="14.02"/>
    </clipPath>
    <clipPath id="clip-path-2">
      <ellipse class="cls-1" cx="169.11" cy="135.37" rx="18.34" ry="14.02"/>
    </clipPath>
  </defs>
  <g id="Inde_i_bussen" data-name="Inde i bussen">
    <g>
      <g>
        <ellipse class="cls-2" cx="162.63" cy="179.32" rx="60.11" ry="38.21"/>
        <ellipse class="cls-2" cx="140.57" cy="128.07" rx="56.86" ry="69.57"/>
        <circle class="cls-3" cx="199.63" cy="135.95" r="12.18"/>
        <circle class="cls-4" cx="202.46" cy="136.07" r="2.84"/>
        <circle class="cls-3" cx="175.27" cy="135.37" r="12.18"/>
        <circle class="cls-4" cx="179.25" cy="135.49" r="2.84"/>
        <g class="cls-5">
          <g class="cls-6">
            <rect class="cls-7" x="222.16" y="121.65" width="0.46" height="28.05"/>
            <rect class="cls-8" x="221.7" y="121.65" width="0.46" height="28.05"/>
            <rect class="cls-9" x="221.24" y="121.65" width="0.46" height="28.05"/>
            <rect class="cls-10" x="220.78" y="121.65" width="0.46" height="28.05"/>
            <rect class="cls-11" x="220.32" y="121.65" width="0.46" height="28.05"/>
            <rect class="cls-11" x="219.86" y="121.65" width="0.46" height="28.05"/>
            <rect class="cls-12" x="219.39" y="121.65" width="0.46" height="28.05"/>
            <rect class="cls-13" x="218.93" y="121.65" width="0.46" height="28.05"/>
            <rect class="cls-14" x="218.47" y="121.65" width="0.46" height="28.05"/>
            <rect class="cls-15" x="218.01" y="121.65" width="0.46" height="28.05"/>
            <rect class="cls-15" x="217.55" y="121.65" width="0.46" height="28.05"/>
            <rect class="cls-16" x="217.09" y="121.65" width="0.46" height="28.05"/>
            <rect class="cls-17" x="216.63" y="121.65" width="0.46" height="28.05"/>
            <rect class="cls-18" x="216.17" y="121.65" width="0.46" height="28.05"/>
            <rect class="cls-19" x="215.71" y="121.65" width="0.46" height="28.05"/>
            <rect class="cls-20" x="215.25" y="121.65" width="0.46" height="28.05"/>
            <rect class="cls-21" x="214.79" y="121.65" width="0.46" height="28.05"/>
            <rect class="cls-22" x="214.33" y="121.65" width="0.46" height="28.05"/>
            <rect class="cls-23" x="213.87" y="121.65" width="0.46" height="28.05"/>
            <rect class="cls-23" x="213.4" y="121.65" width="0.46" height="28.05"/>
            <rect class="cls-24" x="212.94" y="121.65" width="0.46" height="28.05"/>
            <rect class="cls-25" x="212.48" y="121.65" width="0.46" height="28.05"/>
            <rect class="cls-26" x="212.02" y="121.65" width="0.46" height="28.05"/>
            <rect class="cls-27" x="211.56" y="121.65" width="0.46" height="28.05"/>
            <rect class="cls-28" x="211.1" y="121.65" width="0.46" height="28.05"/>
            <rect class="cls-29" x="210.64" y="121.65" width="0.46" height="28.05"/>
            <rect class="cls-30" x="210.18" y="121.65" width="0.46" height="28.05"/>
            <rect class="cls-31" x="209.72" y="121.65" width="0.46" height="28.05"/>
            <rect class="cls-32" x="209.26" y="121.65" width="0.46" height="28.05"/>
            <rect class="cls-33" x="208.8" y="121.65" width="0.46" height="28.05"/>
            <rect class="cls-34" x="208.34" y="121.65" width="0.46" height="28.05"/>
            <rect class="cls-35" x="207.88" y="121.65" width="0.46" height="28.05"/>
            <rect class="cls-36" x="207.41" y="121.65" width="0.46" height="28.05"/>
            <rect class="cls-37" x="206.95" y="121.65" width="0.46" height="28.05"/>
            <rect class="cls-38" x="206.49" y="121.65" width="0.46" height="28.05"/>
            <rect class="cls-39" x="206.03" y="121.65" width="0.46" height="28.05"/>
            <rect class="cls-40" x="205.57" y="121.65" width="0.46" height="28.05"/>
            <rect class="cls-41" x="205.11" y="121.65" width="0.46" height="28.05"/>
            <rect class="cls-42" x="204.65" y="121.65" width="0.46" height="28.05"/>
            <rect class="cls-43" x="204.19" y="121.65" width="0.46" height="28.05"/>
            <rect class="cls-44" x="203.73" y="121.65" width="0.46" height="28.05"/>
            <rect class="cls-45" x="203.27" y="121.65" width="0.46" height="28.05"/>
            <rect class="cls-46" x="202.81" y="121.65" width="0.46" height="28.05"/>
            <rect class="cls-47" x="202.35" y="121.65" width="0.46" height="28.05"/>
            <rect class="cls-48" x="201.88" y="121.65" width="0.46" height="28.05"/>
            <rect class="cls-49" x="201.42" y="121.65" width="0.46" height="28.05"/>
            <rect class="cls-49" x="201.14" y="121.65" width="0.28" height="28.05"/>
            <rect class="cls-50" x="200.86" y="121.65" width="0.28" height="28.05"/>
            <rect class="cls-51" x="200.58" y="121.65" width="0.28" height="28.05"/>
            <rect class="cls-52" x="200.3" y="121.65" width="0.28" height="28.05"/>
            <rect class="cls-53" x="200.02" y="121.65" width="0.28" height="28.05"/>
            <rect class="cls-54" x="199.73" y="121.65" width="0.28" height="28.05"/>
            <rect class="cls-55" x="199.45" y="121.65" width="0.28" height="28.05"/>
            <rect class="cls-56" x="199.17" y="121.65" width="0.28" height="28.05"/>
            <rect class="cls-57" x="198.89" y="121.65" width="0.28" height="28.05"/>
            <rect class="cls-58" x="198.61" y="121.65" width="0.28" height="28.05"/>
            <rect class="cls-59" x="198.33" y="121.65" width="0.28" height="28.05"/>
            <rect class="cls-60" x="198.04" y="121.65" width="0.28" height="28.05"/>
            <rect class="cls-61" x="197.76" y="121.65" width="0.28" height="28.05"/>
            <rect class="cls-62" x="197.48" y="121.65" width="0.28" height="28.05"/>
            <rect class="cls-63" x="197.2" y="121.65" width="0.28" height="28.05"/>
            <rect class="cls-64" x="196.92" y="121.65" width="0.28" height="28.05"/>
            <rect class="cls-65" x="196.64" y="121.65" width="0.28" height="28.05"/>
            <rect class="cls-66" x="196.36" y="121.65" width="0.28" height="28.05"/>
            <rect class="cls-67" x="196.07" y="121.65" width="0.28" height="28.05"/>
            <rect class="cls-68" x="195.79" y="121.65" width="0.28" height="28.05"/>
            <rect class="cls-69" x="195.51" y="121.65" width="0.28" height="28.05"/>
            <rect class="cls-70" x="195.23" y="121.65" width="0.28" height="28.05"/>
            <rect class="cls-71" x="194.95" y="121.65" width="0.28" height="28.05"/>
            <rect class="cls-72" x="194.67" y="121.65" width="0.28" height="28.05"/>
            <rect class="cls-73" x="194.38" y="121.65" width="0.28" height="28.05"/>
            <rect class="cls-74" x="194.1" y="121.65" width="0.28" height="28.05"/>
            <rect class="cls-75" x="193.82" y="121.65" width="0.28" height="28.05"/>
            <rect class="cls-76" x="193.54" y="121.65" width="0.28" height="28.05"/>
            <rect class="cls-77" x="193.26" y="121.65" width="0.28" height="28.05"/>
            <rect class="cls-78" x="192.98" y="121.65" width="0.28" height="28.05"/>
            <rect class="cls-79" x="192.69" y="121.65" width="0.28" height="28.05"/>
            <rect class="cls-80" x="192.41" y="121.65" width="0.28" height="28.05"/>
            <rect class="cls-81" x="192.13" y="121.65" width="0.28" height="28.05"/>
            <rect class="cls-82" x="191.85" y="121.65" width="0.28" height="28.05"/>
            <rect class="cls-83" x="191.57" y="121.65" width="0.28" height="28.05"/>
            <rect class="cls-84" x="191.29" y="121.65" width="0.28" height="28.05"/>
            <rect class="cls-85" x="191" y="121.65" width="0.28" height="28.05"/>
            <rect class="cls-86" x="190.72" y="121.65" width="0.28" height="28.05"/>
            <rect class="cls-87" x="190.44" y="121.65" width="0.28" height="28.05"/>
            <rect class="cls-88" x="190.16" y="121.65" width="0.28" height="28.05"/>
            <rect class="cls-89" x="189.88" y="121.65" width="0.28" height="28.05"/>
            <rect class="cls-90" x="189.6" y="121.65" width="0.28" height="28.05"/>
            <rect class="cls-91" x="189.31" y="121.65" width="0.28" height="28.05"/>
            <rect class="cls-92" x="189.03" y="121.65" width="0.28" height="28.05"/>
            <rect class="cls-93" x="188.75" y="121.65" width="0.28" height="28.05"/>
            <rect class="cls-94" x="188.47" y="121.65" width="0.28" height="28.05"/>
            <rect class="cls-94" x="188.19" y="121.65" width="0.28" height="28.05"/>
            <rect class="cls-95" x="187.91" y="121.65" width="0.28" height="28.05"/>
            <rect class="cls-96" x="187.62" y="121.65" width="0.28" height="28.05"/>
            <rect class="cls-96" x="187.34" y="121.65" width="0.28" height="28.05"/>
            <rect class="cls-97" x="187.06" y="121.65" width="0.28" height="28.05"/>
            <rect class="cls-97" x="186.78" y="121.65" width="0.28" height="28.05"/>
            <rect class="cls-97" x="186.5" y="121.65" width="0.28" height="28.05"/>
            <rect class="cls-98" x="186.22" y="121.65" width="0.28" height="28.05"/>
            <rect class="cls-98" x="185.94" y="121.65" width="0.28" height="28.05"/>
          </g>
        </g>
        <g class="cls-5">
          <g class="cls-99">
            <rect class="cls-7" x="186.99" y="121.35" width="0.46" height="28.05"/>
            <rect class="cls-8" x="186.53" y="121.35" width="0.46" height="28.05"/>
            <rect class="cls-9" x="186.07" y="121.35" width="0.46" height="28.05"/>
            <rect class="cls-10" x="185.61" y="121.35" width="0.46" height="28.05"/>
            <rect class="cls-11" x="185.15" y="121.35" width="0.46" height="28.05"/>
            <rect class="cls-11" x="184.69" y="121.35" width="0.46" height="28.05"/>
            <rect class="cls-12" x="184.23" y="121.35" width="0.46" height="28.05"/>
            <rect class="cls-13" x="183.76" y="121.35" width="0.46" height="28.05"/>
            <rect class="cls-14" x="183.3" y="121.35" width="0.46" height="28.05"/>
            <rect class="cls-15" x="182.84" y="121.35" width="0.46" height="28.05"/>
            <rect class="cls-15" x="182.38" y="121.35" width="0.46" height="28.05"/>
            <rect class="cls-16" x="181.92" y="121.35" width="0.46" height="28.05"/>
            <rect class="cls-17" x="181.46" y="121.35" width="0.46" height="28.05"/>
            <rect class="cls-18" x="181" y="121.35" width="0.46" height="28.05"/>
            <rect class="cls-19" x="180.54" y="121.35" width="0.46" height="28.05"/>
            <rect class="cls-20" x="180.08" y="121.35" width="0.46" height="28.05"/>
            <rect class="cls-21" x="179.62" y="121.35" width="0.46" height="28.05"/>
            <rect class="cls-22" x="179.16" y="121.35" width="0.46" height="28.05"/>
            <rect class="cls-23" x="178.7" y="121.35" width="0.46" height="28.05"/>
            <rect class="cls-23" x="178.23" y="121.35" width="0.46" height="28.05"/>
            <rect class="cls-24" x="177.77" y="121.35" width="0.46" height="28.05"/>
            <rect class="cls-25" x="177.31" y="121.35" width="0.46" height="28.05"/>
            <rect class="cls-26" x="176.85" y="121.35" width="0.46" height="28.05"/>
            <rect class="cls-27" x="176.39" y="121.35" width="0.46" height="28.05"/>
            <rect class="cls-28" x="175.93" y="121.35" width="0.46" height="28.05"/>
            <rect class="cls-29" x="175.47" y="121.35" width="0.46" height="28.05"/>
            <rect class="cls-30" x="175.01" y="121.35" width="0.46" height="28.05"/>
            <rect class="cls-31" x="174.55" y="121.35" width="0.46" height="28.05"/>
            <rect class="cls-32" x="174.09" y="121.35" width="0.46" height="28.05"/>
            <rect class="cls-33" x="173.63" y="121.35" width="0.46" height="28.05"/>
            <rect class="cls-34" x="173.17" y="121.35" width="0.46" height="28.05"/>
            <rect class="cls-35" x="172.71" y="121.35" width="0.46" height="28.05"/>
            <rect class="cls-36" x="172.24" y="121.35" width="0.46" height="28.05"/>
            <rect class="cls-37" x="171.78" y="121.35" width="0.46" height="28.05"/>
            <rect class="cls-38" x="171.32" y="121.35" width="0.46" height="28.05"/>
            <rect class="cls-39" x="170.86" y="121.35" width="0.46" height="28.05"/>
            <rect class="cls-40" x="170.4" y="121.35" width="0.46" height="28.05"/>
            <rect class="cls-41" x="169.94" y="121.35" width="0.46" height="28.05"/>
            <rect class="cls-42" x="169.48" y="121.35" width="0.46" height="28.05"/>
            <rect class="cls-43" x="169.02" y="121.35" width="0.46" height="28.05"/>
            <rect class="cls-44" x="168.56" y="121.35" width="0.46" height="28.05"/>
            <rect class="cls-45" x="168.1" y="121.35" width="0.46" height="28.05"/>
            <rect class="cls-46" x="167.64" y="121.35" width="0.46" height="28.05"/>
            <rect class="cls-47" x="167.18" y="121.35" width="0.46" height="28.05"/>
            <rect class="cls-48" x="166.72" y="121.35" width="0.46" height="28.05"/>
            <rect class="cls-49" x="166.25" y="121.35" width="0.46" height="28.05"/>
            <rect class="cls-49" x="165.97" y="121.35" width="0.28" height="28.05"/>
            <rect class="cls-50" x="165.69" y="121.35" width="0.28" height="28.05"/>
            <rect class="cls-51" x="165.41" y="121.35" width="0.28" height="28.05"/>
            <rect class="cls-52" x="165.13" y="121.35" width="0.28" height="28.05"/>
            <rect class="cls-53" x="164.85" y="121.35" width="0.28" height="28.05"/>
            <rect class="cls-54" x="164.56" y="121.35" width="0.28" height="28.05"/>
            <rect class="cls-55" x="164.28" y="121.35" width="0.28" height="28.05"/>
            <rect class="cls-56" x="164" y="121.35" width="0.28" height="28.05"/>
            <rect class="cls-57" x="163.72" y="121.35" width="0.28" height="28.05"/>
            <rect class="cls-58" x="163.44" y="121.35" width="0.28" height="28.05"/>
            <rect class="cls-59" x="163.16" y="121.35" width="0.28" height="28.05"/>
            <rect class="cls-60" x="162.87" y="121.35" width="0.28" height="28.05"/>
            <rect class="cls-61" x="162.59" y="121.35" width="0.28" height="28.05"/>
            <rect class="cls-62" x="162.31" y="121.35" width="0.28" height="28.05"/>
            <rect class="cls-63" x="162.03" y="121.35" width="0.28" height="28.05"/>
            <rect class="cls-64" x="161.75" y="121.35" width="0.28" height="28.05"/>
            <rect class="cls-65" x="161.47" y="121.35" width="0.28" height="28.05"/>
            <rect class="cls-66" x="161.19" y="121.35" width="0.28" height="28.05"/>
            <rect class="cls-67" x="160.9" y="121.35" width="0.28" height="28.05"/>
            <rect class="cls-68" x="160.62" y="121.35" width="0.28" height="28.05"/>
            <rect class="cls-69" x="160.34" y="121.35" width="0.28" height="28.05"/>
            <rect class="cls-70" x="160.06" y="121.35" width="0.28" height="28.05"/>
            <rect class="cls-71" x="159.78" y="121.35" width="0.28" height="28.05"/>
            <rect class="cls-72" x="159.5" y="121.35" width="0.28" height="28.05"/>
            <rect class="cls-73" x="159.21" y="121.35" width="0.28" height="28.05"/>
            <rect class="cls-74" x="158.93" y="121.35" width="0.28" height="28.05"/>
            <rect class="cls-75" x="158.65" y="121.35" width="0.28" height="28.05"/>
            <rect class="cls-76" x="158.37" y="121.35" width="0.28" height="28.05"/>
            <rect class="cls-77" x="158.09" y="121.35" width="0.28" height="28.05"/>
            <rect class="cls-78" x="157.81" y="121.35" width="0.28" height="28.05"/>
            <rect class="cls-79" x="157.52" y="121.35" width="0.28" height="28.05"/>
            <rect class="cls-80" x="157.24" y="121.35" width="0.28" height="28.05"/>
            <rect class="cls-81" x="156.96" y="121.35" width="0.28" height="28.05"/>
            <rect class="cls-82" x="156.68" y="121.35" width="0.28" height="28.05"/>
            <rect class="cls-83" x="156.4" y="121.35" width="0.28" height="28.05"/>
            <rect class="cls-84" x="156.12" y="121.35" width="0.28" height="28.05"/>
            <rect class="cls-85" x="155.83" y="121.35" width="0.28" height="28.05"/>
            <rect class="cls-86" x="155.55" y="121.35" width="0.28" height="28.05"/>
            <rect class="cls-87" x="155.27" y="121.35" width="0.28" height="28.05"/>
            <rect class="cls-88" x="154.99" y="121.35" width="0.28" height="28.05"/>
            <rect class="cls-89" x="154.71" y="121.35" width="0.28" height="28.05"/>
            <rect class="cls-90" x="154.43" y="121.35" width="0.28" height="28.05"/>
            <rect class="cls-91" x="154.14" y="121.35" width="0.28" height="28.05"/>
            <rect class="cls-92" x="153.86" y="121.35" width="0.28" height="28.05"/>
            <rect class="cls-93" x="153.58" y="121.35" width="0.28" height="28.05"/>
            <rect class="cls-94" x="153.3" y="121.35" width="0.28" height="28.05"/>
            <rect class="cls-94" x="153.02" y="121.35" width="0.28" height="28.05"/>
            <rect class="cls-95" x="152.74" y="121.35" width="0.28" height="28.05"/>
            <rect class="cls-96" x="152.46" y="121.35" width="0.28" height="28.05"/>
            <rect class="cls-96" x="152.17" y="121.35" width="0.28" height="28.05"/>
            <rect class="cls-97" x="151.89" y="121.35" width="0.28" height="28.05"/>
            <rect class="cls-97" x="151.61" y="121.35" width="0.28" height="28.05"/>
            <rect class="cls-97" x="151.33" y="121.35" width="0.28" height="28.05"/>
            <rect class="cls-98" x="151.05" y="121.35" width="0.28" height="28.05"/>
            <rect class="cls-98" x="150.77" y="121.35" width="0.28" height="28.05"/>
          </g>
        </g>
        <ellipse class="cls-100" cx="187.6" cy="144.48" rx="5.96" ry="4.91"/>
        <path class="cls-101" d="M172,104.34s10.16,15.33,16.48,15.67-.58-6.33-.58-6.33,12.45,4.73,12.51,10.7,6.35-5.29,3.86-9.47-10-7.56-10-7.56a45.66,45.66,0,0,0-22.29-3Z"/>
        <path class="cls-101" d="M140.06,108.11s8.63,35.1-9.28,48.07c-2.12,1.54-6.85,3.76-7.66,2.77s2.91-4.42,4.44-11.33c.24-1.1.94-4.22.17-4.56-1-.42-3.89,3.48-5.75,7.1-4.6,9-2.78,16.77-4.73,17.24-1,.23-2.75-1.31-6.42-9.46a63.23,63.23,0,0,1,.75,19.74c-.79,6.47-1.6,13.2-5.49,14.66,0,0-2.14.8-14.53-6.09h0s-9.26-.74-11.12-16.48,3.27-36.28,3.27-36.28a140.32,140.32,0,0,1,56.35-25.38Z"/>
        <path class="cls-102" d="M194.94,107.69c-16-3.76-37.49-6-59.79,1.59-26.8,9.08-45.88,29.21-51.44,24.21-1.84-1.65-.37-4.41,1.59-22.69,1.35-12.64.86-13.32,1.63-18.38.59-3.81,3.83-22.84,13.87-33,16.6-16.87,56.37-14.26,77.84,8C192.81,82,194.63,100.74,194.94,107.69Z"/>
        <path class="cls-103" d="M194.94,107.69c-24.94-5.81-43.05-3.07-54.88.42-28.29,8.35-51.89,30.2-56.35,25.38-.62-.67-.56-2.86-.44-7.25a64.28,64.28,0,0,1,1.8-13.35c10.75-7.65,38.83-25.33,76.18-23.13a111.2,111.2,0,0,1,32.32,6.87Q194.26,102.17,194.94,107.69Z"/>
        <circle class="cls-103" cx="109.66" cy="47.51" r="11"/>
        <path class="cls-3" d="M173.3,192.28c2,.16,3.76-2,4-4.92s-6.89-3.47-7.13-.59S171.33,192.12,173.3,192.28Z"/>
        <rect class="cls-104" x="171.74" y="187.78" width="3.97" height="1.61" transform="translate(331.28 390.87) rotate(-175.26)"/>
        <path class="cls-3" d="M165.48,190.67c2,.32,3.92-1.72,4.39-4.57s-6.58-4-7.06-1.18S163.53,190.34,165.48,190.67Z"/>
        <rect class="cls-104" x="164.22" y="186.22" width="3.97" height="1.61" transform="translate(299.36 398.85) rotate(-170.53)"/>
        <path class="cls-3" d="M157.86,188.87c1.92.49,4-1.39,4.76-4.19s-6.23-4.56-6.94-1.76S155.94,188.39,157.86,188.87Z"/>
        <rect class="cls-104" x="156.9" y="184.49" width="3.97" height="1.61" transform="translate(267.42 403.93) rotate(-165.79)"/>
        <path class="cls-3" d="M149.34,186c1.74.93,4.26-.38,5.62-2.93s-5-5.92-6.32-3.37S147.59,185,149.34,186Z"/>
        <rect class="cls-104" x="149.2" y="181.94" width="3.97" height="1.61" transform="translate(198.6 415.14) rotate(-151.93)"/>
        <path class="cls-3" d="M141.59,181.69c1.54,1.24,4.26.42,6.07-1.83s-3.76-6.74-5.57-4.49S140.05,180.45,141.59,181.69Z"/>
        <rect class="cls-2" x="107.82" y="202.66" width="9.56" height="20.35" transform="translate(103.71 453.45) rotate(-150)"/>
        <rect class="cls-104" x="142.03" y="178.06" width="3.97" height="1.61" transform="translate(143.78 408.5) rotate(-141.1)"/>
        <path class="cls-105" d="M137.05,170.12c9.66,9.37,12.64,10.88,22.26,13.81,5,1.53,17.2,3.44,21.75,1.51l-1.17-2.76c-3.27,1.39-14.43,0-19.7-1.61-9.2-2.81-11.81-4.14-21.05-13.1Z"/>
      </g>
      <path class="cls-103" d="M37.27,294.88c-2.9,32.18-3.57,54.24,11.31,73.58,20.13,26.19,62.93,38.51,82,22.83,11.15-9.18,15.73-29.25,8.72-38.43-5.31-6.94-13.68-3-23-9.51-15.7-11-14.48-38-14.2-44.22,1.6-35.65,26.14-43.19,22.61-67.08-3.59-24.32-28.93-48.25-47.48-45.22C46.55,191.84,39.54,269.7,37.27,294.88Z"/>
      <path class="cls-102" d="M167.58,482.61l9.7-5.07c-1.52-15.26-3.1-28.36-4.44-38.67-5.14-39.55-8.72-52.93-19.38-63.33a49.29,49.29,0,0,0-11.08-8.1q-2,7.28-3.94,14.54c11.52,19.19,15.85,35.11,17.64,46.24,1,6.44,1.44,12.57,3.64,23.89A256.54,256.54,0,0,0,167.58,482.61Z"/>
      <path class="cls-102" d="M128.91,499.85l11.35-3.15c-3.12-18.39-4.94-33.14-6-43-2-18.31-2.38-28.85-9.54-40.86a61,61,0,0,0-12.8-15.05L91.37,395a102.53,102.53,0,0,1,22.32,31.09c4.42,9.58,6.17,17.4,8.91,29.93A312.54,312.54,0,0,1,128.91,499.85Z"/>
      <path class="cls-102" d="M75.76,342.13a7.21,7.21,0,0,0,5.36-2.22,7.55,7.55,0,0,0,2.22-5.36,181.81,181.81,0,0,1-4.81-61.62,178.13,178.13,0,0,1,4.81-27.5,7.73,7.73,0,0,0-2.22-5.35,7.57,7.57,0,0,0-12.93,5.35c-.83,8.61-1.4,17.74-1.63,27.34a382.54,382.54,0,0,0,1.76,46.76C69,332.24,71.79,341.57,75.76,342.13Z"/>
      <ellipse class="cls-2" cx="80.45" cy="343.45" rx="9.9" ry="12.91" transform="translate(-124.86 56.6) rotate(-22.41)"/>
      <g>
        <ellipse class="cls-106" cx="198.74" cy="480.87" rx="12.27" ry="33.22" transform="translate(-290.97 656.69) rotate(-87.29)"/>
        <path class="cls-107" d="M231.92,482.57c-2.56,6.9-5.89,5.48-19,8.79-5.57,1.4-25.57-.65-30.2-1.83-10.19-2.6-17.5-5.71-17.15-10.36.28-3.61,4.77-6.61,10.73-9.95,5.44-3.05,14.84-.19,23.38-.59C218,467.77,234.29,476.15,231.92,482.57Z"/>
        <path class="cls-107" d="M180.86,473.53l-4.3.94a3.06,3.06,0,0,1-3.63-2.19l-1.56-6.19a2.85,2.85,0,0,1,2.22-3.46l4.3-.93a3.07,3.07,0,0,1,3.64,2.19l1.55,6.18A2.84,2.84,0,0,1,180.86,473.53Z"/>
      </g>
      <g>
        <ellipse class="cls-106" cx="156.81" cy="502.01" rx="12.27" ry="33.22" transform="translate(-352.05 634.95) rotate(-87.29)"/>
        <path class="cls-107" d="M190,503.71c-2.56,6.91-5.88,5.48-19,8.79-5.58,1.41-25.57-.65-30.2-1.83-10.19-2.6-17.51-5.71-17.15-10.36.28-3.61,4.76-6.6,10.72-9.94,5.44-3.05,14.84-.2,23.39-.6C176.11,488.92,192.36,497.3,190,503.71Z"/>
        <path class="cls-107" d="M138.93,494.68l-4.3.93a3.07,3.07,0,0,1-3.64-2.18l-1.55-6.19a2.84,2.84,0,0,1,2.22-3.46l4.3-.94a3.07,3.07,0,0,1,3.63,2.19l1.56,6.19A2.85,2.85,0,0,1,138.93,494.68Z"/>
      </g>
    </g>
  </g>
</svg>
