<svg xmlns="http://www.w3.org/2000/svg" width="677mm" height="381mm" viewBox="0 0 1919.06 1080">
  <defs>
    <style>
      .cls-1 {
        fill: #444;
      }

      .cls-2 {
        fill: #2d2d2d;
      }

      .cls-3 {
        fill: #222323;
      }

      .cls-4 {
        fill: #343534;
      }

      .cls-5 {
        fill: #759f6f;
      }

      .cls-6 {
        fill: #91c089;
      }

      .cls-7 {
        fill: #688962;
      }

      .cls-8 {
        fill: #476144;
      }
    </style>
  </defs>
  <g id="Inde_i_bussen" data-name="Inde i bussen">
    <g>
      <g>
        <rect class="cls-1" x="697.1" y="733.53" width="685.95" height="81.06"/>
        <rect class="cls-2" x="1268.13" y="863.93" width="685.95" height="288.65"/>
        <rect class="cls-2" x="50.33" y="874.95" width="751.01" height="288.65"/>
        <path class="cls-3" d="M416.85,1218.74l1106.34-19.36L1305.51,892.09l-500.43,2.42Z"/>
        <path class="cls-3" d="M1942.61,2.05c-64.55,10-163.32,74.77-279.88,62.31-103.87-11.11-153-32-272.89-54.4,0,0-148.28-27.73-317.89-33.2C805.43-31.83,722.11,42.47,509,59.84,379.78,70.38,193.1,60.77-42-37.64V-138.21l1983.06,71Z"/>
        <path class="cls-4" d="M-20.36,992.12H509l-10.2-573.45L-20.36,623.51Z"/>
        <path class="cls-4" d="M2183.46,992.12h-529.4q5.1-286.73,10.21-573.45L2130.2,786.56Q2156.82,889.34,2183.46,992.12Z"/>
        <path class="cls-4" d="M-21.27-46.73Q-25.12,289.63-29,626L509,456.43V59.84Zm-.94,613.54L-22,21.7,173.5,57.36q1.56,223,3.14,445.93Zm261-79.62q-2-212.68-4-425.36L465.52,106q2,155.49,4,311Z"/>
        <path class="cls-1" d="M1075.32-37.63A1720.53,1720.53,0,0,0,509,59.84V456.43H592V102h.86C608,39.74,822.85-9.59,1085.67-9.59S1563.33,39.74,1578.51,102h.87V456.43h83.35V64.36A1720.48,1720.48,0,0,0,1075.32-37.63Z"/>
        <path class="cls-4" d="M1842.8,499.07q-2.28-222.48-4.58-445L1957.05,7.79q.73-30.43,1.49-60.87L1662.06,64.36q.35,196,.67,392.07l278.33,202.88,2.19-89.39ZM1676.67,376.73l2.76-261.21L1792.8,72.61l.8,389.34Z"/>
        <path class="cls-2" d="M1682.58,419.06q-302.85,17-605.68,16.49Q773.2,435,469.53,417L585,399.09l994.42,9.24Z"/>
        <rect class="cls-2" x="697.1" y="796.27" width="685.95" height="103.87"/>
      </g>
      <g id="Bagsæde">
        <path class="cls-5" d="M400.14,670.16,730,674.78V420.65L469.53,417c-16.34,12.6-52.93,44.39-72.47,99.17C370.88,589.5,393.46,653.12,400.14,670.16Z"/>
        <path class="cls-5" d="M1752,672.26l-329.88,4.62V422.75l260.49-3.69c16.34,12.6,52.93,44.4,72.47,99.18C1781.23,591.6,1758.65,655.21,1752,672.26Z"/>
        <path class="cls-6" d="M1433.77,674.78H714.31a573.81,573.81,0,0,1,0-254.35h719.46a490.76,490.76,0,0,1,0,254.35Z"/>
        <path class="cls-7" d="M868.34,742.11H695.56v-80a351.88,351.88,0,0,1,208.85-5.87Q886.38,699.16,868.34,742.11Z"/>
        <path class="cls-7" d="M1494,742.11H1278q-26.28-47.22-52.55-94.45a445.62,445.62,0,0,1,257.39,11.86Q1488.41,700.82,1494,742.11Z"/>
        <path class="cls-5" d="M861.28,742.11h417.38a248.24,248.24,0,0,0-16.94-41.63,238.36,238.36,0,0,0-39.21-55.1,562.36,562.36,0,0,0-318.1,11.8,155,155,0,0,0-29.27,41.63A164.81,164.81,0,0,0,861.28,742.11Z"/>
      </g>
      <path class="cls-8" d="M1437.29,566.8c-.31,0-.61,0-.92,0-6.6-.36-86-3.15-96.72,67.32-10.23,67.46-1.69,209.74-.21,232.81a12.1,12.1,0,0,0,2,5.87c11.27,17.29,74.54,113.45,108.16,145.5,25.59,24.4,102,15.74,146.64,8.09,11.91-2,136.08-16.86,124.13-18.56-16.53-2.35-304,8.62-330.6-144.08-14.44-82.88-2.31-213,.9-221.39,7.25-18.91,20.7-27.08,20.7-27.08,10.47-6.36,21.54-6.77,28.12-6.41.38,0,.74,0,1.11,0l493.3-17.5h0c13.71,0,17-19.13,4.07-23.71l-29.54-10.46a12.08,12.08,0,0,0-4.34-.7Z"/>
      <g>
        <path class="cls-5" d="M1379.3,868q80.37-1.14,160.71-1.64Q1750.6,865,1961.17,868c11.89-25.67,35.82-86.57,25.92-164.58A298.44,298.44,0,0,0,1945.26,585l-516.14,14.8c-14.8-.55-23.77,3.61-28.65,6.63-14.66,9.07-32.87,32.88-25.3,195.47C1376.51,830.85,1378.21,854.18,1379.3,868Z"/>
        <path class="cls-7" d="M1532.93,994.19l239.55-28.35V868.72a1252.41,1252.41,0,0,0-393.57,0A190.68,190.68,0,0,0,1429,946.13C1469.93,984.18,1515.84,992.11,1532.93,994.19Z"/>
      </g>
      <g>
        <path class="cls-5" d="M703.74,868q-80.36-1.14-160.71-1.64Q332.46,865,121.87,868C110,842.33,86.06,781.43,96,703.42A298.26,298.26,0,0,1,137.79,585l516.13,14.8c14.81-.55,23.78,3.61,28.65,6.63,14.66,9.07,32.87,32.88,25.31,195.47C706.53,830.85,704.83,854.18,703.74,868Z"/>
        <path class="cls-8" d="M644.75,566.8c.31,0,.62,0,.92,0,6.6-.36,86-3.15,96.73,67.32,10.22,67.46,1.69,209.74.21,232.81a12.21,12.21,0,0,1-2,5.87c-11.27,17.29-74.54,113.45-108.15,145.5-25.59,24.4-102,15.74-146.65,8.09-11.37-2-125.21-15.56-124.93-18.25,0-.19.56-.27.81-.31,15.35-2.17,135.16-2.22,197.42-21.08,0,0,43.53-13.18,105.64-74.22,20-19.67,25-37.18,26.28-42.53.71-2.9,1.08-5.14,1.25-6.25,13-81.26,17-174.75-.89-221.4-7.26-18.9-20.71-27.07-20.71-27.07-10.46-6.36-21.54-6.77-28.12-6.41-.37,0-.73,0-1.11,0l-493.3-17.5h0c-13.71,0-17-19.13-4.08-23.71l29.54-10.46a12.12,12.12,0,0,1,4.34-.7Z"/>
        <path class="cls-7" d="M538.11,994.19,298.56,965.84V868.72a1252.39,1252.39,0,0,1,393.57,0,190.68,190.68,0,0,1-50.06,77.41C601.12,984.18,555.21,992.11,538.11,994.19Z"/>
      </g>
      <g>
        <path class="cls-8" d="M414.31,623c.4,0,.8,0,1.21,0,8.65-.47,112.75-4.12,126.76,88.24,13.4,88.4,2.21,274.87.27,305.1A15.92,15.92,0,0,1,540,1024c-14.78,22.66-97.7,148.68-141.76,190.68-33.53,32-133.65,20.63-192.18,10.6-15.6-2.67-178.35-22.08-162.68-24.31,21.67-3.08,398.41,11.29,433.27-188.83,18.93-108.63,3-279.2-1.17-290.16-9.51-24.77-27.14-35.48-27.14-35.48-13.71-8.33-28.23-8.87-36.85-8.39-.49,0-1,0-1.45,0l-646.51-22.93h0c-18,0-22.28-25.07-5.34-31.07l38.71-13.72a16.16,16.16,0,0,1,5.69-.91Z"/>
        <path class="cls-5" d="M490.3,1017.74q-105.32-1.47-210.62-2.14-276-1.74-551.95,2.16c-15.58-33.64-46.94-113.45-34-215.69a391.15,391.15,0,0,1,54.82-155.23L425,666.24c19.4-.72,31.15,4.73,37.54,8.69,19.22,11.89,43.08,43.1,33.17,256.18C494,969.08,491.73,999.64,490.3,1017.74Z"/>
        <path class="cls-7" d="M289,1183.14-25,1146V1018.71a1641.49,1641.49,0,0,1,515.8,0c-7.59,22-25.41,64.1-65.6,101.44C371.54,1170,311.37,1180.42,289,1183.14Z"/>
      </g>
      <g>
        <path class="cls-8" d="M1676.45,592.46c-.41,0-.81,0-1.21,0-8.65-.46-112.76-4.12-126.76,88.24-13.4,88.4-2.22,274.87-.28,305.11a16,16,0,0,0,2.56,7.69c14.78,22.66,97.7,148.68,141.75,190.69,33.54,32,133.66,20.63,192.19,10.6,15.6-2.68,178.34-22.09,162.67-24.32-21.66-3.08-398.4,11.29-433.27-188.83-18.92-108.62-3-279.19,1.18-290.15,9.5-24.78,27.13-35.49,27.13-35.49,13.72-8.33,28.24-8.87,36.86-8.39.49,0,1,0,1.45,0l646.51-22.94h0c18,0,22.28-25.07,5.34-31.07l-38.71-13.71a16,16,0,0,0-5.69-.92Z"/>
        <path class="cls-5" d="M1600.45,987.19q105.32-1.49,210.62-2.15,276-1.72,552,2.16c15.57-33.64,46.94-113.45,34-215.69a391.19,391.19,0,0,0-54.83-155.23l-676.43,19.4c-19.4-.72-31.16,4.73-37.55,8.69-19.21,11.89-43.08,43.1-33.16,256.18C1596.8,938.52,1599,969.09,1600.45,987.19Z"/>
        <path class="cls-7" d="M1801.79,1152.58l313.95-37.15V988.15a1641.49,1641.49,0,0,0-515.8,0c7.59,22,25.41,64.1,65.6,101.44C1719.22,1139.46,1779.39,1149.86,1801.79,1152.58Z"/>
      </g>
    </g>
  </g>
</svg>
