<svg xmlns="http://www.w3.org/2000/svg" width="40mm" height="120mm" viewBox="0 0 113.39 340.16">
  <defs>
    <style>
      .cls-1 {
        fill: #476144;
      }

      .cls-2 {
        fill: #9f9f9f;
      }

      .cls-3 {
        fill: #f1f2f0;
      }
    </style>
  </defs>
  <g id="spilbaggrund">
    <g>
      <path class="cls-1" d="M99.05,250.7c0-50.27,4.82-58.77-.48-85.36a175,175,0,0,0-8.5-29.13c-1.54-4.11-3-8.45-4.49-13-1.17-3.69-2.21-7.29-3.15-10.77-2.54-9.5-3.71-17.81-8.14-50.71-.88-6.57-.08-13.34-1.49-19.81a18.05,18.05,0,0,1,.5-11,14,14,0,0,1,.83-1.69c1.42-2.71,1.76-7.77-3-18-3.63-.45-8.84-1-15.15-1.41-11-.68-12.78-.07-14.19.81C34.77,14.85,33.33,28,36.51,30a2.32,2.32,0,0,0,1.48.29q-1.12,14.54-2.7,29.63Q32.61,85.57,29,109.46c-4,11.75-7.43,22.13-10.3,30.79-5.26,15.9-6.54,20.08-7.63,26C9,177.66,9.45,185.54,9.7,195.48c.46,18.25-.83,36.51-1.21,54.77C8.14,267.61,9,285,8.35,302.33,7.78,318.72,7,324.67,11.5,330.17c1.64,2,6.59,7.19,39.44,7.67,25.81.37,38.85.41,45-7.22,4.76-5.94,3.48-12.4,2.71-30.13C97.89,283.91,99.05,267.3,99.05,250.7Z"/>
      <path class="cls-2" d="M77.78,16.21c0,4.18-6.9,1.27-21,1.27S32.33,20.9,33.4,16.86c2.66-10,10-10,24.13-10S77.78,8.63,77.78,16.21Z"/>
      <path class="cls-3" d="M71.73,203.83c3.46-2.63,5.57-6.1,5.57-9.91,0-8.24-9.8-14.92-21.89-14.92s-21.89,6.68-21.89,14.92c0,3.44,1.73,6.6,4.6,9.13-14,9.45-23.7,30.71-23.7,55.45,0,33.52,17.88,60.69,39.94,60.69S94.3,292,94.3,258.5C94.3,234.44,85.09,213.65,71.73,203.83Z"/>
      <path class="cls-3" d="M80.53,103.05a50.2,50.2,0,0,0-16.64-2c-22.45,1.13-36.95,17.43-40.54,21.71l.39,22.61a183.07,183.07,0,0,1,30-13.25l1.26-.42a176.23,176.23,0,0,1,30.59-7.11Q83.07,113.83,80.53,103.05Z"/>
    </g>
  </g>
</svg>
