<svg xmlns="http://www.w3.org/2000/svg" width="50mm" height="120mm" viewBox="0 0 141.73 340.16">
  <defs>
    <style>
      .cls-1 {
        fill: #f1f2f0;
      }

      .cls-2 {
        fill: #476144;
      }

      .cls-3 {
        fill: #9f9f9f;
      }

      .cls-4 {
        fill: #1d1d1b;
      }
    </style>
  </defs>
  <g id="Inde_i_bussen" data-name="Inde i bussen">
    <g>
      <rect class="cls-1" x="-89.98" y="116.46" width="311.84" height="104.16" rx="52.08" transform="translate(234.48 102.6) rotate(90)"/>
      <g>
        <path class="cls-2" d="M88.93,222c0-34.3,2.77-40.11-.27-58.25a136,136,0,0,0-4.88-19.87q-1.32-4.22-2.57-8.89c-.67-2.52-1.26-5-1.8-7.35C78,121.14,77.28,115.47,74.74,93c-.51-4.47,0-9.1-.85-13.51A14.61,14.61,0,0,1,74.17,72a9.55,9.55,0,0,1,.48-1.15c.81-1.85,1-5.31-1.72-12.32-2.09-.31-5.07-.69-8.69-1-6.3-.47-7.33-.05-8.14.55-4,3-4.84,11.91-3,13.28a1.12,1.12,0,0,0,.85.19q-.65,9.93-1.54,20.22-1.55,17.53-3.63,33.83c-2.27,8-4.26,15.1-5.9,21-3,10.85-3.75,13.7-4.37,17.77-1.19,7.76-.92,13.14-.77,19.92.26,12.45-.48,24.91-.7,37.37-.2,11.84.27,23.7-.08,35.54-.33,11.18-.75,15.24,1.8,19,.94,1.38,3.78,4.91,22.61,5.24,14.8.25,22.27.28,25.78-4.93,2.73-4.05,2-8.46,1.55-20.56C88.27,244.64,88.93,233.3,88.93,222Z"/>
        <path class="cls-3" d="M76.74,62c0,2.85-4,.86-12,.86s-14,2.34-13.39-.42c1.53-6.85,5.74-6.85,13.83-6.85S76.74,56.8,76.74,62Z"/>
        <path class="cls-1" d="M73.27,190a9.17,9.17,0,0,0,3.2-6.77c0-5.62-5.62-10.18-12.55-10.18s-12.55,4.56-12.55,10.18A9,9,0,0,0,54,189.46c-8,6.45-13.59,21-13.59,37.84,0,22.87,10.25,41.41,22.89,41.41s22.9-18.54,22.9-41.41C86.21,210.88,80.93,196.7,73.27,190Z"/>
        <path class="cls-1" d="M78.32,121.23a24.3,24.3,0,0,0-9.54-1.36c-12.87.77-21.19,11.89-23.24,14.81q.12,7.73.22,15.43a98.05,98.05,0,0,1,17.21-9l.73-.29a87.85,87.85,0,0,1,17.54-4.85Q79.77,128.58,78.32,121.23Z"/>
      </g>
      <path class="cls-4" d="M72.17,246.77H66.26l-5.88,0a10.78,10.78,0,0,1-2.92-.27A2.16,2.16,0,0,1,56,244.21q0-3,4.66-3l1.43,0,1.22.06c0-1-.09-2.36-.26-4.22s-.25-3.26-.25-4.19q0-3.76.69-11.46t.62-11.5C61.41,212,59.71,213,59,213A3,3,0,0,1,56,210.08q0-1.4,2.55-3.39,1.6-1.12,4.55-3.63,2.61-2.64,5-2.64c1.33,0,2,.76,2,2.29a16.87,16.87,0,0,1-.18,2,16.84,16.84,0,0,0-.18,2c0,.65,0,1.64.11,3s.1,2.32.1,3q0,3.39-.71,10.1c-.48,4.48-.71,7.83-.71,10.07,0,1.15.08,2.55.23,4.19s.25,3,.27,4l3.12-.06a2.84,2.84,0,0,1,2.07.82,3,3,0,0,1,0,4.09A2.87,2.87,0,0,1,72.17,246.77Z"/>
    </g>
  </g>
</svg>
