<svg xmlns="http://www.w3.org/2000/svg" width="50mm" height="80mm" viewBox="0 0 141.73 226.77">
  <defs>
    <style>
      .cls-1, .cls-4 {
        fill: #d1e0df;
      }

      .cls-1, .cls-3 {
        opacity: 0.5;
      }

      .cls-2 {
        fill: #d9586a;
      }

      .cls-3 {
        fill: #d9eae8;
      }
    </style>
  </defs>
  <g id="Brian">
    <g>
      <ellipse class="cls-1" cx="70.6" cy="27.33" rx="53.65" ry="5.8"/>
      <path class="cls-2" d="M26.27,50.3A29.69,29.69,0,0,1,38.7,47.17c4-.08,4.26.64,8.7,1.18C57.55,49.6,59.61,46,70.6,45.77c10.79-.18,10.47,3.31,18.12,1.79,4.71-.94,10.07-3.3,15.23-2.6a17.93,17.93,0,0,0,4.91.22c3.13-.33,3.88-1,5.21-.88,1,.08-.64,1,.86,3-5.42,17.6-7.45,38.58-10,63.2a329.64,329.64,0,0,0-1.66,40.75c-1.73,1.86-15.38,16.1-36.48,14.54-18.24-1.35-29-13.56-31-15.92A358.7,358.7,0,0,0,35,105.69,358.21,358.21,0,0,0,26.27,50.3Z"/>
      <path class="cls-3" d="M108.43,154.62a55.26,55.26,0,0,1-35.54,14.31C50.43,169.39,36,155.55,33.42,153c-.34-12.46-1.07-25.48-2.3-39A619.3,619.3,0,0,0,17,27.33a250.78,250.78,0,0,1,107.3,0,422.7,422.7,0,0,0-15.13,87.82C108.22,129.09,108.07,142.29,108.43,154.62Z"/>
      <path class="cls-4" d="M104.18,203.29a6.77,6.77,0,0,1-5,6.87A110.2,110.2,0,0,1,43,210a6.86,6.86,0,0,1-5.09-6.92c.23-5.9.22-12.29-.17-19.1a197.7,197.7,0,0,0-4.52-32.21c2.15,2.42,15.17,16.61,36.72,17.19,23.15.62,37.48-15,39.46-17.19a177.61,177.61,0,0,0-5.07,33.11A175.62,175.62,0,0,0,104.18,203.29Z"/>
    </g>
  </g>
</svg>
