<svg xmlns="http://www.w3.org/2000/svg" width="151.71mm" height="101.47mm" viewBox="0 0 430.04 287.65">
  <defs>
    <style>
      .cls-1 {
        fill: #7fada3;
      }

      .cls-2 {
        fill: #abd3cc;
      }

      .cls-3 {
        fill: #1d1d1b;
      }
    </style>
  </defs>
  <g id="Inde_i_bussen" data-name="Inde i bussen">
    <g>
      <path class="cls-1" d="M72.48,28C156.16-20.14,250.28,2.86,360,29.68c12.19,3,31.82,4.44,46.66,19.12,14.68,14.52,17.07,35.56,21.25,77,4.85,48.2.21,74.94-1.93,85.51-6.54,32.37-15.7,42.58-19.32,46.16-16,15.83-37.11,18.53-46.66,19.12-64,6.62-176.36,14.8-270.73,0-12.15-1.9-30.58-5.22-46.66-19.12C-10.2,211.86,21,102.68,23.28,95,29.24,75,60.11,35.09,72.48,28Z"/>
      <path class="cls-2" d="M90.12,39.12c27.75-12.89,40.12-9.41,98-15.68,104-11.26,135.43-30.21,171.48-6.86,16.56,10.72,27.31,26,31.17,31.9,13.81,21.17,16.74,40.45,19.89,71.46,4.54,44.71.2,69.51-1.8,79.32-2.62,12.83-7,27.43-18.09,42.82-16,22.24-37.25,32.08-46.15,36.08-67.45,30.27-123.78-21.88-250.88-18.35-34.12.95-48.46,5.22-64.36-6.1C-7.72,227.32-9.6,147.26,23.28,95,44.85,60.64,77,45.19,90.12,39.12Z"/>
      <g>
        <path class="cls-3" d="M165.62,112.88q-4.56,1.71-10.82,4.13l-10.67,4.12c0-4.46-1.24-6.69-3.7-6.69q-5.27,0-10.54,6-3.7,4.42-3.13,8.54.43,2.72,5.41,2.71a39.4,39.4,0,0,0,7.12-.86,53.8,53.8,0,0,1,10.82-1.28q12,0,13.95,8.26a25.49,25.49,0,0,1,.57,5.41q0,9.11-6.84,19.64Q149,176.66,133,186q-8.4,5-16.51,5A28.68,28.68,0,0,1,102,186.9q3.56-8.55,11.39-25.2a16.77,16.77,0,0,0,9.68,3.13,16.46,16.46,0,0,0,4.7-.71,37.93,37.93,0,0,0,8.4-3.27q5.68-3.14,5.69-6.41,0-3.56-5.84-3.56a60.38,60.38,0,0,0-11.6,1.64,60.18,60.18,0,0,1-11.6,1.64q-5.27,0-8.11-2-5.55-3.71-4.56-11.53,1.86-15.81,20.36-36.59Q139.43,82.7,153.1,81.7q13.23-.84,13.23,19.93A99.28,99.28,0,0,1,165.62,112.88Z"/>
        <path class="cls-3" d="M181.23,87.54q22.07-6.69,36.15-6.69,19.22,0,18.93,13.38-.42,26.91-45.26,55.66-3.13,17.37-4.56,32.17l-22.63,6.26q.44-3.12,3.42-19.07l6.26-33.74Q181.94,89,181.23,87.54Zm17.93,22.78q-1,4-1.85,8l-1.56,7.83q13.23-6.56,17.08-13.81a4.45,4.45,0,0,0,.57-1.85c0-1.61-1.19-2.42-3.56-2.42S204,108.8,199.16,110.32Z"/>
        <path class="cls-3" d="M241,87.68l24.48-4.55q-14.81,57.08-19.36,98.93l-22.63,6.26Z"/>
        <path class="cls-3" d="M273.93,87.68l24.48-4.55q-10.25,39.44-15.8,72.74L307.67,152l-2.14,26.48q-19.36,1.71-49.11,9.82Z"/>
      </g>
    </g>
  </g>
</svg>
