<svg xmlns="http://www.w3.org/2000/svg" width="335.46mm" height="325.83mm" viewBox="0 0 950.91 923.62">
  <defs>
    <style>
      .cls-1 {
        fill: #b5565b;
      }

      .cls-2 {
        fill: #cd6c6d;
      }

      .cls-3 {
        fill: #333332;
      }
    </style>
  </defs>
  <g id="spilbaggrund">
    <g>
      <g>
        <path class="cls-1" d="M859,133.53c158.12,184.9,82.54,392.89-5.56,635.31-9.79,26.94-14.6,70.31-62.82,103.1-47.73,32.45-116.85,37.73-253.13,47-158.39,10.73-246.25.46-281-4.26-106.36-14.45-139.89-34.71-151.67-42.7-52-35.29-60.89-82-62.82-103.1C20.26,627.46-6.63,379.14,42,170.61c6.26-26.86,17.16-67.58,62.82-103.1,150-116.68,508.72-47.79,534.1-42.71C704.64,38,835.6,106.2,859,133.53Z"/>
        <path class="cls-2" d="M91.06,792.78c-156.6-181.18-81.74-385,5.51-622.52,9.69-26.39,14.46-68.89,62.22-101,47.27-31.8,115.72-37,250.69-46,156.87-10.51,243.88-.46,278.28,4.17C793.09,41.56,826.3,61.41,838,69.24c51.49,34.58,60.31,80.35,62.22,101,21.52,138.54,48.16,381.85,0,586.19-6.2,26.31-17,66.22-62.22,101C689.41,971.8,334.13,904.3,309,899.31,243.9,886.41,114.2,819.56,91.06,792.78Z"/>
      </g>
      <g>
        <path class="cls-3" d="M412.13,140.25Q422.85,137,429.7,137q9.23,0,9.16,6.43-.08,9.22-11.62,18.53,1,2.59,7.93,16.33-3.54,3.28-10.68,9.64l-7.28-18.86h-.16q-1.62,8.94-2.44,16.53l-10.82,3q.13-1.52,1.5-9.1Zm8.61,10.8c-.41,1.55-.77,3.1-1.09,4.65l-1,4.65a24.72,24.72,0,0,0,4.72-3.22,12.79,12.79,0,0,0,3.55-4.44,2.41,2.41,0,0,0,.35-1.16c0-1-.66-1.51-2-1.51A15.56,15.56,0,0,0,420.74,151.05Z"/>
        <path class="cls-3" d="M451.69,150.48c-.36,1.32-.68,2.63-.95,3.91l-.75,3.77,10.93-2.33-.61,9.44q-7.77,1.36-12.21,2.39c-.18.91-.34,1.83-.48,2.74l-.51,2.66,12.72-1.85-.89,12.72A156.06,156.06,0,0,0,434,188.65l8.14-49,22.76-3.35L464,149Q457.29,149.59,451.69,150.48Z"/>
        <path class="cls-3" d="M474.45,190.22q-7.24,0-10.26-7.79a23.2,23.2,0,0,1-1.57-8.75,39.64,39.64,0,0,1,1.44-10.05,45.54,45.54,0,0,1,8.54-17.16q7.45-9.51,15.86-9.5,7.32,0,10.32,8.06l-7.59,8.14a4.07,4.07,0,0,0-3.62-1.85q-4.65,0-8.75,6.43a36.91,36.91,0,0,0-4.58,10.73,16.47,16.47,0,0,0-.61,4.17,6.76,6.76,0,0,0,1.43,4.51,5.35,5.35,0,0,0,4.38,1.92,8,8,0,0,0,5.94-2.94,17.73,17.73,0,0,0,3.56-5.88c-3.37.68-6.5,1.39-9.37,2.12l2.17-10,18.14-3.89A28.11,28.11,0,0,1,498,168.64a46.34,46.34,0,0,1-4.58,9.28Q485.38,190.22,474.45,190.22Z"/>
        <path class="cls-3" d="M506.15,140.32l11.76-2.19q-4.92,18.93-7.59,34.93l12-1.85-1,12.72a140.59,140.59,0,0,0-23.59,4.72Z"/>
        <path class="cls-3" d="M540.11,150.48c-.37,1.32-.68,2.63-1,3.91l-.75,3.77,10.94-2.33-.61,9.44q-7.79,1.36-12.21,2.39c-.19.91-.34,1.83-.48,2.74l-.51,2.66,12.72-1.85-.89,12.72a155.86,155.86,0,0,0-25,4.72l8.13-49,22.77-3.35-.89,12.7Q545.72,149.59,540.11,150.48Z"/>
        <path class="cls-3" d="M558.28,140.25Q569,137,575.85,137q9.23,0,9.16,6.43-.07,9.22-11.62,18.53,1,2.59,7.93,16.33-3.54,3.28-10.68,9.64l-7.28-18.86h-.16q-1.62,8.94-2.44,16.53l-10.82,3q.13-1.52,1.5-9.1Zm8.61,10.8c-.41,1.55-.77,3.1-1.09,4.65l-1,4.65a24.72,24.72,0,0,0,4.72-3.22,12.79,12.79,0,0,0,3.55-4.44,2.41,2.41,0,0,0,.35-1.16c0-1-.67-1.51-2-1.51A15.49,15.49,0,0,0,566.89,151.05Z"/>
        <path class="cls-3" d="M196.94,306.58H192V294H179.3v12.62h-4.94V278.14h4.94V290H192V278.14h4.92Z"/>
        <path class="cls-3" d="M208.59,285.45v23A6.93,6.93,0,0,1,207,313.4a6.18,6.18,0,0,1-4.72,1.71,9.57,9.57,0,0,1-2.52-.33V311a7.21,7.21,0,0,0,1.68.18q2.37,0,2.43-2.58V285.45ZM203.44,280a2.53,2.53,0,0,1,.69-1.82,3.1,3.1,0,0,1,4,0,2.5,2.5,0,0,1,.71,1.82,2.43,2.43,0,0,1-.71,1.78,3.1,3.1,0,0,1-4,0A2.45,2.45,0,0,1,203.44,280Z"/>
        <path class="cls-3" d="M237,307a9.65,9.65,0,0,1-7.68-3.15,8.14,8.14,0,0,1-3.35,2.33,12.79,12.79,0,0,1-4.71.82,7.86,7.86,0,0,1-5.39-1.72,6,6,0,0,1-2-4.77,5.53,5.53,0,0,1,2.33-4.76q2.33-1.68,6.87-1.68h3.73v-1.39a4,4,0,0,0-.92-2.78,3.43,3.43,0,0,0-2.65-1,4.61,4.61,0,0,0-2.9.87,2.63,2.63,0,0,0-1.12,2.16l-4.73-.37a5.54,5.54,0,0,1,2.47-4.66,10.46,10.46,0,0,1,6.32-1.81c2.9,0,5.08.87,6.52,2.6a8.53,8.53,0,0,1,6.47-2.6,8.35,8.35,0,0,1,6.46,2.53q2.32,2.54,2.33,7.12v2.68H231.55a6.55,6.55,0,0,0,1.66,4.26,5.46,5.46,0,0,0,4.1,1.54,9.89,9.89,0,0,0,4.77-1.13l1.19-.67,1.43,3.24a10,10,0,0,1-3.41,1.72A14.34,14.34,0,0,1,237,307Zm-14.82-3.6a6.31,6.31,0,0,0,2.46-.57,7.52,7.52,0,0,0,2.2-1.42V297.3h-3.82a5.22,5.22,0,0,0-3.21,1,2.82,2.82,0,0,0-1.17,2.29,2.52,2.52,0,0,0,.91,2A3.93,3.93,0,0,0,222.22,303.37Zm14.12-14.51a4.13,4.13,0,0,0-3.18,1.35,6.83,6.83,0,0,0-1.55,3.83h8.83v-.59a5,5,0,0,0-1.07-3.4A3.87,3.87,0,0,0,236.34,288.86Z"/>
        <path class="cls-3" d="M255.12,306.58h-4.75v-30h4.75Z"/>
        <path class="cls-3" d="M280.11,296.23a12.56,12.56,0,0,1-2.23,7.82,7.73,7.73,0,0,1-11.54.63v10H261.6V285.45H266l.2,2.14a7,7,0,0,1,5.68-2.54,7.17,7.17,0,0,1,6.06,2.89q2.2,2.88,2.2,8Zm-4.73-.41a8.8,8.8,0,0,0-1.26-5,4.09,4.09,0,0,0-3.6-1.86,4.37,4.37,0,0,0-4.18,2.4v9.38a4.41,4.41,0,0,0,4.22,2.46,4.11,4.11,0,0,0,3.55-1.83A9.7,9.7,0,0,0,275.38,295.82Z"/>
        <path class="cls-3" d="M313.1,300h-11l-2.31,6.62h-5.13l10.74-28.44h4.43l10.76,28.44h-5.15Zm-9.63-4h8.25l-4.13-11.79Z"/>
        <path class="cls-3" d="M328.13,285.45l.14,2.44a7.59,7.59,0,0,1,6.15-2.84q6.6,0,6.72,7.56v14H336.4V292.89a4.35,4.35,0,0,0-.87-3,3.65,3.65,0,0,0-2.85-1,4.56,4.56,0,0,0-4.27,2.6v15h-4.75V285.45Z"/>
        <path class="cls-3" d="M353.24,280.31v5.14H357V289h-3.73v11.8a2.6,2.6,0,0,0,.48,1.75,2.26,2.26,0,0,0,1.71.53,7.29,7.29,0,0,0,1.66-.19v3.67A11.66,11.66,0,0,1,354,307q-5.46,0-5.46-6V289H345v-3.51h3.48v-5.14Z"/>
        <path class="cls-3" d="M360.44,295.82a12.48,12.48,0,0,1,1.23-5.6,9,9,0,0,1,3.46-3.83,9.75,9.75,0,0,1,5.12-1.34,9.22,9.22,0,0,1,6.94,2.76,10.79,10.79,0,0,1,2.88,7.3l0,1.12a12.57,12.57,0,0,1-1.2,5.58,8.9,8.9,0,0,1-3.44,3.81,9.79,9.79,0,0,1-5.17,1.35,9.14,9.14,0,0,1-7.15-3,11.42,11.42,0,0,1-2.69-7.94Zm4.75.41a8.56,8.56,0,0,0,1.34,5.1,4.7,4.7,0,0,0,7.5,0,9.39,9.39,0,0,0,1.33-5.48,8.46,8.46,0,0,0-1.37-5.08,4.64,4.64,0,0,0-7.44,0A9.24,9.24,0,0,0,365.19,296.23Z"/>
        <path class="cls-3" d="M389.83,285.45l.13,2.44a7.62,7.62,0,0,1,6.16-2.84q6.6,0,6.72,7.56v14h-4.75V292.89a4.35,4.35,0,0,0-.87-3,3.64,3.64,0,0,0-2.84-1,4.58,4.58,0,0,0-4.28,2.6v15h-4.74V285.45Z"/>
        <path class="cls-3" d="M424.73,285.45l.14,2.2a7.61,7.61,0,0,1,6.09-2.6c2.83,0,4.76,1.09,5.8,3.25a7.52,7.52,0,0,1,6.49-3.25,6.58,6.58,0,0,1,5.2,1.94,8.48,8.48,0,0,1,1.75,5.7v13.89h-4.74V292.83a4.23,4.23,0,0,0-.88-2.95,3.84,3.84,0,0,0-2.91-.94,4,4,0,0,0-2.65.87,4.67,4.67,0,0,0-1.44,2.28l0,14.49h-4.74V292.67q-.11-3.74-3.81-3.73a4.17,4.17,0,0,0-4,2.33v15.31h-4.75V285.45Z"/>
        <path class="cls-3" d="M465.7,307a9.82,9.82,0,0,1-7.31-2.84,10.32,10.32,0,0,1-2.81-7.57V296a12.58,12.58,0,0,1,1.23-5.65,9.3,9.3,0,0,1,3.42-3.88,9.12,9.12,0,0,1,4.92-1.39,8.27,8.27,0,0,1,6.67,2.76q2.35,2.74,2.36,7.79v1.92H460.37a6.36,6.36,0,0,0,1.75,4.14,5.27,5.27,0,0,0,3.86,1.52,6.43,6.43,0,0,0,5.31-2.64l2.56,2.44a8.49,8.49,0,0,1-3.39,2.94A10.6,10.6,0,0,1,465.7,307Zm-.56-18.11a4,4,0,0,0-3.16,1.37,7.07,7.07,0,0,0-1.53,3.81h9v-.35a5.79,5.79,0,0,0-1.27-3.61A4,4,0,0,0,465.14,288.86Z"/>
        <path class="cls-3" d="M478.29,295.86a12.6,12.6,0,0,1,2.27-7.85,7.26,7.26,0,0,1,6.07-3,6.91,6.91,0,0,1,5.43,2.35V276.58h4.75v30h-4.3l-.23-2.19a7,7,0,0,1-5.69,2.58,7.22,7.22,0,0,1-6-3A13,13,0,0,1,478.29,295.86Zm4.75.41a8.75,8.75,0,0,0,1.24,5,4,4,0,0,0,3.52,1.81,4.48,4.48,0,0,0,4.26-2.6v-9a4.42,4.42,0,0,0-4.22-2.54,4,4,0,0,0-3.55,1.83A9.75,9.75,0,0,0,483,296.27Z"/>
        <path class="cls-3" d="M527,306.58a7.45,7.45,0,0,1-.55-2,8,8,0,0,1-10.74.54,5.81,5.81,0,0,1-2-4.49,6,6,0,0,1,2.51-5.19q2.5-1.8,7.17-1.8h2.91v-1.39a3.31,3.31,0,0,0-3.71-3.61,4.17,4.17,0,0,0-2.65.81,2.52,2.52,0,0,0-1,2.06h-4.75a5.26,5.26,0,0,1,1.16-3.25,7.75,7.75,0,0,1,3.13-2.38,11.08,11.08,0,0,1,4.43-.86,8.87,8.87,0,0,1,5.91,1.87,6.62,6.62,0,0,1,2.27,5.24v9.54a10.89,10.89,0,0,0,.8,4.55v.33Zm-5.22-3.42a5.47,5.47,0,0,0,2.65-.68,4.58,4.58,0,0,0,1.86-1.84v-4h-2.56a7,7,0,0,0-4,.91,3,3,0,0,0-1.33,2.6,2.77,2.77,0,0,0,.91,2.18A3.53,3.53,0,0,0,521.77,303.16Z"/>
        <path class="cls-3" d="M543.27,280.31v5.14H547V289h-3.73v11.8a2.6,2.6,0,0,0,.48,1.75,2.23,2.23,0,0,0,1.7.53,7.23,7.23,0,0,0,1.66-.19v3.67A11.65,11.65,0,0,1,544,307q-5.47,0-5.47-6V289H535v-3.51h3.48v-5.14Z"/>
        <path class="cls-3" d="M562.33,295.82a12.48,12.48,0,0,1,1.23-5.6,9,9,0,0,1,3.46-3.83,9.75,9.75,0,0,1,5.12-1.34,9.22,9.22,0,0,1,6.94,2.76,10.79,10.79,0,0,1,2.88,7.3l0,1.12a12.57,12.57,0,0,1-1.2,5.58,8.9,8.9,0,0,1-3.44,3.81,9.78,9.78,0,0,1-5.16,1.35,9.16,9.16,0,0,1-7.16-3,11.42,11.42,0,0,1-2.69-7.94Zm4.75.41a8.49,8.49,0,0,0,1.35,5.1,4.69,4.69,0,0,0,7.49,0,9.39,9.39,0,0,0,1.33-5.48,8.39,8.39,0,0,0-1.37-5.08,4.41,4.41,0,0,0-3.74-1.88,4.36,4.36,0,0,0-3.69,1.85A9.17,9.17,0,0,0,567.08,296.23Z"/>
        <path class="cls-3" d="M594.47,300.56,599,285.45h4.9l-7.33,21.13H592.4L585,285.45h4.92Z"/>
        <path class="cls-3" d="M617.18,307a9.85,9.85,0,0,1-7.32-2.84,10.36,10.36,0,0,1-2.8-7.57V296a12.71,12.71,0,0,1,1.22-5.65,9.39,9.39,0,0,1,3.43-3.88,9.09,9.09,0,0,1,4.92-1.39,8.28,8.28,0,0,1,6.67,2.76q2.36,2.74,2.36,7.79v1.92H611.85a6.31,6.31,0,0,0,1.75,4.14,5.25,5.25,0,0,0,3.85,1.52,6.43,6.43,0,0,0,5.32-2.64l2.55,2.44a8.39,8.39,0,0,1-3.38,2.94A10.6,10.6,0,0,1,617.18,307Zm-.57-18.11a4,4,0,0,0-3.15,1.37,7.07,7.07,0,0,0-1.53,3.81h9v-.35a5.85,5.85,0,0,0-1.27-3.61A4,4,0,0,0,616.61,288.86Z"/>
        <path class="cls-3" d="M641.72,289.78a12.16,12.16,0,0,0-1.93-.16c-2.18,0-3.64.84-4.4,2.5v14.46h-4.74V285.45h4.53l.12,2.36a5.33,5.33,0,0,1,4.76-2.76,4.46,4.46,0,0,1,1.68.28Z"/>
        <path class="cls-3" d="M651.09,306.58h-4.75v-30h4.75Z"/>
        <path class="cls-3" d="M666.88,307a9.82,9.82,0,0,1-7.31-2.84,10.32,10.32,0,0,1-2.81-7.57V296a12.58,12.58,0,0,1,1.23-5.65,9.3,9.3,0,0,1,3.42-3.88,9.12,9.12,0,0,1,4.92-1.39,8.27,8.27,0,0,1,6.67,2.76q2.36,2.74,2.36,7.79v1.92H661.55a6.36,6.36,0,0,0,1.75,4.14,5.26,5.26,0,0,0,3.85,1.52,6.43,6.43,0,0,0,5.32-2.64L675,303a8.49,8.49,0,0,1-3.39,2.94A10.6,10.6,0,0,1,666.88,307Zm-.56-18.11a4,4,0,0,0-3.16,1.37,7.07,7.07,0,0,0-1.53,3.81h9v-.35a5.79,5.79,0,0,0-1.27-3.61A4,4,0,0,0,666.32,288.86Z"/>
        <path class="cls-3" d="M687.56,300.56,692,285.45h4.9l-7.32,21.13h-4.12l-7.39-21.13H683Z"/>
        <path class="cls-3" d="M710.26,307a9.84,9.84,0,0,1-7.31-2.84,10.32,10.32,0,0,1-2.8-7.57V296a12.58,12.58,0,0,1,1.22-5.65,9.25,9.25,0,0,1,3.43-3.88,9.09,9.09,0,0,1,4.92-1.39,8.28,8.28,0,0,1,6.67,2.76q2.36,2.74,2.35,7.79v1.92H704.93a6.41,6.41,0,0,0,1.75,4.14,5.27,5.27,0,0,0,3.86,1.52,6.43,6.43,0,0,0,5.31-2.64l2.56,2.44a8.49,8.49,0,0,1-3.39,2.94A10.57,10.57,0,0,1,710.26,307Zm-.56-18.11a4,4,0,0,0-3.16,1.37A7.07,7.07,0,0,0,705,294h9v-.35a5.73,5.73,0,0,0-1.27-3.61A4,4,0,0,0,709.7,288.86Z"/>
        <path class="cls-3" d="M179.85,355.31v5.14h3.73V364h-3.73v11.8a2.6,2.6,0,0,0,.48,1.75A2.26,2.26,0,0,0,182,378a7.36,7.36,0,0,0,1.66-.19v3.67a11.66,11.66,0,0,1-3.13.45c-3.64,0-5.47-2-5.47-6V364h-3.47v-3.51h3.47v-5.14Z"/>
        <path class="cls-3" d="M201.33,379.51a7.38,7.38,0,0,1-5.94,2.46,6.58,6.58,0,0,1-5.21-2,8.6,8.6,0,0,1-1.76-5.82V360.45h4.74v13.63c0,2.68,1.12,4,3.34,4s3.86-.83,4.67-2.48V360.45h4.75v21.13h-4.48Z"/>
        <path class="cls-3" d="M223.13,364.78a12.16,12.16,0,0,0-1.93-.16c-2.17,0-3.64.84-4.39,2.5v14.46h-4.75V360.45h4.53l.12,2.36a5.33,5.33,0,0,1,4.76-2.76,4.46,4.46,0,0,1,1.68.28Z"/>
        <path class="cls-3" d="M236.39,382a9.85,9.85,0,0,1-7.32-2.84,10.36,10.36,0,0,1-2.8-7.57V371a12.71,12.71,0,0,1,1.22-5.65,9.39,9.39,0,0,1,3.43-3.88,9.09,9.09,0,0,1,4.92-1.39,8.28,8.28,0,0,1,6.67,2.76q2.36,2.74,2.35,7.79v1.92h-13.8a6.35,6.35,0,0,0,1.74,4.14,5.29,5.29,0,0,0,3.86,1.52,6.4,6.4,0,0,0,5.31-2.64l2.56,2.44a8.36,8.36,0,0,1-3.39,2.94A10.53,10.53,0,0,1,236.39,382Zm-.57-18.11a4,4,0,0,0-3.15,1.37,7.16,7.16,0,0,0-1.54,3.81h9.05v-.35a5.85,5.85,0,0,0-1.27-3.61A4,4,0,0,0,235.82,363.86Z"/>
        <path class="cls-3" d="M254.27,360.45l.14,2.44a7.59,7.59,0,0,1,6.15-2.84q6.6,0,6.72,7.56v14h-4.75V367.89a4.35,4.35,0,0,0-.87-3,3.63,3.63,0,0,0-2.84-1,4.59,4.59,0,0,0-4.28,2.6v15H249.8V360.45Z"/>
        <path class="cls-3" d="M290.66,355.31v5.14h3.73V364h-3.73v11.8a2.6,2.6,0,0,0,.48,1.75,2.26,2.26,0,0,0,1.71.53,7.29,7.29,0,0,0,1.66-.19v3.67a11.66,11.66,0,0,1-3.13.45c-3.64,0-5.47-2-5.47-6V364h-3.47v-3.51h3.47v-5.14Z"/>
        <path class="cls-3" d="M299.34,355a2.54,2.54,0,0,1,.7-1.82,2.61,2.61,0,0,1,2-.72,2.65,2.65,0,0,1,2,.72,2.5,2.5,0,0,1,.71,1.82,2.43,2.43,0,0,1-.71,1.78,2.65,2.65,0,0,1-2,.72,2.61,2.61,0,0,1-2-.72A2.46,2.46,0,0,1,299.34,355Zm5,26.62h-4.74V360.45h4.74Z"/>
        <path class="cls-3" d="M315.92,381.58h-4.75v-30h4.75Z"/>
        <path class="cls-3" d="M344.16,375.39l7.23-22.25h5.43l-10.23,28.44H341.8l-10.19-28.44H337Z"/>
        <path class="cls-3" d="M372.61,381.58a7.14,7.14,0,0,1-.54-2,8,8,0,0,1-10.75.54,5.81,5.81,0,0,1-2-4.49,6,6,0,0,1,2.51-5.19c1.67-1.2,4.07-1.8,7.18-1.8h2.91v-1.39a3.73,3.73,0,0,0-.92-2.63,3.65,3.65,0,0,0-2.79-1,4.19,4.19,0,0,0-2.66.81,2.51,2.51,0,0,0-1,2.06h-4.75a5.25,5.25,0,0,1,1.15-3.25,7.79,7.79,0,0,1,3.14-2.38,11,11,0,0,1,4.42-.86,8.88,8.88,0,0,1,5.92,1.87,6.61,6.61,0,0,1,2.26,5.24v9.54a10.72,10.72,0,0,0,.81,4.55v.33Zm-5.21-3.42a5.43,5.43,0,0,0,2.64-.68,4.6,4.6,0,0,0,1.87-1.84v-4h-2.56a7,7,0,0,0-4,.91,3,3,0,0,0-1.33,2.6,2.77,2.77,0,0,0,.91,2.18A3.5,3.5,0,0,0,367.4,378.16Z"/>
        <path class="cls-3" d="M388,381.58h-4.74v-30H388Z"/>
        <path class="cls-3" d="M403.69,371.4H393.44v-3.83h10.25Z"/>
        <path class="cls-3" d="M414.87,355.31v5.14h3.73V364h-3.73v11.8a2.6,2.6,0,0,0,.48,1.75,2.26,2.26,0,0,0,1.71.53,7.29,7.29,0,0,0,1.66-.19v3.67a11.65,11.65,0,0,1-3.12.45q-5.48,0-5.47-6V364h-3.48v-3.51h3.48v-5.14Z"/>
        <path class="cls-3" d="M426.51,376.58a2.73,2.73,0,0,1,2.05.75,2.61,2.61,0,0,1,.72,1.88,2.53,2.53,0,0,1-.72,1.85,3.22,3.22,0,0,1-4.07,0,2.49,2.49,0,0,1-.74-1.86,2.61,2.61,0,0,1,.72-1.88A2.71,2.71,0,0,1,426.51,376.58Z"/>
        <path class="cls-3" d="M196.94,531.58H192V519H179.3v12.62h-4.94V503.14h4.94V515H192V503.14h4.92Z"/>
        <path class="cls-3" d="M216.27,531.58a7.45,7.45,0,0,1-.55-2,8,8,0,0,1-10.74.54,5.81,5.81,0,0,1-2-4.49,6,6,0,0,1,2.51-5.19q2.51-1.8,7.17-1.8h2.92v-1.39a3.32,3.32,0,0,0-3.72-3.61,4.17,4.17,0,0,0-2.65.81,2.52,2.52,0,0,0-1,2.06h-4.74a5.25,5.25,0,0,1,1.15-3.25,7.75,7.75,0,0,1,3.13-2.38,11.11,11.11,0,0,1,4.43-.86,8.92,8.92,0,0,1,5.92,1.87,6.64,6.64,0,0,1,2.26,5.24v9.54a10.89,10.89,0,0,0,.8,4.55v.33Zm-5.22-3.42a5.47,5.47,0,0,0,2.65-.68,4.6,4.6,0,0,0,1.87-1.84v-4H213a7,7,0,0,0-4,.91,3,3,0,0,0-1.33,2.6,2.8,2.8,0,0,0,.91,2.18A3.53,3.53,0,0,0,211.05,528.16Z"/>
        <path class="cls-3" d="M231,510.45l.13,2.44a7.6,7.6,0,0,1,6.15-2.84q6.61,0,6.72,7.56v14h-4.74V517.89a4.35,4.35,0,0,0-.87-3,3.64,3.64,0,0,0-2.84-1,4.58,4.58,0,0,0-4.28,2.6v15h-4.75V510.45Z"/>
        <path class="cls-3" d="M273.29,525.84a2.14,2.14,0,0,0-1-1.94,11.24,11.24,0,0,0-3.47-1.17,18,18,0,0,1-4-1.29q-3.56-1.71-3.55-5a5.61,5.61,0,0,1,2.3-4.57,9.14,9.14,0,0,1,5.86-1.84,9.45,9.45,0,0,1,6.12,1.88,5.94,5.94,0,0,1,2.34,4.86h-4.75a2.9,2.9,0,0,0-1-2.27,3.85,3.85,0,0,0-2.69-.91,4.23,4.23,0,0,0-2.55.72,2.28,2.28,0,0,0-1,1.94,1.92,1.92,0,0,0,.92,1.69,12.36,12.36,0,0,0,3.71,1.23,17.35,17.35,0,0,1,4.39,1.46,6.24,6.24,0,0,1,2.36,2,5.18,5.18,0,0,1,.77,2.89,5.52,5.52,0,0,1-2.36,4.62,10.08,10.08,0,0,1-6.19,1.77,10.85,10.85,0,0,1-4.63-.94,7.55,7.55,0,0,1-3.17-2.58,6.12,6.12,0,0,1-1.13-3.53h4.61a3.38,3.38,0,0,0,1.27,2.59,5,5,0,0,0,3.11.9,4.76,4.76,0,0,0,2.85-.71A2.2,2.2,0,0,0,273.29,525.84Z"/>
        <path class="cls-3" d="M290.28,522.52l-2.11,2.16v6.9h-4.75v-30h4.75v17.3l1.48-1.85,5.84-6.58h5.71l-7.86,8.8,8.7,12.33h-5.49Z"/>
        <path class="cls-3" d="M318.24,531.58a7.45,7.45,0,0,1-.55-2,8,8,0,0,1-10.74.54,5.81,5.81,0,0,1-2-4.49,6,6,0,0,1,2.51-5.19q2.51-1.8,7.18-1.8h2.91v-1.39a3.73,3.73,0,0,0-.92-2.63,3.68,3.68,0,0,0-2.8-1,4.17,4.17,0,0,0-2.65.81,2.52,2.52,0,0,0-1,2.06h-4.74a5.25,5.25,0,0,1,1.15-3.25,7.75,7.75,0,0,1,3.13-2.38,11.11,11.11,0,0,1,4.43-.86,8.92,8.92,0,0,1,5.92,1.87,6.64,6.64,0,0,1,2.26,5.24v9.54a10.89,10.89,0,0,0,.8,4.55v.33ZM313,528.16a5.47,5.47,0,0,0,2.65-.68,4.6,4.6,0,0,0,1.87-1.84v-4H315a7,7,0,0,0-4,.91,3,3,0,0,0-1.33,2.6,2.8,2.8,0,0,0,.91,2.18A3.53,3.53,0,0,0,313,528.16Z"/>
        <path class="cls-3" d="M333.62,531.58h-4.74v-30h4.74Z"/>
        <path class="cls-3" d="M350.5,520.86a12.54,12.54,0,0,1,2.27-7.85,7.26,7.26,0,0,1,6.07-3,6.91,6.91,0,0,1,5.43,2.35V501.58H369v30h-4.3l-.24-2.19A7,7,0,0,1,358.8,532a7.24,7.24,0,0,1-6-3Q350.5,526,350.5,520.86Zm4.75.41a8.75,8.75,0,0,0,1.24,5A4,4,0,0,0,360,528.1a4.48,4.48,0,0,0,4.26-2.6v-9a4.42,4.42,0,0,0-4.22-2.54,4,4,0,0,0-3.55,1.83A9.75,9.75,0,0,0,355.25,521.27Z"/>
        <path class="cls-3" d="M386.35,514.78a12.16,12.16,0,0,0-1.93-.16c-2.18,0-3.64.84-4.4,2.5v14.46h-4.74V510.45h4.53l.12,2.36a5.33,5.33,0,0,1,4.76-2.76,4.46,4.46,0,0,1,1.68.28Z"/>
        <path class="cls-3" d="M390.68,505a2.53,2.53,0,0,1,.69-1.82,2.61,2.61,0,0,1,2-.72,2.68,2.68,0,0,1,2,.72,2.5,2.5,0,0,1,.7,1.82,2.42,2.42,0,0,1-.7,1.78,2.68,2.68,0,0,1-2,.72,2.61,2.61,0,0,1-2-.72A2.45,2.45,0,0,1,390.68,505Zm5,26.62H391V510.45h4.75Z"/>
        <path class="cls-3" d="M409.07,522.52,407,524.68v6.9h-4.75v-30H407v17.3l1.48-1.85,5.84-6.58H420l-7.85,8.8,8.69,12.33h-5.49Z"/>
        <path class="cls-3" d="M431.27,522.52l-2.11,2.16v6.9h-4.75v-30h4.75v17.3l1.48-1.85,5.84-6.58h5.71l-7.86,8.8,8.7,12.33h-5.49Z"/>
        <path class="cls-3" d="M455.52,532a9.85,9.85,0,0,1-7.32-2.84,10.36,10.36,0,0,1-2.8-7.57V521a12.71,12.71,0,0,1,1.22-5.65,9.39,9.39,0,0,1,3.43-3.88,9.09,9.09,0,0,1,4.92-1.39,8.28,8.28,0,0,1,6.67,2.76q2.36,2.75,2.35,7.79v1.92h-13.8a6.35,6.35,0,0,0,1.74,4.14,5.29,5.29,0,0,0,3.86,1.52,6.4,6.4,0,0,0,5.31-2.64l2.56,2.44a8.36,8.36,0,0,1-3.39,2.94A10.53,10.53,0,0,1,455.52,532ZM455,513.86a4,4,0,0,0-3.15,1.37,7.16,7.16,0,0,0-1.54,3.81h9.05v-.35a5.85,5.85,0,0,0-1.27-3.61A4,4,0,0,0,455,513.86Z"/>
        <path class="cls-3" d="M492.12,525.84a2.16,2.16,0,0,0-1-1.94,11.24,11.24,0,0,0-3.47-1.17,18,18,0,0,1-4-1.29q-3.56-1.71-3.56-5a5.62,5.62,0,0,1,2.31-4.57,9.12,9.12,0,0,1,5.86-1.84,9.49,9.49,0,0,1,6.12,1.88,5.93,5.93,0,0,1,2.33,4.86h-4.74a2.9,2.9,0,0,0-1-2.27,3.85,3.85,0,0,0-2.69-.91,4.23,4.23,0,0,0-2.55.72,2.28,2.28,0,0,0-1,1.94,1.92,1.92,0,0,0,.92,1.69,12.36,12.36,0,0,0,3.71,1.23,17.63,17.63,0,0,1,4.39,1.46,6.32,6.32,0,0,1,2.36,2,5.26,5.26,0,0,1,.77,2.89,5.52,5.52,0,0,1-2.36,4.62,10.08,10.08,0,0,1-6.19,1.77,10.82,10.82,0,0,1-4.63-.94,7.55,7.55,0,0,1-3.17-2.58,6.12,6.12,0,0,1-1.13-3.53h4.61a3.38,3.38,0,0,0,1.27,2.59,5,5,0,0,0,3.1.9,4.81,4.81,0,0,0,2.86-.71A2.2,2.2,0,0,0,492.12,525.84Z"/>
        <path class="cls-3" d="M514.87,531.58a7.45,7.45,0,0,1-.55-2,8,8,0,0,1-10.74.54,5.81,5.81,0,0,1-2-4.49,6,6,0,0,1,2.51-5.19q2.51-1.8,7.18-1.8h2.91v-1.39a3.73,3.73,0,0,0-.92-2.63,3.68,3.68,0,0,0-2.8-1,4.17,4.17,0,0,0-2.65.81,2.52,2.52,0,0,0-1,2.06H502a5.25,5.25,0,0,1,1.15-3.25,7.75,7.75,0,0,1,3.13-2.38,11.11,11.11,0,0,1,4.43-.86,8.92,8.92,0,0,1,5.92,1.87,6.64,6.64,0,0,1,2.26,5.24v9.54a10.89,10.89,0,0,0,.8,4.55v.33Zm-5.22-3.42a5.47,5.47,0,0,0,2.65-.68,4.6,4.6,0,0,0,1.87-1.84v-4h-2.56a7,7,0,0,0-4,.91,3,3,0,0,0-1.33,2.6,2.8,2.8,0,0,0,.91,2.18A3.53,3.53,0,0,0,509.65,528.16Zm1.25-28.42a4.26,4.26,0,0,1,3.07,1.2,3.85,3.85,0,0,1,1.25,2.86,3.81,3.81,0,0,1-1.22,2.84,4.71,4.71,0,0,1-6.21,0,3.92,3.92,0,0,1,0-5.7A4.28,4.28,0,0,1,510.9,499.74Zm-2.18,4.06a2.1,2.1,0,0,0,.64,1.56,2.14,2.14,0,0,0,1.54.63,2.17,2.17,0,0,0,1.56-.62,2.13,2.13,0,0,0,.63-1.57,2.2,2.2,0,0,0-.61-1.55,2.23,2.23,0,0,0-3.15,0A2.2,2.2,0,0,0,508.72,503.8Z"/>
        <path class="cls-3" d="M541,510.45l.13,2.2a7.63,7.63,0,0,1,6.1-2.6c2.82,0,4.76,1.09,5.8,3.25a7.5,7.5,0,0,1,6.48-3.25,6.6,6.6,0,0,1,5.21,1.94,8.48,8.48,0,0,1,1.74,5.7v13.89h-4.74V517.83a4.18,4.18,0,0,0-.88-3,3.84,3.84,0,0,0-2.91-.94,4,4,0,0,0-2.65.87,4.58,4.58,0,0,0-1.43,2.28l0,14.49h-4.75V517.67q-.09-3.74-3.81-3.73a4.17,4.17,0,0,0-4,2.33v15.31h-4.75V510.45Z"/>
        <path class="cls-3" d="M585.24,531.58a7.08,7.08,0,0,1-.55-2,8,8,0,0,1-10.74.54,5.82,5.82,0,0,1-2-4.49,6,6,0,0,1,2.51-5.19q2.52-1.8,7.18-1.8h2.91v-1.39a3.31,3.31,0,0,0-3.71-3.61,4.21,4.21,0,0,0-2.66.81,2.51,2.51,0,0,0-1,2.06h-4.75a5.26,5.26,0,0,1,1.16-3.25,7.68,7.68,0,0,1,3.13-2.38,11.06,11.06,0,0,1,4.42-.86,8.88,8.88,0,0,1,5.92,1.87,6.65,6.65,0,0,1,2.27,5.24v9.54a10.73,10.73,0,0,0,.8,4.55v.33ZM580,528.16a5.47,5.47,0,0,0,2.65-.68,4.64,4.64,0,0,0,1.86-1.84v-4H582a7,7,0,0,0-4,.91,3,3,0,0,0-1.33,2.6,2.77,2.77,0,0,0,.91,2.18A3.5,3.5,0,0,0,580,528.16Z"/>
        <path class="cls-3" d="M600,510.45l.14,2.44a7.59,7.59,0,0,1,6.15-2.84q6.6,0,6.72,7.56v14h-4.75V517.89a4.35,4.35,0,0,0-.87-3,3.61,3.61,0,0,0-2.84-1,4.56,4.56,0,0,0-4.27,2.6v15H595.5V510.45Z"/>
        <path class="cls-3" d="M618.3,520.86a12.39,12.39,0,0,1,2.32-7.87,7.42,7.42,0,0,1,6.14-2.94,7,7,0,0,1,5.69,2.52l.21-2.12h4.28v20.48a8.56,8.56,0,0,1-2.59,6.57,9.86,9.86,0,0,1-7,2.4,11.13,11.13,0,0,1-4.54-1,8,8,0,0,1-3.37-2.53l2.24-2.85a6.8,6.8,0,0,0,5.39,2.6,5.24,5.24,0,0,0,3.73-1.28,4.87,4.87,0,0,0,1.37-3.76v-1.43a7,7,0,0,1-5.47,2.29,7.4,7.4,0,0,1-6.06-3Q618.31,526.06,618.3,520.86Zm4.73.41a8.49,8.49,0,0,0,1.3,5,4.2,4.2,0,0,0,3.6,1.82,4.56,4.56,0,0,0,4.26-2.46v-9.3a4.5,4.5,0,0,0-4.22-2.4,4.19,4.19,0,0,0-3.64,1.86A9.48,9.48,0,0,0,623,521.27Z"/>
        <path class="cls-3" d="M652.44,532a9.85,9.85,0,0,1-7.32-2.84,10.32,10.32,0,0,1-2.8-7.57V521a12.71,12.71,0,0,1,1.22-5.65,9.32,9.32,0,0,1,3.43-3.88,9.09,9.09,0,0,1,4.92-1.39,8.28,8.28,0,0,1,6.67,2.76q2.36,2.75,2.35,7.79v1.92h-13.8a6.35,6.35,0,0,0,1.74,4.14,5.29,5.29,0,0,0,3.86,1.52,6.4,6.4,0,0,0,5.31-2.64l2.56,2.44a8.36,8.36,0,0,1-3.39,2.94A10.53,10.53,0,0,1,652.44,532Zm-.57-18.11a4,4,0,0,0-3.15,1.37,7.08,7.08,0,0,0-1.54,3.81h9.05v-.35a5.85,5.85,0,0,0-1.27-3.61A4,4,0,0,0,651.87,513.86Z"/>
        <path class="cls-3" d="M676.31,520.82a12.48,12.48,0,0,1,1.23-5.6,9,9,0,0,1,3.45-3.83,9.8,9.8,0,0,1,5.12-1.34,10.47,10.47,0,0,1,3.79.67l1.39-2.79h2.83l-2,4.06q3.82,3,3.83,9.24a12.43,12.43,0,0,1-1.21,5.58,8.88,8.88,0,0,1-3.43,3.81,9.82,9.82,0,0,1-5.17,1.35,11.23,11.23,0,0,1-3.57-.59l-1.41,2.87h-2.83l2-4Q676.31,527.29,676.31,520.82Zm4.74.41a9,9,0,0,0,1.25,5l5.84-11.9a4.82,4.82,0,0,0-2-.43,4.36,4.36,0,0,0-3.69,1.85A9.24,9.24,0,0,0,681.05,521.23Zm10.18-.41a8.83,8.83,0,0,0-1.13-4.71l-5.78,11.74a4.92,4.92,0,0,0,1.83.33,4.34,4.34,0,0,0,3.74-1.88A9.39,9.39,0,0,0,691.23,520.82Z"/>
        <path class="cls-3" d="M706.22,531.58h-4.74v-30h4.74Z"/>
        <path class="cls-3" d="M735.83,525.84a2.14,2.14,0,0,0-1-1.94,11.24,11.24,0,0,0-3.47-1.17,18,18,0,0,1-4-1.29q-3.56-1.71-3.56-5a5.62,5.62,0,0,1,2.31-4.57,9.14,9.14,0,0,1,5.86-1.84,9.47,9.47,0,0,1,6.12,1.88,5.94,5.94,0,0,1,2.34,4.86H735.6a2.9,2.9,0,0,0-1-2.27,3.85,3.85,0,0,0-2.69-.91,4.23,4.23,0,0,0-2.55.72,2.28,2.28,0,0,0-1,1.94,1.92,1.92,0,0,0,.92,1.69,12.36,12.36,0,0,0,3.71,1.23,17.49,17.49,0,0,1,4.39,1.46,6.24,6.24,0,0,1,2.36,2,5.26,5.26,0,0,1,.77,2.89,5.52,5.52,0,0,1-2.36,4.62A10.08,10.08,0,0,1,732,532a10.85,10.85,0,0,1-4.63-.94,7.55,7.55,0,0,1-3.17-2.58,6.12,6.12,0,0,1-1.13-3.53h4.61a3.38,3.38,0,0,0,1.27,2.59,5,5,0,0,0,3.11.9,4.76,4.76,0,0,0,2.85-.71A2.2,2.2,0,0,0,735.83,525.84Z"/>
        <path class="cls-3" d="M745.06,520.82a12.48,12.48,0,0,1,1.23-5.6,9,9,0,0,1,3.46-3.83,9.78,9.78,0,0,1,5.12-1.34,9.22,9.22,0,0,1,6.94,2.76,10.79,10.79,0,0,1,2.88,7.3l0,1.12a12.57,12.57,0,0,1-1.2,5.58,8.84,8.84,0,0,1-3.44,3.81,9.78,9.78,0,0,1-5.16,1.35,9.16,9.16,0,0,1-7.16-3,11.42,11.42,0,0,1-2.69-7.94Zm4.75.41a8.49,8.49,0,0,0,1.35,5.1,4.39,4.39,0,0,0,3.75,1.85,4.34,4.34,0,0,0,3.74-1.88,9.39,9.39,0,0,0,1.34-5.48,8.39,8.39,0,0,0-1.38-5.08,4.41,4.41,0,0,0-3.74-1.88,4.36,4.36,0,0,0-3.69,1.85A9.24,9.24,0,0,0,749.81,521.23Z"/>
        <path class="cls-3" d="M774.51,510.45l.14,2.2a7.6,7.6,0,0,1,6.09-2.6c2.82,0,4.76,1.09,5.8,3.25a7.51,7.51,0,0,1,6.48-3.25,6.59,6.59,0,0,1,5.21,1.94,8.53,8.53,0,0,1,1.75,5.7v13.89h-4.75V517.83a4.18,4.18,0,0,0-.88-3,3.81,3.81,0,0,0-2.91-.94,3.93,3.93,0,0,0-2.64.87,4.53,4.53,0,0,0-1.44,2.28l0,14.49h-4.75V517.67q-.09-3.74-3.81-3.73a4.18,4.18,0,0,0-4,2.33v15.31H770V510.45Z"/>
        <path class="cls-3" d="M178.37,585.45l.13,2.2a7.63,7.63,0,0,1,6.1-2.6c2.82,0,4.76,1.09,5.8,3.25a7.5,7.5,0,0,1,6.48-3.25,6.6,6.6,0,0,1,5.21,1.94,8.48,8.48,0,0,1,1.74,5.7v13.89h-4.74V592.83a4.18,4.18,0,0,0-.88-3,3.84,3.84,0,0,0-2.91-.94,4,4,0,0,0-2.65.87,4.58,4.58,0,0,0-1.43,2.28l0,14.49h-4.75V592.67q-.09-3.74-3.81-3.73a4.17,4.17,0,0,0-4,2.33v15.31h-4.75V585.45Z"/>
        <path class="cls-3" d="M222.83,604.51a7.36,7.36,0,0,1-5.94,2.46,6.56,6.56,0,0,1-5.2-2,8.55,8.55,0,0,1-1.77-5.82V585.45h4.75v13.63q0,4,3.34,4c2.3,0,3.86-.83,4.66-2.48V585.45h4.75v21.13H223Z"/>
        <path class="cls-3" d="M238.62,606.58h-4.74v-30h4.74Z"/>
        <path class="cls-3" d="M245.12,580a2.53,2.53,0,0,1,.69-1.82,2.63,2.63,0,0,1,2-.72,2.68,2.68,0,0,1,2,.72,2.5,2.5,0,0,1,.7,1.82,2.42,2.42,0,0,1-.7,1.78,2.68,2.68,0,0,1-2,.72,2.63,2.63,0,0,1-2-.72A2.45,2.45,0,0,1,245.12,580Zm5,26.62h-4.75V585.45h4.75Z"/>
        <path class="cls-3" d="M255.81,595.86a12.39,12.39,0,0,1,2.32-7.87,7.42,7.42,0,0,1,6.14-2.94,7,7,0,0,1,5.68,2.52l.22-2.12h4.28v20.48a8.56,8.56,0,0,1-2.59,6.57,9.86,9.86,0,0,1-7,2.4,11.13,11.13,0,0,1-4.54-1A8,8,0,0,1,257,611.4l2.24-2.85a6.8,6.8,0,0,0,5.39,2.6,5.24,5.24,0,0,0,3.73-1.28,4.91,4.91,0,0,0,1.37-3.76v-1.43a7,7,0,0,1-5.47,2.29,7.4,7.4,0,0,1-6.06-3Q255.82,601.06,255.81,595.86Zm4.73.41a8.49,8.49,0,0,0,1.3,5,4.2,4.2,0,0,0,3.6,1.82,4.56,4.56,0,0,0,4.26-2.46v-9.3a4.5,4.5,0,0,0-4.22-2.4,4.19,4.19,0,0,0-3.64,1.86A9.48,9.48,0,0,0,260.54,596.27Z"/>
        <path class="cls-3" d="M286.59,580.31v5.14h3.73V589h-3.73v11.8a2.6,2.6,0,0,0,.48,1.75,2.21,2.21,0,0,0,1.7.53,7.29,7.29,0,0,0,1.66-.19v3.67a11.65,11.65,0,0,1-3.12.45q-5.47,0-5.47-6V589h-3.48v-3.51h3.48v-5.14Z"/>
        <path class="cls-3" d="M295.93,613l-2.55-1.52a13.89,13.89,0,0,0,1.55-3.1,9.06,9.06,0,0,0,.44-2.68V602h4.28l0,3.42a9.69,9.69,0,0,1-1.05,4.15A10.11,10.11,0,0,1,295.93,613Z"/>
        <path class="cls-3" d="M318.32,606.58V589H315.1v-3.51h3.22v-1.94a7.28,7.28,0,0,1,1.95-5.43,7.51,7.51,0,0,1,5.47-1.91,10.76,10.76,0,0,1,2.66.35l-.12,3.71a9.7,9.7,0,0,0-1.82-.16q-3.39,0-3.39,3.5v1.88h4.29V589h-4.29v17.62Z"/>
        <path class="cls-3" d="M331.26,595.82a12.48,12.48,0,0,1,1.23-5.6,9,9,0,0,1,3.46-3.83,9.75,9.75,0,0,1,5.12-1.34,9.22,9.22,0,0,1,6.94,2.76,10.79,10.79,0,0,1,2.88,7.3l0,1.12a12.57,12.57,0,0,1-1.2,5.58,8.9,8.9,0,0,1-3.44,3.81,9.78,9.78,0,0,1-5.16,1.35,9.15,9.15,0,0,1-7.16-3,11.42,11.42,0,0,1-2.69-7.94Zm4.75.41a8.49,8.49,0,0,0,1.35,5.1,4.69,4.69,0,0,0,7.49,0,9.39,9.39,0,0,0,1.33-5.48,8.46,8.46,0,0,0-1.37-5.08,4.64,4.64,0,0,0-7.44,0A9.24,9.24,0,0,0,336,596.23Z"/>
        <path class="cls-3" d="M367.31,589.78a12.29,12.29,0,0,0-1.94-.16c-2.17,0-3.63.84-4.39,2.5v14.46h-4.75V585.45h4.54l.11,2.36a5.36,5.36,0,0,1,4.77-2.76,4.5,4.5,0,0,1,1.68.28Z"/>
        <path class="cls-3" d="M395.53,606.58a7.52,7.52,0,0,1-.54-2,7.41,7.41,0,0,1-5.55,2.36,7.49,7.49,0,0,1-5.2-1.82,5.81,5.81,0,0,1-2-4.49,6,6,0,0,1,2.51-5.19q2.52-1.8,7.18-1.8h2.91v-1.39a3.31,3.31,0,0,0-3.71-3.61,4.19,4.19,0,0,0-2.66.81,2.51,2.51,0,0,0-1,2.06h-4.75a5.31,5.31,0,0,1,1.15-3.25,7.79,7.79,0,0,1,3.14-2.38,11.06,11.06,0,0,1,4.42-.86,8.88,8.88,0,0,1,5.92,1.87,6.65,6.65,0,0,1,2.27,5.24v9.54a10.73,10.73,0,0,0,.8,4.55v.33Zm-5.21-3.42a5.47,5.47,0,0,0,2.65-.68,4.64,4.64,0,0,0,1.86-1.84v-4h-2.56a7,7,0,0,0-4,.91,3,3,0,0,0-1.33,2.6,2.77,2.77,0,0,0,.91,2.18A3.5,3.5,0,0,0,390.32,603.16Z"/>
        <path class="cls-3" d="M411.82,580.31v5.14h3.73V589h-3.73v11.8a2.6,2.6,0,0,0,.47,1.75A2.26,2.26,0,0,0,414,603a7.29,7.29,0,0,0,1.66-.19v3.67a11.65,11.65,0,0,1-3.12.45q-5.48,0-5.47-6V589h-3.48v-3.51h3.48v-5.14Z"/>
        <path class="cls-3" d="M439.22,600.56l4.47-15.11h4.91l-7.33,21.13h-4.12l-7.38-21.13h4.92Z"/>
        <path class="cls-3" d="M474.94,607a9.62,9.62,0,0,1-7.68-3.15,8.25,8.25,0,0,1-3.36,2.33,12.71,12.71,0,0,1-4.71.82,7.86,7.86,0,0,1-5.39-1.72,6,6,0,0,1-1.95-4.77,5.53,5.53,0,0,1,2.32-4.76q2.32-1.68,6.88-1.68h3.73v-1.39a3.94,3.94,0,0,0-.93-2.78,3.43,3.43,0,0,0-2.65-1,4.61,4.61,0,0,0-2.9.87,2.66,2.66,0,0,0-1.12,2.16l-4.73-.37a5.55,5.55,0,0,1,2.48-4.66,10.43,10.43,0,0,1,6.31-1.81c2.91,0,5.08.87,6.53,2.6a8.5,8.5,0,0,1,6.46-2.6,8.38,8.38,0,0,1,6.47,2.53q2.32,2.53,2.32,7.12v2.68H469.45a6.5,6.5,0,0,0,1.66,4.26,5.44,5.44,0,0,0,4.1,1.54,9.88,9.88,0,0,0,4.76-1.13l1.2-.67,1.42,3.24a10,10,0,0,1-3.41,1.72A14.27,14.27,0,0,1,474.94,607Zm-14.83-3.6a6.24,6.24,0,0,0,2.46-.57,7.58,7.58,0,0,0,2.21-1.42V597.3H461a5.21,5.21,0,0,0-3.2,1,2.82,2.82,0,0,0-1.17,2.29,2.54,2.54,0,0,0,.9,2A4,4,0,0,0,460.11,603.37Zm14.12-14.51a4.11,4.11,0,0,0-3.17,1.35,6.69,6.69,0,0,0-1.55,3.83h8.82v-.59a5,5,0,0,0-1.06-3.4A3.87,3.87,0,0,0,474.23,588.86Z"/>
        <path class="cls-3" d="M499,589.78a12.26,12.26,0,0,0-1.93-.16c-2.18,0-3.64.84-4.4,2.5v14.46H488V585.45h4.54l.11,2.36a5.36,5.36,0,0,1,4.77-2.76,4.46,4.46,0,0,1,1.68.28Z"/>
        <path class="cls-3" d="M512.28,607a9.82,9.82,0,0,1-7.31-2.84,10.32,10.32,0,0,1-2.81-7.57V596a12.58,12.58,0,0,1,1.23-5.65,9.3,9.3,0,0,1,3.42-3.88,9.13,9.13,0,0,1,4.93-1.39,8.26,8.26,0,0,1,6.66,2.76q2.36,2.75,2.36,7.79v1.92H507a6.36,6.36,0,0,0,1.75,4.14,5.27,5.27,0,0,0,3.86,1.52,6.43,6.43,0,0,0,5.31-2.64l2.56,2.44a8.49,8.49,0,0,1-3.39,2.94A10.6,10.6,0,0,1,512.28,607Zm-.56-18.11a4,4,0,0,0-3.16,1.37A7.07,7.07,0,0,0,507,594h9v-.35a5.79,5.79,0,0,0-1.27-3.61A4,4,0,0,0,511.72,588.86Z"/>
        <path class="cls-3" d="M555.55,596.23a12.56,12.56,0,0,1-2.23,7.82,7.73,7.73,0,0,1-11.54.63v10H537V585.45h4.38l.19,2.14a7,7,0,0,1,5.69-2.54,7.18,7.18,0,0,1,6.06,2.89q2.21,2.88,2.2,8Zm-4.73-.41a8.8,8.8,0,0,0-1.26-5,4.09,4.09,0,0,0-3.6-1.86,4.36,4.36,0,0,0-4.18,2.4v9.38a4.4,4.4,0,0,0,4.22,2.46,4.08,4.08,0,0,0,3.54-1.83A9.69,9.69,0,0,0,550.82,595.82Z"/>
        <path class="cls-3" d="M560,595.82a12.48,12.48,0,0,1,1.23-5.6,9,9,0,0,1,3.46-3.83,9.75,9.75,0,0,1,5.12-1.34,9.22,9.22,0,0,1,6.94,2.76,10.79,10.79,0,0,1,2.88,7.3l0,1.12a12.57,12.57,0,0,1-1.2,5.58,8.9,8.9,0,0,1-3.44,3.81,9.78,9.78,0,0,1-5.16,1.35,9.15,9.15,0,0,1-7.16-3,11.42,11.42,0,0,1-2.69-7.94Zm4.75.41a8.49,8.49,0,0,0,1.35,5.1,4.69,4.69,0,0,0,7.49,0,9.39,9.39,0,0,0,1.33-5.48,8.46,8.46,0,0,0-1.37-5.08,4.41,4.41,0,0,0-3.74-1.88,4.36,4.36,0,0,0-3.69,1.85A9.17,9.17,0,0,0,564.74,596.23Z"/>
        <path class="cls-3" d="M603.48,596.23a12.56,12.56,0,0,1-2.23,7.82,7.73,7.73,0,0,1-11.54.63v10H585V585.45h4.38l.19,2.14a7,7,0,0,1,5.69-2.54,7.17,7.17,0,0,1,6.06,2.89q2.21,2.88,2.2,8Zm-4.73-.41a8.8,8.8,0,0,0-1.26-5,4.09,4.09,0,0,0-3.6-1.86,4.37,4.37,0,0,0-4.18,2.4v9.38a4.41,4.41,0,0,0,4.22,2.46,4.08,4.08,0,0,0,3.54-1.83A9.61,9.61,0,0,0,598.75,595.82Z"/>
        <path class="cls-3" d="M621.62,604.51a7.38,7.38,0,0,1-5.94,2.46,6.58,6.58,0,0,1-5.21-2,8.6,8.6,0,0,1-1.76-5.82V585.45h4.74v13.63c0,2.68,1.12,4,3.34,4s3.86-.83,4.67-2.48V585.45h4.75v21.13h-4.48Z"/>
        <path class="cls-3" d="M637.41,606.58h-4.75v-30h4.75Z"/>
        <path class="cls-3" d="M666,607a9.62,9.62,0,0,1-7.68-3.15,8.25,8.25,0,0,1-3.36,2.33,12.71,12.71,0,0,1-4.71.82,7.86,7.86,0,0,1-5.39-1.72,6,6,0,0,1-2-4.77,5.53,5.53,0,0,1,2.32-4.76q2.32-1.68,6.88-1.68h3.73v-1.39a3.94,3.94,0,0,0-.93-2.78,3.42,3.42,0,0,0-2.64-1,4.62,4.62,0,0,0-2.91.87,2.66,2.66,0,0,0-1.12,2.16l-4.72-.37a5.54,5.54,0,0,1,2.47-4.66,10.43,10.43,0,0,1,6.31-1.81c2.91,0,5.08.87,6.53,2.6a8.5,8.5,0,0,1,6.46-2.6,8.38,8.38,0,0,1,6.47,2.53q2.32,2.53,2.32,7.12v2.68H660.47a6.5,6.5,0,0,0,1.66,4.26,5.44,5.44,0,0,0,4.1,1.54,9.88,9.88,0,0,0,4.76-1.13l1.2-.67,1.42,3.24a10,10,0,0,1-3.41,1.72A14.27,14.27,0,0,1,666,607Zm-14.83-3.6a6.24,6.24,0,0,0,2.46-.57,7.58,7.58,0,0,0,2.21-1.42V597.3H652a5.21,5.21,0,0,0-3.2,1,2.82,2.82,0,0,0-1.17,2.29,2.54,2.54,0,0,0,.9,2A4,4,0,0,0,651.13,603.37Zm14.12-14.51a4.11,4.11,0,0,0-3.17,1.35,6.69,6.69,0,0,0-1.55,3.83h8.82v-.59a5,5,0,0,0-1.06-3.4A3.87,3.87,0,0,0,665.25,588.86Z"/>
        <path class="cls-3" d="M690.05,589.78a12.26,12.26,0,0,0-1.93-.16c-2.18,0-3.64.84-4.4,2.5v14.46H679V585.45h4.53l.11,2.36a5.36,5.36,0,0,1,4.77-2.76,4.46,4.46,0,0,1,1.68.28Z"/>
        <path class="cls-3" d="M691.66,613l-2.56-1.52a13.57,13.57,0,0,0,1.56-3.1,9.4,9.4,0,0,0,.44-2.68V602h4.27l0,3.42a9.54,9.54,0,0,1-1,4.15A10.36,10.36,0,0,1,691.66,613Z"/>
        <path class="cls-3" d="M716.84,585.45l.14,2.2a7.6,7.6,0,0,1,6.09-2.6c2.83,0,4.76,1.09,5.8,3.25a7.52,7.52,0,0,1,6.49-3.25,6.58,6.58,0,0,1,5.2,1.94,8.53,8.53,0,0,1,1.75,5.7v13.89h-4.75V592.83a4.23,4.23,0,0,0-.87-3,3.84,3.84,0,0,0-2.91-.94,3.94,3.94,0,0,0-2.65.87,4.67,4.67,0,0,0-1.44,2.28l0,14.49H725V592.67q-.11-3.74-3.81-3.73a4.2,4.2,0,0,0-4,2.33v15.31h-4.74V585.45Z"/>
        <path class="cls-3" d="M757.81,607a9.85,9.85,0,0,1-7.32-2.84,10.36,10.36,0,0,1-2.8-7.57V596a12.71,12.71,0,0,1,1.22-5.65,9.39,9.39,0,0,1,3.43-3.88,9.09,9.09,0,0,1,4.92-1.39,8.28,8.28,0,0,1,6.67,2.76q2.36,2.75,2.36,7.79v1.92H752.48a6.31,6.31,0,0,0,1.75,4.14,5.25,5.25,0,0,0,3.85,1.52,6.43,6.43,0,0,0,5.32-2.64L766,603a8.39,8.39,0,0,1-3.38,2.94A10.6,10.6,0,0,1,757.81,607Zm-.57-18.11a4,4,0,0,0-3.15,1.37,7.07,7.07,0,0,0-1.53,3.81h9v-.35a5.85,5.85,0,0,0-1.27-3.61A4,4,0,0,0,757.24,588.86Z"/>
        <path class="cls-3" d="M775.69,585.45l.14,2.44a7.59,7.59,0,0,1,6.15-2.84q6.6,0,6.72,7.56v14H784V592.89a4.35,4.35,0,0,0-.87-3,3.61,3.61,0,0,0-2.84-1,4.56,4.56,0,0,0-4.27,2.6v15h-4.75V585.45Z"/>
        <path class="cls-3" d="M192.41,671.23a12.56,12.56,0,0,1-2.23,7.82,7.73,7.73,0,0,1-11.54.63v10h-4.75V660.45h4.38l.19,2.14a7,7,0,0,1,5.69-2.54,7.17,7.17,0,0,1,6.06,2.89q2.21,2.88,2.2,8Zm-4.73-.41a8.8,8.8,0,0,0-1.26-5,4.09,4.09,0,0,0-3.6-1.86,4.37,4.37,0,0,0-4.18,2.4v9.38a4.4,4.4,0,0,0,4.22,2.46,4.08,4.08,0,0,0,3.54-1.83A9.61,9.61,0,0,0,187.68,670.82Z"/>
        <path class="cls-3" d="M210.37,681.58a7.45,7.45,0,0,1-.55-2,8,8,0,0,1-10.74.54,5.81,5.81,0,0,1-2-4.49,6,6,0,0,1,2.51-5.19q2.5-1.8,7.18-1.8h2.91v-1.39a3.73,3.73,0,0,0-.92-2.63,3.65,3.65,0,0,0-2.79-1,4.18,4.18,0,0,0-2.66.81,2.52,2.52,0,0,0-1,2.06h-4.74a5.25,5.25,0,0,1,1.15-3.25,7.72,7.72,0,0,1,3.14-2.38,11,11,0,0,1,4.42-.86,8.9,8.9,0,0,1,5.92,1.87,6.64,6.64,0,0,1,2.26,5.24v9.54a10.89,10.89,0,0,0,.8,4.55v.33Zm-5.22-3.42a5.47,5.47,0,0,0,2.65-.68,4.6,4.6,0,0,0,1.87-1.84v-4h-2.56a7,7,0,0,0-4,.91,3,3,0,0,0-1.32,2.6,2.79,2.79,0,0,0,.9,2.18A3.53,3.53,0,0,0,205.15,678.16Z"/>
        <path class="cls-3" d="M232.55,675.84a2.15,2.15,0,0,0-1.05-1.94,11.16,11.16,0,0,0-3.46-1.17,17.9,17.9,0,0,1-4-1.29q-3.56-1.71-3.55-5a5.64,5.64,0,0,1,2.3-4.57,9.14,9.14,0,0,1,5.86-1.84,9.5,9.5,0,0,1,6.13,1.88,6,6,0,0,1,2.33,4.86h-4.75a2.89,2.89,0,0,0-1-2.27,3.89,3.89,0,0,0-2.7-.91,4.23,4.23,0,0,0-2.55.72,2.3,2.3,0,0,0-1,1.94A1.9,1.9,0,0,0,226,668a12.25,12.25,0,0,0,3.71,1.23,17.4,17.4,0,0,1,4.38,1.46,6.35,6.35,0,0,1,2.37,2,5.26,5.26,0,0,1,.77,2.89,5.51,5.51,0,0,1-2.37,4.62,10.06,10.06,0,0,1-6.19,1.77A10.88,10.88,0,0,1,224,681a7.52,7.52,0,0,1-3.16-2.58,6,6,0,0,1-1.13-3.53h4.61a3.34,3.34,0,0,0,1.26,2.59,5,5,0,0,0,3.11.9,4.76,4.76,0,0,0,2.85-.71A2.21,2.21,0,0,0,232.55,675.84Z"/>
        <path class="cls-3" d="M272.45,671.23a12.63,12.63,0,0,1-2.22,7.82,7.73,7.73,0,0,1-11.54.63v10h-4.75V660.45h4.37l.2,2.14a7,7,0,0,1,5.68-2.54,7.2,7.2,0,0,1,6.07,2.89q2.19,2.88,2.19,8Zm-4.72-.41a8.8,8.8,0,0,0-1.26-5,4.1,4.1,0,0,0-3.61-1.86,4.35,4.35,0,0,0-4.17,2.4v9.38a4.39,4.39,0,0,0,4.21,2.46,4.09,4.09,0,0,0,3.55-1.83A9.69,9.69,0,0,0,267.73,670.82Z"/>
        <path class="cls-3" d="M290.41,681.58a7.52,7.52,0,0,1-.54-2,8,8,0,0,1-10.74.54,5.79,5.79,0,0,1-2-4.49,6,6,0,0,1,2.51-5.19q2.52-1.8,7.18-1.8h2.91v-1.39a3.31,3.31,0,0,0-3.71-3.61,4.19,4.19,0,0,0-2.66.81,2.51,2.51,0,0,0-1,2.06h-4.75a5.26,5.26,0,0,1,1.16-3.25,7.68,7.68,0,0,1,3.13-2.38,11.06,11.06,0,0,1,4.42-.86,8.88,8.88,0,0,1,5.92,1.87,6.65,6.65,0,0,1,2.27,5.24v9.54a10.73,10.73,0,0,0,.8,4.55v.33Zm-5.21-3.42a5.47,5.47,0,0,0,2.65-.68,4.64,4.64,0,0,0,1.86-1.84v-4h-2.56a7,7,0,0,0-4,.91,3,3,0,0,0-1.33,2.6,2.77,2.77,0,0,0,.91,2.18A3.5,3.5,0,0,0,285.2,678.16Zm1.25-28.42a4.28,4.28,0,0,1,3.07,1.2,3.85,3.85,0,0,1,1.25,2.86,3.81,3.81,0,0,1-1.22,2.84,4.72,4.72,0,0,1-6.22,0,3.81,3.81,0,0,1-1.22-2.84,3.88,3.88,0,0,1,1.24-2.86A4.29,4.29,0,0,1,286.45,649.74Zm-2.19,4.06a2.19,2.19,0,0,0,2.19,2.19,2.14,2.14,0,0,0,1.55-.62,2.1,2.1,0,0,0,.64-1.57,2.21,2.21,0,0,0-.62-1.55,2.22,2.22,0,0,0-3.14,0A2.21,2.21,0,0,0,284.26,653.8Z"/>
        <path class="cls-3" d="M301.11,679.34a2.52,2.52,0,0,1,.72-1.84,3,3,0,0,1,3.95,0,2.52,2.52,0,0,1,.72,1.84,2.46,2.46,0,0,1-.7,1.79,3.12,3.12,0,0,1-4,0A2.46,2.46,0,0,1,301.11,679.34Zm4.67-6.12H301.7l-.45-20.08h5Z"/>
        <path class="cls-3" d="M324.53,681.58V653.14h9.75q4.82,0,7.34,1.93a6.82,6.82,0,0,1,2.52,5.77,6.14,6.14,0,0,1-1.05,3.51,6.85,6.85,0,0,1-3.09,2.42,6.24,6.24,0,0,1,3.56,2.36,6.84,6.84,0,0,1,1.26,4.15,7.56,7.56,0,0,1-2.56,6.15q-2.58,2.15-7.36,2.15Zm4.94-16.47h4.85a5.65,5.65,0,0,0,3.6-1,3.57,3.57,0,0,0,1.3-3,3.64,3.64,0,0,0-1.2-3.05,6.1,6.1,0,0,0-3.74-.94h-4.81Zm0,3.64v8.88H335a5.29,5.29,0,0,0,3.63-1.15,4,4,0,0,0,1.31-3.2q0-4.44-4.53-4.53Z"/>
        <path class="cls-3" d="M355.68,681.58h-4.75v-30h4.75Z"/>
        <path class="cls-3" d="M362.17,655a2.53,2.53,0,0,1,.69-1.82,3.11,3.11,0,0,1,4,0,2.5,2.5,0,0,1,.7,1.82,2.42,2.42,0,0,1-.7,1.78,3.11,3.11,0,0,1-4,0A2.45,2.45,0,0,1,362.17,655Zm5,26.62h-4.75V660.45h4.75Z"/>
        <path class="cls-3" d="M381.15,675.56l4.47-15.11h4.9l-7.32,21.13h-4.12l-7.39-21.13h4.93Z"/>
        <path class="cls-3" d="M403.85,682a9.84,9.84,0,0,1-7.31-2.84,10.32,10.32,0,0,1-2.8-7.57V671a12.58,12.58,0,0,1,1.22-5.65,9.25,9.25,0,0,1,3.43-3.88,9.09,9.09,0,0,1,4.92-1.39,8.28,8.28,0,0,1,6.67,2.76q2.36,2.75,2.35,7.79v1.92H398.52a6.41,6.41,0,0,0,1.75,4.14,5.27,5.27,0,0,0,3.86,1.52,6.43,6.43,0,0,0,5.31-2.64L412,678a8.49,8.49,0,0,1-3.39,2.94A10.57,10.57,0,0,1,403.85,682Zm-.56-18.11a4,4,0,0,0-3.16,1.37A7.07,7.07,0,0,0,398.6,669h9v-.35a5.73,5.73,0,0,0-1.27-3.61A4,4,0,0,0,403.29,663.86Z"/>
        <path class="cls-3" d="M428.4,664.78a12.29,12.29,0,0,0-1.94-.16c-2.17,0-3.64.84-4.39,2.5v14.46h-4.75V660.45h4.53l.12,2.36a5.36,5.36,0,0,1,4.77-2.76,4.53,4.53,0,0,1,1.68.28Z"/>
        <path class="cls-3" d="M448.67,662.75a7.43,7.43,0,0,1,5.88-2.7q6.76,0,6.86,7.72v13.81h-4.75V668a4.14,4.14,0,0,0-1-3.1,3.85,3.85,0,0,0-2.78-.91,4.58,4.58,0,0,0-4.26,2.54v15.1h-4.74v-30h4.74Z"/>
        <path class="cls-3" d="M480.15,681.58a7.45,7.45,0,0,1-.55-2,8,8,0,0,1-10.74.54,5.81,5.81,0,0,1-2-4.49,6,6,0,0,1,2.51-5.19q2.5-1.8,7.18-1.8h2.91v-1.39a3.73,3.73,0,0,0-.92-2.63,3.65,3.65,0,0,0-2.79-1,4.18,4.18,0,0,0-2.66.81,2.52,2.52,0,0,0-1,2.06H467.3a5.25,5.25,0,0,1,1.15-3.25,7.72,7.72,0,0,1,3.14-2.38,11,11,0,0,1,4.42-.86,8.9,8.9,0,0,1,5.92,1.87,6.64,6.64,0,0,1,2.26,5.24v9.54a10.89,10.89,0,0,0,.8,4.55v.33Zm-5.21-3.42a5.46,5.46,0,0,0,2.64-.68,4.6,4.6,0,0,0,1.87-1.84v-4h-2.56a7,7,0,0,0-4,.91,3,3,0,0,0-1.32,2.6,2.79,2.79,0,0,0,.9,2.18A3.54,3.54,0,0,0,474.94,678.16Z"/>
        <path class="cls-3" d="M494.89,660.45l.14,2.44a7.59,7.59,0,0,1,6.15-2.84q6.6,0,6.72,7.56v14h-4.75V667.89a4.35,4.35,0,0,0-.87-3,3.64,3.64,0,0,0-2.84-1,4.59,4.59,0,0,0-4.28,2.6v15h-4.74V660.45Z"/>
        <path class="cls-3" d="M527,681.58V664h-3.22v-3.51H527v-1.94a7.28,7.28,0,0,1,2-5.43,7.53,7.53,0,0,1,5.47-1.91,10.7,10.7,0,0,1,2.66.35l-.12,3.71a9.58,9.58,0,0,0-1.81-.16q-3.4,0-3.4,3.5v1.88H536V664h-4.29v17.62Z"/>
        <path class="cls-3" d="M539.94,670.82a12.48,12.48,0,0,1,1.23-5.6,9,9,0,0,1,3.46-3.83,9.75,9.75,0,0,1,5.12-1.34,9.22,9.22,0,0,1,6.94,2.76,10.79,10.79,0,0,1,2.88,7.3l0,1.12a12.57,12.57,0,0,1-1.2,5.58,8.9,8.9,0,0,1-3.44,3.81,9.78,9.78,0,0,1-5.16,1.35,9.15,9.15,0,0,1-7.16-3,11.42,11.42,0,0,1-2.69-7.94Zm4.75.41a8.49,8.49,0,0,0,1.35,5.1,4.69,4.69,0,0,0,7.49,0,9.39,9.39,0,0,0,1.33-5.48,8.46,8.46,0,0,0-1.37-5.08,4.41,4.41,0,0,0-3.74-1.88,4.36,4.36,0,0,0-3.69,1.85A9.17,9.17,0,0,0,544.69,671.23Z"/>
        <path class="cls-3" d="M576,664.78a12.29,12.29,0,0,0-1.94-.16c-2.17,0-3.64.84-4.39,2.5v14.46h-4.75V660.45h4.54l.11,2.36a5.36,5.36,0,0,1,4.77-2.76,4.5,4.5,0,0,1,1.68.28Z"/>
        <path class="cls-3" d="M593.26,681.58V664H590v-3.51h3.23v-1.94a7.28,7.28,0,0,1,2-5.43,7.51,7.51,0,0,1,5.47-1.91,10.76,10.76,0,0,1,2.66.35l-.12,3.71a9.7,9.7,0,0,0-1.82-.16c-2.26,0-3.4,1.17-3.4,3.5v1.88h4.3V664H598v17.62Z"/>
        <path class="cls-3" d="M619.89,679.51A7.36,7.36,0,0,1,614,682a6.56,6.56,0,0,1-5.2-2,8.55,8.55,0,0,1-1.77-5.82V660.45h4.75v13.63q0,4,3.34,4c2.3,0,3.86-.83,4.66-2.48V660.45h4.75v21.13H620Z"/>
        <path class="cls-3" d="M635.68,681.58h-4.74v-30h4.74Z"/>
        <path class="cls-3" d="M641.28,670.86a12.54,12.54,0,0,1,2.27-7.85,7.26,7.26,0,0,1,6.07-3,6.91,6.91,0,0,1,5.43,2.35V651.58h4.75v30h-4.3l-.24-2.19a7,7,0,0,1-5.68,2.58,7.25,7.25,0,0,1-6-3Q641.27,676,641.28,670.86Zm4.75.41a8.75,8.75,0,0,0,1.24,5,4,4,0,0,0,3.52,1.81,4.48,4.48,0,0,0,4.26-2.6v-9a4.42,4.42,0,0,0-4.22-2.54,4,4,0,0,0-3.55,1.83A9.75,9.75,0,0,0,646,671.27Z"/>
        <path class="cls-3" d="M689.19,675.84a2.16,2.16,0,0,0-1-1.94,11.24,11.24,0,0,0-3.47-1.17,18,18,0,0,1-4-1.29q-3.55-1.71-3.56-5a5.62,5.62,0,0,1,2.31-4.57,9.12,9.12,0,0,1,5.86-1.84,9.47,9.47,0,0,1,6.12,1.88,5.93,5.93,0,0,1,2.33,4.86H689a2.9,2.9,0,0,0-1-2.27,3.85,3.85,0,0,0-2.69-.91,4.23,4.23,0,0,0-2.55.72,2.28,2.28,0,0,0-1,1.94,1.92,1.92,0,0,0,.92,1.69,12.36,12.36,0,0,0,3.71,1.23,17.63,17.63,0,0,1,4.39,1.46,6.32,6.32,0,0,1,2.36,2,5.26,5.26,0,0,1,.77,2.89,5.52,5.52,0,0,1-2.36,4.62,10.08,10.08,0,0,1-6.19,1.77,10.82,10.82,0,0,1-4.63-.94,7.55,7.55,0,0,1-3.17-2.58,6.12,6.12,0,0,1-1.13-3.53H681a3.38,3.38,0,0,0,1.27,2.59,5,5,0,0,0,3.1.9,4.79,4.79,0,0,0,2.86-.71A2.2,2.2,0,0,0,689.19,675.84Z"/>
        <path class="cls-3" d="M703.78,660.45l.13,2.2a7.63,7.63,0,0,1,6.1-2.6c2.82,0,4.75,1.09,5.8,3.25a7.49,7.49,0,0,1,6.48-3.25A6.6,6.6,0,0,1,727.5,662a8.48,8.48,0,0,1,1.74,5.7v13.89H724.5V667.83a4.23,4.23,0,0,0-.88-3,3.84,3.84,0,0,0-2.91-.94,4,4,0,0,0-2.65.87,4.58,4.58,0,0,0-1.43,2.28l0,14.49H711.9V667.67c-.07-2.49-1.33-3.73-3.81-3.73a4.17,4.17,0,0,0-4,2.33v15.31H699.3V660.45Z"/>
        <path class="cls-3" d="M735.45,655a2.53,2.53,0,0,1,.69-1.82,3.1,3.1,0,0,1,4,0,2.5,2.5,0,0,1,.71,1.82,2.43,2.43,0,0,1-.71,1.78,3.1,3.1,0,0,1-4,0A2.45,2.45,0,0,1,735.45,655Zm5,26.62h-4.75V660.45h4.75Z"/>
        <path class="cls-3" d="M746.08,670.86a12.6,12.6,0,0,1,2.27-7.85,7.26,7.26,0,0,1,6.07-3,6.91,6.91,0,0,1,5.43,2.35V651.58h4.75v30h-4.3l-.23-2.19a7,7,0,0,1-5.69,2.58,7.22,7.22,0,0,1-6-3A13,13,0,0,1,746.08,670.86Zm4.75.41a8.75,8.75,0,0,0,1.24,5,4,4,0,0,0,3.52,1.81,4.48,4.48,0,0,0,4.26-2.6v-9a4.42,4.42,0,0,0-4.22-2.54,4,4,0,0,0-3.55,1.83A9.83,9.83,0,0,0,750.83,671.27Z"/>
        <path class="cls-3" d="M780.18,682a9.85,9.85,0,0,1-7.32-2.84,10.32,10.32,0,0,1-2.8-7.57V671a12.71,12.71,0,0,1,1.22-5.65,9.32,9.32,0,0,1,3.43-3.88,9.09,9.09,0,0,1,4.92-1.39,8.28,8.28,0,0,1,6.67,2.76q2.36,2.75,2.35,7.79v1.92H774.84a6.41,6.41,0,0,0,1.75,4.14,5.27,5.27,0,0,0,3.86,1.52,6.42,6.42,0,0,0,5.31-2.64l2.56,2.44a8.42,8.42,0,0,1-3.39,2.94A10.56,10.56,0,0,1,780.18,682Zm-.57-18.11a4,4,0,0,0-3.15,1.37,7,7,0,0,0-1.54,3.81H784v-.35a5.85,5.85,0,0,0-1.27-3.61A4,4,0,0,0,779.61,663.86Z"/>
        <path class="cls-3" d="M804.72,664.78a12.29,12.29,0,0,0-1.94-.16c-2.17,0-3.63.84-4.39,2.5v14.46h-4.75V660.45h4.54l.11,2.36a5.36,5.36,0,0,1,4.77-2.76,4.46,4.46,0,0,1,1.68.28Z"/>
        <path class="cls-3" d="M192.45,746.23a12.66,12.66,0,0,1-2.2,7.83,7.15,7.15,0,0,1-6,2.91,6.89,6.89,0,0,1-5.79-2.68l-.23,2.29h-4.3v-30h4.75v10.9a6.87,6.87,0,0,1,5.53-2.43,7.23,7.23,0,0,1,6.07,2.88c1.47,1.91,2.21,4.59,2.21,8Zm-4.75-.41a9,9,0,0,0-1.21-5.16,4,4,0,0,0-3.51-1.72,4.41,4.41,0,0,0-4.34,2.7v8.71A4.45,4.45,0,0,0,183,753.1a4,4,0,0,0,3.44-1.66,8.63,8.63,0,0,0,1.25-5Z"/>
        <path class="cls-3" d="M210.55,754.51a7.38,7.38,0,0,1-5.94,2.46,6.58,6.58,0,0,1-5.21-2,8.54,8.54,0,0,1-1.76-5.82V735.45h4.74v13.63q0,4,3.34,4c2.31,0,3.86-.83,4.67-2.48V735.45h4.75v21.13h-4.48Z"/>
        <path class="cls-3" d="M233.13,750.84a2.14,2.14,0,0,0-1-1.94,11.24,11.24,0,0,0-3.47-1.17,18,18,0,0,1-4-1.29q-3.56-1.71-3.55-5a5.61,5.61,0,0,1,2.3-4.57,9.14,9.14,0,0,1,5.86-1.84,9.45,9.45,0,0,1,6.12,1.88,5.94,5.94,0,0,1,2.34,4.86H232.9a2.9,2.9,0,0,0-1-2.27,3.85,3.85,0,0,0-2.69-.91,4.23,4.23,0,0,0-2.55.72,2.28,2.28,0,0,0-1,1.94,1.92,1.92,0,0,0,.92,1.69,12.36,12.36,0,0,0,3.71,1.23,17.35,17.35,0,0,1,4.39,1.46,6.24,6.24,0,0,1,2.36,2,5.18,5.18,0,0,1,.77,2.89,5.52,5.52,0,0,1-2.36,4.62,10.08,10.08,0,0,1-6.19,1.77,10.85,10.85,0,0,1-4.63-.94,7.55,7.55,0,0,1-3.17-2.58,6.12,6.12,0,0,1-1.13-3.53h4.61a3.38,3.38,0,0,0,1.27,2.59,5,5,0,0,0,3.11.9,4.76,4.76,0,0,0,2.85-.71A2.2,2.2,0,0,0,233.13,750.84Z"/>
        <path class="cls-3" d="M251.94,753.18a4.28,4.28,0,0,0,2.94-1,3.49,3.49,0,0,0,1.25-2.55h4.48a7,7,0,0,1-1.23,3.68,8,8,0,0,1-3.13,2.7,9.22,9.22,0,0,1-4.26,1,9,9,0,0,1-7-2.87q-2.6-2.88-2.6-7.93v-.49a11.21,11.21,0,0,1,2.58-7.73,9,9,0,0,1,7-2.9,8.73,8.73,0,0,1,6.15,2.2,7.9,7.9,0,0,1,2.49,5.77h-4.48a4.34,4.34,0,0,0-1.24-3,4,4,0,0,0-2.95-1.17,4.19,4.19,0,0,0-3.56,1.67,8.56,8.56,0,0,0-1.27,5.07v.76a8.66,8.66,0,0,0,1.24,5.13A4.17,4.17,0,0,0,251.94,753.18Z"/>
        <path class="cls-3" d="M270.19,737.75a7.43,7.43,0,0,1,5.88-2.7q6.75,0,6.85,7.72v13.81h-4.74V743a4.18,4.18,0,0,0-.95-3.1,3.85,3.85,0,0,0-2.78-.91,4.58,4.58,0,0,0-4.26,2.54v15.1h-4.75v-30h4.75Z"/>
        <path class="cls-3" d="M301.66,756.58a7.52,7.52,0,0,1-.54-2,8,8,0,0,1-10.74.54,5.79,5.79,0,0,1-2-4.49,6,6,0,0,1,2.51-5.19q2.52-1.8,7.18-1.8H301v-1.39a3.31,3.31,0,0,0-3.71-3.61,4.19,4.19,0,0,0-2.66.81,2.51,2.51,0,0,0-1,2.06h-4.75a5.26,5.26,0,0,1,1.16-3.25,7.68,7.68,0,0,1,3.13-2.38,11.06,11.06,0,0,1,4.42-.86,8.88,8.88,0,0,1,5.92,1.87,6.65,6.65,0,0,1,2.27,5.24v9.54a10.73,10.73,0,0,0,.8,4.55v.33Zm-5.21-3.42a5.47,5.47,0,0,0,2.65-.68,4.64,4.64,0,0,0,1.86-1.84v-4H298.4a7,7,0,0,0-4,.91,3,3,0,0,0-1.33,2.6,2.77,2.77,0,0,0,.91,2.18A3.5,3.5,0,0,0,296.45,753.16Z"/>
        <path class="cls-3" d="M324.8,754.51a7.36,7.36,0,0,1-5.94,2.46,6.56,6.56,0,0,1-5.2-2,8.55,8.55,0,0,1-1.77-5.82V735.45h4.75v13.63q0,4,3.34,4t4.67-2.48V735.45h4.74v21.13h-4.47Z"/>
        <path class="cls-3" d="M337.22,756.58V739H334v-3.51h3.23v-1.94a7.28,7.28,0,0,1,1.95-5.43,7.49,7.49,0,0,1,5.47-1.91,10.62,10.62,0,0,1,2.65.35l-.11,3.71a9.7,9.7,0,0,0-1.82-.16q-3.41,0-3.4,3.5v1.88h4.3V739H342v17.62Z"/>
        <path class="cls-3" d="M352.71,756.58V739h-3.22v-3.51h3.22v-1.94a7.28,7.28,0,0,1,2-5.43,7.49,7.49,0,0,1,5.47-1.91,10.62,10.62,0,0,1,2.65.35l-.11,3.71a9.78,9.78,0,0,0-1.82-.16q-3.41,0-3.4,3.5v1.88h4.3V739h-4.3v17.62Z"/>
        <path class="cls-3" d="M365.66,745.82a12.48,12.48,0,0,1,1.23-5.6,9,9,0,0,1,3.45-3.83,9.78,9.78,0,0,1,5.12-1.34,10.51,10.51,0,0,1,3.79.67l1.39-2.79h2.83l-2,4.06q3.82,3,3.82,9.24a12.57,12.57,0,0,1-1.2,5.58,8.88,8.88,0,0,1-3.43,3.81A9.84,9.84,0,0,1,375.5,757a11.23,11.23,0,0,1-3.57-.59l-1.41,2.87h-2.83l2-4Q365.66,752.29,365.66,745.82Zm4.74.41a9,9,0,0,0,1.25,5l5.84-11.9a4.82,4.82,0,0,0-2-.43,4.36,4.36,0,0,0-3.69,1.85A9.24,9.24,0,0,0,370.4,746.23Zm10.18-.41a8.83,8.83,0,0,0-1.13-4.71l-5.79,11.74a5,5,0,0,0,1.84.33,4.34,4.34,0,0,0,3.74-1.88A9.39,9.39,0,0,0,380.58,745.82Z"/>
        <path class="cls-3" d="M401.59,739.78a12.29,12.29,0,0,0-1.94-.16c-2.17,0-3.64.84-4.39,2.5v14.46h-4.75V735.45H395l.12,2.36a5.35,5.35,0,0,1,4.77-2.76,4.53,4.53,0,0,1,1.68.28Z"/>
        <path class="cls-3" d="M417,739.78a12.29,12.29,0,0,0-1.94-.16c-2.17,0-3.64.84-4.39,2.5v14.46h-4.75V735.45h4.53l.12,2.36a5.36,5.36,0,0,1,4.77-2.76,4.53,4.53,0,0,1,1.68.28Z"/>
        <path class="cls-3" d="M430.22,757a9.82,9.82,0,0,1-7.31-2.84,10.32,10.32,0,0,1-2.81-7.57V746a12.71,12.71,0,0,1,1.22-5.65,9.39,9.39,0,0,1,3.43-3.88,9.09,9.09,0,0,1,4.92-1.39,8.27,8.27,0,0,1,6.67,2.76q2.36,2.75,2.36,7.79v1.92H424.89a6.31,6.31,0,0,0,1.75,4.14,5.26,5.26,0,0,0,3.85,1.52,6.43,6.43,0,0,0,5.32-2.64l2.56,2.44a8.49,8.49,0,0,1-3.39,2.94A10.6,10.6,0,0,1,430.22,757Zm-.57-18.11a4,4,0,0,0-3.15,1.37A7.07,7.07,0,0,0,425,744h9v-.35a5.79,5.79,0,0,0-1.27-3.61A4,4,0,0,0,429.65,738.86Z"/>
        <path class="cls-3" d="M448.1,735.45l.14,2.44a7.59,7.59,0,0,1,6.15-2.84q6.6,0,6.72,7.56v14h-4.74V742.89a4.35,4.35,0,0,0-.87-3,3.65,3.65,0,0,0-2.85-1,4.57,4.57,0,0,0-4.27,2.6v15h-4.75V735.45Z"/>
        <path class="cls-3" d="M483.22,737.75a7.43,7.43,0,0,1,5.88-2.7q6.76,0,6.86,7.72v13.81h-4.75V743a4.18,4.18,0,0,0-.94-3.1,3.87,3.87,0,0,0-2.79-.91,4.58,4.58,0,0,0-4.26,2.54v15.1h-4.74v-30h4.74Z"/>
        <path class="cls-3" d="M514.7,756.58a7.45,7.45,0,0,1-.55-2,7.4,7.4,0,0,1-5.54,2.36,7.48,7.48,0,0,1-5.2-1.82,5.81,5.81,0,0,1-2-4.49,6,6,0,0,1,2.51-5.19c1.67-1.2,4.07-1.8,7.18-1.8H514v-1.39a3.73,3.73,0,0,0-.92-2.63,3.65,3.65,0,0,0-2.79-1,4.19,4.19,0,0,0-2.66.81,2.51,2.51,0,0,0-1,2.06h-4.75a5.25,5.25,0,0,1,1.15-3.25,7.79,7.79,0,0,1,3.14-2.38,11,11,0,0,1,4.42-.86,8.9,8.9,0,0,1,5.92,1.87,6.64,6.64,0,0,1,2.26,5.24v9.54a10.89,10.89,0,0,0,.8,4.55v.33Zm-5.21-3.42a5.43,5.43,0,0,0,2.64-.68,4.6,4.6,0,0,0,1.87-1.84v-4h-2.56a7,7,0,0,0-4,.91,3,3,0,0,0-1.32,2.6,2.79,2.79,0,0,0,.9,2.18A3.54,3.54,0,0,0,509.49,753.16Z"/>
        <path class="cls-3" d="M529.5,735.45l.13,2.2a7.63,7.63,0,0,1,6.1-2.6c2.82,0,4.76,1.09,5.8,3.25a7.51,7.51,0,0,1,6.48-3.25,6.6,6.6,0,0,1,5.21,1.94,8.53,8.53,0,0,1,1.75,5.7v13.89h-4.75V742.83a4.18,4.18,0,0,0-.88-3,3.81,3.81,0,0,0-2.91-.94,4,4,0,0,0-2.65.87,4.58,4.58,0,0,0-1.43,2.28l0,14.49h-4.75V742.67q-.09-3.74-3.81-3.73a4.18,4.18,0,0,0-4,2.33v15.31H525V735.45Z"/>
        <path class="cls-3" d="M585.07,756.58a7.45,7.45,0,0,1-.55-2,8,8,0,0,1-10.74.54,5.81,5.81,0,0,1-2-4.49,6,6,0,0,1,2.51-5.19q2.51-1.8,7.17-1.8h2.91v-1.39a3.3,3.3,0,0,0-3.71-3.61,4.17,4.17,0,0,0-2.65.81,2.52,2.52,0,0,0-1,2.06h-4.74a5.25,5.25,0,0,1,1.15-3.25,7.75,7.75,0,0,1,3.13-2.38,11.08,11.08,0,0,1,4.43-.86,8.87,8.87,0,0,1,5.91,1.87,6.62,6.62,0,0,1,2.27,5.24v9.54a10.89,10.89,0,0,0,.8,4.55v.33Zm-5.22-3.42a5.47,5.47,0,0,0,2.65-.68,4.52,4.52,0,0,0,1.86-1.84v-4h-2.55a7,7,0,0,0-4,.91,3,3,0,0,0-1.33,2.6,2.8,2.8,0,0,0,.91,2.18A3.53,3.53,0,0,0,579.85,753.16Z"/>
        <path class="cls-3" d="M597.07,756.58V739h-3.22v-3.51h3.22v-1.94a7.28,7.28,0,0,1,1.95-5.43,7.53,7.53,0,0,1,5.47-1.91,10.7,10.7,0,0,1,2.66.35l-.12,3.71a9.58,9.58,0,0,0-1.81-.16q-3.4,0-3.4,3.5v1.88h4.29V739h-4.29v17.62Z"/>
        <path class="cls-3" d="M640.73,746.23a12.72,12.72,0,0,1-2.2,7.83,7.17,7.17,0,0,1-6,2.91,6.88,6.88,0,0,1-5.78-2.68l-.23,2.29h-4.3v-30h4.75v10.9a6.85,6.85,0,0,1,5.53-2.43,7.23,7.23,0,0,1,6.07,2.88c1.47,1.91,2.21,4.59,2.21,8Zm-4.75-.41a9,9,0,0,0-1.21-5.16,4,4,0,0,0-3.52-1.72,4.4,4.4,0,0,0-4.33,2.7v8.71a4.44,4.44,0,0,0,4.37,2.75,4,4,0,0,0,3.44-1.66,8.71,8.71,0,0,0,1.25-5Z"/>
        <path class="cls-3" d="M658.82,754.51a7.35,7.35,0,0,1-5.93,2.46,6.56,6.56,0,0,1-5.21-2,8.55,8.55,0,0,1-1.77-5.82V735.45h4.75v13.63q0,4,3.34,4t4.67-2.48V735.45h4.74v21.13h-4.47Z"/>
        <path class="cls-3" d="M681.41,750.84a2.16,2.16,0,0,0-1-1.94,11.24,11.24,0,0,0-3.47-1.17,18,18,0,0,1-4-1.29q-3.55-1.71-3.56-5a5.62,5.62,0,0,1,2.31-4.57,9.12,9.12,0,0,1,5.86-1.84,9.49,9.49,0,0,1,6.12,1.88,5.93,5.93,0,0,1,2.33,4.86h-4.74a2.9,2.9,0,0,0-1-2.27,3.85,3.85,0,0,0-2.69-.91,4.23,4.23,0,0,0-2.55.72,2.28,2.28,0,0,0-1,1.94,1.92,1.92,0,0,0,.92,1.69,12.36,12.36,0,0,0,3.71,1.23,17.63,17.63,0,0,1,4.39,1.46,6.32,6.32,0,0,1,2.36,2,5.26,5.26,0,0,1,.77,2.89,5.52,5.52,0,0,1-2.36,4.62,10.08,10.08,0,0,1-6.19,1.77,10.82,10.82,0,0,1-4.63-.94,7.55,7.55,0,0,1-3.17-2.58,6.12,6.12,0,0,1-1.13-3.53h4.61a3.38,3.38,0,0,0,1.27,2.59,5,5,0,0,0,3.1.9,4.81,4.81,0,0,0,2.86-.71A2.2,2.2,0,0,0,681.41,750.84Z"/>
        <path class="cls-3" d="M703.38,750.84a2.15,2.15,0,0,0-1-1.94,11.16,11.16,0,0,0-3.46-1.17,17.9,17.9,0,0,1-4-1.29q-3.55-1.71-3.55-5a5.64,5.64,0,0,1,2.3-4.57,9.14,9.14,0,0,1,5.86-1.84,9.5,9.5,0,0,1,6.13,1.88,6,6,0,0,1,2.33,4.86h-4.75a2.93,2.93,0,0,0-1-2.27,3.89,3.89,0,0,0-2.7-.91,4.23,4.23,0,0,0-2.55.72,2.3,2.3,0,0,0-1,1.94,1.9,1.9,0,0,0,.92,1.69,12.25,12.25,0,0,0,3.71,1.23,17.4,17.4,0,0,1,4.38,1.46,6.24,6.24,0,0,1,2.36,2,5.18,5.18,0,0,1,.78,2.89,5.51,5.51,0,0,1-2.37,4.62,10.06,10.06,0,0,1-6.19,1.77,10.88,10.88,0,0,1-4.63-.94,7.52,7.52,0,0,1-3.16-2.58,6,6,0,0,1-1.13-3.53h4.6a3.38,3.38,0,0,0,1.27,2.59,5,5,0,0,0,3.11.9,4.76,4.76,0,0,0,2.85-.71A2.21,2.21,0,0,0,703.38,750.84Z"/>
        <path class="cls-3" d="M722.8,757a9.84,9.84,0,0,1-7.31-2.84,10.32,10.32,0,0,1-2.8-7.57V746a12.58,12.58,0,0,1,1.22-5.65,9.3,9.3,0,0,1,3.42-3.88,9.15,9.15,0,0,1,4.93-1.39,8.3,8.3,0,0,1,6.67,2.76q2.36,2.75,2.35,7.79v1.92H717.47a6.36,6.36,0,0,0,1.75,4.14,5.27,5.27,0,0,0,3.86,1.52,6.43,6.43,0,0,0,5.31-2.64L731,753a8.49,8.49,0,0,1-3.39,2.94A10.57,10.57,0,0,1,722.8,757Zm-.56-18.11a4,4,0,0,0-3.16,1.37,7.07,7.07,0,0,0-1.53,3.81h9v-.35a5.73,5.73,0,0,0-1.27-3.61A4,4,0,0,0,722.24,738.86Z"/>
        <path class="cls-3" d="M740.69,735.45l.13,2.44a7.6,7.6,0,0,1,6.15-2.84c4.41,0,6.64,2.52,6.72,7.56v14H749V742.89a4.35,4.35,0,0,0-.87-3,3.64,3.64,0,0,0-2.84-1,4.58,4.58,0,0,0-4.28,2.6v15h-4.75V735.45Z"/>
        <path class="cls-3" d="M762.81,751.58a2.72,2.72,0,0,1,2.05.75,2.61,2.61,0,0,1,.72,1.88,2.53,2.53,0,0,1-.72,1.85,2.75,2.75,0,0,1-2.05.73,2.79,2.79,0,0,1-2-.72,2.49,2.49,0,0,1-.74-1.86,2.58,2.58,0,0,1,.73-1.88A2.67,2.67,0,0,1,762.81,751.58Z"/>
      </g>
    </g>
  </g>
</svg>
