<svg id="spilscene" xmlns="http://www.w3.org/2000/svg" xmlns:xlink="http://www.w3.org/1999/xlink" width="1920" height="1080" viewBox="0 0 1920 1080">
  <defs>
    <style>
      .cls-1 {
        stroke: #1d1d1b;
        stroke-miterlimit: 10;
        fill: url(#linear-gradient);
      }

      .cls-2 {
        fill: #97c7da;
      }

      .cls-3 {
        fill: #719eae;
      }

      .cls-4 {
        fill: #56541f;
      }

      .cls-5 {
        fill: #2c5324;
      }

      .cls-6 {
        fill: #edeadc;
      }

      .cls-7 {
        fill: #b6a1b1;
      }

      .cls-8 {
        fill: #ac7a65;
      }

      .cls-9 {
        fill: #405622;
      }

      .cls-10 {
        fill: #444;
      }

      .cls-11 {
        fill: #2d2d2d;
      }

      .cls-12 {
        fill: #222323;
      }

      .cls-13 {
        fill: #333534;
      }

      .cls-14 {
        fill: #68a26a;
      }

      .cls-15 {
        fill: #83c284;
      }

      .cls-16 {
        fill: #5e8b5e;
      }

      .cls-17 {
        fill: #353537;
      }

      .cls-18 {
        fill: #faccb2;
      }

      .cls-19 {
        fill: #fff;
      }

      .cls-20 {
        fill: #1d1d1b;
      }

      .cls-21, .cls-22 {
        opacity: 0.4;
      }

      .cls-21 {
        fill: url(#linear-gradient-2);
      }

      .cls-22 {
        fill: url(#linear-gradient-3);
      }

      .cls-23 {
        fill: #f6bea1;
      }

      .cls-24 {
        fill: #ab4117;
      }

      .cls-25 {
        fill: #242d5c;
      }

      .cls-26 {
        fill: #093f66;
      }

      .cls-27 {
        fill: #929292;
      }

      .cls-28 {
        fill: #3c3c3b;
      }

      .cls-29 {
        fill: #e8e8e8;
      }

      .cls-30 {
        fill: #303534;
      }

      .cls-31 {
        fill: #406241;
      }

      .cls-32 {
        fill: #9f9f9f;
      }

      .cls-33 {
        fill: #f1f2f0;
      }

      .cls-34 {
        fill: #3a3a3f;
      }

      .cls-35 {
        fill: #2a2a2d;
      }

      .cls-36 {
        fill: #635b23;
      }

      .cls-37 {
        fill: #4a4417;
      }

      .cls-38 {
        fill: #6bb52d;
      }

      .cls-39 {
        fill: #7b432c;
      }

      .cls-40 {
        fill: #1c335a;
      }

      .cls-41 {
        fill: #db666a;
      }

      .cls-42 {
        fill: #c24f58;
      }

      .cls-43 {
        fill: #c3c6c2;
      }

      .cls-44 {
        fill: #feca2f;
      }

      .cls-45 {
        fill: #dfa700;
      }

      .cls-46 {
        fill: #c31617;
      }

      .cls-47 {
        fill: #f9c00d;
      }

      .cls-48 {
        fill: #858784;
      }

      .cls-49 {
        fill: #8f918f;
      }

      .cls-50 {
        fill: #777776;
      }

      .cls-51 {
        fill: #fcfdf8;
      }

      .cls-52 {
        fill: #5b865a;
      }

      .cls-53 {
        fill: #68a169;
      }
    </style>
    <linearGradient id="linear-gradient" x1="-2206.51" y1="5231.25" x2="-1011.74" y2="5231.25" gradientTransform="translate(6168.84 2216.66) rotate(90)" gradientUnits="userSpaceOnUse">
      <stop offset="0" stop-color="#98d4e1" stop-opacity="0"/>
      <stop offset="0" stop-color="#9bd5e1" stop-opacity="0.07"/>
      <stop offset="0" stop-color="#a3d8e2" stop-opacity="0.24"/>
      <stop offset="0" stop-color="#b1dde3" stop-opacity="0.52"/>
      <stop offset="0" stop-color="#c3e4e5" stop-opacity="0.9"/>
      <stop offset="0" stop-color="#c8e6e5"/>
      <stop offset="0.23" stop-color="#b7e0ea"/>
      <stop offset="0.58" stop-color="#96d5f4"/>
      <stop offset="0.68" stop-color="#7ec3e9" stop-opacity="0.98"/>
      <stop offset="0.79" stop-color="#69b2e0" stop-opacity="0.96"/>
      <stop offset="0.9" stop-color="#5ca8da" stop-opacity="0.95"/>
      <stop offset="1" stop-color="#58a5d8" stop-opacity="0.95"/>
    </linearGradient>
    <linearGradient id="linear-gradient-2" x1="5057.64" y1="500.28" x2="5094.32" y2="500.28" gradientTransform="matrix(-1, 0, 0, 1, 5924.26, 0)" xlink:href="#linear-gradient"/>
    <linearGradient id="linear-gradient-3" x1="5092.81" y1="499.97" x2="5129.49" y2="499.97" gradientTransform="matrix(-1, 0, 0, 1, 5924.26, 0)" xlink:href="#linear-gradient"/>
  </defs>
  <path class="cls-1" d="M-43.95,10.15V698.73c3-1.69,8.35,1,7.7,5.77-3.9,28.1-6.2,56.4-7.7,84.72v289a4.71,4.71,0,0,1,5.46,4.77c.3,10.78.1,21.61-.2,32.46,1.27,9.53,2.33,19.08,3.11,28.66.18-.72.34-1.45.53-2.16a4.53,4.53,0,0,1,1-1.85v-14.91c0-4,3.82-5.53,6.74-4.53,0-10.55.17-21.09.5-31.64a4.53,4.53,0,0,1,.21-1.24q.2-25,.53-50c1.62-120.76,5.26-241.49,5.28-362.27,0-6.45,10-6.44,10,0q0,51.25-.74,102.52c-1.39,103.89-4.29,207.76-5.08,311.65,7.21,36.33,7.27,73.23,6.59,110.12H182.2c57.49,0,115,.06,172.47-.74,56.58-.78,113.18-1.74,169.77-.69,42.19.78,84.61,2.65,126.79,6.61H1919.11V10.15Z"/>
  <polygon class="cls-2" points="630.33 423.75 1048.25 414.19 1268 276.5 1404.03 368.08 1635.38 381.74 1635.38 828.7 630.33 828.7 630.33 423.75"/>
  <polygon class="cls-3" points="564.31 404 691.83 329.41 733.33 366.7 867.08 167.75 1102.84 404 1293.35 486.84 1392.77 475.75 1382.75 886.69 562.44 886.69 564.31 404"/>
  <g>
    <path class="cls-4" d="M470.28,889.43c-5.39-3.95-10.08-7.7-14.17-11.24,41-18.09,71.06-34.17,71.06-34.17s-94.62,6.46-145.55-41.87c18.56,3.85,27.73,2.38,11.47-9.51-34.6-25.3-40.41-43-40.41-43a.55.55,0,0,0-.1-.17c-.08-.42-.19-.83-.27-1.25a162.84,162.84,0,0,0-10.21-33.54c33.38,18.72,65.12,30.74,44.21,8.43q-5.37-5.75-9.6-10.9c44.71,19.19,90.75,23.94,92.46,18.08,1.39-4.79-26.69-16.82-34.75-21.07-128.57-67.8-187.11-297.93-197.34-342.3-.15-4.85-.24-7.47-.24-7.47s-.23,1.15-.7,3.28c-.48-2.13-.71-3.28-.71-3.28s-.09,2.62-.24,7.47C225,411.28,166.42,641.41,37.85,709.21c-7,3.7-36.05,17.32-34.75,21.07,1.45,4.17,40.46-4.37,81.13-20.29-3.32,4.15-7.15,8.62-11.62,13.38C47.81,749.85,97.11,728,135.34,704A155.61,155.61,0,0,0,120,748.21c-.15.74-.32,1.46-.48,2.19-1.54,3.67-9.73,20-40.1,42.24C63.19,804.48,72.2,806,90.6,802.2c-28.77,27.26-71.43,37.07-103.13,40.44q-.2,11.13-.41,22.26c15.17,7.17,33.48,15.45,53.27,23.61a205.46,205.46,0,0,1-19,15.57c-25.53,18.66,11.58,11.68,49.34-1.33a196,196,0,0,1-22.59,19C19,943.08,71.33,931,113.2,914.68c53.13,15.68,103.17,21.28,122.94-3.34,23.63,29.44,90.53,15.68,154.25-6.86,39,13.84,79.52,21.95,53.14,2.66a204.74,204.74,0,0,1-19-15.6l3-1.23C462.82,901.83,494.31,907,470.28,889.43Z"/>
    <path class="cls-4" d="M448.57,670c-4.87-3.56-9.1-7-12.78-10.14,37-16.32,64.11-30.83,64.11-30.83s-85.37,5.83-131.33-37.78c16.75,3.48,25,2.15,10.35-8.58-31.22-22.83-36.46-38.81-36.46-38.81a.71.71,0,0,0-.08-.15c-.08-.38-.17-.74-.25-1.13a146.6,146.6,0,0,0-9.21-30.26c30.12,16.89,58.75,27.74,39.89,7.61-3.24-3.46-6.11-6.74-8.66-9.84,40.34,17.31,81.88,21.61,83.42,16.31,1.26-4.31-24.08-15.17-31.36-19-116-61.18-168.82-268.82-178-308.85-.14-4.38-.22-6.74-.22-6.74s-.21,1-.64,3c-.43-1.92-.64-3-.64-3s-.08,2.36-.22,6.74c-9.22,40-62,247.67-178,308.85-6.33,3.33-32.53,15.63-31.36,19,1.31,3.77,36.51-3.94,73.2-18.3-3,3.74-6.45,7.77-10.48,12.08-22.38,23.88,22.1,4.16,56.59-17.53a140.56,140.56,0,0,0-13.87,39.93c-.13.67-.29,1.32-.43,2-1.4,3.31-8.78,18.07-36.19,38.11-14.6,10.68-6.47,12.05,10.13,8.63C60,634.84-25.28,629-25.28,629s38.22,20.47,85.92,40.14A185.29,185.29,0,0,1,43.52,683.2C20.49,700,54,693.74,88,682a175.13,175.13,0,0,1-20.38,17.18c-26.26,19.21,21,8.32,58.74-6.41,47.93,14.14,93.09,19.2,110.92-3,21.32,26.56,81.69,14.15,139.18-6.19,35.18,12.49,71.75,19.81,47.94,2.4a184.91,184.91,0,0,1-17.15-14.07l2.73-1.11C441.84,681.17,470.25,685.83,448.57,670Z"/>
    <path class="cls-4" d="M421.32,518.91c-4.3-3.14-8-6.13-11.29-8.95,32.69-14.42,56.61-27.22,56.61-27.22s-75.39,5.14-116-33.37c14.79,3.07,22.1,1.9,9.14-7.58-27.57-20.16-32.19-34.27-32.19-34.27a.65.65,0,0,0-.08-.13c-.07-.34-.15-.66-.22-1a129.67,129.67,0,0,0-8.13-26.72c26.59,14.92,51.88,24.5,35.23,6.72-2.86-3.06-5.4-5.95-7.66-8.69,35.63,15.29,72.31,19.08,73.67,14.4,1.11-3.81-21.26-13.39-27.69-16.78-102.44-54-149.08-237.39-157.23-272.74-.12-3.87-.19-6-.19-6s-.19.91-.56,2.61c-.38-1.7-.57-2.61-.57-2.61s-.07,2.08-.19,6c-8.15,35.35-54.79,218.71-157.23,272.74-5.59,2.95-28.73,13.8-27.69,16.78,1.15,3.33,32.24-3.48,64.64-16.16-2.64,3.31-5.7,6.87-9.26,10.66-19.76,21.1,19.52,3.68,50-15.47a123.85,123.85,0,0,0-12.25,35.26c-.12.59-.26,1.17-.38,1.75-1.23,2.92-7.75,15.95-32,33.65-12.9,9.43-5.71,10.64,8.94,7.62C78.2,487.88,2.87,482.74,2.87,482.74s33.74,18.07,75.87,35.44a163.74,163.74,0,0,1-15.12,12.41c-20.34,14.87,9.23,9.3,39.31-1.06a156.62,156.62,0,0,1-18,15.17c-23.19,17,18.52,7.34,51.88-5.66,42.32,12.48,82.2,17,97.95-2.66,18.82,23.45,72.13,12.48,122.9-5.47,31.07,11,63.36,17.48,42.34,2.12a166.07,166.07,0,0,1-15.15-12.43l2.41-1C415.37,528.8,440.46,532.91,421.32,518.91Z"/>
  </g>
  <g>
    <path class="cls-4" d="M2069.24,1006.72c-5.64-4.38-10.54-8.55-14.8-12.48,42.87-20.08,74.23-37.93,74.23-37.93s-98.85,7.17-152.07-46.49c19.4,4.28,29,2.64,12-10.56-36.15-28.09-42.22-47.76-42.22-47.76a.65.65,0,0,0-.1-.18c-.09-.47-.2-.92-.28-1.39a189.26,189.26,0,0,0-10.67-37.24c34.87,20.79,68,34.14,46.19,9.36-3.75-4.25-7.07-8.28-10-12.1,46.71,21.3,94.82,26.59,96.6,20.07,1.45-5.31-27.89-18.67-36.31-23.39-134.33-75.28-195.49-330.78-206.17-380-.16-5.39-.25-8.29-.25-8.29s-.25,1.27-.74,3.63c-.49-2.36-.74-3.63-.74-3.63s-.09,2.9-.25,8.29c-10.68,49.26-71.85,304.76-206.17,380-7.33,4.11-37.67,19.24-36.31,23.39,1.51,4.63,42.27-4.85,84.76-22.53-3.46,4.62-7.47,9.57-12.14,14.87-25.91,29.39,25.6,5.12,65.54-21.57a180,180,0,0,0-16.07,49.14c-.15.82-.33,1.62-.5,2.44-1.61,4.07-10.16,22.23-41.9,46.89-16.91,13.14-7.49,14.83,11.72,10.61-53.22,53.61-152,46.44-152,46.44s44.26,25.18,99.5,49.39A220,220,0,0,1,1600.2,1023c-26.66,20.72,12.11,13,51.55-1.48a208.86,208.86,0,0,1-23.6,21.15c-30.41,23.63,24.28,10.22,68-7.9,55.5,17.4,107.79,23.62,128.44-3.71,24.69,32.68,94.59,17.4,161.16-7.62,40.74,15.37,83.08,24.37,55.52,3a217.85,217.85,0,0,1-19.87-17.32l3.17-1.37C2061.44,1020.49,2094.34,1026.23,2069.24,1006.72Z"/>
    <path class="cls-4" d="M2046.55,763.07c-5.08-3.94-9.5-7.71-13.35-11.25,38.68-18.13,67-34.23,67-34.23s-89.19,6.47-137.2-42c17.49,3.87,26.14,2.39,10.81-9.53C1941.17,640.77,1935.7,623,1935.7,623l-.09-.16c-.08-.43-.18-.84-.26-1.26a171.26,171.26,0,0,0-9.62-33.6c31.46,18.76,61.38,30.8,41.67,8.45-3.38-3.84-6.38-7.48-9.05-10.92,42.15,19.22,85.55,24,87.16,18.11,1.31-4.79-25.16-16.85-32.76-21.11-121.2-67.92-176.38-298.45-186-342.89l-.23-7.48s-.22,1.14-.66,3.28c-.45-2.14-.67-3.28-.67-3.28l-.23,7.48c-9.64,44.44-64.82,275-186,342.89-6.61,3.71-34,17.36-32.76,21.11,1.37,4.18,38.14-4.38,76.48-20.33-3.13,4.16-6.75,8.64-11,13.41-23.37,26.52,23.1,4.62,59.14-19.46a162.34,162.34,0,0,0-14.5,44.34c-.14.74-.3,1.46-.45,2.2-1.46,3.67-9.17,20.06-37.8,42.3-15.27,11.86-6.77,13.39,10.57,9.59-48,48.36-137.15,41.89-137.15,41.89s39.93,22.72,89.77,44.57a197.09,197.09,0,0,1-17.9,15.59c-24.06,18.7,10.92,11.7,46.51-1.33a187.4,187.4,0,0,1-21.29,19.08c-27.44,21.32,21.9,9.23,61.37-7.13,50.08,15.71,97.25,21.32,115.89-3.34,22.27,29.49,85.34,15.7,145.4-6.87,36.76,13.86,75,22,50.1,2.66a194.73,194.73,0,0,1-17.92-15.63l2.85-1.23C2039.52,775.5,2069.21,780.68,2046.55,763.07Z"/>
    <path class="cls-4" d="M2018.08,595.35c-4.49-3.49-8.39-6.81-11.79-9.94,34.16-16,59.15-30.22,59.15-30.22s-78.77,5.71-121.17-37.05c15.45,3.41,23.09,2.11,9.55-8.41-28.8-22.38-33.64-38.05-33.64-38.05a.71.71,0,0,0-.08-.15c-.07-.37-.15-.73-.22-1.11a150.49,150.49,0,0,0-8.5-29.67c27.79,16.57,54.2,27.2,36.8,7.46-3-3.39-5.63-6.6-8-9.64,37.22,17,75.55,21.18,77,16,1.16-4.23-22.22-14.87-28.93-18.63-107-60-155.76-263.57-164.27-302.82-.13-4.29-.21-6.6-.21-6.6s-.19,1-.58,2.9c-.4-1.89-.59-2.9-.59-2.9l-.2,6.6c-8.51,39.25-57.25,242.83-164.28,302.82-5.83,3.27-30,15.32-28.93,18.63,1.21,3.69,33.69-3.86,67.54-17.95-2.76,3.68-6,7.63-9.67,11.84-20.65,23.43,20.39,4.09,52.21-17.18a144,144,0,0,0-12.8,39.15c-.12.66-.26,1.3-.39,1.95-1.29,3.24-8.1,17.71-33.39,37.36-13.48,10.47-6,11.81,9.34,8.46-42.41,42.71-121.12,37-121.12,37s35.26,20.06,79.28,39.35a173.61,173.61,0,0,1-15.81,13.77c-21.24,16.51,9.65,10.34,41.08-1.17A166.57,166.57,0,0,1,1666.63,624c-24.23,18.83,19.35,8.15,54.2-6.29,44.22,13.87,85.88,18.83,102.34-3,19.67,26,75.37,13.87,128.4-6.07,32.47,12.24,66.2,19.41,44.24,2.35a172.38,172.38,0,0,1-15.82-13.8l2.51-1.09C2011.87,606.33,2038.09,610.89,2018.08,595.35Z"/>
  </g>
  <g>
    <path class="cls-5" d="M495.07,1092.17c-4.63-3.39-8.66-6.62-12.17-9.66C518.17,1067,544,1053.14,544,1053.14s-81.33,5.55-125.1-36c15.95,3.31,23.83,2,9.85-8.18C399,987.23,394,972,394,972a.87.87,0,0,0-.08-.14c-.07-.36-.16-.71-.23-1.08A140.24,140.24,0,0,0,384.9,942c28.69,16.09,56,26.42,38,7.24-3.08-3.29-5.82-6.41-8.25-9.37,38.43,16.49,78,20.58,79.47,15.54,1.2-4.11-22.94-14.45-29.87-18.11C353.74,879,303.42,681.18,294.63,643l-.2-6.42s-.21,1-.61,2.82c-.41-1.83-.61-2.82-.61-2.82s-.08,2.25-.21,6.42C284.21,681.18,233.9,879,123.39,937.26c-6,3.18-31,14.89-29.88,18.11,1.25,3.59,34.78-3.75,69.74-17.44-2.85,3.57-6.15,7.41-10,11.51-21.32,22.76,21.06,4,53.92-16.7a133.6,133.6,0,0,0-13.22,38c-.13.64-.28,1.26-.41,1.89-1.33,3.15-8.36,17.21-34.47,36.3-13.92,10.18-6.17,11.48,9.64,8.22-43.79,41.5-125.06,36-125.06,36s36.41,19.5,81.85,38.24a176.28,176.28,0,0,1-16.31,13.38c-21.94,16,10,10,42.41-1.14A168,168,0,0,1,132.19,1120c-25,18.29,20,7.92,56-6.11,45.66,13.47,88.68,18.29,105.67-2.87,20.31,25.3,77.82,13.47,132.58-5.9,33.52,11.9,68.36,18.86,45.68,2.28a177.24,177.24,0,0,1-16.34-13.4l2.6-1.06C488.66,1102.83,515.73,1107.27,495.07,1092.17Z"/>
    <path class="cls-5" d="M476.41,903.54c-4.18-3-7.82-6-11-8.71,31.82-14,55.1-26.5,55.1-26.5s-73.38,5-112.88-32.48c14.4,3,21.51,1.85,8.9-7.37-26.83-19.62-31.34-33.36-31.34-33.36a.64.64,0,0,0-.07-.12c-.07-.33-.15-.65-.21-1A127,127,0,0,0,377,768c25.89,14.52,50.5,23.85,34.29,6.54-2.79-3-5.25-5.79-7.45-8.45,34.67,14.88,70.38,18.57,71.7,14,1.08-3.71-20.7-13-26.95-16.34-99.71-52.59-145.11-231.06-153-265.47-.12-3.76-.18-5.79-.18-5.79s-.19.89-.55,2.54c-.37-1.65-.55-2.54-.55-2.54s-.07,2-.19,5.79c-7.93,34.41-53.33,212.88-153,265.47-5.44,2.87-28,13.43-27,16.34,1.13,3.23,31.38-3.39,62.92-15.74-2.57,3.22-5.55,6.69-9,10.38-19.24,20.54,19,3.58,48.64-15.06A120.62,120.62,0,0,0,204.73,794c-.11.58-.25,1.14-.37,1.71-1.2,2.84-7.55,15.52-31.1,32.75-12.56,9.18-5.57,10.36,8.7,7.42-39.51,37.44-112.84,32.43-112.84,32.43S102,885.92,143,902.83a158.53,158.53,0,0,1-14.72,12.08c-19.79,14.47,9,9.06,38.27-1A152,152,0,0,1,149,928.64c-22.58,16.51,18,7.15,50.49-5.51,41.2,12.16,80,16.5,95.34-2.59,18.32,22.83,70.21,12.16,119.62-5.32,30.25,10.73,61.68,17,41.22,2.06a159.21,159.21,0,0,1-14.75-12.1l2.35-.95C470.63,913.16,495.05,917.17,476.41,903.54Z"/>
    <path class="cls-5" d="M453,773.69c-3.69-2.7-6.91-5.27-9.7-7.69,28.1-12.39,48.66-23.4,48.66-23.4s-64.8,4.42-99.68-28.68c12.71,2.64,19,1.63,7.85-6.51C376.43,690.08,372.45,678,372.45,678l-.07-.11c-.06-.29-.13-.57-.18-.86a112.32,112.32,0,0,0-7-23c22.85,12.82,44.59,21,30.27,5.77-2.45-2.62-4.63-5.11-6.57-7.46,30.62,13.14,62.15,16.4,63.32,12.38.95-3.28-18.28-11.52-23.8-14.43-88.05-46.44-128.15-204-135.15-234.43-.11-3.32-.16-5.11-.16-5.11l-.49,2.24c-.32-1.46-.48-2.24-.48-2.24s-.06,1.79-.17,5.11c-7,30.38-47.09,188-135.15,234.43-4.8,2.53-24.69,11.86-23.8,14.43,1,2.86,27.71-3,55.56-13.9-2.27,2.85-4.89,5.9-8,9.17-17,18.13,16.78,3.16,43-13.3A106.34,106.34,0,0,0,213.07,677c-.1.51-.22,1-.33,1.5-1.06,2.51-6.66,13.71-27.47,28.93-11.09,8.1-4.91,9.14,7.69,6.55C158.07,747,93.31,742.6,93.31,742.6s29,15.53,65.22,30.47a140.43,140.43,0,0,1-13,10.66c-17.48,12.78,7.93,8,33.79-.91a133.32,133.32,0,0,1-15.47,13c-19.94,14.58,15.91,6.31,44.59-4.87,36.38,10.74,70.66,14.57,84.19-2.29,16.18,20.16,62,10.74,105.64-4.7,26.71,9.48,54.47,15,36.4,1.83a139.73,139.73,0,0,1-13-10.69l2.07-.84C447.88,782.19,469.45,785.73,453,773.69Z"/>
  </g>
  <g>
    <path class="cls-5" d="M312.53,839.66c-5.46-3.63-10.21-7.08-14.35-10.34,41.55-16.64,71.95-31.43,71.95-31.43s-95.81,5.94-147.38-38.53c18.79,3.55,28.08,2.19,11.61-8.75-35-23.27-40.92-39.57-40.92-39.57a.57.57,0,0,0-.09-.15c-.09-.39-.2-.76-.28-1.16a139.58,139.58,0,0,0-10.34-30.85c33.8,17.22,65.94,28.29,44.77,7.76-3.63-3.53-6.85-6.87-9.72-10,45.27,17.65,91.9,22,93.63,16.63,1.4-4.4-27-15.47-35.2-19.38C146,611.48,86.74,399.76,76.39,358.94c-.16-4.47-.25-6.87-.25-6.87s-.24,1.05-.71,3c-.48-2-.72-3-.72-3s-.09,2.4-.24,6.87C64.11,399.76,4.83,611.48-125.36,673.86c-2.32,1.11-7,3.2-12.27,5.63v12A467.43,467.43,0,0,0-78.4,674.57c-3.36,3.82-7.24,7.93-11.77,12.32-16,15.47-1.62,13,20.89,3.46l2.66-1.14c0-3.38.05-6.77.05-10.15,0-6.44,10-6.43,10,0,0,1.86,0,3.72,0,5.58C-46.81,680-36.38,674.58-26.65,669a130.78,130.78,0,0,0-12.8,29.78,5.41,5.41,0,0,1,3.2,5.7c-4.22,30.39-6.58,61-8.06,91.65-1.08,22.41-2,44.87-2.48,67.34,8,2.12,16,4,23.76,5.65,1.22-64.56,2.26-129.12,2.27-193.69,0-6.45,10-6.44,10,0q0,51.25-.74,102.52-.63,46.56-1.56,93.12c39.32,7.13,73,6.21,88.49-11.27,23.92,27.08,91.68,14.42,156.2-6.31,39.48,12.73,80.52,20.19,53.81,2.45a206.68,206.68,0,0,1-19.25-14.35l3.06-1.14C305,851.07,336.86,855.82,312.53,839.66Z"/>
    <path class="cls-5" d="M290.54,637.76c-4.92-3.27-9.21-6.39-12.94-9.32,37.49-15,64.92-28.36,64.92-28.36s-86.45,5.36-133-34.77c17,3.21,25.34,2,10.48-7.89-31.62-21-36.92-35.7-36.92-35.7a.46.46,0,0,0-.09-.14c-.08-.35-.17-.69-.25-1a126.3,126.3,0,0,0-9.32-27.84c30.49,15.54,59.48,25.52,40.39,7-3.28-3.18-6.19-6.2-8.78-9.05,40.85,15.93,82.92,19.88,84.48,15,1.27-4-24.38-14-31.75-17.49C140.31,431.88,86.82,240.86,77.48,204c-.14-4-.22-6.2-.22-6.2s-.21.95-.64,2.72c-.43-1.77-.65-2.72-.65-2.72s-.08,2.17-.22,6.2c-9.34,36.83-62.83,227.85-180.3,284.14-6.4,3.07-32.94,14.38-31.75,17.49,1.33,3.46,37-3.63,74.12-16.85-3,3.45-6.53,7.16-10.61,11.12-22.66,22,22.38,3.83,57.31-16.13a121.67,121.67,0,0,0-14,36.74c-.13.62-.29,1.21-.44,1.82-1.41,3-8.88,16.62-36.64,35.06-14.79,9.83-6.55,11.09,10.25,7.94C-90.79,595-147,599.79-174,600.27c0,2.33,0,4.65,0,7,15.65,7.13,41.81,18.58,71.64,29.76a186,186,0,0,1-17.35,12.92c-23.32,15.49,10.59,9.69,45.08-1.1a175.85,175.85,0,0,1-20.64,15.8c-18.91,12.56-.2,11.13,26,4.38q.06-14.5.24-29-.18,14.5-.24,29c10.62-2.74,22.48-6.36,33.54-10.28,48.53,13,94.26,17.66,112.32-2.77,21.59,24.43,82.72,13,140.93-5.7,35.63,11.49,72.66,18.22,48.55,2.21a184.94,184.94,0,0,1-17.37-13l2.77-1C283.73,648.06,312.5,652.35,290.54,637.76Z"/>
    <path class="cls-5" d="M263,498.78c-4.35-2.89-8.14-5.64-11.43-8.24,33.1-13.26,57.33-25,57.33-25s-76.35,4.73-117.44-30.7c15,2.83,22.38,1.75,9.25-7-27.91-18.55-32.6-31.53-32.6-31.53a.64.64,0,0,0-.07-.12c-.07-.31-.16-.61-.23-.92a110.77,110.77,0,0,0-8.23-24.58c26.93,13.72,52.53,22.53,35.67,6.18-2.89-2.81-5.46-5.48-7.75-8,36.08,14.07,73.23,17.56,74.6,13.26,1.13-3.51-21.53-12.33-28-15.45C130.28,317,83,148.27,74.79,115.75c-.12-3.56-.19-5.47-.19-5.47s-.19.84-.57,2.4c-.38-1.56-.57-2.4-.57-2.4l-.2,5.47C65,148.27,17.78,317-85.95,366.67c-5.66,2.72-29.1,12.7-28,15.45,1.18,3.06,32.65-3.21,65.46-14.88-2.67,3.05-5.77,6.32-9.37,9.82-20,19.41,19.77,3.38,50.61-14.24a107.44,107.44,0,0,0-12.41,32.44c-.11.55-.26,1.07-.38,1.61-1.25,2.69-7.85,14.68-32.36,31-13.06,8.68-5.79,9.79,9.05,7-41.1,35.39-117.39,30.66-117.39,30.66s34.18,16.63,76.83,32.61a162,162,0,0,1-15.31,11.41c-20.6,13.68,9.34,8.56,39.81-1a154.74,154.74,0,0,1-18.23,14c-23.49,15.6,18.75,6.75,52.53-5.21C17.7,528.79,58.08,532.89,74,514.85c19.06,21.57,73.05,11.49,124.46-5,31.46,10.14,64.16,16.09,42.87,1.95A164.38,164.38,0,0,1,226,500.33l2.44-.9C256.93,507.88,282.34,511.66,263,498.78Z"/>
  </g>
  <g>
    <path class="cls-6" d="M116.56,362.57c4.87,76.46,5.85,222.73,7.81,515.28.59,88.9.95,197.4.54,321.89h33V987s-2-86-3.55-168.44c-1-54-1.59-94.83-1.94-119.8-1.13-79.6-1.74-146.6-1.94-173.9-1.34-184.47-14.28-368.16-15.07-552.63,0-7.92,0-30.72-7.36-41.18-5.71-8.17-14.89-7.37-20.16,0-13.44,18.84-5,85.64-2,110.74C118,146.2,109.78,256.27,116.56,362.57Z"/>
    <path class="cls-7" d="M116.56,362.57c4.87,76.46,5.85,222.73,7.81,515.28.59,88.9.95,197.4.54,321.89h33v-16.32c-2-2.92-3.53-7.47-3.8-13.67s-.49-12.5-.73-18.75c-2-2.94-3.4-7.48-3.61-13.64-1.29-39.24-3.64-78.28-5.2-117.47-1.45-36.49-.42-72.94-1.56-109.36-1-33.21-4.87-65.75-6.61-98.81a485.07,485.07,0,0,1,1.67-75.51c-1-29.75-1.74-59.54-2.09-89.39-.45-39.83-.56-79.68-1.54-119.48-1-42.38-3.74-84.45-5.57-126.71-3.6-83.33-5.49-166.9-7.78-250.39-2-73.41-10.61-144.93-14-217.91-12.3,20.34-4.12,84.9-1.26,109.48C118,146.2,109.78,256.27,116.56,362.57Z"/>
    <path class="cls-8" d="M113.08,181.29c3.06-3.55,21.6-24.73,26.69-14.18,1.88,3.91,2.29,12.52.62,15.38s-4.06-1.68-8.28-2.58c-9.49-2-16.35,16.32-18.94,12.19C112.52,191.06,112.05,188.44,113.08,181.29Z"/>
    <path class="cls-8" d="M127.73,316.44c2.37-2.39,16.68-16.58,18.45-4.68.65,4.41-.23,12.85-1.65,15.05s-2.3-3-4.8-5.28c-5.63-5.14-12.31,10.23-13.37,5.36C126.09,325.67,126.14,323,127.73,316.44Z"/>
    <path class="cls-8" d="M118.92,413.44s15.77-25.47,27.48-20.6Z"/>
    <path class="cls-8" d="M150,484.21s-7.15-10.93-13.72,0S150,494.15,150,494.15Z"/>
    <path class="cls-8" d="M160.78,888c-3,3.65-21.4,25.41-26.57,15-1.92-3.85-2.39-12.45-.74-15.36s4.07,1.56,8.3,2.32c9.5,1.71,16.21-16.83,18.84-12.78C161.27,878.22,161.76,880.83,160.78,888Z"/>
    <path class="cls-8" d="M152.05,677.57c-1.61,4.2-11.44,29.33-15.61,20.13-1.55-3.41-2.59-11.79-1.79-15s2.72.72,5.48.62C146.32,683.11,149,663.5,151,667,151.52,667.84,152.06,670.31,152.05,677.57Z"/>
    <path class="cls-8" d="M156.18,792s-15.57,26-27.32,21.46Z"/>
    <path class="cls-8" d="M121.44,586.28s7.23,10.71,13.72-.43-13.8-9.51-13.8-9.51Z"/>
    <path class="cls-8" d="M125.08,1072.12s1.76-25.71,21.82-1.79S125.08,1072.12,125.08,1072.12Z"/>
    <path class="cls-8" d="M135.83,9.9V30.31a17.32,17.32,0,0,0-11.49,2.56c-9.42,5.71-15.54,19.34-17.68,15.88-.4-.65-.22-1.19-.78-6.94-.87-8.94-1.61-10.68-1.46-12.62.31-3.84,4.11-8.08,19.22-10"/>
  </g>
  <g>
    <path class="cls-6" d="M1730.11,1262.68c-1.07-167.78-.7-311.5.05-423.9,2-292.55,2.94-438.82,7.81-515.28,6.78-106.3-1.47-216.37,10.67-320.76,2.92-25.1,11.41-91.9-2-110.74-5.26-7.38-14.44-8.17-20.15,0-7.32,10.46-7.33,33.26-7.36,41.18-.8,184.47-13.74,368.16-15.07,552.63-.2,27.3-.82,94.3-1.94,173.9-.36,25-.94,65.82-1.94,119.8-1.54,82.43-3.55,168.43-3.55,168.43v300.22l22.16,14.41C1722.54,1262.59,1726.33,1262.62,1730.11,1262.68Z"/>
    <path class="cls-7" d="M1730.11,1262.68c-1.07-167.78-.7-311.5.05-423.9,2-292.55,2.94-438.82,7.81-515.28,6.78-106.3-1.47-216.37,10.67-320.76,2.86-24.58,11-89.14-1.25-109.49-3.37,73-12,144.51-14,217.92-2.29,83.49-4.18,167.06-7.77,250.39-1.83,42.26-4.54,84.33-5.58,126.71-1,39.8-1.08,79.65-1.54,119.48-.34,29.85-1.09,59.64-2.09,89.39a482.62,482.62,0,0,1,1.67,75.51c-1.74,33.06-5.57,65.59-6.61,98.81-1.13,36.42-.11,72.87-1.55,109.35-1.56,39.2-3.91,78.24-5.2,117.47-.21,6.17-1.64,10.71-3.62,13.64-.24,6.26-.45,12.51-.72,18.76s-1.77,10.75-3.8,13.67v103.81l22.16,14.41C1722.54,1262.59,1726.33,1262.62,1730.11,1262.68Z"/>
    <path class="cls-8" d="M1741.45,142.22c-3.06-3.55-21.61-24.73-26.69-14.18-1.89,3.91-2.29,12.52-.62,15.38s4-1.68,8.28-2.58c9.49-2,16.35,16.32,18.94,12.19C1742,152,1742.48,149.37,1741.45,142.22Z"/>
    <path class="cls-8" d="M1726.8,277.37c-2.37-2.4-16.69-16.58-18.45-4.69-.65,4.42.23,12.86,1.65,15.06s2.29-3,4.8-5.28c5.63-5.14,12.31,10.23,13.37,5.36C1728.44,286.6,1728.38,283.91,1726.8,277.37Z"/>
    <path class="cls-8" d="M1735.61,374.37s-15.77-25.47-27.48-20.6Z"/>
    <path class="cls-8" d="M1704.49,445.14s7.15-10.94,13.72,0-13.72,9.94-13.72,9.94Z"/>
    <path class="cls-8" d="M1693.74,848.93c3,3.65,21.41,25.41,26.58,15,1.91-3.85,2.39-12.45.74-15.36s-4.07,1.55-8.3,2.32c-9.5,1.71-16.22-16.83-18.84-12.78C1693.26,839.15,1692.77,841.75,1693.74,848.93Z"/>
    <path class="cls-8" d="M1702.48,638.5c1.61,4.2,11.43,29.33,15.61,20.13,1.55-3.41,2.58-11.79,1.79-15s-2.72.72-5.48.62c-6.19-.22-8.87-19.83-10.89-16.36C1703,628.77,1702.47,631.23,1702.48,638.5Z"/>
    <path class="cls-8" d="M1698.35,753s15.57,26,27.31,21.46Z"/>
    <path class="cls-8" d="M1733.09,547.21s-7.23,10.71-13.72-.43,13.8-9.51,13.8-9.51Z"/>
    <path class="cls-8" d="M1729.45,1033.05s-1.76-25.71-21.82-1.79S1729.45,1033.05,1729.45,1033.05Z"/>
    <path class="cls-8" d="M1718.7-29.17V-8.76a17.32,17.32,0,0,1,11.49,2.56c9.42,5.7,15.54,19.34,17.68,15.88.4-.65.21-1.19.77-6.94.88-8.94,1.62-10.68,1.47-12.62-.31-3.84-4.11-8.08-19.23-10"/>
  </g>
  <g>
    <path class="cls-6" d="M217.53,1190.69c1.91-144.33,1.28-267.83,0-364.13-3.3-247-4.94-370.55-13.14-435.12-11.39-89.76,2.48-182.7-17.95-270.85-4.91-21.2-19.18-77.61,3.43-93.51,8.86-6.24,24.29-6.9,33.91,0,12.3,8.83,12.32,28.08,12.38,34.76,1.33,155.78,23.09,310.9,25.34,466.66.33,23.06,1.37,79.63,3.26,146.85.6,21.09,1.58,55.58,3.27,101.16,2.57,69.61,6,142.24,6,142.24h0v253.51Z"/>
    <path class="cls-7" d="M267.6,1073.06c-.45-5.28-.82-10.56-1.22-15.84a15.15,15.15,0,0,1-6.07-11.52c-2.18-33.13-6.14-66.1-8.75-99.2-2.43-30.81-.71-61.58-2.62-92.34-1.74-28-8.19-55.52-11.12-83.44A206.6,206.6,0,0,1,240.63,707c-1.68-25.12-2.94-50.28-3.51-75.49-.77-33.63-1-67.28-2.59-100.89-1.74-35.79-6.3-71.31-9.37-107-6-70.36-9.23-140.93-13.09-211.44-3.38-62-17.85-122.38-23.52-184-20.69,17.18-6.92,71.7-2.11,92.46,20.43,88.15,6.56,181.09,17.95,270.85,8.2,64.57,9.84,188.09,13.14,435.12,1.28,96.3,1.91,219.8,0,364.13L274,1172.26V1084.6A15.44,15.44,0,0,1,267.6,1073.06Z"/>
    <path class="cls-8" d="M198.54,238.37c5.15-3,36.34-20.89,44.89-12,3.17,3.31,3.86,10.58,1,13s-6.82-1.42-13.93-2.18c-16-1.69-27.49,13.79-31.85,10.29C197.6,246.61,196.81,244.4,198.54,238.37Z"/>
    <path class="cls-8" d="M223.18,352.49c4-2,28.07-14,31-3.95,1.1,3.72-.39,10.85-2.77,12.71s-3.86-2.53-8.07-4.46c-9.47-4.34-20.71,8.64-22.49,4.53C220.43,360.28,220.52,358,223.18,352.49Z"/>
    <path class="cls-8" d="M208.36,434.41s26.53-21.52,46.22-17.41Z"/>
    <path class="cls-8" d="M260.7,494.16s-12-9.23-23.07,0,23.07,8.4,23.07,8.4Z"/>
    <path class="cls-8" d="M278.78,835.14c-5.1,3.08-36,21.45-44.7,12.68-3.22-3.25-4-10.51-1.25-13s6.85,1.31,14,2c16,1.44,27.28-14.22,31.69-10.79C279.59,826.88,280.42,829.08,278.78,835.14Z"/>
    <path class="cls-8" d="M264.09,657.45c-2.71,3.54-19.24,24.76-26.26,17-2.6-2.88-4.35-10-3-12.65s4.57.6,9.21.52c10.41-.19,14.92-16.75,18.31-13.82C263.2,649.23,264.1,651.31,264.09,657.45Z"/>
    <path class="cls-8" d="M271,754.09S244.84,776,225.09,772.21Z"/>
    <path class="cls-8" d="M212.6,580.36s12.16,9,23.08-.37-23.21-8-23.21-8Z"/>
    <path class="cls-8" d="M218.72,990.62s3-21.72,36.7-1.52S218.72,990.62,218.72,990.62Z"/>
    <path class="cls-8" d="M236.8,93.64v17.24A54.18,54.18,0,0,0,217.48,113c-15.84,4.82-26.14,16.34-29.73,13.42-.68-.56-.37-1-1.31-5.86-1.46-7.56-2.72-9-2.46-10.66.52-3.25,6.92-6.82,32.33-8.44"/>
  </g>
  <g>
    <path class="cls-9" d="M-2,1046.19c-20.31,21.68,20.06,3.78,51.36-15.9a127.4,127.4,0,0,0-12.59,36.23c-.12.61-.26,1.2-.39,1.8-1.27,3-8,16.4-32.84,34.58-13.25,9.7-5.87,10.94,9.19,7.83a101.23,101.23,0,0,1-24.08,16.64c1.86,22.5,1.87,45.14,1.49,67.79q3.12-1,6.29-2.1-2.82,2.81-6.35,5.91c0,.26,0,.51,0,.77H182.2q30.2,0,60.39,0,7.78-2.49,15.55-5.24c5.3,1.88,10.63,3.63,15.73,5.17q15.67-.06,31.35-.16c-1-.85-2.14-1.79-3.57-2.83a168.78,168.78,0,0,1-15.56-12.77l2.47-1c28.89,9.43,54.67,13.66,35-.73-4.41-3.22-8.25-6.3-11.59-9.2,33.59-14.81,58.17-28,58.17-28s-77.47,5.29-119.17-34.29c15.2,3.16,22.71,2,9.39-7.79-28.33-20.71-33.08-35.21-33.08-35.21a.55.55,0,0,0-.08-.14c-.07-.34-.16-.68-.22-1a133.15,133.15,0,0,0-8.36-27.45c27.33,15.32,53.31,25.17,36.2,6.9-2.94-3.14-5.55-6.11-7.87-8.93,36.61,15.71,74.31,19.61,75.71,14.8,1.14-3.91-21.86-13.76-28.46-17.24C188.92,979.08,141,790.65,132.62,754.33l-.2-6.12s-.19.94-.58,2.68c-.38-1.74-.58-2.68-.58-2.68s-.07,2.14-.19,6.12c-8,34.59-51.84,207.15-146.93,271.46q-.13,8.89-.24,17.8c7.49-2.39,15.49-5.2,23.56-8.36C4.75,1038.63,1.61,1042.29-2,1046.19Z"/>
    <path class="cls-9" d="M305.78,1002.47c-4-2.91-7.45-5.69-10.46-8.3,30.31-13.36,52.49-25.24,52.49-25.24S277.91,973.7,240.28,938c13.71,2.85,20.49,1.76,8.47-7-25.56-18.69-29.85-31.78-29.85-31.78a.4.4,0,0,0-.07-.12c-.06-.31-.14-.61-.2-.92a119.85,119.85,0,0,0-7.54-24.78c24.66,13.83,48.1,22.71,32.66,6.23-2.65-2.83-5-5.52-7.09-8.06,33,14.18,67,17.69,68.3,13.36,1-3.53-19.72-12.42-25.67-15.56-95-50.09-138.23-220.1-145.78-252.88-.12-3.58-.18-5.52-.18-5.52s-.18.85-.52,2.42c-.35-1.57-.53-2.42-.53-2.42s-.06,1.94-.18,5.52C124.57,649.16,81.5,818.44-13,869q-.11,6.1-.23,12.2a339.85,339.85,0,0,0,33.83-11.26C18.13,873,15.3,876.28,12,879.8c-18.32,19.56,18.1,3.41,46.34-14.35A114.92,114.92,0,0,0,47,898.15c-.11.55-.24,1.08-.35,1.62C45.48,902.48,39.44,914.56,17,931c-12,8.74-5.3,9.87,8.29,7.06C13.93,948.8-.35,955.87-14.77,960.51q-.37,19.89-.7,39.78l3.62,1.51c-1.15,1.07-2.38,2.18-3.7,3.31q-.12,7.44-.22,14.87a254.62,254.62,0,0,0,26.35-7.66,145.52,145.52,0,0,1-16.69,14.06c-21.5,15.73,17.17,6.81,48.1-5.25,39.24,11.58,76.21,15.72,90.82-2.47,17.45,21.75,66.88,11.58,114-5.07,28.81,10.23,58.75,16.22,39.26,2A152.87,152.87,0,0,1,272,1004l2.24-.91C300.27,1011.64,323.53,1015.45,305.78,1002.47Z"/>
    <path class="cls-9" d="M283.47,878.78c-3.52-2.57-6.58-5-9.24-7.33,26.76-11.8,46.35-22.29,46.35-22.29s-61.73,4.22-95-27.32c12.11,2.52,18.1,1.55,7.49-6.2-22.58-16.51-26.36-28.06-26.36-28.06l-.07-.11c-.05-.28-.12-.54-.18-.82a106.11,106.11,0,0,0-6.65-21.88c21.77,12.22,42.47,20.06,28.84,5.5-2.34-2.5-4.42-4.87-6.27-7.11,29.17,12.52,59.21,15.62,60.32,11.79.91-3.12-17.41-11-22.67-13.74C176.19,717,138,566.84,131.33,537.9c-.1-3.17-.16-4.87-.16-4.87s-.15.74-.46,2.13l-.46-2.13s-.06,1.7-.16,4.87C123.42,566.84,85.23,717,1.36,761.21c-2.2,1.16-7.7,3.81-12.74,6.52,0,2.34,0,4.68-.08,7,10-1.84,26.31-6.48,43.07-13-2.16,2.71-4.67,5.62-7.58,8.73-16.18,17.27,16,3,40.92-12.67a101.68,101.68,0,0,0-10,28.87c-.09.49-.21,1-.31,1.43-1,2.4-6.35,13.07-26.16,27.56-10.57,7.72-4.68,8.71,7.32,6.24-13.45,12.74-31.56,19.64-48.35,23.33q-.22,13.06-.48,26.12c5.11,2.26,10.48,4.56,16,6.86A135.83,135.83,0,0,1-9.41,888.34a30.41,30.41,0,0,0-4,3.4c0,1.27-.05,2.54-.08,3.81,4.66,1.25,20.39-2.59,36.31-8.08A128.57,128.57,0,0,1,8,899.9c-19,13.88,15.16,6,42.47-4.64,34.66,10.22,67.31,13.88,80.2-2.18,15.42,19.2,59.07,10.23,100.63-4.48,25.44,9,51.89,14.32,34.68,1.74a133.74,133.74,0,0,1-12.41-10.18l2-.8C278.6,886.88,299.14,890.24,283.47,878.78Z"/>
  </g>
  <g>
    <path class="cls-9" d="M1874,956.37c-5.57-3.91-10.41-7.65-14.62-11.16,42.35-18,73.33-34,73.33-34s-97.65,6.42-150.22-41.61c19.16,3.84,28.63,2.37,11.84-9.44-35.71-25.14-41.7-42.74-41.7-42.74a1.43,1.43,0,0,0-.1-.16c-.09-.42-.2-.83-.28-1.25a157.11,157.11,0,0,0-10.54-33.32c34.45,18.6,67.2,30.55,45.63,8.38-3.7-3.81-7-7.42-9.91-10.84,46.14,19.07,93.66,23.8,95.42,18,1.44-4.76-27.54-16.71-35.86-20.94-132.7-67.36-193.12-296-203.67-340.1-.16-4.82-.25-7.42-.25-7.42s-.24,1.14-.73,3.26c-.48-2.12-.73-3.26-.73-3.26s-.08,2.6-.24,7.42c-10.56,44.08-71,272.74-203.67,340.1-7.23,3.68-37.21,17.22-35.87,20.94,1.5,4.14,41.76-4.34,83.73-20.16-3.42,4.12-7.38,8.56-12,13.3-25.59,26.3,25.29,4.58,64.74-19.3a151,151,0,0,0-15.87,44c-.15.74-.33,1.45-.49,2.18-1.6,3.65-10,19.9-41.39,42-16.71,11.76-7.4,13.27,11.58,9.5-52.58,48-150.16,41.55-150.16,41.55s43.71,22.54,98.28,44.21a211.92,211.92,0,0,1-19.59,15.46c-26.34,18.55,12,11.61,50.92-1.32a199.27,199.27,0,0,1-23.32,18.92c-30,21.15,24,9.16,67.2-7.06,54.83,15.57,106.48,21.14,126.87-3.32,24.39,29.25,93.45,15.57,159.2-6.82,40.25,13.76,82.08,21.81,54.85,2.64a209.85,209.85,0,0,1-19.62-15.49l3.12-1.23C1866.34,968.7,1898.84,973.83,1874,956.37Z"/>
    <path class="cls-9" d="M1851.63,738.33c-5-3.53-9.39-6.9-13.19-10.07,38.21-16.22,66.17-30.63,66.17-30.63s-88.11,5.79-135.54-37.54c17.28,3.46,25.83,2.14,10.68-8.53-32.22-22.67-37.63-38.55-37.63-38.55a.57.57,0,0,0-.09-.15c-.08-.38-.17-.74-.25-1.13a142.27,142.27,0,0,0-9.5-30.06c31.08,16.78,60.63,27.56,41.16,7.56-3.34-3.44-6.3-6.69-8.94-9.78,41.64,17.21,84.51,21.47,86.1,16.21,1.3-4.29-24.85-15.07-32.36-18.88C1698.52,516,1644,309.69,1634.48,269.91c-.14-4.35-.22-6.69-.22-6.69s-.22,1-.66,2.93c-.44-1.91-.66-2.93-.66-2.93s-.08,2.34-.23,6.69c-9.52,39.78-64,246.08-183.75,306.87-6.53,3.31-33.58,15.53-32.37,18.88,1.36,3.74,37.68-3.91,75.55-18.19-3.09,3.73-6.66,7.73-10.82,12-23.09,23.74,22.82,4.14,58.41-17.41a136.36,136.36,0,0,0-14.32,39.67c-.13.67-.29,1.32-.44,2-1.44,3.29-9.06,17.95-37.35,37.86-15.07,10.62-6.68,12,10.45,8.58-47.44,43.28-135.48,37.49-135.48,37.49S1402,718,1451.26,737.52a190.36,190.36,0,0,1-17.67,14c-23.77,16.73,10.78,10.47,45.94-1.19a179.59,179.59,0,0,1-21,17.07c-27.1,19.08,21.64,8.26,60.63-6.37,49.47,14,96.07,19.07,114.48-3,22,26.39,84.31,14,143.64-6.15,36.31,12.41,74,19.68,49.48,2.38a189.29,189.29,0,0,1-17.7-14l2.82-1.1C1844.68,749.46,1874,754.09,1851.63,738.33Z"/>
    <path class="cls-9" d="M1823.5,588.24c-4.43-3.12-8.29-6.1-11.64-8.9,33.74-14.32,58.43-27.05,58.43-27.05s-77.81,5.12-119.69-33.15c15.26,3.05,22.8,1.89,9.43-7.53-28.46-20-33.23-34.05-33.23-34.05a.65.65,0,0,0-.08-.13c-.07-.33-.16-.66-.22-1a125.06,125.06,0,0,0-8.4-26.55c27.45,14.82,53.55,24.34,36.36,6.67-3-3-5.57-5.91-7.9-8.63,36.77,15.19,74.63,19,76,14.31,1.15-3.78-21.94-13.31-28.58-16.67-105.72-53.68-153.86-235.87-162.27-271l-.2-5.91s-.19.9-.58,2.59c-.39-1.69-.58-2.59-.58-2.59l-.2,5.91c-8.41,35.12-56.55,217.31-162.27,271-5.77,2.92-29.65,13.71-28.58,16.67,1.19,3.31,33.27-3.46,66.71-16.06-2.72,3.29-5.88,6.82-9.55,10.6-20.4,21,20.14,3.65,51.58-15.38a120.24,120.24,0,0,0-12.65,35c-.12.59-.26,1.16-.39,1.74-1.27,2.9-8,15.85-33,33.43-13.31,9.37-5.9,10.58,9.23,7.57-41.89,38.22-119.65,33.11-119.65,33.11s34.83,18,78.31,35.22a166.45,166.45,0,0,1-15.61,12.33c-21,14.77,9.53,9.24,40.57-1.05a159,159,0,0,1-18.57,15.07c-23.94,16.85,19.11,7.3,53.54-5.63,43.68,12.41,84.84,16.85,101.09-2.64,19.43,23.3,74.45,12.41,126.85-5.43,32.06,11,65.39,17.37,43.7,2.1a167.11,167.11,0,0,1-15.64-12.35l2.49-1C1817.37,598.06,1843.27,602.15,1823.5,588.24Z"/>
  </g>
  <g>
    <path class="cls-5" d="M1904.93,1096.43c-4.63-3.39-8.66-6.62-12.17-9.65,35.27-15.56,61.07-29.37,61.07-29.37s-81.33,5.55-125.1-36c16,3.32,23.83,2.05,9.85-8.17-29.74-21.75-34.73-37-34.73-37a.55.55,0,0,0-.08-.14c-.07-.37-.16-.72-.23-1.08a139.54,139.54,0,0,0-8.78-28.83c28.69,16.09,56,26.43,38,7.25-3.08-3.29-5.82-6.42-8.25-9.37,38.43,16.49,78,20.58,79.47,15.54,1.2-4.11-22.94-14.46-29.87-18.11-110.51-58.28-160.83-256.09-169.62-294.22l-.2-6.42s-.21,1-.61,2.81c-.41-1.83-.61-2.81-.61-2.81s-.07,2.25-.21,6.42c-8.78,38.13-59.1,235.94-169.61,294.22-6,3.18-31,14.89-29.88,18.11,1.25,3.58,34.78-3.76,69.74-17.44-2.85,3.57-6.15,7.41-10,11.5-21.32,22.76,21.06,4,53.92-16.69a133.49,133.49,0,0,0-13.22,38c-.12.64-.28,1.26-.41,1.89-1.33,3.15-8.36,17.21-34.47,36.3-13.92,10.17-6.17,11.48,9.64,8.22-43.79,41.5-125.06,36-125.06,36s36.41,19.49,81.86,38.24a177.9,177.9,0,0,1-16.32,13.38c-21.94,16,10,10,42.41-1.14a168,168,0,0,1-19.42,16.36c-25,18.3,20,7.92,56-6.11,45.66,13.47,88.68,18.29,105.67-2.87,20.31,25.3,77.82,13.47,132.58-5.9,33.52,11.9,68.36,18.87,45.68,2.29a176.9,176.9,0,0,1-16.34-13.41l2.6-1.06C1898.52,1107.1,1925.59,1111.54,1904.93,1096.43Z"/>
    <path class="cls-5" d="M1886.27,907.81c-4.18-3.06-7.82-6-11-8.72,31.82-14,55.1-26.49,55.1-26.49s-73.38,5-112.88-32.48c14.4,3,21.51,1.85,8.9-7.38-26.83-19.62-31.34-33.35-31.34-33.35a.92.92,0,0,0-.07-.13c-.07-.33-.15-.64-.21-1a126.81,126.81,0,0,0-7.92-26c25.89,14.52,50.5,23.84,34.29,6.54-2.79-3-5.25-5.79-7.45-8.46,34.67,14.88,70.38,18.57,71.71,14,1.07-3.71-20.7-13-27-16.34-99.71-52.58-145.11-231-153-265.46-.12-3.76-.18-5.79-.18-5.79l-.55,2.54c-.37-1.66-.55-2.54-.55-2.54s-.07,2-.19,5.79C1696,537,1650.62,715.46,1550.91,768c-5.43,2.87-28,13.44-27,16.34,1.13,3.24,31.38-3.39,62.92-15.73-2.57,3.22-5.55,6.68-9,10.38-19.24,20.53,19,3.58,48.65-15.07a120.49,120.49,0,0,0-11.93,34.33c-.11.57-.25,1.13-.37,1.7-1.2,2.84-7.55,15.53-31.1,32.75-12.56,9.19-5.57,10.36,8.7,7.42C1552.31,877.6,1479,872.6,1479,872.6s32.85,17.59,73.85,34.5a158.59,158.59,0,0,1-14.72,12.07c-19.79,14.48,9,9.06,38.27-1a153,153,0,0,1-17.52,14.77c-22.58,16.51,18,7.15,50.49-5.52,41.2,12.16,80,16.51,95.34-2.58,18.32,22.82,70.21,12.15,119.63-5.33,30.24,10.74,61.67,17,41.21,2.07a160.84,160.84,0,0,1-14.75-12.1l2.35-1C1880.49,917.43,1904.91,921.43,1886.27,907.81Z"/>
    <path class="cls-5" d="M1862.85,778c-3.69-2.7-6.91-5.27-9.7-7.7,28.1-12.39,48.66-23.4,48.66-23.4s-64.8,4.43-99.68-28.68c12.71,2.65,19,1.63,7.85-6.51-23.69-17.33-27.67-29.46-27.67-29.46l-.07-.11c-.06-.29-.13-.57-.18-.86a112.09,112.09,0,0,0-7-23c22.86,12.83,44.59,21.06,30.27,5.78-2.45-2.63-4.63-5.12-6.57-7.47,30.62,13.14,62.15,16.4,63.32,12.38,1-3.27-18.28-11.51-23.8-14.43-88-46.43-128.15-204-135.15-234.43-.1-3.32-.16-5.11-.16-5.11l-.49,2.24c-.32-1.46-.48-2.24-.48-2.24s-.06,1.79-.17,5.11c-7,30.39-47.09,188-135.15,234.43-4.8,2.54-24.69,11.87-23.8,14.43,1,2.86,27.71-3,55.56-13.89-2.26,2.84-4.89,5.9-8,9.16-17,18.14,16.78,3.16,43-13.3a106.45,106.45,0,0,0-10.53,30.31c-.1.51-.22,1-.33,1.51-1.06,2.51-6.66,13.71-27.47,28.92-11.08,8.11-4.91,9.15,7.69,6.55-34.89,33.07-99.65,28.64-99.65,28.64s29,15.54,65.22,30.47a142,142,0,0,1-13,10.67c-17.48,12.78,7.93,8,33.79-.92a133.28,133.28,0,0,1-15.47,13c-19.94,14.57,15.92,6.31,44.59-4.87,36.38,10.73,70.66,14.57,84.19-2.29,16.19,20.16,62,10.73,105.64-4.7,26.71,9.48,54.47,15,36.4,1.82a141.12,141.12,0,0,1-13-10.68l2.07-.84C1857.74,786.46,1879.31,790,1862.85,778Z"/>
  </g>
  <g>
    <path class="cls-6" d="M20.48,1190.69c3.88-144.33,2.61-267.83,0-364.13-6.7-247-10-370.55-26.72-435.12-23.17-89.76,5-182.7-36.5-270.85-10-21.2-39-77.61,7-93.51,18-6.24,49.4-6.9,68.95,0,25,8.83,25.06,28.08,25.17,34.76,2.71,155.78,47,310.9,51.54,466.66.68,23.06,2.78,79.63,6.64,146.85,1.2,21.09,3.2,55.58,6.63,101.16,5.25,69.61,12.13,142.24,12.13,142.24h0v253.51Z"/>
    <path class="cls-7" d="M122.31,1073.06c-.91-5.28-1.66-10.56-2.48-15.84-6.76-2.48-11.66-6.31-12.35-11.52C103,1012.57,95,979.6,89.69,946.5c-5-30.81-1.45-61.58-5.33-92.34-3.54-28-16.66-55.52-22.61-83.44-4.59-21.53-3.1-42.86,5.72-63.76-3.42-25.12-6-50.28-7.15-75.49-1.57-33.63-2-67.28-5.27-100.89-3.54-35.79-12.82-71.31-19.06-107-12.3-70.36-18.77-140.93-26.6-211.44-6.89-62-36.31-122.38-47.85-184-42.06,17.18-14.06,71.7-4.28,92.46C-1.2,208.74-29.41,301.68-6.24,391.44c16.67,64.57,20,188.09,26.72,435.12,2.61,96.3,3.88,219.8,0,364.13l114.82-18.43V1084.6C128.35,1082.13,123.22,1078.29,122.31,1073.06Z"/>
    <path class="cls-8" d="M-18.13,238.37c10.47-3,73.9-20.89,91.29-12,6.45,3.31,7.84,10.58,2.12,13C69.78,241.71,61.41,238,47,237.2,14.51,235.51-8.95,251-17.81,247.49-20,246.61-21.66,244.4-18.13,238.37Z"/>
    <path class="cls-8" d="M32,352.49c8.1-2,57.07-14,63.1-3.95,2.24,3.72-.79,10.85-5.63,12.71-4.66,1.78-7.86-2.53-16.42-4.46-19.25-4.34-42.11,8.64-45.74,4.53C26.38,360.28,26.56,358,32,352.49Z"/>
    <path class="cls-8" d="M1.84,434.41s54-21.52,94-17.41Z"/>
    <path class="cls-8" d="M108.28,494.16s-24.44-9.23-46.93,0,46.93,8.4,46.93,8.4Z"/>
    <path class="cls-8" d="M145,835.14c-10.37,3.08-73.22,21.45-90.89,12.68-6.56-3.25-8.18-10.51-2.54-13,5.42-2.37,13.91,1.31,28.38,2,32.51,1.44,55.47-14.22,64.44-10.79C146.69,826.88,148.37,829.08,145,835.14Z"/>
    <path class="cls-8" d="M115.17,657.45c-5.52,3.54-39.12,24.76-53.4,17-5.29-2.88-8.84-10-6.11-12.65s9.3.6,18.73.52c21.17-.19,30.35-16.75,37.23-13.82C113.36,649.23,115.2,651.31,115.17,657.45Z"/>
    <path class="cls-8" d="M129.28,754.09S76,776,35.86,772.21Z"/>
    <path class="cls-8" d="M10.46,580.36s24.73,9,46.92-.37-47.18-8-47.18-8Z"/>
    <path class="cls-8" d="M22.91,990.62s6-21.72,74.63-1.52S22.91,990.62,22.91,990.62Z"/>
    <path class="cls-8" d="M59.68,93.64v17.24A220.16,220.16,0,0,0,20.38,113c-32.21,4.82-53.16,16.34-60.46,13.42-1.38-.56-.74-1-2.66-5.86-3-7.56-5.53-9-5-10.66,1.05-3.25,14.06-6.82,65.75-8.44"/>
  </g>
  <g>
    <path class="cls-6" d="M1841.49,535.73c1.06,23.82,3.17,82.3,4.23,151.9.33,21.83.85,57.55.68,104.82-.27,72.17-2.07,147.59-2.07,147.59L1864,1201.35l107.39,8.25q8.76-2.56,17.52-5.08c-15-145.68-23-270.83-27.61-368.85-11.94-255.18-17.91-382.77-4.9-450.68,18.08-94.41-19.63-187.91,18.43-282.15C1984,80.17,2011,19.67,1960,7c-20-5-54-3.09-74.55,5.61-26.37,11.14-24.91,31-24.51,37.89C1870.15,211.31,1834.34,374.8,1841.49,535.73Z"/>
    <path class="cls-7" d="M1971.4,1209.6q8.76-2.56,17.52-5.08c-15-145.68-23-270.83-27.61-368.85-11.94-255.18-17.91-382.77-4.9-450.68,18.08-94.41-19.63-187.91,18.43-282.15,9-22.2,35-80.67-11.81-94.95-7.69,64.46-34.8,129.11-37.44,193.56-3,73.32-4.5,146.58-12.34,220.11-4,37.29-11.25,74.67-12.3,111.85-1,34.9,1.23,69.62,2.14,104.42.69,26.07-.12,52.21-1.87,78.38,11.16,20.83,14.43,42.69,11.14,65.26-4.27,29.27-16.33,58.65-18,87.85-1.8,32,4.37,63.45,1.41,95.62-3.18,34.54-9.31,69.18-11.53,103.69-.35,5.42-5.34,9.77-12.46,12.88-.48,5.51-.88,11-1.46,16.53s-5.82,9.84-13.14,13l6.8,90.36Z"/>
    <path class="cls-8" d="M1957.38,226.24c-11.55-2.23-81.52-15.51-99.62-4.91-6.72,3.93-7.66,11.54-1.29,13.57,6.13,1.94,14.88-2.6,30.44-4.55,35-4.4,61.53,9.65,70.83,5.33C1960.09,234.59,1961.66,232.18,1957.38,226.24Z"/>
    <path class="cls-8" d="M1912.07,348c-8.92-1.43-62.79-9.78-68.53,1.06-2.13,4,1.69,11.13,7.08,12.64,5.17,1.46,8.29-3.24,17.4-5.93,20.48-6,46.19,5.47,49.8.95C1918.73,355.53,1918.36,353.21,1912.07,348Z"/>
    <path class="cls-8" d="M1951,429.94s-60-17.78-103-10.29Z"/>
    <path class="cls-8" d="M1840.58,500.2s25.7-11.51,50.73-3.83-50.08,12.48-50.08,12.48Z"/>
    <path class="cls-8" d="M1827.31,854.65c11.45,2.33,80.83,16.16,99.25,5.68,6.84-3.89,8-11.51,1.74-13.58-6-2-14.94,2.48-30.53,4.32-35,4.14-61.08-10.13-70.51-5.87C1824.89,846.28,1823.23,848.68,1827.31,854.65Z"/>
    <path class="cls-8" d="M1845.8,669.06c6.25,3.21,44.22,22.34,59,13.17,5.51-3.4,8.8-11,5.63-13.54s-10,1.38-20.21,2.06c-22.9,1.54-34.11-14.79-41.33-11.21C1847.12,660.44,1845.3,662.74,1845.8,669.06Z"/>
    <path class="cls-8" d="M1838.05,769.82s59.28,18.27,102.41,11.08Z"/>
    <path class="cls-8" d="M1953,581.08s-26,11.33-50.75,3.44,50.39-12.12,50.39-12.12Z"/>
    <path class="cls-8" d="M1971.42,1005s-8.21-21.89-80.81,4.52S1971.42,1005,1971.42,1005Z"/>
    <path class="cls-8" d="M1862,83.4l1.34,17.77a250.33,250.33,0,0,1,42.65-1c35.2,2.35,58.74,12.51,66.41,8.9,1.45-.68.72-1.09,2.42-6.25,2.64-8,5.28-9.75,4.58-11.4-1.39-3.26-15.73-5.88-71.74-3.34"/>
  </g>
  <g>
    <rect class="cls-10" x="675.16" y="802.41" width="685.95" height="81.06"/>
    <path class="cls-11" d="M1868.07,1221.23l5.21-.5a203.87,203.87,0,0,1,26.42-3.84c10.78-1,21.59-1.49,32.43-1.69V932.81H1246.18v288.65h620.76A5.65,5.65,0,0,1,1868.07,1221.23Z"/>
    <path class="cls-11" d="M182.2,1199.74c57.49,0,115,.06,172.47-.74,56.58-.78,113.18-1.74,169.77-.69,85.32,1.58,171.56,7.59,254.95,26.45V943.83h-751v255.91Z"/>
    <path class="cls-12" d="M854.08,1245.58a5.2,5.2,0,0,1,2.68,7.7q6.11-.19,12.19-.34c86.92-1.92,173.64,5.21,260.45,8,13.61.44,27.21.69,40.82.87-23.11-3.61-46.25-7.08-69.48-9.88-74.4-9-149.12-15-223.82-20.7-6.35-.49-6.5-9.9,0-10q58.67-.9,117.32-.48c140.71,1.12,281.77,8,421.22,27.52,4.8.67,4.75,8.92,0,9.64-22,3.36-44,6.33-66.11,9.08q22.43,1.37,44.83,3.15l107.06-1.87L1283.57,961,783.14,963.4,502.22,1198q11.12.11,22.22.31C635.53,1200.36,748.18,1209.92,854.08,1245.58Z"/>
    <path class="cls-12" d="M1920.67,70.93c-64.56,10-163.32,74.78-279.88,62.31-103.87-11.1-153-32-272.89-54.4,0,0-148.28-27.73-317.9-33.2-266.52-8.59-349.83,65.71-562.91,83.08-129.25,10.54-315.93.93-551-97.47V-69.33l1983.06,71Z"/>
    <path class="cls-13" d="M-11.5,778c-1.26,94.35-3.77,188.68-4.81,283h503.4Q482,774.28,476.88,487.55L-10.77,680Q-10.8,729-11.5,778Z"/>
    <path class="cls-13" d="M2161.51,1061H1632.12l10.2-573.45,465.94,367.89Z"/>
    <path class="cls-13" d="M-43.21,22.15q-3.87,336.38-7.73,672.74l30.16-9.51q0-5,0-9.93c0-6.45,10-6.44,10,0,0,2.26,0,4.52,0,6.78L487.09,525.32V128.72Zm-.95,613.54.21-545.11,195.5,35.66q1.57,223,3.14,445.93Zm261-79.62q-2-212.67-4-425.36l230.74,44.14q2,155.51,4,311Z"/>
    <path class="cls-10" d="M1053.38,31.25a1720.47,1720.47,0,0,0-566.29,97.47v396.6H570V170.85h.87c15.17-62.22,230-111.56,492.84-111.56s477.67,49.34,492.85,111.56h.86V525.32h83.36V133.24A1720.82,1720.82,0,0,0,1053.38,31.25Z"/>
    <path class="cls-13" d="M1820.86,568l-4.59-445L1935.1,76.67l1.5-60.87L1640.12,133.24q.33,196,.67,392.08l278.32,202.87q1.11-44.69,2.2-89.38ZM1654.73,445.62l2.76-261.22,113.37-42.9.79,389.33Z"/>
    <path class="cls-11" d="M1660.64,488q-302.85,17-605.69,16.48-303.71-.49-607.37-18.58L563,468l994.42,9.24Z"/>
    <rect class="cls-11" x="675.16" y="865.16" width="685.95" height="103.87"/>
  </g>
  <g id="Bagsæde">
    <path class="cls-14" d="M378.19,739l329.88,4.62V489.54l-260.49-3.69c-16.34,12.6-52.92,44.39-72.47,99.18C348.94,658.39,371.51,722,378.19,739Z"/>
    <path class="cls-14" d="M1730,741.14l-329.88,4.62V491.63L1660.64,488c16.34,12.6,52.93,44.39,72.47,99.17C1759.28,660.49,1736.71,724.1,1730,741.14Z"/>
    <path class="cls-15" d="M1411.83,743.66H692.37a573.42,573.42,0,0,1,0-254.35h719.46a490.76,490.76,0,0,1,0,254.35Z"/>
    <path class="cls-16" d="M846.4,811H673.62V731a352.06,352.06,0,0,1,208.84-5.87Z"/>
    <path class="cls-16" d="M1472,811H1256.08l-52.55-94.44a445.72,445.72,0,0,1,257.39,11.85Q1466.46,769.7,1472,811Z"/>
    <path class="cls-14" d="M839.34,811h417.38a249.77,249.77,0,0,0-16.94-41.63,238.66,238.66,0,0,0-39.22-55.1,562.37,562.37,0,0,0-318.1,11.8A155.18,155.18,0,0,0,853.2,767.7,164.49,164.49,0,0,0,839.34,811Z"/>
  </g>
  <path class="cls-17" d="M1370.37,847.38a441.58,441.58,0,0,0,88,20.93c11.86,1.55,47.22,5.67,81.59-6,7.71-2.62,16.65-6.48,22.08-15.44,8.07-13.33,3-29.19,1.51-33.55a353.62,353.62,0,0,1-3.84-67.31c1.25-32.51,6.39-48.27,8.12-68.41,2.2-25.44-3.69-72-28-119.73-48.16-3.43-93.27,2.76-141.44-.67-18.8,33.85-24.26,62.3-25.69,82.31-2.6,36.48,8.21,44.91,1.45,81.16-4.14,22.17-10.08,29.22-16.78,66.3-2.79,15.43-5.42,34.48,5,51A47.52,47.52,0,0,0,1370.37,847.38Z"/>
  <g>
    <ellipse class="cls-18" cx="806.63" cy="543.92" rx="60.11" ry="38.21"/>
    <ellipse class="cls-18" cx="784.57" cy="492.67" rx="56.86" ry="69.57"/>
    <circle class="cls-19" cx="843.63" cy="500.55" r="12.18"/>
    <circle class="cls-20" cx="846.47" cy="500.67" r="2.84"/>
    <circle class="cls-19" cx="819.28" cy="499.97" r="12.18"/>
    <circle class="cls-20" cx="823.25" cy="500.09" r="2.84"/>
    <ellipse class="cls-21" cx="848.28" cy="500.28" rx="18.34" ry="14.02"/>
    <ellipse class="cls-22" cx="813.11" cy="499.97" rx="18.34" ry="14.02"/>
    <ellipse class="cls-23" cx="831.61" cy="509.08" rx="5.96" ry="4.91"/>
    <path class="cls-24" d="M816,468.94s10.16,15.33,16.48,15.67-.57-6.33-.57-6.33,12.44,4.73,12.5,10.7,6.35-5.29,3.86-9.47-10-7.56-10-7.56a45.62,45.62,0,0,0-22.29-3Z"/>
    <path class="cls-24" d="M784.07,472.71s8.62,35.1-9.29,48.07c-2.12,1.54-6.85,3.76-7.66,2.77s2.91-4.42,4.44-11.33c.25-1.1.94-4.22.17-4.56-.94-.42-3.89,3.48-5.74,7.1-4.61,9-2.78,16.77-4.74,17.24-1,.23-2.75-1.31-6.42-9.46a62.93,62.93,0,0,1,.75,19.74c-.79,6.47-1.6,13.2-5.48,14.66,0,0-2.14.8-14.54-6.09h0s-9.26-.74-11.11-16.48,3.26-36.28,3.26-36.28a140.25,140.25,0,0,1,56.36-25.38Z"/>
    <path class="cls-25" d="M839,472.29c-16-3.76-37.5-6-59.8,1.59-26.8,9.08-45.88,29.21-51.44,24.21-1.84-1.65-.37-4.41,1.59-22.68,1.36-12.65.86-13.33,1.64-18.39.58-3.81,3.82-22.84,13.86-33,16.61-16.87,56.37-14.26,77.84,8C836.81,446.64,838.63,465.34,839,472.29Z"/>
    <path class="cls-26" d="M839,472.29c-25-5.81-43.06-3.07-54.88.42-28.29,8.35-51.89,30.2-56.36,25.38-.62-.67-.56-2.86-.43-7.25a64.39,64.39,0,0,1,1.79-13.35c10.75-7.65,38.83-25.33,76.18-23.13a111.2,111.2,0,0,1,32.32,6.87Z"/>
    <circle class="cls-26" cx="753.66" cy="412.11" r="11"/>
    <path class="cls-19" d="M817.31,556.88c2,.16,3.76-2,4-4.92s-6.9-3.47-7.14-.59S815.34,556.72,817.31,556.88Z"/>
    <rect class="cls-27" x="815.74" y="552.38" width="3.97" height="1.61" transform="translate(1586.98 1172.01) rotate(-175.26)"/>
    <path class="cls-19" d="M809.49,555.27c2,.32,3.91-1.72,4.39-4.57s-6.59-4-7.06-1.18S807.54,554.94,809.49,555.27Z"/>
    <rect class="cls-27" x="808.22" y="550.82" width="3.97" height="1.61" transform="translate(1518.57 1229.08) rotate(-170.53)"/>
    <path class="cls-19" d="M801.86,553.47c1.92.49,4-1.39,4.76-4.19s-6.23-4.56-6.94-1.76S800,553,801.86,553.47Z"/>
    <rect class="cls-27" x="800.9" y="549.09" width="3.97" height="1.61" transform="translate(1446.2 1280.08) rotate(-165.79)"/>
    <path class="cls-19" d="M793.34,550.57c1.75.93,4.26-.38,5.62-2.93s-5-5.92-6.31-3.37S791.6,549.64,793.34,550.57Z"/>
    <rect class="cls-27" x="793.21" y="546.54" width="3.97" height="1.61" transform="translate(1239.28 1404.5) rotate(-151.93)"/>
    <path class="cls-19" d="M785.59,546.29c1.54,1.24,4.26.42,6.07-1.83s-3.75-6.74-5.57-4.49S784.05,545.05,785.59,546.29Z"/>
    <rect class="cls-18" x="751.83" y="567.26" width="9.56" height="20.35" transform="translate(1123.14 1455.8) rotate(-150)"/>
    <rect class="cls-27" x="786.03" y="542.66" width="3.97" height="1.61" transform="translate(1060.04 1461.25) rotate(-141.1)"/>
    <path class="cls-28" d="M781.05,534.72c9.66,9.37,12.64,10.88,22.26,13.81,5,1.53,17.2,3.44,21.75,1.51l-1.16-2.76c-3.27,1.39-14.44,0-19.71-1.61-9.2-2.81-11.81-4.14-21.05-13.1Z"/>
  </g>
  <path class="cls-26" d="M681.27,659.48c-2.89,32.18-3.56,54.24,11.31,73.59,20.13,26.18,62.93,38.5,82,22.82,11.15-9.18,15.74-29.25,8.72-38.43-5.3-6.94-13.68-3-23-9.51-15.7-11-14.48-38-14.2-44.22,1.61-35.65,26.14-43.19,22.61-67.08-3.59-24.32-28.93-48.25-47.48-45.22C690.55,556.44,683.54,634.3,681.27,659.48Z"/>
  <path class="cls-25" d="M811.59,847.21l9.69-5.07c-1.52-15.26-3.1-28.36-4.44-38.67-5.13-39.55-8.72-52.93-19.38-63.33a49.06,49.06,0,0,0-11.08-8.1q-2,7.28-3.94,14.54c11.52,19.19,15.85,35.11,17.64,46.24,1,6.44,1.44,12.57,3.64,23.89A254.26,254.26,0,0,0,811.59,847.21Z"/>
  <path class="cls-25" d="M772.91,864.45l11.35-3.15c-3.12-18.39-4.94-33.14-6-43-2-18.31-2.38-28.85-9.54-40.86a60.54,60.54,0,0,0-12.8-15l-20.53-2.77a102.7,102.7,0,0,1,22.31,31.09c4.42,9.58,6.17,17.4,8.91,29.93A312.54,312.54,0,0,1,772.91,864.45Z"/>
  <path class="cls-25" d="M719.77,706.73a7.19,7.19,0,0,0,5.35-2.22,7.55,7.55,0,0,0,2.22-5.36,181.81,181.81,0,0,1-4.81-61.62,179.34,179.34,0,0,1,4.81-27.5,7.73,7.73,0,0,0-2.22-5.35A7.57,7.57,0,0,0,712.19,610c-.82,8.61-1.4,17.74-1.63,27.34a382.54,382.54,0,0,0,1.76,46.76C713,696.84,715.8,706.17,719.77,706.73Z"/>
  <ellipse class="cls-18" cx="724.45" cy="708.05" rx="9.9" ry="12.91" transform="translate(-215.22 329.64) rotate(-22.41)"/>
  <g>
    <ellipse class="cls-29" cx="842.75" cy="845.47" rx="12.27" ry="33.22" transform="translate(-41.57 1647.35) rotate(-87.29)"/>
    <path class="cls-30" d="M875.92,847.17c-2.56,6.9-5.89,5.48-19,8.79-5.57,1.4-25.57-.65-30.19-1.83-10.19-2.6-17.51-5.71-17.15-10.36.27-3.61,4.76-6.61,10.72-9.95,5.44-3.05,14.84-.19,23.38-.59C862.05,832.37,878.3,840.75,875.92,847.17Z"/>
    <path class="cls-30" d="M824.87,838.13l-4.31.94a3.07,3.07,0,0,1-3.63-2.19l-1.55-6.19a2.84,2.84,0,0,1,2.21-3.46l4.31-.93a3.07,3.07,0,0,1,3.63,2.19l1.55,6.18A2.84,2.84,0,0,1,824.87,838.13Z"/>
  </g>
  <g>
    <ellipse class="cls-29" cx="800.81" cy="866.61" rx="12.27" ry="33.22" transform="translate(-102.65 1625.61) rotate(-87.29)"/>
    <path class="cls-30" d="M834,868.31c-2.56,6.91-5.89,5.48-19,8.79-5.57,1.41-25.57-.65-30.2-1.83-10.19-2.6-17.5-5.71-17.15-10.36.28-3.61,4.77-6.6,10.73-9.94,5.43-3.05,14.84-.2,23.38-.6C820.11,853.52,836.36,861.9,834,868.31Z"/>
    <path class="cls-30" d="M782.93,859.28l-4.3.93A3.06,3.06,0,0,1,775,858l-1.56-6.19a2.84,2.84,0,0,1,2.22-3.46l4.3-.94a3.08,3.08,0,0,1,3.64,2.19l1.55,6.19A2.84,2.84,0,0,1,782.93,859.28Z"/>
  </g>
  <path class="cls-31" d="M1415.35,635.68c-.31,0-.62,0-.92,0-6.61-.36-86-3.14-96.73,67.33-10.22,67.45-1.69,209.73-.21,232.8a12.27,12.27,0,0,0,2,5.87c11.28,17.3,74.55,113.45,108.16,145.5,25.59,24.4,102,15.74,146.65,8.09,11.9-2,136.08-16.85,124.12-18.55-16.53-2.35-304,8.61-330.59-144.09-14.44-82.88-2.32-213,.89-221.39,7.26-18.91,20.71-27.08,20.71-27.08,10.46-6.35,21.54-6.77,28.12-6.4.37,0,.73,0,1.11,0l493.3-17.5h0c13.71,0,17-19.13,4.08-23.71l-29.54-10.46a12.12,12.12,0,0,0-4.34-.7Z"/>
  <g>
    <path class="cls-14" d="M1357.36,936.87q80.36-1.12,160.71-1.64,210.57-1.32,421.16,1.65c11.88-25.67,35.81-86.56,25.92-164.57a298.41,298.41,0,0,0-41.84-118.45l-516.13,14.8c-14.81-.55-23.78,3.61-28.65,6.63-14.66,9.08-32.87,32.89-25.31,195.48C1354.57,899.74,1356.27,923.06,1357.36,936.87Z"/>
    <path class="cls-16" d="M1511,1063.07l239.56-28.34V937.61a1252.39,1252.39,0,0,0-393.57,0,190.79,190.79,0,0,0,50,77.4C1448,1053.06,1493.89,1061,1511,1063.07Z"/>
  </g>
  <path class="cls-18" d="M1426.78,672.24l14.45-.91-.71-11.41-14.46.9Z"/>
  <g>
    <path class="cls-31" d="M1428.73,665.31c-2.55-16.95-1.61-20-4.46-28.77a68.28,68.28,0,0,0-3.88-9.46q-1-2-1.93-4.2c-.52-1.2-1-2.37-1.44-3.5-1.2-3.1-2-5.85-4.88-16.76-.58-2.18-.69-4.5-1.42-6.62a7.26,7.26,0,0,1-.42-3.75c.06-.29.12-.48.15-.6.27-1,.11-2.7-1.76-6-1.06,0-2.56,0-4.37.17-3.14.24-3.62.52-4,.88-1.77,1.76-1.51,6.24-.51,6.78a.62.62,0,0,0,.44,0c.27,3.3.52,6.67.73,10.11q.54,8.77.72,17c-.53,4.14-1,7.78-1.35,10.83a73,73,0,0,0-.85,9.1,50.72,50.72,0,0,0,1.1,9.9c1.05,6.14,1.61,12.36,2.43,18.53.78,5.87,1.89,11.69,2.6,17.57.66,5.55.75,7.59,2.3,9.26.56.61,2.23,2.14,11.56.91,7.33-1,11-1.52,12.38-4.35,1-2.21.35-4.33-.76-10.28C1430.08,676.56,1429.57,670.91,1428.73,665.31Z"/>
    <path class="cls-32" d="M1410.83,587.13c.21,1.4-1.89.72-5.89,1.32s-6.75,2.19-6.65.78c.24-3.5,2.33-3.81,6.33-4.41S1410.44,584.57,1410.83,587.13Z"/>
    <path class="cls-33" d="M1418.62,650.67a4.58,4.58,0,0,0,1.07-3.59c-.41-2.77-3.53-4.61-7-4.1s-5.86,3.19-5.44,6a4.47,4.47,0,0,0,1.76,2.88c-3.47,3.78-5.16,11.37-3.91,19.71,1.7,11.3,8.14,19.71,14.39,18.77s10-10.86,8.25-22.17C1426.56,660,1422.9,653.41,1418.62,650.67Z"/>
    <path class="cls-33" d="M1416,616.3a12.4,12.4,0,0,0-4.82,0c-6.3,1.34-9.59,7.46-10.39,9l1.26,7.61a49,49,0,0,1,7.84-5.75l.33-.19a43.55,43.55,0,0,1,8.31-3.7Z"/>
  </g>
  <g>
    <path class="cls-18" d="M1400.66,521.87c20.31,36.33,39,57.67,52,51.46,10.62-5.08,26.41-14.19,35.2-20.72,14.66-10.89,19.94-19,19.06-38.65a56.87,56.87,0,0,0-59.36-54.27c-15.44.7-21.53,8.84-33.08,19.8C1402.59,490.8,1392.87,507.94,1400.66,521.87Z"/>
    <path class="cls-34" d="M1397.36,501.5c3.87-31.17,8.13-65.58,37-83,26.16-15.79,61-10.62,83.68,4.72,39.62,26.75,43.23,84.92,27.85,123.59-18.32,46-70.7,82.44-104.94,69.82-13.14-4.84-20.47-15.76-27.57-26.33C1391,557,1395.1,519.73,1397.36,501.5Zm4.3,20.37c20.31,36.33,39,57.67,52,51.46,10.62-5.08,26.41-14.19,35.2-20.72,14.66-10.89,19.94-19,19.06-38.65a56.87,56.87,0,0,0-59.36-54.27c-15.44.7-21.53,8.84-33.08,19.8C1403.59,490.8,1393.87,507.94,1401.66,521.87Z"/>
    <rect class="cls-20" x="1393.01" y="498.28" width="51" height="40.17" rx="1.97" transform="matrix(-1, 0.04, -0.04, -1, 2858.81, 972.67)"/>
    <path class="cls-18" d="M1404.44,592.32h0c.54.51,5,.56,8.92-2C1429.25,579.94,1464,549,1464,549c4.47-4.75,3.68-12.76-1.77-17.91h0c-5.46-5.14-13.5-5.47-18-.73C1442.2,527.84,1394.43,580.68,1404.44,592.32Z"/>
    <rect class="cls-20" x="1449.43" y="494.75" width="51" height="40.17" rx="1.97" transform="translate(2971.45 963.09) rotate(177.43)"/>
    <path class="cls-35" d="M1478.33,673.29c9.74-1.13,11.32-.16,21.11-1.91,10.26-1.83,15.53-2.78,22.2-5.92a62.71,62.71,0,0,0,23.07-18.94c1.67-2.21.15-.52,9-15,4.85-7.94,6.54-10.23,6.75-14a20.71,20.71,0,0,0-5.11-14.65l-2.52-2.83a20.27,20.27,0,0,0-28.63-1.64,78.54,78.54,0,0,1-12.52,22.42c-24.92,31-66,32.08-74.45,32.12-.93,16.93,3,22.95,6.89,25.26C1450.36,681.94,1456.13,675.86,1478.33,673.29Z"/>
    <ellipse class="cls-18" cx="1415.34" cy="664.61" rx="14.15" ry="16.37" transform="translate(533.79 1956.04) rotate(-80.84)"/>
    <path class="cls-35" d="M1450.11,568.14c3.28-3.63,6.88-5.73,8-4.68s-.55,4.85-3.83,8.48-6.88,5.72-8,4.67S1446.83,571.77,1450.11,568.14Zm2.77,4.07c1.87-2.07,2.85-4.23,2.18-4.83s-2.71.59-4.58,2.66-2.85,4.24-2.18,4.83S1451,574.28,1452.88,572.21Z"/>
    <path class="cls-35" d="M1446,567.08c-2.85-4-6.2-6.46-7.47-5.55s0,4.88,2.87,8.86,6.2,6.45,7.47,5.54S1448.82,571.05,1446,567.08Zm-3.2,3.74c-1.63-2.27-2.36-4.53-1.63-5.05s2.63.9,4.25,3.16,2.36,4.52,1.64,5S1444.38,573.08,1442.76,570.82Z"/>
    <rect class="cls-20" x="1443.73" y="518.38" width="6.55" height="2.92" transform="translate(2915.83 974.34) rotate(177.43)"/>
  </g>
  <rect class="cls-18" x="955.17" y="394.82" width="159.32" height="130.64"/>
  <path class="cls-36" d="M1114.49,394.82c-27.9,1.19-57.58,1.54-88.86.72-26.37-.7-51.54-2.17-75.4-4.19a112.57,112.57,0,0,1-1.78-21.15c.13-12.69.24-23.46,6.91-33.41,2.29-3.41,7.72-10.26,19-15a375.84,375.84,0,0,1,115.86,7.6,9.61,9.61,0,0,1,6.57,5.16,189.77,189.77,0,0,1,17.69,60.24Z"/>
  <path class="cls-37" d="M989.81,394.82s-37.18-8.1-55.92-15.62c-17.22-6.92-34.39-18.39-45.85-25.66-.75,1.55.52,12.52,1.75,15.61,4.82,12.15,15.5,15.83,37,31.68a293,293,0,0,1,28.41,23.11c-.2-1.9.34-8.72.07-11.74a15.5,15.5,0,0,1,5.45-13C969,392.47,989.81,394.82,989.81,394.82Z"/>
  <path class="cls-18" d="M990,717.76l-18.1,4c-8.78-23.29-16.7-41.77-22.07-53.85-20.9-47-32.46-63.13-33.77-91.4a118.59,118.59,0,0,1,6.38-43.55l40.24-.53q7.5,63.52,18,130.18Q985.21,690.53,990,717.76Z"/>
  <path class="cls-36" d="M1025.41,730.65l-21.58,49a2.52,2.52,0,0,0,1.49,3.42,117.85,117.85,0,0,0,46.09,5.91,2.53,2.53,0,0,0,1.9-3.94c-5.26-7.94-5.08-16.24-1.23-19.89,3.42-3.23,11.33-4.32,15,.34,2.33,2.93,2.49,7.54.25,11.4a2.54,2.54,0,0,0,2,3.85,96,96,0,0,0,45.73-8,2.54,2.54,0,0,0,1.22-3.46l-19.78-39.1a2.53,2.53,0,0,0-2.27-1.39l-66.5.32A2.5,2.5,0,0,0,1025.41,730.65Z"/>
  <path class="cls-17" d="M916.39,519.09c7.27-12.39,31.4-13.18,42-12.25,15.64,1.36,17.36,7.93,39.9,13.7a134.77,134.77,0,0,0,44.17,3.89c10.1-.82,24.85-2,39.07-9.54,31.09-16.42,27.11-45.81,52.4-57,15.15-6.71,41-7,50.85,5.63,26.22,33.49-90.61,119.4-68.38,215.89,2.47,10.74,11.16,30.91,1.5,43-7.9,9.84-24.33,10-52.3,10.4-21.82.28-32.73.41-40.08-2.57-26.6-10.79-24.88-44.9-44-92C952,565.3,904.46,539.41,916.39,519.09Z"/>
  <path class="cls-36" d="M888.1,353c.45-1.38,4.45-4.11,78.5,11.68,52.12,11.11,94.25,21.87,122.43,29.44-31.85,5.45-80.07,9-133.64-7.48C921.31,376.19,886.45,358,888.1,353Z"/>
  <ellipse class="cls-37" cx="1028.48" cy="785.02" rx="6.35" ry="24.65" transform="translate(104.54 1690.75) rotate(-81.78)"/>
  <ellipse class="cls-37" cx="1092.03" cy="775.89" rx="24.65" ry="6.35" transform="translate(-103.09 170.72) rotate(-8.54)"/>
  <path class="cls-17" d="M1136.35,864a59.64,59.64,0,0,0-1.72-10.51c-1.77-6.79-4.47-10.91-5.09-12.53-4.76-12.46-6.91-22.56-16.51-50.33-1.81-5.21-4.55-12.82-8.28-22-2.33,0-4.84.05-7.5.25a85.21,85.21,0,0,0-10.35,1.45c3.14,6.1,6.26,12.55,9.31,19.32q3,6.68,5.64,13.11s13.27,31.75,18.27,53.44c.12.55.23,1,.31,1.37,1.6,7.26,2.61,13.33,3.19,17.19l.28-.23c.6,6.24,1.09,11.77,1.47,16.42,1.23,14.71,1.36,19.38,1.32,23.81-.06,9.35-.83,14.68-1.94,25.92-.79,8.12-1.8,19.68-2.6,33.92h13.62a629.8,629.8,0,0,0,1.82-92.69Q1137.1,872.72,1136.35,864Z"/>
  <path class="cls-17" d="M1022.48,778.07c-.71,1.32-1.41,2.68-2.11,4.06-1.56,3.1-3,6.14-4.25,9.09,0,0-12.9,28-25,63.43-.35,1-1,2.88-1.59,5.45-2.85,12-1.5,22.87-1,27.34,1.64,15.15,1,29.76-.38,58.95-.54,11.48-1.41,20.69-2,26.22l17.24,1.77c-.6-4.06-1.45-10.49-2.1-18.46-.41-5-1.86-24.21.95-64.61.47-6.71,1.16-15.48,2.18-25.78,1.11-4,2.07-7.68,2.87-10.8,2.86-11.06,4-16.51,7.13-25,.27-.76.56-1.53.88-2.35,1.58-4,3.07-7.42,4.4-10.26,1.51-3.22,2.82-5.75,3.52-7.07.23-.45.41-.78.44-.85,1.22-2.27,5-10.11,13.92-28.87-2.6-.54-5.36-1-8.29-1.44C1027,778.51,1024.66,778.26,1022.48,778.07Z"/>
  <circle class="cls-18" cx="947.63" cy="464.08" r="11.88"/>
  <circle class="cls-18" cx="1122.21" cy="447.81" r="12.34"/>
  <circle class="cls-19" cx="1057.11" cy="437.25" r="16.03"/>
  <circle class="cls-20" cx="1051.58" cy="438.06" r="3.74"/>
  <path class="cls-19" d="M1035.68,438.06a16,16,0,1,1-16-16A16,16,0,0,1,1035.68,438.06Z"/>
  <circle class="cls-20" cx="1014.12" cy="438.88" r="3.74"/>
  <path class="cls-28" d="M1034,450.05a28.11,28.11,0,0,1,11.47,2.2l-1.56,2.67c-5.92-2.32-11.16-2.55-15.16-.65a9.76,9.76,0,0,0-5.72,7c-.18,1.45,1.63,5.41,5.72,7.8,3.46,2,7.33,2.21,11.53.56l1.48,2.67c-6.79,2.66-11.94,1-15.08-.8-4.73-2.77-7.54-7.66-7.18-10.49s2.53-6.92,7.52-9.29A18,18,0,0,1,1034,450.05Z"/>
  <path class="cls-28" d="M1049.76,501.39c-13-.62-16.1-1.72-24.57-6.58-4.39-2.53-13.85-9.9-15.51-14.4l2.73-1c1.19,3.24,9.59,10.22,14.23,12.88,8.1,4.65,10.77,5.61,23.26,6.2Z"/>
  <path class="cls-23" d="M1073.14,437.25c0,.54-32.06.57-32.06,0a16,16,0,0,1,32.06,0Z"/>
  <path class="cls-23" d="M1035.68,437.65c0,.54-32.06.57-32.06,0a16,16,0,1,1,32.06,0Z"/>
  <path class="cls-18" d="M1003.12,732.14c-1.51,1.09-5-3.29-10.16-6-5.47-2.86-12.41-2.79-25.82,1.94a4.87,4.87,0,0,1-2.9.12c-2.45-.69-6.78-2.25-7.1-3.83-.11-.54.05-1.56,2.58-3.39,7.57-5.5,21.62-7.56,33.72-3.39a14.94,14.94,0,0,1,6,3.55C1003.18,725,1004.66,731,1003.12,732.14Z"/>
  <g>
    <ellipse class="cls-38" cx="967.51" cy="981.36" rx="36.38" ry="13.44" transform="translate(-51.66 53.77) rotate(-3.1)"/>
    <path class="cls-37" d="M931.19,983.47c2.86,7.54,6.49,5.95,20.87,9.48,6.12,1.5,28-.9,33.06-2.23,11.14-2.93,19.13-6.39,18.71-11.48-.33-4-5.27-7.2-11.82-10.81-6-3.3-16.26-.1-25.62-.47C946.27,967.16,928.54,976.46,931.19,983.47Z"/>
    <path class="cls-37" d="M974.81,972.09l4.82-.07a3.36,3.36,0,0,0,3.33-3.24l.11-7a3.11,3.11,0,0,0-3.22-3.14l-4.83.08a3.36,3.36,0,0,0-3.33,3.24l-.11,7A3.12,3.12,0,0,0,974.81,972.09Z"/>
  </g>
  <g>
    <ellipse class="cls-38" cx="1145.33" cy="986.71" rx="13.44" ry="36.38" transform="translate(-69.92 1885.91) rotate(-77.24)"/>
    <path class="cls-37" d="M1180.78,994.89c-4.08,7-7.39,4.78-22.16,5.84-6.28.46-27.46-5.58-32.22-7.74-10.49-4.75-17.79-9.5-16.52-14.45,1-3.84,6.4-6.22,13.47-8.68,6.45-2.25,16,2.63,25.33,3.83C1168.65,976.28,1184.57,988.42,1180.78,994.89Z"/>
    <path class="cls-37" d="M1140.89,974.22l-4.82-.23a3.36,3.36,0,0,1-3.22-3.35l.12-7a3.1,3.1,0,0,1,3.32-3l4.82.23a3.36,3.36,0,0,1,3.22,3.35l-.11,7A3.11,3.11,0,0,1,1140.89,974.22Z"/>
  </g>
  <path class="cls-36" d="M1054,329.4l-12.08-1.75a2.28,2.28,0,0,1-1.92-2.58l1.12-7.76c.18-1.25,1.27-2.1,2.29-1.65l5.58,1.62a2.83,2.83,0,0,0,.58.11l5.82.51c1.47-.09,2.49.57,2.31,1.81l-1.12,7.76A2.28,2.28,0,0,1,1054,329.4Z"/>
  <g>
    <path class="cls-14" d="M681.8,936.87q-80.37-1.12-160.72-1.64-210.57-1.32-421.15,1.65C88,911.21,64.11,850.32,74,772.31a298.43,298.43,0,0,1,41.83-118.45L632,668.66c14.8-.55,23.77,3.61,28.65,6.63,14.66,9.08,32.87,32.89,25.3,195.48C684.58,899.74,682.89,923.06,681.8,936.87Z"/>
    <path class="cls-31" d="M622.81,635.68c.31,0,.61,0,.92,0,6.6-.36,86-3.14,96.72,67.33,10.23,67.45,1.69,209.73.21,232.8a12.06,12.06,0,0,1-1.95,5.87c-11.27,17.3-74.54,113.45-108.16,145.5-25.59,24.4-102,15.74-146.64,8.09-11.38-2-125.22-15.56-124.94-18.25,0-.19.57-.27.81-.3,15.35-2.18,135.17-2.23,197.42-21.08,0,0,43.53-13.19,105.64-74.22,20-19.68,25-37.19,26.29-42.53.71-2.9,1.07-5.15,1.25-6.26,13-81.26,17-174.75-.9-221.39-7.25-18.91-20.7-27.08-20.7-27.08-10.47-6.36-21.55-6.77-28.12-6.4-.38,0-.74,0-1.11,0l-493.31-17.5h0c-13.71,0-17-19.13-4.07-23.71l29.53-10.46a12.4,12.4,0,0,1,4.35-.7Z"/>
    <path class="cls-16" d="M516.17,1063.07l-239.55-28.34V937.61a1252.33,1252.33,0,0,1,393.56,0,190.57,190.57,0,0,1-50,77.4C579.17,1053.06,533.26,1061,516.17,1063.07Z"/>
  </g>
  <g>
    <path class="cls-31" d="M389.54,747c8.63-.48,23.15.06,36.86,8.39,0,0,17.63,10.71,27.13,35.49,4.21,11,20.1,181.53,1.18,290.15-9.19,52.72-42.1,90.56-86,117.74,25.77-.36,51.54-.71,77.31-.86,33-45.45,63.6-92.08,72-105a16,16,0,0,0,2.56-7.69c1.94-30.24,13.13-216.71-.28-305.11-14-92.36-118.11-88.7-126.76-88.24-.4,0-.8,0-1.2,0L-10.77,683q0,24.94-.25,49.88l399.11,14.16C388.58,747.06,389.06,747.06,389.54,747Z"/>
    <path class="cls-14" d="M440.62,743.81c-6.39-4-18.14-9.41-37.55-8.69l-414-11.87q-.2,27.36-.56,54.72c-1.37,102.07-4.18,204.13-5,306.2q137.13-.53,274.27.31,105.3.66,210.62,2.15c1.43-18.1,3.66-48.67,5.42-86.64C483.7,786.91,459.83,755.7,440.62,743.81Z"/>
    <path class="cls-16" d="M-10,1199.74H182.2c57.49,0,115,.06,172.47-.74l37.8-.52q5.43-4.47,10.8-9.45c40.2-37.34,58-79.41,65.6-101.44a1640.82,1640.82,0,0,0-485.39-4.53c0,2.21,0,4.41-.05,6.62C-9.37,1126-9.31,1162.87-10,1199.74Z"/>
  </g>
  <g>
    <path class="cls-31" d="M2310.63,662.48l-38.71-13.71a16,16,0,0,0-5.7-.92L1654.5,661.34c-.4,0-.8,0-1.2,0-8.65-.46-112.76-4.11-126.76,88.24-13.41,88.4-2.22,274.87-.28,305.11a15.86,15.86,0,0,0,2.56,7.69c14.77,22.67,97.69,148.69,141.75,190.69a54.21,54.21,0,0,0,14.81,9.73q24-.43,47.9-.07a658.9,658.9,0,0,1,100.61-10.91c19.26-7.6,38.75-14.56,58.57-20.28-3.45-.4-7-.82-10.46-1.26-2.76.2-5.51.42-8.27.6-3.27.83-6.52,1.77-9.7,2.88-4.5,1.56-7.09-3.28-5.72-6.77-113.49-17.4-246.14-61.6-266.15-176.47-18.93-108.62-3-279.19,1.17-290.15,9.51-24.78,27.14-35.49,27.14-35.49,13.71-8.33,28.23-8.87,36.85-8.39a14.22,14.22,0,0,0,1.46,0l646.5-22.94h0C2323.26,693.55,2327.56,668.49,2310.63,662.48Z"/>
    <path class="cls-14" d="M1578.51,1056.07q105.32-1.48,210.62-2.14,276-1.74,552,2.15c15.57-33.64,46.93-113.44,34-215.68a390.93,390.93,0,0,0-54.82-155.23l-676.43,19.4c-19.41-.73-31.16,4.73-37.55,8.68-19.21,11.9-43.08,43.1-33.17,256.19C1574.85,1007.4,1577.08,1038,1578.51,1056.07Z"/>
    <path class="cls-16" d="M1643.6,1158.48c53.68,49.87,113.84,60.26,136.24,63l257.5-30.46,1.8-.5q5.82-3.18,11.74-6.19c3.16-1.59,7.64.91,7.76,4.17l35.16-4.16V1057a1641.47,1641.47,0,0,0-515.8,0C1585.58,1079.06,1603.4,1121.13,1643.6,1158.48Z"/>
  </g>
  <g id="a8H7DY.tif">
    <g>
      <path class="cls-18" d="M537.09,619.24c-4.94,48.9-52,84.23-127.4,78-7.16-.6-20.76-1.28-37.29-6.55-41.65-13.27-93.75-51.83-90.28-93.39,4.09-49,83.85-82.3,145.49-77.16C503,526.38,542,570.33,537.09,619.24Z"/>
      <ellipse class="cls-18" cx="367.93" cy="512.27" rx="107.17" ry="137.44" transform="translate(-87.17 75.61) rotate(-10.5)"/>
      <ellipse class="cls-19" cx="443.62" cy="511.46" rx="43.83" ry="39.79"/>
      <ellipse class="cls-20" cx="457.54" cy="509.79" rx="10.22" ry="9.28"/>
      <ellipse class="cls-19" cx="383.26" cy="518.69" rx="43.83" ry="39.79"/>
      <ellipse class="cls-20" cx="404.43" cy="518.19" rx="10.22" ry="9.28"/>
      <g>
        <ellipse class="cls-39" cx="261.78" cy="628.2" rx="42.27" ry="30.88" transform="translate(-55.67 26.21) rotate(-5.18)"/>
        <ellipse class="cls-39" cx="246.86" cy="598.87" rx="42.27" ry="30.88" transform="translate(-53.08 24.74) rotate(-5.18)"/>
        <path class="cls-39" d="M234.56,594.89C237,611.78,220.21,627.73,197,630.5s-43.95-8.67-46.4-25.56,13.61-37.86,36.79-40.63S232.1,578,234.56,594.89Z"/>
        <ellipse class="cls-39" cx="259.93" cy="591.85" rx="33.04" ry="49.18" transform="translate(-296.99 263.7) rotate(-35.78)"/>
        <ellipse class="cls-39" cx="157.1" cy="545.21" rx="40.86" ry="31.95" transform="translate(-261.13 161.78) rotate(-31.41)"/>
        <ellipse class="cls-39" cx="137.78" cy="477.86" rx="39.02" ry="50.29" transform="translate(-358.6 508.53) rotate(-77.45)"/>
        <ellipse class="cls-39" cx="150.73" cy="428.28" rx="39.73" ry="49.39" transform="translate(-301.39 386.6) rotate(-65.34)"/>
        <ellipse class="cls-39" cx="228.41" cy="293.4" rx="81.41" ry="61.85" transform="translate(-98.33 115.93) rotate(-23.59)"/>
        <ellipse class="cls-39" cx="360.28" cy="286.95" rx="83.16" ry="60.54" transform="translate(-7.07 9.11) rotate(-1.43)"/>
        <ellipse class="cls-39" cx="397.72" cy="340.44" rx="83.16" ry="60.54" transform="translate(-8.4 10.06) rotate(-1.43)"/>
        <ellipse class="cls-39" cx="288.88" cy="372.02" rx="83.16" ry="60.54" transform="translate(-9.22 7.35) rotate(-1.43)"/>
        <ellipse class="cls-39" cx="227.73" cy="415.95" rx="83.16" ry="60.54" transform="matrix(1, -0.03, 0.03, 1, -10.34, 5.83)"/>
        <ellipse class="cls-39" cx="207.14" cy="472.46" rx="83.16" ry="60.54" transform="translate(-11.76 5.33) rotate(-1.43)"/>
        <ellipse class="cls-39" cx="214.24" cy="535.27" rx="51.25" ry="55.2" transform="translate(-96.84 49.84) rotate(-10.84)"/>
        <ellipse class="cls-39" cx="490.7" cy="299.82" rx="58.74" ry="49.46" transform="translate(-4.68 7.81) rotate(-0.91)"/>
        <ellipse class="cls-39" cx="539.62" cy="355.61" rx="51.52" ry="40.87" transform="translate(-7.36 11.42) rotate(-1.2)"/>
        <ellipse class="cls-39" cx="482.61" cy="389.4" rx="44.92" ry="46.88" transform="translate(-86.58 143.3) rotate(-15.52)"/>
        <ellipse class="cls-39" cx="424.2" cy="404.12" rx="34.95" ry="31.73"/>
        <ellipse class="cls-39" cx="378.63" cy="413.31" rx="29.07" ry="31.77" transform="translate(-64.9 70.57) rotate(-9.81)"/>
        <ellipse class="cls-39" cx="326.58" cy="432.88" rx="32.49" ry="28.43" transform="translate(-215.59 423.55) rotate(-51.98)"/>
        <ellipse class="cls-39" cx="289.76" cy="469.74" rx="29.1" ry="31.74" transform="translate(-35.27 23.68) rotate(-4.41)"/>
        <ellipse class="cls-39" cx="268.58" cy="515.16" rx="26.15" ry="31.81" transform="translate(-95.48 62.41) rotate(-11.27)"/>
        <ellipse class="cls-39" cx="149.97" cy="370.11" rx="52.06" ry="64.63" transform="translate(-248.99 352.65) rotate(-65.44)"/>
      </g>
      <ellipse class="cls-18" cx="253.39" cy="570.39" rx="31.73" ry="27.48" transform="translate(-24.61 11.58) rotate(-2.5)"/>
      <path class="cls-40" d="M290.55,1177.06c6,6.81,10.05,13.5,13.61,19.29q35.85-.07,71.69-.4c11.51-5.81,20.45-12.45,19.62-19.08-.35-2.79-5.88-7.21-16.94-16-11.84-9.46-16.41-11.57-15.92-15,.7-4.86,10.42-3.9,20.91-12.92,8.18-7,8-12.52,12-12.64,6.26-.18,7.94,12.82,22.91,28.25,6.65,6.85,10,10.28,15.43,11.22,10.19,1.75,19.42-6.29,35.82-21,13-11.59,19.46-17.39,20-23.67.94-11.06-10.51-19.28-29.33-34.1-13.06-10.29-31.53-25.22-53.6-44.46-2.93-2.38-49-38.92-94.75-25.84-47.31,13.52-80.83,76.2-54,142.3C274.81,1161.22,284.73,1170.47,290.55,1177.06Z"/>
      <path class="cls-28" d="M454.84,638.83c-22.84,1.75-28.39.64-44.25-5.28-8.22-3.07-26.37-12.75-30.29-19.51l4.51-2.16c2.82,4.87,19,14.14,27.73,17.38,15.14,5.66,20,6.62,41.87,5Z"/>
      <path class="cls-28" d="M458.38,585.24c-4.44.53-10,.1-16.78-2.21l1.78-4.34c8.86,3,16.39,2.81,21.8-.58,4.81-3,7-7.94,7-11.5,0-2.28-3.23-8.27-9.49-11.57-5.28-2.78-10.86-2.66-16.59.36l-2.56-4c9.27-4.88,16.92-2.89,21.72-.36,7.23,3.82,12.06,11.15,12,15.61a19,19,0,0,1-9.22,15.29A23.37,23.37,0,0,1,458.38,585.24Z"/>
      <path class="cls-18" d="M320.27,660.81a161.92,161.92,0,0,1,7.2,29.33,159.25,159.25,0,0,1,1.65,28.33c3,10.07,12.66,17.4,24,18.32,11.62.94,22.72-5,27.5-14.74a27.9,27.9,0,0,1-5.19-5.75c-7.05-10.44-4.12-22.12-3.07-25.66Q346.33,675.73,320.27,660.81Z"/>
      <path class="cls-18" d="M442,1045.07c-.15.92-1.41,9.81,5.64,15.83,6.7,5.72,16.59,5.16,22.69,2.26,9.49-4.52,14.25-16.83,9.29-28.91-.91-4.51-2.21-11-3.74-18.83-3-15.25-3.43-18-3.79-21-.66-5.56-.88-10.46-.66-23.84.29-17.07.87-23.43,1.07-31.78.43-18.69-2.11-25-2.49-41.32a335.3,335.3,0,0,1,3.16-54.35L434.24,857c2.92,30.82,3.93,55.62,4.31,73,.44,20.89-.18,24.69,1.49,36.18,3.31,22.77,9.36,32.61,8.32,51.32A84.17,84.17,0,0,1,442,1045.07Z"/>
      <path class="cls-41" d="M380.66,722.05a24.87,24.87,0,0,1-11.32,12.23c-11.36,5.86-23.63,1-25.6.14-12.9-5.4-11.12-15.12-19.63-17.71-19.74-6-52.39,39.27-54.34,42a155.37,155.37,0,0,0-18.11,33.47c-3.72,42.64-5.86,89.05-5.39,138.75.43,47,3.14,91,7.25,131.56,63.43-4.34,98.52,3.25,119.08,11.59a137.72,137.72,0,0,0,40.85,10.57,140.17,140.17,0,0,0,46.93-3.64c-.58-8-1.36-19.56-2.08-33.54-2.21-42.45-3.37-64.85-1.95-87.63,3.09-49.65-7.52-63.32-6.32-108.24.22-8.23,23.12-21.61,10.71-60.12-6.67-20.72-11.37-34.66-25.55-47.36C416.05,727,392,723.13,380.66,722.05Z"/>
      <path class="cls-18" d="M368.68,1069.86c.32.88,3.21,9.46-2.63,16.46-5.55,6.66-15.4,7.62-22,5.69-10.18-3-17.15-14.42-14.5-27.09.07-4.58.15-11.17.22-19.13.13-15.49,0-18.3-.16-21.32-.37-5.58-1.07-10.44-3.76-23.6-3.44-16.79-5.19-23-6.92-31.17-3.88-18.35-2.55-24.94-5.19-41.11a338.93,338.93,0,0,0-13.16-53.09l41,7.8c2.83,30.83,6.41,55.44,9.26,72.66,3.42,20.67,4.74,24.32,5.21,35.9.95,22.95-3.19,33.57,1.29,51.86A87.16,87.16,0,0,0,368.68,1069.86Z"/>
      <path class="cls-42" d="M304.62,784.16c-18.59,9-22.44,45.07-8.91,91.25l54.85,9.23c4.62-53.64-6-94.63-28.27-101.58C321.27,782.74,312.78,780.22,304.62,784.16Z"/>
      <path class="cls-42" d="M443.84,755c-4.9.68-3.8,30.6-2.77,44.61a275.83,275.83,0,0,0,9,52c3.61,1.5,0,.72,8.43.79A49.47,49.47,0,0,0,475,849.66c-5.12-25.69-13.18-59.44-24.33-84.8C448.62,760.09,446,754.65,443.84,755Z"/>
      <path class="cls-28" d="M339.23,489.77a2.12,2.12,0,0,1-1-.49c-.67-.75-1.21-1.3-.47-2.49a54.76,54.76,0,0,1,23.17-20.92s12.47-5.81,34.7-2.65c.42.06,1.64.23,2,1a1.36,1.36,0,0,1-.52,2c-3,2.17-23.23-1.9-34.9,3.23C350.26,474.51,341.57,490.15,339.23,489.77Z"/>
      <path class="cls-28" d="M459.2,449.32c-5.9,0-16.62-1-23.53,2-9.41,4-16.25,16.33-18.1,16a1.65,1.65,0,0,1-.8-.39c-.52-.59-.95-1-.36-2a43.13,43.13,0,0,1,18.25-16.48s8.16-3.8,22.86-2.59"/>
    </g>
  </g>
  <rect class="cls-33" x="161.75" y="40.93" width="407.34" height="136.06" rx="68.03"/>
  <g>
    <rect class="cls-43" x="1763.27" y="501.36" width="74.8" height="520.33" rx="37.4"/>
    <rect class="cls-33" x="1768.81" y="512.38" width="63.71" height="498" rx="29.27"/>
    <rect class="cls-44" x="1768.81" y="719.82" width="63.71" height="290.57" rx="29.27"/>
    <ellipse class="cls-19" cx="1787.2" cy="741.99" rx="18.39" ry="13.66"/>
    <circle class="cls-19" cx="1782.68" cy="730.84" r="10.05"/>
    <ellipse class="cls-19" cx="1805.59" cy="722.96" rx="12.86" ry="14.95" transform="translate(-37.34 101.31) rotate(-3.18)"/>
    <circle class="cls-19" cx="1792.03" cy="722.47" r="8.37"/>
    <circle class="cls-19" cx="1811.27" cy="740.89" r="9.42"/>
    <circle class="cls-19" cx="1821.81" cy="731.55" r="10.54"/>
    <circle class="cls-45" cx="1782.79" cy="783.58" r="4.41"/>
    <circle class="cls-45" cx="1817.34" cy="784.86" r="1.29"/>
    <circle class="cls-45" cx="1824.83" cy="747.56" r="1.29"/>
    <circle class="cls-45" cx="1811.27" cy="770.66" r="1.29"/>
    <circle class="cls-45" cx="1794.82" cy="793.82" r="2.09"/>
    <circle class="cls-45" cx="1814.6" cy="767.73" r="2.09"/>
    <circle class="cls-45" cx="1781.02" cy="817.08" r="2.64"/>
    <circle class="cls-45" cx="1789.96" cy="822.49" r="2.77"/>
    <circle class="cls-45" cx="1781.9" cy="824.37" r="0.89"/>
    <circle class="cls-45" cx="1819.57" cy="819.32" r="2.23"/>
    <circle class="cls-45" cx="1808.43" cy="848.38" r="2.84"/>
    <circle class="cls-45" cx="1803.6" cy="851.58" r="3.2"/>
    <circle class="cls-45" cx="1816.7" cy="855.43" r="0.64"/>
    <circle class="cls-45" cx="1780.14" cy="874.81" r="1.76"/>
    <circle class="cls-45" cx="1793.44" cy="880.05" r="3.48"/>
    <circle class="cls-45" cx="1818.22" cy="906.06" r="4.41"/>
    <circle class="cls-45" cx="1808.43" cy="903.46" r="2.09"/>
    <circle class="cls-45" cx="1787.28" cy="937.08" r="2.64"/>
    <circle class="cls-45" cx="1781.94" cy="932.07" r="2.77"/>
    <circle class="cls-45" cx="1785.84" cy="929.89" r="0.89"/>
    <circle class="cls-45" cx="1806.8" cy="945.16" r="2.64"/>
    <circle class="cls-45" cx="1805.37" cy="937.97" r="0.89"/>
    <circle class="cls-45" cx="1820.46" cy="929.47" r="2.23"/>
    <circle class="cls-45" cx="1796.92" cy="963.15" r="2.84"/>
    <circle class="cls-45" cx="1792.09" cy="966.36" r="3.2"/>
    <circle class="cls-45" cx="1817.58" cy="965.58" r="0.64"/>
    <circle class="cls-45" cx="1781.02" cy="984.96" r="1.76"/>
    <circle class="cls-45" cx="1794.32" cy="990.2" r="3.48"/>
    <rect class="cls-46" x="1768.37" y="597.76" width="64.15" height="6.19" rx="3.09"/>
  </g>
  <g>
    <circle class="cls-44" cx="503.61" cy="107.42" r="47.68"/>
    <path class="cls-47" d="M513.4,149.66a209.54,209.54,0,0,1-26.72-21c-12-11.19-23.15-23.52-27.33-39A47.71,47.71,0,0,0,518,152.89C516.45,151.76,514.92,150.67,513.4,149.66Z"/>
    <circle class="cls-43" cx="222.93" cy="103.47" r="47.68"/>
    <path class="cls-48" d="M225.78,150.68c-.83-1.07-1.64-2.16-2.43-3.24-12.22-7.56-21.35-21.16-27.09-33.81-6.26-13.82-9-29.2-7-43.95a47.69,47.69,0,0,0,33.64,81.48c1.07,0,2.14,0,3.2-.12A4,4,0,0,1,225.78,150.68Z"/>
    <ellipse class="cls-49" cx="228.19" cy="81.57" rx="11.36" ry="9.83"/>
    <ellipse class="cls-49" cx="197.32" cy="105.63" rx="7.57" ry="8.97"/>
    <path class="cls-50" d="M191.51,101c-.1-.31-.19-.57-.25-.74a9.84,9.84,0,0,0-1.11,2.49,10.86,10.86,0,0,0-.4,2.87c0,.91,0,5.19,3.22,7.54a7.54,7.54,0,0,0,3.72,1.39c-2.66-3.82-3.54-6.3-3.82-7.9A40.37,40.37,0,0,0,191.51,101Z"/>
    <circle class="cls-49" cx="248.36" cy="122.42" r="3.67"/>
    <ellipse class="cls-49" cx="234.69" cy="120.35" rx="7.7" ry="9.86"/>
    <path class="cls-43" d="M362.75,61.77h-.3c-38.51.13-69.67,25.86-69.67,57.58A49.24,49.24,0,0,0,300,144.77c4,0,32.21,2.67,33.27-5.89-4-2.2-10.33-11.51-9.13-18.66,3-18.07,18.75-30,38.5-30.32,19.75.32,35.45,12.25,38.5,30.32,1.2,7.15-5.13,16.46-9.13,18.66,1.06,8.56,29.28,5.93,33.27,5.89a49.24,49.24,0,0,0,7.18-25.42C432.42,87.63,401.26,61.9,362.75,61.77Z"/>
    <polygon class="cls-20" points="306.01 132.26 306.01 129.94 301.98 133.35 306.01 136.56 306.01 134.24 326.35 134.24 326.35 132.26 306.01 132.26"/>
  </g>
  <g>
    <rect class="cls-33" x="640.12" y="40.38" width="455.98" height="136.06" rx="68.03"/>
    <g>
      <path class="cls-18" d="M773.12,142.8c-2.21,9.74-11.75,15.72-25.38,12.64a26.6,26.6,0,0,1-6.65-2.22c-7.26-3.68-15.77-12.71-14-21,2.05-9.77,17.53-14.55,28.66-12C769.35,123.28,775.32,133.07,773.12,142.8Z"/>
      <ellipse class="cls-18" cx="745.02" cy="117.17" rx="19.82" ry="27.87"/>
      <circle class="cls-19" cx="758.88" cy="118.84" r="8.09"/>
      <circle class="cls-20" cx="761.47" cy="118.84" r="1.89"/>
      <circle class="cls-19" cx="747.65" cy="118.84" r="8.09"/>
      <circle class="cls-20" cx="751.53" cy="119.25" r="1.89"/>
      <g>
        <ellipse class="cls-39" cx="722.52" cy="137.97" rx="7.81" ry="6.27"/>
        <ellipse class="cls-39" cx="720.57" cy="131.7" rx="7.81" ry="6.27"/>
        <path class="cls-39" d="M718.42,130.6c0,3.46-3.49,6.27-7.8,6.27s-7.81-2.81-7.81-6.27,3.49-7.3,7.81-7.3S718.42,127.14,718.42,130.6Z"/>
        <ellipse class="cls-39" cx="723.15" cy="130.6" rx="6.27" ry="9.72" transform="translate(3.49 279.24) rotate(-21.91)"/>
        <ellipse class="cls-39" cx="705.58" cy="118.72" rx="7.81" ry="6.27" transform="translate(62.94 433.29) rotate(-35.63)"/>
        <ellipse class="cls-39" cx="703.83" cy="104.69" rx="7.87" ry="9.34" transform="translate(290.02 683.56) rotate(-62.9)"/>
        <ellipse class="cls-39" cx="707.52" cy="95.01" rx="7.87" ry="9.34" transform="translate(140.04 528.12) rotate(-45)"/>
        <ellipse class="cls-39" cx="725.31" cy="69.71" rx="15.35" ry="12.3" transform="translate(41.24 320.67) rotate(-25.64)"/>
        <ellipse class="cls-39" cx="749.6" cy="71.59" rx="12.3" ry="15.35" transform="translate(607.33 811.05) rotate(-84.57)"/>
        <ellipse class="cls-39" cx="755.03" cy="83.27" rx="12.3" ry="15.35" transform="translate(600.62 827.02) rotate(-84.57)"/>
        <ellipse class="cls-39" cx="734.28" cy="87.01" rx="12.3" ry="15.35" transform="translate(578.11 809.75) rotate(-84.57)"/>
        <ellipse class="cls-39" cx="721.93" cy="94.39" rx="12.3" ry="15.35" transform="translate(559.59 804.13) rotate(-84.57)"/>
        <ellipse class="cls-39" cx="716.66" cy="105.27" rx="12.3" ry="15.35" transform="translate(543.98 808.74) rotate(-84.57)"/>
        <ellipse class="cls-39" cx="716.29" cy="118.1" rx="11.2" ry="9.47" transform="matrix(0.05, -1, 1, 0.05, 562.95, 827.68)"/>
        <ellipse class="cls-39" cx="773.12" cy="77.33" rx="10.05" ry="10.84" transform="translate(622.9 839.65) rotate(-84.57)"/>
        <ellipse class="cls-39" cx="780.58" cy="89.75" rx="8.31" ry="9.51" transform="translate(617.3 858.33) rotate(-84.57)"/>
        <ellipse class="cls-39" cx="769.26" cy="95.19" rx="9.51" ry="8.31" transform="translate(636.19 858.8) rotate(-87.17)"/>
        <circle class="cls-39" cx="758.18" cy="96.74" r="6.45"/>
        <ellipse class="cls-39" cx="749.6" cy="97.5" rx="6.45" ry="5.37" transform="translate(615.2 841.37) rotate(-87.17)"/>
        <ellipse class="cls-39" cx="739.56" cy="100.18" rx="6.45" ry="5.37" transform="translate(283.02 690.57) rotate(-60)"/>
        <ellipse class="cls-39" cx="731.85" cy="106.72" rx="6.45" ry="5.37" transform="translate(556.29 825.17) rotate(-84.57)"/>
        <ellipse class="cls-39" cx="726.77" cy="115.36" rx="4.84" ry="6.45"/>
        <ellipse class="cls-39" cx="708.92" cy="83.27" rx="10.32" ry="12.23" transform="translate(148.75 525.68) rotate(-45)"/>
      </g>
      <ellipse class="cls-18" cx="722.52" cy="126.12" rx="5.86" ry="5.58"/>
      <path class="cls-28" d="M757.55,144.77c-4.22-.2-5.21-.56-7.95-2.13-1.43-.82-4.49-3.21-5-4.66l.89-.33c.38,1,3.1,3.31,4.61,4.17,2.62,1.5,3.48,1.82,7.53,2Z"/>
      <path class="cls-28" d="M759.62,134.06a6.41,6.41,0,0,1-3-.85l.44-.83a4.31,4.31,0,0,0,4,.4,3,3,0,0,0,1.58-2.14,3.53,3.53,0,0,0-1.42-2.56,2.88,2.88,0,0,0-3.05-.33l-.36-.87a3.8,3.8,0,0,1,4,.45,4.44,4.44,0,0,1,1.79,3.44,4,4,0,0,1-4,3.29Z"/>
      <path class="cls-18" d="M732.35,146a36.11,36.11,0,0,1,.54,6.08,36.59,36.59,0,0,1-.45,5.75,5.05,5.05,0,0,0,9.33,2,5.4,5.4,0,0,1-.8-1.28,6.84,6.84,0,0,1,.12-5.24Z"/>
      <path class="cls-28" d="M740.36,112a.46.46,0,0,1-.17-.13c-.1-.16-.18-.29,0-.51a10.54,10.54,0,0,1,4.8-3.65,11.16,11.16,0,0,1,6.41.3c.08,0,.3.09.34.24a.3.3,0,0,1-.15.4c-.6.36-4.19-.95-6.46-.2S740.78,112.08,740.36,112Z"/>
      <path class="cls-28" d="M763.38,106.69c-1.08-.14-3-.61-4.35-.16-1.83.58-3.41,2.89-3.74,2.79a.31.31,0,0,1-.14-.1c-.08-.13-.14-.23,0-.4a7,7,0,0,1,8-2.85"/>
    </g>
    <g>
      <path class="cls-18" d="M900.05,142.8c-2.2,9.74-11.74,15.72-25.37,12.64a26.6,26.6,0,0,1-6.65-2.22c-7.26-3.68-15.77-12.71-14-21,2-9.77,17.52-14.55,28.66-12C896.29,123.28,902.26,133.07,900.05,142.8Z"/>
      <ellipse class="cls-18" cx="871.95" cy="117.17" rx="19.82" ry="27.87"/>
      <circle class="cls-19" cx="885.82" cy="118.84" r="8.09"/>
      <circle class="cls-20" cx="888.41" cy="118.84" r="1.89"/>
      <circle class="cls-19" cx="874.59" cy="118.84" r="8.09"/>
      <circle class="cls-20" cx="878.47" cy="119.25" r="1.89"/>
      <g>
        <ellipse class="cls-39" cx="849.46" cy="137.97" rx="7.81" ry="6.27"/>
        <ellipse class="cls-39" cx="847.51" cy="131.7" rx="7.81" ry="6.27"/>
        <path class="cls-39" d="M845.36,130.6c0,3.46-3.49,6.27-7.81,6.27s-7.8-2.81-7.8-6.27,3.49-7.3,7.8-7.3S845.36,127.14,845.36,130.6Z"/>
        <ellipse class="cls-39" cx="850.08" cy="130.6" rx="6.27" ry="9.72" transform="translate(12.66 326.6) rotate(-21.91)"/>
        <ellipse class="cls-39" cx="832.51" cy="118.72" rx="7.81" ry="6.27" transform="translate(86.71 507.25) rotate(-35.63)"/>
        <ellipse class="cls-39" cx="830.77" cy="104.69" rx="7.87" ry="9.34" transform="translate(359.13 796.57) rotate(-62.9)"/>
        <ellipse class="cls-39" cx="834.46" cy="95.01" rx="7.87" ry="9.34" transform="translate(177.22 617.88) rotate(-45)"/>
        <ellipse class="cls-39" cx="852.25" cy="69.71" rx="15.35" ry="12.3" transform="translate(53.73 375.59) rotate(-25.64)"/>
        <ellipse class="cls-39" cx="876.54" cy="71.59" rx="12.3" ry="15.35" transform="translate(722.25 937.41) rotate(-84.57)"/>
        <ellipse class="cls-39" cx="881.97" cy="83.27" rx="12.3" ry="15.35" transform="translate(715.53 953.39) rotate(-84.57)"/>
        <ellipse class="cls-39" cx="861.22" cy="87.01" rx="12.3" ry="15.35" transform="translate(693.03 936.12) rotate(-84.57)"/>
        <ellipse class="cls-39" cx="848.87" cy="94.39" rx="12.3" ry="15.35" transform="translate(674.5 930.5) rotate(-84.57)"/>
        <ellipse class="cls-39" cx="843.6" cy="105.27" rx="12.3" ry="15.35" transform="translate(658.9 935.11) rotate(-84.57)"/>
        <ellipse class="cls-39" cx="843.23" cy="118.1" rx="11.2" ry="9.47" transform="matrix(0.05, -1, 1, 0.05, 683.62, 954.46)"/>
        <ellipse class="cls-39" cx="900.05" cy="77.33" rx="10.05" ry="10.84" transform="translate(737.82 966.02) rotate(-84.57)"/>
        <ellipse class="cls-39" cx="907.52" cy="89.75" rx="8.31" ry="9.51" transform="translate(732.21 984.69) rotate(-84.57)"/>
        <ellipse class="cls-39" cx="896.2" cy="95.19" rx="9.51" ry="8.31" transform="translate(756.85 985.58) rotate(-87.17)"/>
        <circle class="cls-39" cx="885.12" cy="96.74" r="6.45"/>
        <ellipse class="cls-39" cx="876.54" cy="97.5" rx="6.45" ry="5.37" transform="translate(735.86 968.15) rotate(-87.17)"/>
        <ellipse class="cls-39" cx="866.5" cy="100.18" rx="6.45" ry="5.37" transform="translate(346.49 800.5) rotate(-60)"/>
        <ellipse class="cls-39" cx="858.79" cy="106.72" rx="6.45" ry="5.37" transform="translate(671.21 951.54) rotate(-84.57)"/>
        <ellipse class="cls-39" cx="853.7" cy="115.36" rx="4.84" ry="6.45"/>
        <ellipse class="cls-39" cx="835.86" cy="83.27" rx="10.32" ry="12.23" transform="translate(185.93 615.43) rotate(-45)"/>
      </g>
      <ellipse class="cls-18" cx="849.46" cy="126.12" rx="5.86" ry="5.58"/>
      <path class="cls-28" d="M884.49,144.77c-4.23-.2-5.21-.56-8-2.13-1.43-.82-4.49-3.21-5-4.66l.89-.33c.38,1,3.1,3.31,4.6,4.17,2.62,1.5,3.49,1.82,7.53,2Z"/>
      <path class="cls-28" d="M886.56,134.06a6.38,6.38,0,0,1-3-.85l.44-.83a4.29,4.29,0,0,0,4,.4,3,3,0,0,0,1.59-2.14,3.51,3.51,0,0,0-1.43-2.56,2.86,2.86,0,0,0-3-.33l-.36-.87a3.8,3.8,0,0,1,4,.45,4.4,4.4,0,0,1,1.78,3.44,3.93,3.93,0,0,1-2.09,2.85A4,4,0,0,1,886.56,134.06Z"/>
      <path class="cls-18" d="M859.29,146a36.11,36.11,0,0,1,.54,6.08,36.59,36.59,0,0,1-.45,5.75,5.05,5.05,0,0,0,9.33,2,5.4,5.4,0,0,1-.8-1.28,6.84,6.84,0,0,1,.12-5.24Z"/>
      <path class="cls-28" d="M867.3,112a.38.38,0,0,1-.17-.13c-.1-.16-.19-.29,0-.51a10.56,10.56,0,0,1,4.79-3.65,11.2,11.2,0,0,1,6.42.3c.08,0,.29.09.34.24a.3.3,0,0,1-.15.4c-.6.36-4.2-.95-6.47-.2S867.72,112.08,867.3,112Z"/>
      <path class="cls-28" d="M890.32,106.69c-1.08-.14-3-.61-4.36-.16-1.82.58-3.4,2.89-3.73,2.79a.31.31,0,0,1-.14-.1c-.08-.13-.14-.23,0-.4a6.95,6.95,0,0,1,8-2.85"/>
    </g>
    <g>
      <path class="cls-18" d="M1002.16,116.46C991,114,975.45,118.64,973.39,128.1c-1.75,8,6.79,16.74,14.09,20.3a26.73,26.73,0,0,0,6.67,2.14c13.68,3,23.26-2.8,25.48-12.21S1015.84,119.44,1002.16,116.46ZM991.68,129.1a2.3,2.3,0,1,1,0-4.6A2.3,2.3,0,1,1,991.68,129.1Z"/>
      <ellipse class="cls-18" cx="991.41" cy="113.54" rx="19.9" ry="26.95"/>
      <path class="cls-23" d="M1002.18,115.15c-.38,2.94-3,7.82-8.12,7.82a8.11,8.11,0,0,1-8.12-7.82c0-3,2.16-6.24,4.6-6.57,2.75-.36,4.74,3.19,8.11,2.39,1-.23,1.53-.7,2.22-.41C1002.18,111.1,1002.37,113.64,1002.18,115.15Z"/>
      <g>
        <ellipse class="cls-39" cx="968.83" cy="133.65" rx="7.84" ry="6.06"/>
        <ellipse class="cls-39" cx="966.87" cy="127.59" rx="7.84" ry="6.06"/>
        <path class="cls-39" d="M964.72,126.53c0,3.34-3.51,6.06-7.84,6.06s-7.84-2.72-7.84-6.06,3.51-7.06,7.84-7.06S964.72,123.18,964.72,126.53Z"/>
        <ellipse class="cls-39" cx="969.46" cy="126.53" rx="6.26" ry="9.45" transform="translate(31.45 402.22) rotate(-23.81)"/>
        <ellipse class="cls-39" cx="951.82" cy="115.04" rx="7.75" ry="6.13" transform="translate(78.24 510.06) rotate(-31.22)"/>
        <ellipse class="cls-39" cx="950.07" cy="101.46" rx="7.66" ry="9.32" transform="translate(491.28 939.58) rotate(-67.4)"/>
        <ellipse class="cls-39" cx="953.77" cy="92.11" rx="7.74" ry="9.23" transform="translate(284.39 777.74) rotate(-51.2)"/>
        <ellipse class="cls-39" cx="971.63" cy="67.64" rx="15.31" ry="11.97" transform="translate(46.37 371.83) rotate(-22.18)"/>
        <ellipse class="cls-39" cx="996.02" cy="69.46" rx="11.9" ry="15.4" transform="translate(846.23 1056.6) rotate(-85.36)"/>
        <ellipse class="cls-39" cx="1001.47" cy="80.75" rx="11.9" ry="15.4" transform="matrix(0.08, -1, 1, 0.08, 839.98, 1072.41)"/>
        <ellipse class="cls-39" cx="980.64" cy="84.37" rx="11.9" ry="15.4" transform="translate(817.24 1054.97) rotate(-85.36)"/>
        <ellipse class="cls-39" cx="968.24" cy="91.5" rx="11.9" ry="15.4" transform="translate(798.73 1049.17) rotate(-85.36)"/>
        <ellipse class="cls-39" cx="962.95" cy="102.03" rx="11.9" ry="15.4" transform="translate(783.37 1053.57) rotate(-85.36)"/>
        <ellipse class="cls-39" cx="962.58" cy="114.43" rx="10.83" ry="9.51" transform="translate(787.16 1067.79) rotate(-86.35)"/>
        <ellipse class="cls-39" cx="1019.63" cy="75.01" rx="9.72" ry="10.88" transform="translate(880.17 1087.84) rotate(-86.37)"/>
        <ellipse class="cls-39" cx="1027.12" cy="87.02" rx="8.03" ry="9.54" transform="translate(864.17 1104.86) rotate(-85.75)"/>
        <ellipse class="cls-39" cx="1015.75" cy="92.27" rx="9.19" ry="8.34" transform="translate(854.34 1099.35) rotate(-86.08)"/>
        <ellipse class="cls-39" cx="1004.63" cy="93.78" rx="6.47" ry="6.24"/>
        <ellipse class="cls-39" cx="996.02" cy="94.51" rx="6.24" ry="5.39" transform="translate(839.79 1082.73) rotate(-86.44)"/>
        <ellipse class="cls-39" cx="985.94" cy="97.11" rx="6.3" ry="5.33" transform="translate(332.66 841.91) rotate(-54.37)"/>
        <ellipse class="cls-39" cx="978.2" cy="103.43" rx="6.24" ry="5.39" transform="translate(759.21 1062.39) rotate(-83.17)"/>
        <ellipse class="cls-39" cx="973.09" cy="111.79" rx="4.85" ry="6.24"/>
        <ellipse class="cls-39" cx="955.18" cy="80.75" rx="10.15" ry="12.07" transform="matrix(0.63, -0.78, 0.78, 0.63, 294.46, 775.27)"/>
      </g>
      <ellipse class="cls-18" cx="968.83" cy="122.19" rx="5.88" ry="5.4"/>
      <ellipse class="cls-23" cx="1009.86" cy="114.26" rx="8.12" ry="7.82"/>
      <path class="cls-28" d="M1006.08,129.87a6.7,6.7,0,0,1-3-.82l.44-.81a4.48,4.48,0,0,0,4,.4,2.94,2.94,0,0,0,1.59-2.08,3.39,3.39,0,0,0-1.43-2.48,3,3,0,0,0-3.06-.31l-.36-.84a3.93,3.93,0,0,1,4,.43,4.27,4.27,0,0,1,1.79,3.33,3.86,3.86,0,0,1-2.1,2.76A4.2,4.2,0,0,1,1006.08,129.87Z"/>
      <path class="cls-18" d="M978.7,141.37a33.71,33.71,0,0,1,.54,5.88,33.16,33.16,0,0,1-.45,5.56,5,5,0,0,0,3.92,4.13,5.18,5.18,0,0,0,5.45-2.23,5.2,5.2,0,0,1-.8-1.24,6.33,6.33,0,0,1,.12-5.07Z"/>
      <path class="cls-28" d="M1001.61,109.88a.36.36,0,0,1,.1.2c0,.19,0,.33-.28.42a13.31,13.31,0,0,1-6.73.35,14,14,0,0,1-6.05-3.74c-.06-.06-.24-.23-.19-.39s.12-.24.37-.23c.79,0,3.53,3.05,6.16,3.68S1001.28,109.55,1001.61,109.88Z"/>
      <path class="cls-28" d="M1009.73,103h0a8.54,8.54,0,0,0-2.29.46,9.44,9.44,0,0,0-4.12,3.71s-.15.21-.09.34a.28.28,0,0,0,.33.18c.34-.05,2.4-2.82,4.23-3.66a4.26,4.26,0,0,1,2.15-.35C1009.89,103.52,1009.73,103,1009.73,103Z"/>
      <path class="cls-28" d="M993.76,114.17c-1.44-.13-5.16-.26-5.16-.26a12.61,12.61,0,0,0-2.53.4c-.08.18.17.37,0,.44,11.77-1,15.73,2.37,15.73,2.37l.27-.3A20.87,20.87,0,0,0,993.76,114.17Z"/>
      <path class="cls-28" d="M999.41,113.71a1.62,1.62,0,0,1-.32.32,3.55,3.55,0,0,1,2,1.78l.09-.26A5.68,5.68,0,0,0,999.41,113.71Z"/>
      <path class="cls-28" d="M998.53,117.73a1.3,1.3,0,0,0,0-.44,3.72,3.72,0,0,0,2.75-.22l-.09.26A6,6,0,0,1,998.53,117.73Z"/>
      <path class="cls-28" d="M1017.77,112.74a22,22,0,0,0-2.38-.07s-3.67.54-5.1.82a20.69,20.69,0,0,0-8,3.55l.3.26s3.5-3.73,15.17-4c0-.08,0-.15,0-.22S1017.77,112.83,1017.77,112.74Z"/>
      <path class="cls-28" d="M1004.63,113.65a1.93,1.93,0,0,0,.35.29,3.48,3.48,0,0,0-1.82,2l-.12-.25A5.6,5.6,0,0,1,1004.63,113.65Z"/>
      <path class="cls-28" d="M1006,117.55a1.62,1.62,0,0,1,0-.44,3.73,3.73,0,0,1-2.76.08l.12.25A5.94,5.94,0,0,0,1006,117.55Z"/>
      <path class="cls-28" d="M1001.6,132.59c-1.68.26-2.65,1.49-4.29,1-.84-.24-1-.68-2.24-1.11a9.06,9.06,0,0,0-2.8-.41c-2.77.07-6.89,2.14-6.82,4.64,0,2.2,3.31,3.63,3.52,3.72,2.35,1,3.43,0,7.12.13,5.24.17,6.56,2.3,9.29,1.16,1.75-.72,3.31-2.47,3.28-4.23C1008.61,134.72,1004.51,132.13,1001.6,132.59Z"/>
      <path class="cls-51" d="M1004.68,136.3c-.76.11-1.56.19-2.39.23a28.5,28.5,0,0,1-11.41-1.81,3.22,3.22,0,0,1-.46-.86,3.33,3.33,0,0,1-.18-1.46,2.51,2.51,0,0,1,.38-.11s.21-.06.43-.1a7.34,7.34,0,0,1,1.87-.09,9.62,9.62,0,0,1,2.15.35,8.66,8.66,0,0,1,1.2.45,7.53,7.53,0,0,0,1.05.51,3,3,0,0,0,1.63,0c.24-.07.15-.08.61-.25a10.85,10.85,0,0,1,1.19-.37,5.59,5.59,0,0,1,.71-.17,5.14,5.14,0,0,1,.88-.06,7.24,7.24,0,0,1,1,.08,5.37,5.37,0,0,1,1.57.41,5.06,5.06,0,0,1,.81.48c-.09.75-.17,1.49-.26,2.23A.69.69,0,0,1,1004.68,136.3Z"/>
      <g>
        <path class="cls-52" d="M993.46,140.57c.12-.85.17-1.23.17-1.25a0,0,0,0,1,0,0l.06,0a9.05,9.05,0,0,0,.81.43c.17.14.35.27.54.41s.52.36.76.51l-.95-.08C994.36,140.58,993.9,140.57,993.46,140.57Z"/>
        <path class="cls-53" d="M1021.36,169.1a2.46,2.46,0,0,1-1.43.88c-2.79.79-4.2-.62-8.19-.58-.89,0-2.31.08-2.59-.53a.79.79,0,0,1,0-.58c.43-1,0-6.18-1.29-10.61-3-10.13-10.88-16.44-12.71-17.36-.2-.1-1.64-.79-1.55-1s.29-.07.38-.07c1.46,0,3.29,0,5.79-.21a27.13,27.13,0,0,1,13.78,6.7c3.56,3.33,5,9.29,8,21.2A2.75,2.75,0,0,1,1021.36,169.1Z"/>
      </g>
    </g>
  </g>
  <g>
    <path class="cls-31" d="M1099,624.21c-2.55-17-1.61-20-4.46-28.77a69.56,69.56,0,0,0-3.88-9.46q-1-2-1.94-4.2c-.51-1.2-1-2.37-1.43-3.5-1.2-3.1-2-5.85-4.88-16.76-.58-2.18-.69-4.5-1.42-6.62a7.26,7.26,0,0,1-.42-3.75,3.88,3.88,0,0,1,.15-.6c.26-1,.1-2.7-1.77-6-1,0-2.55,0-4.36.17-3.15.24-3.62.52-4,.87-1.77,1.77-1.51,6.25-.51,6.79a.6.6,0,0,0,.43,0q.42,4.95.74,10.1c.36,5.86.59,11.52.72,17-.53,4.14-1,7.78-1.36,10.83a74.31,74.31,0,0,0-.84,9.1,50.81,50.81,0,0,0,1.1,9.9c1,6.14,1.61,12.36,2.43,18.53.77,5.87,1.89,11.69,2.59,17.57.67,5.55.76,7.59,2.3,9.26.57.61,2.24,2.14,11.57.91,7.33-1,11-1.52,12.37-4.35,1-2.21.36-4.33-.75-10.28C1100.38,635.46,1099.87,629.81,1099,624.21Z"/>
    <path class="cls-32" d="M1081.13,546c.21,1.4-1.89.72-5.89,1.32s-6.75,2.19-6.65.78c.24-3.5,2.32-3.81,6.32-4.41S1080.74,543.47,1081.13,546Z"/>
    <path class="cls-33" d="M1088.91,609.56A4.55,4.55,0,0,0,1090,606c-.42-2.77-3.53-4.61-7-4.1s-5.86,3.19-5.45,6a4.53,4.53,0,0,0,1.77,2.88c-3.48,3.78-5.16,11.37-3.91,19.71,1.7,11.3,8.14,19.71,14.39,18.77s9.94-10.86,8.25-22.17C1096.86,618.93,1093.2,612.31,1088.91,609.56Z"/>
    <path class="cls-33" d="M1086.3,575.2a12.35,12.35,0,0,0-4.81,0c-6.31,1.34-9.59,7.46-10.39,9l1.26,7.61a49.38,49.38,0,0,1,7.83-5.75l.34-.19a43.27,43.27,0,0,1,8.31-3.7Z"/>
  </g>
  <rect class="cls-33" x="1646.39" y="174.81" width="311.84" height="104.16" rx="52.08" transform="translate(2029.2 -1575.41) rotate(90)"/>
  <path class="cls-18" d="M1202.4,507.71c-8.65-24-11.76-35.19-19.1-40.12-5.9-4-12.21-3.53-17.38-3.51-3.3,0-26.28.46-38,19-6.63,10.44-6.33,21.33-5.9,26l18.06,41.86c-11.86,15.78-35.83,46.88-35.83,46.88A21.58,21.58,0,0,1,1096,606a30.13,30.13,0,0,1-13.71,3.18,7.12,7.12,0,0,0-2.28.12,16.81,16.81,0,0,0-5.4,2.55c-4.19,2.89-6.52,6.78-5.2,8.69a2.88,2.88,0,0,0,2.45,1c-3,2.12-4.62,4.67-3.8,6.31.55,1.11,2.11,1.57,4.12,1.43-1.9.83-3.12,2-3.25,3.43-.29,3.14,4.87,6.19,11.52,6.8a24.89,24.89,0,0,0,4.65,0q11.9-6.63,24.5-13.21,9.59-5,19-9.62a322.72,322.72,0,0,0,36.33-20.6c13.06-8.58,21-13.78,29.29-23.12A106.44,106.44,0,0,0,1212,545.15S1204.65,514,1202.4,507.71Z"/>
  <g>
    <path class="cls-31" d="M1825.3,280.33c0-34.3,2.77-40.1-.27-58.25a136.3,136.3,0,0,0-4.88-19.87q-1.32-4.22-2.57-8.89-1-3.78-1.8-7.35c-1.46-6.48-2.13-12.15-4.67-34.6-.51-4.48,0-9.1-.85-13.52a14.61,14.61,0,0,1,.28-7.54,11.27,11.27,0,0,1,.48-1.15c.81-1.85,1-5.3-1.73-12.31-2.08-.31-5.06-.7-8.68-1-6.3-.46-7.33,0-8.14.55-4,3-4.84,11.91-3,13.28a1.18,1.18,0,0,0,.85.2q-.65,9.92-1.54,20.22-1.54,17.52-3.63,33.82c-2.27,8-4.26,15.1-5.9,21-3,10.85-3.75,13.69-4.37,17.76-1.19,7.76-.92,13.14-.78,19.92.27,12.46-.47,24.92-.69,37.37-.2,11.85.27,23.7-.08,35.54-.33,11.18-.75,15.25,1.8,19,.94,1.37,3.78,4.9,22.61,5.23,14.8.26,22.27.28,25.78-4.93,2.73-4.05,2-8.46,1.55-20.55C1824.64,303,1825.3,291.66,1825.3,280.33Z"/>
    <path class="cls-32" d="M1813.11,120.32c0,2.85-4,.87-12,.87s-14,2.33-13.39-.42c1.53-6.86,5.74-6.86,13.83-6.86S1813.11,115.15,1813.11,120.32Z"/>
    <path class="cls-33" d="M1809.64,248.35a9.14,9.14,0,0,0,3.2-6.76c0-5.63-5.62-10.18-12.55-10.18s-12.55,4.55-12.55,10.18a9,9,0,0,0,2.64,6.22c-8,6.46-13.59,21-13.59,37.84,0,22.87,10.25,41.41,22.89,41.41s22.9-18.54,22.9-41.41C1822.58,269.24,1817.3,255.05,1809.64,248.35Z"/>
    <path class="cls-33" d="M1814.69,179.58a24.67,24.67,0,0,0-9.54-1.36c-12.87.77-21.19,11.9-23.24,14.82q.12,7.71.22,15.43a97.51,97.51,0,0,1,17.21-9.05l.73-.29a88.53,88.53,0,0,1,17.54-4.85Q1816.14,186.93,1814.69,179.58Z"/>
  </g>
  <path class="cls-20" d="M1805.54,306.18h-5.91l-5.88,0a10.78,10.78,0,0,1-2.92-.27,2.16,2.16,0,0,1-1.51-2.26q0-3,4.66-3l1.43,0,1.22.06c0-.95-.09-2.36-.25-4.22s-.26-3.26-.26-4.19q0-3.76.69-11.47t.62-11.49c-2.65,2.06-4.35,3.09-5.08,3.09a3,3,0,0,1-2.94-2.95c0-.93.85-2.06,2.55-3.38q1.61-1.12,4.55-3.63c1.74-1.76,3.41-2.64,5-2.64,1.33,0,2,.76,2,2.29a16.87,16.87,0,0,1-.18,2,16.84,16.84,0,0,0-.18,2c0,.65,0,1.64.11,3s.1,2.32.1,3c0,2.26-.24,5.62-.71,10.1s-.71,7.83-.71,10.07c0,1.15.08,2.55.23,4.19s.25,3,.27,4l3.12-.06a2.84,2.84,0,0,1,2.07.82,3,3,0,0,1,0,4.09A2.87,2.87,0,0,1,1805.54,306.18Z"/>
</svg>
