<svg xmlns="http://www.w3.org/2000/svg" width="80mm" height="90mm" viewBox="0 0 226.77 255.12">
  <defs>
    <style>
      .cls-1 {
        fill: #f3cdb5;
      }

      .cls-2 {
        fill: #efc0a5;
      }

      .cls-3 {
        fill: #744631;
      }

      .cls-4 {
        fill: #3c3c3b;
      }

      .cls-5 {
        fill: #fdfdf8;
      }

      .cls-6 {
        fill: #65845e;
      }

      .cls-7 {
        fill: #759f6f;
      }
    </style>
  </defs>
  <g id="Inde_i_bussen" data-name="Inde i bussen">
    <g>
      <path class="cls-1" d="M141.48,135.39c-23.38-5.29-55.87,4.74-60.18,25.27-3.65,17.4,14.21,36.35,29.46,44.07a54.68,54.68,0,0,0,14,4.66c28.61,6.48,48.65-6.08,53.28-26.52S170.09,141.87,141.48,135.39Zm-21.92,27.46c-6.45,0-6.44-10,0-10S126,162.85,119.56,162.85Z"/>
      <ellipse class="cls-1" cx="119" cy="129.06" rx="41.61" ry="58.51"/>
      <path class="cls-2" d="M141.5,132.55c-.79,6.39-6.22,17-17,17a17.3,17.3,0,0,1-17-17c.09-6.43,4.51-13.55,9.61-14.25,5.75-.79,9.92,6.91,17,5.19,2.08-.51,3.2-1.54,4.65-.91C141.5,123.76,141.91,129.27,141.5,132.55Z"/>
      <g>
        <ellipse class="cls-3" cx="71.77" cy="172.72" rx="16.39" ry="13.16"/>
        <ellipse class="cls-3" cx="67.67" cy="159.56" rx="16.39" ry="13.16"/>
        <path class="cls-3" d="M63.17,157.25c0,7.27-7.34,13.16-16.4,13.16s-16.39-5.89-16.39-13.16,7.34-15.32,16.39-15.32S63.17,150,63.17,157.25Z"/>
        <ellipse class="cls-3" cx="73.08" cy="157.25" rx="13.16" ry="20.4" transform="translate(-53.39 38.62) rotate(-21.91)"/>
        <ellipse class="cls-3" cx="36.19" cy="132.31" rx="16.39" ry="13.16" transform="translate(-70.31 45.86) rotate(-35.63)"/>
        <ellipse class="cls-3" cx="32.53" cy="102.85" rx="16.53" ry="19.62" transform="translate(-73.85 84.95) rotate(-62.9)"/>
        <ellipse class="cls-3" cx="40.27" cy="82.53" rx="16.53" ry="19.62" transform="translate(-46.56 52.65) rotate(-45)"/>
        <ellipse class="cls-3" cx="77.63" cy="29.41" rx="32.22" ry="25.83" transform="translate(-5.08 36.48) rotate(-25.64)"/>
        <ellipse class="cls-3" cx="128.63" cy="33.36" rx="25.83" ry="32.22" transform="translate(83.23 158.25) rotate(-84.57)"/>
        <ellipse class="cls-3" cx="140.02" cy="57.89" rx="25.83" ry="32.22" transform="translate(69.14 191.8) rotate(-84.57)"/>
        <ellipse class="cls-3" cx="96.46" cy="65.73" rx="25.83" ry="32.22" transform="matrix(0.09, -1, 1, 0.09, 21.89, 155.53)"/>
        <ellipse class="cls-3" cx="70.53" cy="81.21" rx="25.83" ry="32.22" transform="translate(-17 143.73) rotate(-84.57)"/>
        <ellipse class="cls-3" cx="59.47" cy="104.08" rx="25.83" ry="32.22" transform="translate(-49.77 153.42) rotate(-84.57)"/>
        <ellipse class="cls-3" cx="58.69" cy="131" rx="23.52" ry="19.88" transform="translate(-75.05 183.15) rotate(-87.17)"/>
        <ellipse class="cls-3" cx="178" cy="45.41" rx="21.1" ry="22.75" transform="translate(115.93 218.31) rotate(-84.57)"/>
        <ellipse class="cls-3" cx="193.67" cy="71.49" rx="17.44" ry="19.96" transform="translate(104.16 257.52) rotate(-84.57)"/>
        <ellipse class="cls-3" cx="169.9" cy="82.89" rx="19.96" ry="17.44" transform="translate(78.71 248.49) rotate(-87.17)"/>
        <circle class="cls-3" cx="146.64" cy="86.16" r="13.54"/>
        <ellipse class="cls-3" cx="128.63" cy="87.74" rx="13.54" ry="11.28" transform="translate(34.64 211.88) rotate(-87.17)"/>
        <ellipse class="cls-3" cx="107.55" cy="93.38" rx="13.54" ry="11.28" transform="translate(-27.1 139.83) rotate(-60)"/>
        <ellipse class="cls-3" cx="91.35" cy="107.11" rx="13.54" ry="11.28" transform="translate(-23.93 187.9) rotate(-84.57)"/>
        <ellipse class="cls-3" cx="80.68" cy="125.25" rx="10.15" ry="13.54"/>
        <ellipse class="cls-3" cx="43.22" cy="57.89" rx="21.66" ry="25.67" transform="translate(-28.27 47.52) rotate(-45)"/>
      </g>
      <ellipse class="cls-1" cx="71.77" cy="147.84" rx="12.3" ry="11.72"/>
      <circle class="cls-2" cx="157.56" cy="130.63" r="16.98"/>
      <path class="cls-4" d="M149.66,164.51a13.53,13.53,0,0,1-6.32-1.79l.93-1.74c3.23,1.71,6.14,2,8.4.85a6.3,6.3,0,0,0,3.34-4.5c.13-1-.78-3.67-3-5.38a6.06,6.06,0,0,0-6.39-.69l-.76-1.82a7.94,7.94,0,0,1,8.36.95c2.57,2,4,5.32,3.75,7.21a8.31,8.31,0,0,1-4.39,6A8.65,8.65,0,0,1,149.66,164.51Z"/>
      <path class="cls-1" d="M92.41,189.48a75.59,75.59,0,0,1,1.13,12.77,74.89,74.89,0,0,1-1,12.06,10.62,10.62,0,0,0,19.6,4.13,11.57,11.57,0,0,1-1.68-2.69c-2.13-4.78-.35-9.57.25-11Z"/>
      <path class="cls-4" d="M140.32,121.12a.77.77,0,0,1,.2.42c0,.41,0,.73-.57.92a26.89,26.89,0,0,1-14.07.76s-6-1.35-12.67-8.13c-.12-.13-.49-.5-.4-.83s.26-.53.77-.51c1.66.07,7.4,6.62,12.9,8S139.63,120.39,140.32,121.12Z"/>
      <path class="cls-4" d="M157.3,106.15h0a19.31,19.31,0,0,0-2,.24,17.27,17.27,0,0,0-2.83.77s-4.49,1.65-8.62,8c-.08.12-.31.47-.18.75a.57.57,0,0,0,.7.38c.7-.11,5-6.12,8.83-8a8.63,8.63,0,0,1,4.49-.74Z"/>
      <path class="cls-4" d="M123.91,130.42c-3-.27-10.79-.56-10.79-.56s-5.11.47-5.29.87.35.8.09,1c24.63-2.18,32.9,5.13,32.9,5.13l.57-.63A42.52,42.52,0,0,0,123.91,130.42Z"/>
      <path class="cls-4" d="M135.71,129.44a3.6,3.6,0,0,1-.66.69,7.49,7.49,0,0,1,4.28,3.86l.2-.56A12,12,0,0,0,135.71,129.44Z"/>
      <path class="cls-4" d="M133.88,138.15a3.38,3.38,0,0,0-.1-1,7.54,7.54,0,0,0,5.75-.47l-.19.56A11.88,11.88,0,0,1,133.88,138.15Z"/>
      <path class="cls-4" d="M174.11,127.32a42.89,42.89,0,0,0-5-.14s-7.68,1.17-10.66,1.77a42.68,42.68,0,0,0-16.72,7.71l.64.57s7.32-8.11,31.71-8.8a3.93,3.93,0,0,1,.06-.48Q174.13,127.64,174.11,127.32Z"/>
      <path class="cls-4" d="M146.64,129.31a3.93,3.93,0,0,0,.73.62,7.47,7.47,0,0,0-3.81,4.31l-.26-.54A12.07,12.07,0,0,1,146.64,129.31Z"/>
      <path class="cls-4" d="M149.44,137.76a3.78,3.78,0,0,1,0-.95,7.49,7.49,0,0,1-5.76.17l.26.55A11.91,11.91,0,0,0,149.44,137.76Z"/>
      <path class="cls-4" d="M140.31,170.41c-3.52.58-5.54,3.25-9,2.23-1.75-.52-2.1-1.48-4.68-2.41a17.85,17.85,0,0,0-5.85-.89c-5.79.15-14.41,4.63-14.27,10.07.12,4.77,6.93,7.88,7.36,8.06,4.92,2.17,7.19,0,14.89.29,11,.37,13.72,5,19.43,2.53,3.67-1.58,6.93-5.38,6.86-9.19C155,175,146.39,169.42,140.31,170.41Z"/>
      <path class="cls-5" d="M146.74,178.46q-2.38.36-5,.51A57.62,57.62,0,0,1,117.87,175a7.56,7.56,0,0,1-1-1.86,7.41,7.41,0,0,1-.37-3.18c.23-.08.49-.16.79-.24,0,0,.45-.12.9-.21a14.4,14.4,0,0,1,3.92-.19,19.77,19.77,0,0,1,4.5.76,20.33,20.33,0,0,1,2.51,1,14.72,14.72,0,0,0,2.19,1.11,6.31,6.31,0,0,0,3.41-.06c.49-.16.32-.18,1.28-.56a25.71,25.71,0,0,1,2.49-.8c.72-.2,1.09-.3,1.48-.37a11.1,11.1,0,0,1,1.83-.12,15,15,0,0,1,2.09.17,11,11,0,0,1,3.27.9,8.56,8.56,0,0,1,1.69,1l-.54,4.83A1.43,1.43,0,0,1,146.74,178.46Z"/>
      <g>
        <path class="cls-6" d="M123.28,187.73c.25-1.84.35-2.66.34-2.71a0,0,0,0,1,0,0s.12.07.13.08a15.93,15.93,0,0,0,1.69.93q.54.45,1.14.9c.54.41,1.07.77,1.58,1.11-.64-.07-1.3-.13-2-.18C125.16,187.76,124.19,187.73,123.28,187.73Z"/>
        <path class="cls-7" d="M181.62,249.68a5.14,5.14,0,0,1-3,1.9c-5.83,1.73-8.79-1.33-17.14-1.26-1.85,0-4.83.19-5.41-1.14a1.69,1.69,0,0,1,.07-1.25c.89-2.24.06-13.42-2.7-23-6.33-22-22.77-35.7-26.59-37.68-.42-.22-3.43-1.72-3.25-2.22.07-.2.62-.16.81-.16,3,0,6.89-.11,12.1-.45a55.77,55.77,0,0,1,28.83,14.55c7.44,7.22,10.51,20.16,16.68,46C182.26,245.87,182.74,248,181.62,249.68Z"/>
      </g>
    </g>
  </g>
</svg>
