<svg xmlns="http://www.w3.org/2000/svg" width="150mm" height="50mm" viewBox="0 0 425.2 141.73">
  <defs>
    <style>
      .cls-1 {
        fill: #f1f2f0;
      }

      .cls-2 {
        fill: #f7cb53;
      }

      .cls-3 {
        fill: #f2c144;
      }

      .cls-4 {
        fill: #c4c6c3;
      }

      .cls-5 {
        fill: #858784;
      }

      .cls-6 {
        fill: #909090;
      }

      .cls-7 {
        fill: #777776;
      }

      .cls-8 {
        fill: #1d1d1b;
      }
    </style>
  </defs>
  <g id="Inde_i_bussen" data-name="Inde i bussen">
    <g>
      <rect class="cls-1" x="8.93" y="2.84" width="407.34" height="136.06" rx="68.03"/>
      <g>
        <circle class="cls-2" cx="355.08" cy="74.81" r="47.68"/>
        <path class="cls-3" d="M364.87,117.05a208.77,208.77,0,0,1-26.72-21c-12-11.2-23.15-23.52-27.33-39a47.7,47.7,0,0,0,58.64,63.22C367.92,119.16,366.39,118.06,364.87,117.05Z"/>
        <circle class="cls-4" cx="74.4" cy="70.87" r="47.68"/>
        <path class="cls-5" d="M77.25,118.07q-1.25-1.6-2.43-3.24C62.6,107.27,53.47,93.68,47.73,81c-6.26-13.82-9-29.19-7-43.95A47.69,47.69,0,0,0,74.4,118.55c1.07,0,2.14,0,3.19-.11C77.48,118.32,77.36,118.21,77.25,118.07Z"/>
        <ellipse class="cls-6" cx="79.66" cy="48.96" rx="11.36" ry="9.83"/>
        <ellipse class="cls-6" cx="48.79" cy="73.02" rx="7.57" ry="8.97"/>
        <path class="cls-7" d="M43,68.4c-.1-.31-.19-.56-.25-.73a9.62,9.62,0,0,0-1.11,2.48,10.86,10.86,0,0,0-.4,2.87c0,.91,0,5.19,3.22,7.55A7.56,7.56,0,0,0,48.16,82c-2.66-3.82-3.54-6.3-3.82-7.9A40.72,40.72,0,0,0,43,68.4Z"/>
        <circle class="cls-6" cx="99.83" cy="89.81" r="3.67"/>
        <ellipse class="cls-6" cx="86.16" cy="87.74" rx="7.7" ry="9.86"/>
        <path class="cls-4" d="M214.22,29.16h-.3c-38.51.14-69.67,25.86-69.67,57.58a49.21,49.21,0,0,0,7.18,25.42c4,0,32.21,2.68,33.27-5.88-4-2.2-10.33-11.51-9.13-18.67,3-18.07,18.75-30,38.5-30.32,19.75.32,35.45,12.25,38.5,30.32,1.2,7.16-5.13,16.47-9.13,18.67,1.06,8.56,29.28,5.92,33.27,5.88a49.21,49.21,0,0,0,7.18-25.42C283.89,55,252.73,29.3,214.22,29.16Z"/>
        <polygon class="cls-8" points="157.48 99.66 157.48 97.33 153.44 100.74 157.48 103.96 157.48 101.64 177.82 101.64 177.82 99.66 157.48 99.66"/>
      </g>
    </g>
  </g>
</svg>
