<svg xmlns="http://www.w3.org/2000/svg" width="70mm" height="60mm" viewBox="0 0 198.43 170.08">
  <defs>
    <style>
      .cls-1 {
        fill: #2c4155;
      }

      .cls-2 {
        fill: #41596b;
      }
    </style>
  </defs>
  <g id="spilbaggrund">
    <g>
      <path class="cls-1" d="M107,1.19c4,.79,6.87,3.91,7.1,7.22.3,4.33-3.94,8.92-9.63,8.56a114.49,114.49,0,0,0-15.91,3.3c-12.91,3.64-28.62,8.07-40.07,21-14.13,16-14.33,36.46-14.18,42.09.61,22.58,13.44,49.23,38.55,58.51,19.72,7.29,37.13.54,40.65-.91C143,128.8,149.53,96.6,150,94c-4.16,4.68-9.39,7-13.38,5.5A7,7,0,0,1,133,96.68c-2-3.21-.39-7.49,0-8.6,3.62-9.49,4.19-47.51,4.19-47.51s5.21-5.63,8.11-2,40.14,28.24,40.14,28.24,3.61,5.14,0,8.08-12.71,7.28-12.71,7.28a85.61,85.61,0,0,1-5,33.8c-2,5.38-9.91,27.1-30.38,39.62-15.06,9.21-36.53,13.2-36.53,13.2h0a88.52,88.52,0,0,1-44.47-9.53A90.07,90.07,0,0,1,23.08,130C18.32,120.62,9.34,99.61,13,73.46A79,79,0,0,1,23.08,43c13.17-22.34,34-30.9,42.67-34.48A99.71,99.71,0,0,1,107,1.19Z"/>
      <path class="cls-2" d="M103.2,1.19C107,1.93,109.79,4.89,110,8c.28,4.1-3.79,8.44-9.25,8.1a113.16,113.16,0,0,0-15.28,3.12C73.1,22.69,58,26.88,47,39.13,33.45,54.23,33.26,73.63,33.41,79c.59,21.37,12.9,46.6,37,55.38,18.94,6.9,35.65.51,39-.87,28.3-11.5,34.61-42,35.07-44.44-4,4.43-9,6.58-12.85,5.21a6.75,6.75,0,0,1-3.49-2.68c-1.88-3-.38-7.08,0-8.13,3.47-9,4-45,4-45s5-5.34,7.79-1.86,38.54,26.73,38.54,26.73,3.47,4.86,0,7.64-12.2,6.9-12.2,6.9a79.78,79.78,0,0,1-4.81,32c-1.89,5.09-9.52,25.65-29.17,37.5-14.46,8.72-35.07,12.5-35.07,12.5h0a85.68,85.68,0,0,1-74.64-36.8c-4.57-8.84-13.19-28.72-9.72-53.48a74.4,74.4,0,0,1,9.72-28.82c12.64-21.14,32.63-29.25,41-32.64A97,97,0,0,1,103.2,1.19Z"/>
    </g>
  </g>
</svg>
