<svg xmlns="http://www.w3.org/2000/svg" xmlns:xlink="http://www.w3.org/1999/xlink" width="1920" height="1080" viewBox="0 0 1920 1080">
  <defs>
    <style>
      .cls-1 {
        stroke: #1d1d1b;
        stroke-miterlimit: 10;
        fill: url(#linear-gradient);
      }

      .cls-2 {
        fill: url(#White_Black);
      }

      .cls-3 {
        fill: #eeb300;
      }

      .cls-4 {
        fill: #c24f58;
      }

      .cls-5 {
        fill: #db666a;
      }

      .cls-6 {
        fill: #1d1d1b;
      }

      .cls-7 {
        fill: #faccb2;
      }

      .cls-8 {
        fill: #fff;
      }

      .cls-9 {
        fill: #7b432c;
      }

      .cls-10 {
        fill: #3c3c3b;
      }

      .cls-11 {
        fill: #635b23;
      }

      .cls-12 {
        fill: #4a4417;
      }

      .cls-13 {
        fill: #a1d4cc;
      }

      .cls-14 {
        fill: #72afa3;
      }

      .cls-15 {
        fill: #282b2a;
      }

      .cls-16 {
        fill: #303534;
      }

      .cls-17 {
        fill: #757474;
      }

      .cls-18 {
        fill: #333331;
      }
    </style>
    <linearGradient id="linear-gradient" x1="1770.41" y1="1888.17" x2="2889.8" y2="1888.17" gradientTransform="translate(-1370.1 -1351.12)" gradientUnits="userSpaceOnUse">
      <stop offset="0" stop-color="#98d4e1" stop-opacity="0"/>
      <stop offset="0" stop-color="#9bd5e1" stop-opacity="0.07"/>
      <stop offset="0" stop-color="#a3d8e2" stop-opacity="0.24"/>
      <stop offset="0" stop-color="#b1dde3" stop-opacity="0.52"/>
      <stop offset="0" stop-color="#c3e4e5" stop-opacity="0.9"/>
      <stop offset="0" stop-color="#c8e6e5"/>
      <stop offset="0.23" stop-color="#b7e0ea"/>
      <stop offset="0.58" stop-color="#96d5f4"/>
      <stop offset="0.68" stop-color="#7ec3e9" stop-opacity="0.98"/>
      <stop offset="0.79" stop-color="#69b2e0" stop-opacity="0.96"/>
      <stop offset="0.9" stop-color="#5ca8da" stop-opacity="0.95"/>
      <stop offset="1" stop-color="#58a5d8" stop-opacity="0.95"/>
    </linearGradient>
    <linearGradient id="White_Black" data-name="White, Black" x1="1431.04" y1="725.21" x2="1459.46" y2="725.21" gradientUnits="userSpaceOnUse">
      <stop offset="0" stop-color="#fff"/>
      <stop offset="1" stop-color="#1d1d1b"/>
    </linearGradient>
  </defs>
  <g id="titelskærm">
    <rect class="cls-1" x="400.3" y="-444.48" width="1119.39" height="1963.06" transform="translate(422.95 1497.05) rotate(-90)"/>
    <rect class="cls-2" x="1431.04" y="376.77" width="28.42" height="696.88"/>
    <rect class="cls-3" x="1179.79" y="69.27" width="533.66" height="307.32" rx="31.6"/>
    <g>
      <path class="cls-4" d="M324.64,243.66C501.5,142,700.44,190.57,932.32,247.24c25.76,6.3,67.25,9.39,98.61,40.41,31,30.71,36.09,75.17,44.92,162.84,10.26,101.88.44,158.4-4.08,180.74-13.82,68.42-33.2,90-40.84,97.56-33.76,33.44-78.43,39.17-98.61,40.42-135.24,14-372.75,31.27-572.22,0-25.68-4-64.63-11-98.61-40.42-111.6-96.49-45.71-327.24-40.84-343.57C233.25,342.93,298.5,258.69,324.64,243.66Z"/>
      <path class="cls-5" d="M955.21,737.64C781.92,838.37,587,790.22,359.78,734.09c-25.25-6.23-65.9-9.3-96.63-40-30.42-30.41-35.36-74.44-44-161.27-10.06-100.9-.44-156.88,4-179,13.55-67.76,32.53-89.13,40-96.63,33.08-33.12,76.85-38.79,96.63-40,132.5-13.85,365.23-31,560.68,0,25.17,4,63.34,10.93,96.63,40,109.35,95.56,44.79,324.1,40,340.27C1044.77,639.32,980.83,722.75,955.21,737.64Z"/>
    </g>
    <g>
      <circle class="cls-6" cx="1364.99" cy="290.69" r="27.47"/>
      <circle class="cls-6" cx="1532.04" cy="290.69" r="27.47"/>
      <path class="cls-6" d="M1274.61,127.7v16.91h25.21v63.78h-25.21v80.7H1333a32.19,32.19,0,0,1,64.37,0h102.27a32.19,32.19,0,0,1,64.37,0h51.91V127.7Zm99,80.69h-54.83V144.61h54.83Zm73.63,0h-54.82V144.61h54.82Zm75.36,0h-54.83V144.61h54.83Zm70.83,0h-54.82V144.61h54.82Z"/>
    </g>
    <g>
      <path class="cls-7" d="M1458.57,712.85c9.57,42.24,51,68.2,110.12,54.81,5.62-1.27,16.34-3.29,28.86-9.63,31.53-16,68.44-55.13,60.89-91.1-8.9-42.43-76-63.17-124.39-52.23C1474.92,628.1,1449,670.61,1458.57,712.85Z"/>
      <ellipse class="cls-7" cx="1580.52" cy="601.62" rx="86.01" ry="120.93"/>
      <circle class="cls-8" cx="1520.35" cy="608.83" r="35.09"/>
      <circle class="cls-6" cx="1509.11" cy="608.83" r="8.18"/>
      <circle class="cls-8" cx="1569.1" cy="608.83" r="35.09"/>
      <circle class="cls-6" cx="1557.37" cy="610.61" r="8.18"/>
      <g>
        <ellipse class="cls-9" cx="1678.15" cy="691.86" rx="33.89" ry="27.2"/>
        <ellipse class="cls-9" cx="1686.62" cy="664.65" rx="33.89" ry="27.2"/>
        <path class="cls-9" d="M1695.93,659.89c0,15,15.17,27.2,33.88,27.2s33.89-12.18,33.89-27.2-15.17-31.68-33.89-31.68S1695.93,644.87,1695.93,659.89Z"/>
        <ellipse class="cls-9" cx="1675.43" cy="659.89" rx="42.18" ry="27.2" transform="translate(438.08 1968.13) rotate(-68.09)"/>
        <ellipse class="cls-9" cx="1751.68" cy="608.34" rx="27.2" ry="33.89" transform="translate(236.72 1677.63) rotate(-54.37)"/>
        <ellipse class="cls-9" cx="1759.26" cy="547.43" rx="40.55" ry="34.16" transform="translate(-56.24 861.49) rotate(-27.1)"/>
        <ellipse class="cls-9" cx="1743.26" cy="505.45" rx="40.55" ry="34.16" transform="translate(153.18 1380.71) rotate(-45)"/>
        <ellipse class="cls-9" cx="1666.04" cy="395.64" rx="53.39" ry="66.59" transform="translate(588.53 1726.5) rotate(-64.36)"/>
        <ellipse class="cls-9" cx="1560.62" cy="403.81" rx="66.59" ry="53.39" transform="translate(-31.23 149.63) rotate(-5.43)"/>
        <ellipse class="cls-9" cx="1537.06" cy="454.5" rx="66.59" ry="53.39" transform="translate(-36.14 147.63) rotate(-5.43)"/>
        <ellipse class="cls-9" cx="1627.11" cy="470.72" rx="66.59" ry="53.39" transform="translate(-37.27 156.23) rotate(-5.43)"/>
        <ellipse class="cls-9" cx="1680.71" cy="502.72" rx="66.59" ry="53.39" transform="translate(-40.06 161.45) rotate(-5.43)"/>
        <ellipse class="cls-9" cx="1703.57" cy="549.98" rx="66.59" ry="53.39" transform="translate(-44.43 163.83) rotate(-5.43)"/>
        <ellipse class="cls-9" cx="1705.18" cy="605.63" rx="41.1" ry="48.61" transform="translate(-27.84 84.98) rotate(-2.83)"/>
        <ellipse class="cls-9" cx="1458.57" cy="428.72" rx="47.03" ry="43.62" transform="translate(-34.05 140.08) rotate(-5.43)"/>
        <ellipse class="cls-9" cx="1426.17" cy="482.62" rx="41.25" ry="36.04" transform="translate(-39.3 137.25) rotate(-5.43)"/>
        <ellipse class="cls-9" cx="1475.32" cy="506.19" rx="36.04" ry="41.25" transform="translate(-23.2 73.5) rotate(-2.83)"/>
        <circle class="cls-9" cx="1523.39" cy="512.95" r="27.98" transform="translate(-23.48 75.88) rotate(-2.83)"/>
        <ellipse class="cls-9" cx="1560.62" cy="516.22" rx="23.31" ry="27.98" transform="translate(-23.6 77.73) rotate(-2.83)"/>
        <ellipse class="cls-9" cx="1604.19" cy="527.87" rx="23.31" ry="27.98" transform="translate(-49.01 872.82) rotate(-30)"/>
        <ellipse class="cls-9" cx="1637.67" cy="556.25" rx="23.31" ry="27.98" transform="translate(-45.32 157.61) rotate(-5.43)"/>
        <ellipse class="cls-9" cx="1659.73" cy="593.74" rx="20.99" ry="27.98"/>
        <ellipse class="cls-9" cx="1737.15" cy="454.5" rx="53.06" ry="44.78" transform="translate(187.42 1361.47) rotate(-45)"/>
      </g>
      <ellipse class="cls-7" cx="1678.15" cy="640.44" rx="25.42" ry="24.22"/>
      <path class="cls-8" d="M1558,721c5.11-2.93,16.55-32,17-33.07,0,0-17.31,12.93-23.84,16.68-11.37,6.53-15.12,7.88-32.67,8.71C1518.48,713.33,1546.13,727.85,1558,721Z"/>
      <path class="cls-10" d="M1517.14,674.89a27.75,27.75,0,0,0,13.06-3.7L1529,669c-6.69,3.55-13.51,4.38-18.19,2a15.88,15.88,0,0,1-8.18-10.64c-.77-4.2,1.86-9,6.45-12.55a15.75,15.75,0,0,1,15-1.79l.94-2.24c-7.92-3.3-13.77-.76-17.28,2-5.3,4.09-8.29,11-7.75,14.9a17.13,17.13,0,0,0,9.08,12.4A17.58,17.58,0,0,0,1517.14,674.89Z"/>
      <path class="cls-7" d="M1635.49,726.5a154.53,154.53,0,0,0-.38,51.33,21.94,21.94,0,0,1-40.5,8.53,24.46,24.46,0,0,0,3.46-5.57c4.39-9.86.72-19.77-.52-22.76Z"/>
      <g>
        <path class="cls-11" d="M1654.57,831.68H1803a2.45,2.45,0,0,1,2.4,2.09,845.19,845.19,0,0,1,8.28,90.28c2.74,72.56-6,91.58-18.44,102.88a61.59,61.59,0,0,1-26.2,13.58c-21.92,5.23-35.85-5-66-10.67a196.2,196.2,0,0,0-48.43-2.92Z"/>
        <path class="cls-12" d="M1803.15,831.72a2.06,2.06,0,0,1,2.07,1.79,840.14,840.14,0,0,1,8.42,90.54c2.77,72.56-6,91.58-18.66,102.88a62.56,62.56,0,0,1-26.5,13.58,3.11,3.11,0,0,1-1.6,0c-10.68-2.31-6.35-46.19-7.59-93.14-1.73-65.9-14.72-109.24,0-115.66,1.86-.81,2.33-.24,17.86.06C1787.88,832,1796.82,831.85,1803.15,831.72Z"/>
      </g>
      <g>
        <path class="cls-13" d="M1786.94,730.47a213.48,213.48,0,0,1-49.21,13.07c-23.5,3.22-40.42,9.74-52.14,12.54-23.54,5.61-27.62,9.89-35.19,18.72-2.85,3.33,8.56,6.56,11.35,9.58,27.45,29.75,19.63,48.38,43.35,49.79a398,398,0,0,0,44.25-.71c15.42-1.37,37.63,1.5,33.9-4.33-22.14-34.54-15.57-85.6-4.22-93.29Z"/>
        <path class="cls-14" d="M1813.18,781.43c0,28.15-11.36,51-25.38,51-5.67,0-9.1,1.69-13.32-4.6-6.23-9.28-12.07-29.58-12.07-46.36,0-28.14,11.36-51,25.39-51S1813.18,753.29,1813.18,781.43Z"/>
        <path class="cls-15" d="M1794.26,781.19a.83.83,0,1,0-.51,1.06.81.81,0,0,0,.28-.17A.83.83,0,0,0,1794.26,781.19Z"/>
        <path class="cls-15" d="M1794,781.68a3.19,3.19,0,0,1,2.3,1.78C1797.28,785.16,1794,781.68,1794,781.68Z"/>
        <path class="cls-15" d="M1790.51,779.82a3.17,3.17,0,0,0,2.43,1.6C1794.87,781.79,1790.51,779.82,1790.51,779.82Z"/>
        <path class="cls-15" d="M1793.2,780.68a5,5,0,0,0,1-4.22C1793.72,773.92,1793.2,780.68,1793.2,780.68Z"/>
        <path class="cls-15" d="M1792.69,781.74a14.52,14.52,0,0,1-2.49,6.74C1788,791.51,1792.69,781.74,1792.69,781.74Z"/>
        <path class="cls-16" d="M1751.68,741.1s.4-.08-3.07.51c-.95.16-10.24,23.89-11.15,42.31-1.06,21.29.47,38.52,1.23,50.27,0,.38.31-.3,2-.15,2.66.23-3-22.32.41-56.81a112.59,112.59,0,0,1,5.52-24.29C1748.15,748.54,1750.58,745.18,1751.68,741.1Z"/>
        <path class="cls-16" d="M1674.33,793.75c5.52-29.24,8.53-37.4,10.27-37.71l3.08-.51h0a103.42,103.42,0,0,0-5.07,11.84,105,105,0,0,0-5.53,24.3l-.54,3.89"/>
      </g>
      <path class="cls-5" d="M1594.61,786.36a21.39,21.39,0,0,0,10.4,9.51c9.69,3.93,18.86-1.63,20.33-2.56,9.62-6.08,7.09-14.39,13.55-17.54,15-7.3,46.11,28.85,48,31a142.4,142.4,0,0,1,18.24,27.36c7.87,36.89,14.92,77.25,20.28,120.74,5.07,41.13,8,79.87,9.41,115.79a431.59,431.59,0,0,1-184.51,24.48c-1.76-9.82-3.23-23.65-4-41.23-.63-13.23,4.44-27.32,0-47.61-4.78-21.78-7.06-49.2-7.45-81-.12-9.66-4.82-36.34.26-69.91a126.24,126.24,0,0,1,14.82-44.08c8.86-15.6,16.39-20.38,21.92-22.64A38,38,0,0,1,1594.61,786.36Z"/>
      <path class="cls-11" d="M1738.69,1010q-.39-8-.76-16c-3.42-.26-66.17-6.19-94-61.52-16.88-33.59-17.12-78,5.79-110a92.35,92.35,0,0,1,28.42-25.63l-20.09-16.48a136.59,136.59,0,0,0-30,45c-3.51,8.67-30.63,76.56,10.85,133.09C1673.68,1005.94,1730.48,1009.61,1738.69,1010Z"/>
      <path class="cls-11" d="M1554.48,997.16l1.08-21.69C1566,972.08,1575,799,1567,794.22l8.78-5.49C1586.79,807,1577.69,975.54,1554.48,997.16Z"/>
      <path class="cls-7" d="M1644.22,1089.2c-.15.81-1.45,8.6,4,14.12,5.18,5.24,13.11,5,18.09,2.67,7.73-3.69,12-14.4,8.38-25.2-.58-4-1.4-9.75-2.37-16.7-1.89-13.53-2.15-16-2.34-18.66-.34-4.92-.35-9.24.27-21,.79-15,1.47-20.62,1.9-28,1-16.46-.86-22.08-.62-36.49a323.82,323.82,0,0,1,4.32-47.8l-31.62,11.11c1.32,27.26,1.31,49.14,1,64.5-.33,18.43-1,21.76,0,31.93,1.9,20.17,6.41,29,5,45.48A80.82,80.82,0,0,1,1644.22,1089.2Z"/>
      <path class="cls-7" d="M1547.44,1038.71c.92-3.56,2.25-8.54,4-14.45,1.47-5,2.63-8.61,2.81-9.19,3-9.66,2-23.09,2.28-37,.46-22.19-.79-44-.79-44-.74-8.65-.33-21.09-2.48-35.83-7.15,0-9.26-1.86-16.41-1.82,0,16.75,1,36.31,1.63,55.3C1539.6,984.14,1540.33,1013.42,1547.44,1038.71Z"/>
      <path class="cls-4" d="M1662.14,832.7c15.79,5.89,23,37.06,17.58,78.85l-42.47,13.81C1627.4,879,1631.13,842,1648,833.59,1648.75,833.21,1655.2,830.11,1662.14,832.7Z"/>
      <path class="cls-4" d="M1554.48,906.89c-2.7,1.69.07.63-6.6,1.57a36.39,36.39,0,0,1-13.48-.65,178.56,178.56,0,0,1,3.29-49.91c6.71-31.85,21.68-58.95,24-58.13,1.15.42-1.72,7.5-3.33,22.29C1557.8,826.88,1552.84,891.34,1554.48,906.89Z"/>
      <path class="cls-10" d="M1601.38,577.71a1.61,1.61,0,0,0,.71-.58c.41-.75.74-1.3,0-2.23-4.06-4.81-11.16-11.61-21.62-14.73,0,0-10.75-3.21-27.74,2.8-.32.11-1.25.44-1.42,1.14a1.26,1.26,0,0,0,.74,1.66c2.69,1.45,18-5.06,28-2.32C1590.23,566.1,1599.59,578.38,1601.38,577.71Z"/>
      <path class="cls-10" d="M1499.41,561.16c4.55-1.3,12.54-4.57,18.6-3.53,8.21,1.3,16.49,10.22,17.84,9.56a1.33,1.33,0,0,0,.52-.51c.26-.61.48-1.08-.2-1.74a36.2,36.2,0,0,0-18.08-9.92s-7.2-1.41-18.21,2.88"/>
    </g>
    <path class="cls-17" d="M91.68,125.77a11,11,0,0,1,21.39-2.13,47.72,47.72,0,0,0,10.24-7A11,11,0,0,1,131.26,97a10.8,10.8,0,0,1,4.57,1.59,47.36,47.36,0,0,0,3.28-17c-.36,0-.73,0-1.11,0a11,11,0,0,1-3.74-21.32,47.73,47.73,0,0,0-12.12-15.45A11,11,0,0,1,101.4,39.8,10.84,10.84,0,0,1,102.51,35a47.75,47.75,0,0,0-10.9-1.27,47.23,47.23,0,0,0-10.29,1.13A10.85,10.85,0,0,1,82.5,39.8a11,11,0,0,1-20.94,4.66,47.76,47.76,0,0,0-9.23,10.07,11,11,0,0,1-7.79,20.36,46.9,46.9,0,0,0,.63,16.37c.32-.1.65-.19,1-.26a11,11,0,0,1,8.34,19.89,47.75,47.75,0,0,0,7,7.09,11,11,0,0,1,19.72,7.79,12,12,0,0,1-.35,1.75,47.17,47.17,0,0,0,10.77,1.25h.16A11,11,0,0,1,91.68,125.77Zm-.35-24a21.06,21.06,0,1,1,21.06-21.06A21.06,21.06,0,0,1,91.33,101.77Z"/>
    <g>
      <path class="cls-14" d="M602.44,737.56c83.68-48.12,177.81-25.12,287.52,1.69,12.19,3,31.81,4.45,46.65,19.12,14.69,14.53,17.08,35.57,21.25,77,4.86,48.21.21,75-1.92,85.52-6.54,32.37-15.71,42.58-19.33,46.16-16,15.82-37.1,18.53-46.65,19.12-64,6.61-176.36,14.8-270.74,0-12.15-1.91-30.58-5.22-46.65-19.12-52.81-45.65-21.63-154.83-19.33-162.56C559.2,784.53,590.08,744.67,602.44,737.56Z"/>
      <path class="cls-13" d="M620.09,748.69c27.74-12.88,40.11-9.41,98-15.68,103.94-11.26,135.43-30.2,171.48-6.86,16.55,10.72,27.3,26,31.16,31.9,13.81,21.18,16.74,40.45,19.89,71.46,4.55,44.72.2,69.52-1.8,79.33-2.62,12.82-7,27.43-18.09,42.81-16,22.25-37.25,32.09-46.14,36.08-67.45,30.27-123.79-21.88-250.89-18.34-34.11,1-48.45,5.21-64.35-6.1-37.1-26.39-39-106.45-6.1-158.76C574.82,770.21,607,754.77,620.09,748.69Z"/>
      <g>
        <path class="cls-6" d="M695.59,822.46q-4.56,1.69-10.82,4.12l-10.68,4.13q0-6.69-3.7-6.69-5.26,0-10.53,6-3.71,4.41-3.13,8.54.42,2.7,5.41,2.7a39.14,39.14,0,0,0,7.11-.85,53.88,53.88,0,0,1,10.82-1.28q12,0,13.95,8.26a24.77,24.77,0,0,1,.57,5.4q0,9.12-6.83,19.65-8.84,13.8-24.77,23.2a32.24,32.24,0,0,1-16.51,5A28.52,28.52,0,0,1,632,896.47q3.56-8.54,11.39-25.19a16.74,16.74,0,0,0,9.67,3.13,16.41,16.41,0,0,0,4.7-.71,37.93,37.93,0,0,0,8.4-3.27q5.7-3.13,5.69-6.41,0-3.56-5.83-3.56a60.18,60.18,0,0,0-11.6,1.64,60.38,60.38,0,0,1-11.6,1.64c-3.52,0-6.22-.67-8.12-2q-5.55-3.69-4.55-11.53,1.85-15.8,20.35-36.58,18.93-21.35,32.6-22.35,13.25-.85,13.24,19.93A101.81,101.81,0,0,1,695.59,822.46Z"/>
        <path class="cls-6" d="M711.19,797.12q22.06-6.69,36.16-6.69,19.21,0,18.93,13.38-.43,26.9-45.27,55.65-3.13,17.37-4.55,32.17l-22.64,6.27q.43-3.14,3.42-19.08l6.26-33.73Q711.9,798.54,711.19,797.12Zm17.94,22.77c-.67,2.66-1.28,5.32-1.85,8l-1.57,7.83q13.24-6.54,17.08-13.8a4.45,4.45,0,0,0,.57-1.85c0-1.62-1.19-2.42-3.56-2.42S734,818.38,729.13,819.89Z"/>
        <path class="cls-6" d="M770.92,797.26l24.49-4.56q-14.8,57.09-19.36,98.93l-22.64,6.27Z"/>
        <path class="cls-6" d="M803.89,797.26l24.49-4.56q-10.26,39.43-15.8,72.74l25-3.84-2.14,26.48q-19.35,1.71-49.1,9.82Z"/>
      </g>
    </g>
    <g>
      <path class="cls-18" d="M445.36,319.14l-.92,28.47q-10.71.61-20.36,1.53Q414,391.55,410.46,427.06l-25.87,6.73,14.08-81.43c-2.75.41-5.51.87-8.26,1.38l-8.12,1.53-1.83-28.63Z"/>
      <path class="cls-18" d="M449.89,325.57l26.18-4.9q-10.56,40.11-15.61,71.95L475,386.49l10.71-60.92,26.18-4.9Q496,383.43,491.22,427.06l-24.49,6.73,3.06-17q-12.85,5.67-38.88,17Z"/>
      <path class="cls-18" d="M518.72,325.42q24-7.2,39.34-7.2,20.66,0,20.51,14.39-.15,20.67-26,41.49,2.15,5.81,17.75,36.58-7.92,7.35-23.91,21.58L530.09,390l-.15,0-.2,0q-3.65,20.06-5.46,37L500,433.79q.31-3.36,3.37-20.36ZM538,349.6q-1.38,5.2-2.45,10.41l-2.15,10.41A55.58,55.58,0,0,0,544,363.23q6-5.21,8-10a5.51,5.51,0,0,0,.76-2.6q0-3.37-4.44-3.37Q544.73,347.31,538,349.6Z"/>
      <path class="cls-18" d="M606.21,348.33c-.81,3-1.53,5.88-2.14,8.75l-1.68,8.44,24.49-5.2-1.37,21.13q-17.41,3.06-27.34,5.36c-.41,2-.76,4.08-1.07,6.12l-1.15,6,28.48-4.14-2,28.47q-22,1.84-55.87,10.56L584.79,324l51-7.5-2,28.43Q618.77,346.35,606.21,348.33Z"/>
      <path class="cls-18" d="M648.26,326l26.48-5.36q-.32,4.75-.31,13.47,0,20.82,1.38,36.59a82.15,82.15,0,0,0,2.29,14.54l10.41-59.7,26.33-4.9Q698.93,382.07,694,427.06l-24.18,6.73c-.1-.2-.77-2-2-5.35l-8-22.66a69.34,69.34,0,0,1-2.3-7q-3.21,18.06-5.05,35.05l-24.49,7.35Z"/>
      <path class="cls-18" d="M812.85,319.14l-.92,28.47q-10.73.61-20.36,1.53Q781.46,391.55,778,427.06l-25.87,6.73,14.08-81.43c-2.76.41-5.51.87-8.27,1.38l-8.11,1.53-1.84-28.63Z"/>
      <path class="cls-18" d="M819.52,325.57l26.33-4.9Q829.94,382.07,825,427.06l-24.33,6.73Z"/>
      <path class="cls-18" d="M855,325.57l26.33-4.9q-11,42.4-17,78.22l26.94-4.13L889,423.23q-20.82,1.84-52.81,10.56Z"/>
      <path class="cls-18" d="M513.09,458.79A1672.75,1672.75,0,0,0,462.93,623.4l-62.64,11.31q5.88-33.45,7.3-81.49l1.41-82,47.1-10.59L435.85,610.92h.23l34.39-144.36Z"/>
      <path class="cls-18" d="M470.18,635.65q34.62-88.32,56.05-170.27l71.59-12q-12.24,71.36-11.07,168.85l-49.92,11.54,3.53-29.43-15.78,3.06-4.94,20.72Zm74-63L555,483.75h-.23l-22.14,91.14Z"/>
      <path class="cls-18" d="M621.79,466.33l40.51-7.54q-17,65.23-26.14,120.34l41.44-6.36-3.53,43.8q-32,2.83-81.24,16.25Z"/>
      <path class="cls-18" d="M773.4,571.12q-42.63,3.3-74.18,9.66l-2.35-36,77.94-9.19Z"/>
      <path class="cls-18" d="M893.45,456.44,892,500.24q-16.49.94-31.32,2.35-15.54,65.24-21,119.87L800,632.82l21.67-125.28q-6.36.94-12.72,2.12L796.43,512l-2.82-44Z"/>
    </g>
  </g>
</svg>
