<svg xmlns="http://www.w3.org/2000/svg" width="50mm" height="120mm" viewBox="0 0 141.73 340.16">
  <defs>
    <style>
      .cls-1 {
        fill: #b4c7e6;
      }

      .cls-2 {
        fill: #567eba;
      }
    </style>
  </defs>
  <g id="Layer_5" data-name="Layer 5">
    <g>
      <path class="cls-1" d="M115.12,104.06A47.82,47.82,0,0,0,92.3,69.93,5.71,5.71,0,0,1,89.53,65V52.29c2.54-.45,4-1,4-1.58s-1.49-1.12-4-1.57v-30A6.12,6.12,0,0,0,83.41,13H58.14a7.58,7.58,0,0,0-7.59,7.58V49.22c-2.28.43-3.62.94-3.62,1.49s1.34,1.06,3.62,1.5V62.49a5.5,5.5,0,0,1-3.22,5,47.93,47.93,0,0,0-27.46,36.59l-.5,209.15a6.75,6.75,0,0,0,3.43,5.88,91.1,91.1,0,0,0,88.85.61,8.65,8.65,0,0,0,4.53-7.61C116.13,239.67,115.12,104.06,115.12,104.06Z"/>
      <rect class="cls-2" x="47.33" y="11.83" width="46.28" height="30.52" rx="3.18"/>
      <path class="cls-2" d="M115.89,227.63a422.3,422.3,0,0,1-51,2.75,424.13,424.13,0,0,1-45.18-2.75V148.86a425.27,425.27,0,0,1,96.22,0Z"/>
    </g>
  </g>
</svg>
