<svg id="Layer_1" data-name="Layer 1" xmlns="http://www.w3.org/2000/svg" width="15.52mm" height="18.89mm" viewBox="0 0 43.98 53.54">
  <defs>
    <style>
      .cls-1 {
        fill: #e18100;
      }

      .cls-2 {
        fill: #f29e39;
      }

      .cls-3 {
        fill: #e6e6e6;
      }

      .cls-4 {
        fill: #fff;
      }
    </style>
  </defs>
  <rect class="cls-1" width="43.98" height="53.54" rx="6.31"/>
  <path class="cls-2" d="M33,51.63H21V2.74H33c5,0,9,5.41,9,12.08V39.56C42.07,46.23,38,51.63,33,51.63Z"/>
  <path class="cls-3" d="M18.58,43.89H14.42l-.15-7.2h-8q-.09,3.6-.16,7.2H2V26.5A15.32,15.32,0,0,1,2.61,22,12.91,12.91,0,0,1,4.39,18.3,8.9,8.9,0,0,1,7,15.81a6.21,6.21,0,0,1,6.47,0,8.93,8.93,0,0,1,2.65,2.49A12.65,12.65,0,0,1,17.93,22a15,15,0,0,1,.65,4.51ZM14.42,32.31V26.5a7.56,7.56,0,0,0-.32-2.25,6.62,6.62,0,0,0-.89-1.85,4.34,4.34,0,0,0-1.33-1.24,3.07,3.07,0,0,0-3.23,0A4.34,4.34,0,0,0,7.32,22.4a6.62,6.62,0,0,0-.89,1.85,7.56,7.56,0,0,0-.32,2.25v5.81Z"/>
  <path class="cls-4" d="M32.51,21.31a3,3,0,0,1-.92,2.17,3.26,3.26,0,0,1-1,.67,3,3,0,0,1-1.21.24,3.07,3.07,0,0,1-1.21-.24,3.34,3.34,0,0,1-1-.67,3,3,0,0,1-.9-2.17,3,3,0,0,1,.24-1.19,2.92,2.92,0,0,1,.66-1,3.13,3.13,0,0,1,1-.66,2.91,2.91,0,0,1,1.21-.25,2.88,2.88,0,0,1,1.21.25,3.07,3.07,0,0,1,1,.66,2.8,2.8,0,0,1,.67,1A2.86,2.86,0,0,1,32.51,21.31Zm-.8,23.05H27.06V26.24h4.65Z"/>
</svg>
