<svg id="Layer_1" data-name="Layer 1" xmlns="http://www.w3.org/2000/svg" width="15.52mm" height="18.89mm" viewBox="0 0 43.98 53.54">
  <defs>
    <style>
      .cls-1 {
        fill: #0088c5;
      }

      .cls-2 {
        fill: #35b9e5;
      }

      .cls-3 {
        fill: #fff;
      }

      .cls-4 {
        fill: #e6e6e6;
      }
    </style>
  </defs>
  <rect class="cls-1" width="43.98" height="53.54" rx="6.31"/>
  <path class="cls-2" d="M33,51.63H21V2.74H33c5,0,9,5.41,9,12.08V39.56C42.07,46.23,38,51.63,33,51.63Z"/>
  <path class="cls-3" d="M33.18,33.9a8.87,8.87,0,0,1-.73,3.59,9.31,9.31,0,0,1-4.91,4.91,8.87,8.87,0,0,1-3.59.73H11.62V37H24a3,3,0,0,0,1.2-.24,3,3,0,0,0,1.63-1.63,3.12,3.12,0,0,0,0-2.4,2.85,2.85,0,0,0-.65-1,3.13,3.13,0,0,0-1-.66,3.17,3.17,0,0,0-1.2-.23h-8.4V24.66H24a3,3,0,0,0,1.2-.23,3.13,3.13,0,0,0,1-.66,2.89,2.89,0,0,0,.65-1A3,3,0,0,0,27,21.57a3,3,0,0,0-.24-1.2,3,3,0,0,0-1.63-1.63A3,3,0,0,0,24,18.5H11.62V12.34H24a8.87,8.87,0,0,1,3.59.73A9.28,9.28,0,0,1,32.45,18a8.78,8.78,0,0,1,.73,3.58,9,9,0,0,1-.62,3.3,9.36,9.36,0,0,1-1.76,2.86,9.53,9.53,0,0,1,1.76,2.87A9,9,0,0,1,33.18,33.9Z"/>
  <path class="cls-4" d="M21,43.13H11.62V37H21V30.83H15.55V24.66H21V18.5H11.62V12.34H21Z"/>
</svg>
