<svg id="Layer_1" data-name="Layer 1" xmlns="http://www.w3.org/2000/svg" width="15.52mm" height="18.89mm" viewBox="0 0 43.98 53.54">
  <defs>
    <style>
      .cls-1 {
        fill: #ec6431;
      }

      .cls-2 {
        fill: #f67b34;
      }

      .cls-3 {
        fill: #fff;
      }

      .cls-4 {
        fill: #e6e6e6;
      }
    </style>
  </defs>
  <rect class="cls-1" width="43.98" height="53.54" rx="6.31"/>
  <path class="cls-2" d="M33,51.63H21V2.74H33c5,0,9,5.41,9,12.08V39.56C42.07,46.23,38,51.63,33,51.63Z"/>
  <path class="cls-3" d="M33.79,32.7a10,10,0,0,1-.8,4.06,9,9,0,0,1-5.21,5,10,10,0,0,1-3.66.67H11.71V36.23H24.12a4.25,4.25,0,0,0,1.26-.2,3.33,3.33,0,0,0,1.14-.62,3.28,3.28,0,0,0,.81-1.1,3.73,3.73,0,0,0,.31-1.61,3.45,3.45,0,0,0-.31-1.51,3.49,3.49,0,0,0-.81-1.1,3.62,3.62,0,0,0-1.14-.66,3.73,3.73,0,0,0-1.26-.23H11.71l1.8-17.61h19v6.17H19.05L18.5,23h5.62a10.23,10.23,0,0,1,3.66.66,9.17,9.17,0,0,1,5.21,5A9.86,9.86,0,0,1,33.79,32.7Z"/>
  <path class="cls-4" d="M21,42.39H11.71V36.23H21v-7H11.71l1.8-17.61H21v6.17h-2L18.5,23H21Z"/>
</svg>
