<svg xmlns="http://www.w3.org/2000/svg" width="13.56mm" height="13.56mm" viewBox="0 0 38.44 38.44">
  <defs>
    <style>
      .cls-1 {
        fill: #6b705c;
      }
    </style>
  </defs>
  <g id="Layer_2" data-name="Layer 2">
    <g>
      <circle class="cls-1" cx="25.11" cy="12.88" r="0.92"/>
      <circle class="cls-1" cx="18.89" cy="19.57" r="4.84"/>
      <path class="cls-1" d="M28.8,25.25V14a4.23,4.23,0,0,0-4.23-4.23H13.32A4.23,4.23,0,0,0,9.08,14V25.25a4.24,4.24,0,0,0,4.24,4.24H24.57A4.23,4.23,0,0,0,28.8,25.25ZM25.11,11a1.85,1.85,0,1,1-1.84,1.84A1.84,1.84,0,0,1,25.11,11ZM12.66,19.57a6.23,6.23,0,1,1,6.23,6.23A6.23,6.23,0,0,1,12.66,19.57Z"/>
      <path class="cls-1" d="M19.22,0A19.22,19.22,0,1,0,38.44,19.22,19.21,19.21,0,0,0,19.22,0ZM25,30.87H12.81A5.11,5.11,0,0,1,7.7,25.76V13.61A5.11,5.11,0,0,1,12.81,8.5H25a5.11,5.11,0,0,1,5.11,5.11V25.76A5.11,5.11,0,0,1,25,30.87Z"/>
    </g>
  </g>
</svg>
