<svg id="Layer_1" data-name="Layer 1" xmlns="http://www.w3.org/2000/svg" width="15.52mm" height="18.89mm" viewBox="0 0 43.98 53.54">
  <defs>
    <style>
      .cls-1 {
        fill: #e2c339;
      }

      .cls-2 {
        fill: #ffde49;
      }

      .cls-3 {
        fill: #e6e6e6;
      }

      .cls-4 {
        fill: #fff;
      }
    </style>
  </defs>
  <rect class="cls-1" width="43.98" height="53.54" rx="6.31"/>
  <path class="cls-2" d="M33,51.63H21V2.74H33c5,0,9,5.41,9,12.08V39.56C42.07,46.23,38,51.63,33,51.63Z"/>
  <path class="cls-3" d="M19.12,31.61a12.46,12.46,0,0,1-3.49,8.71A11.88,11.88,0,0,1,11.84,43a11.25,11.25,0,0,1-4.66,1,12.48,12.48,0,0,1-2.71-.31l-.29-.08V36.92a5.75,5.75,0,0,0,1.44.62,5.73,5.73,0,0,0,3.89-.27A5.9,5.9,0,0,0,11.41,36a6.11,6.11,0,0,0,1.28-2,6,6,0,0,0,.47-2.39V13.12l6-1.65Z"/>
  <path class="cls-4" d="M23,24.58a8.29,8.29,0,0,1,.54-3A7.75,7.75,0,0,1,25,19.11a6.72,6.72,0,0,1,2.16-1.66,5.83,5.83,0,0,1,2.64-.62h10.4V22H29.75a2.07,2.07,0,0,0-.89.2,2.23,2.23,0,0,0-.72.55,3,3,0,0,0-.48,2.84,2.7,2.7,0,0,0,.48.83,2.23,2.23,0,0,0,.72.55,2.07,2.07,0,0,0,.89.2h4.53a6,6,0,0,1,2.65.6,6.87,6.87,0,0,1,2.17,1.66,7.86,7.86,0,0,1,1.45,2.47,8.81,8.81,0,0,1,0,6,8.16,8.16,0,0,1-1.45,2.46A6.87,6.87,0,0,1,36.93,42a5.89,5.89,0,0,1-2.65.61H24.21V37.49H34.28a2,2,0,0,0,.89-.2,2.38,2.38,0,0,0,.72-.55,2.74,2.74,0,0,0,.65-1.83,2.82,2.82,0,0,0-.17-1,2.9,2.9,0,0,0-.48-.82,2.56,2.56,0,0,0-.72-.55,2,2,0,0,0-.89-.19H29.75a5.83,5.83,0,0,1-2.64-.62A6.72,6.72,0,0,1,25,30.06a7.8,7.8,0,0,1-1.46-2.47A8.37,8.37,0,0,1,23,24.58Z"/>
</svg>
