<svg xmlns="http://www.w3.org/2000/svg" width="13.56mm" height="13.56mm" viewBox="0 0 38.44 38.44">
  <defs>
    <style>
      .cls-1 {
        fill: #99bfbf;
      }
    </style>
  </defs>
  <g id="Layer_2" data-name="Layer 2">
    <path class="cls-1" d="M19.22,0A19.22,19.22,0,1,0,38.44,19.22,19.21,19.21,0,0,0,19.22,0ZM12.91,28.79a.73.73,0,0,1-.73.73H9.5a.74.74,0,0,1-.74-.73V15a.74.74,0,0,1,.74-.73h2.68a.73.73,0,0,1,.73.73Zm0-17.07a.73.73,0,0,1-.73.73H9.5a.74.74,0,0,1-.74-.73V9A.74.74,0,0,1,9.5,8.3h2.68a.73.73,0,0,1,.73.74Zm18,17.34a1.29,1.29,0,0,1-.73.46,1.2,1.2,0,0,1-.19,0H27.49a.74.74,0,0,1-.74-.73V25.37c0-4.67.05-5.95-.92-6.92a3.22,3.22,0,0,0-2.31-.92,3.45,3.45,0,0,0-2.3,1.38,4.5,4.5,0,0,0-.93,1.85v8a.73.73,0,0,1-.73.73H16.88a.74.74,0,0,1-.74-.73V15a.74.74,0,0,1,.74-.73h2.68a.73.73,0,0,1,.73.73V16.6a6,6,0,0,1,2.77-2.3,6.18,6.18,0,0,1,6.46,1.38c1.22,1.3,1.29,4.11,1.38,9.69C30.93,26.88,30.92,28.15,30.9,29.06Z"/>
  </g>
</svg>
