<svg id="Layer_1" data-name="Layer 1" xmlns="http://www.w3.org/2000/svg" width="14.46mm" height="14.46mm" viewBox="0 0 41 41">
  <defs>
    <style>
      .cls-1 {
        fill: #99bfbf;
      }
    </style>
  </defs>
  <g>
    <path class="cls-1" d="M26.81,9.64h-.25A4.19,4.19,0,0,0,23.89,11a5.23,5.23,0,0,0-1.36,3.45c0,.29,0,.69,0,1.49,0,.42,0,.69,0,.95s0,.69,0,1.25v1.18c0,.13,0,.25,0,.37a9.48,9.48,0,0,0,5.79-1.91,5.89,5.89,0,0,0,2.11-3.49,4.09,4.09,0,0,0-.62-3.34A3.91,3.91,0,0,0,26.81,9.64Z"/>
    <path class="cls-1" d="M17,24.12c0-.34,0-.69,0-1.25s0-1,0-1.18v-.37a9.5,9.5,0,0,0-5.79,1.91A6,6,0,0,0,9,26.72a4.11,4.11,0,0,0,.63,3.34,4,4,0,0,0,3.27,1.29A4.17,4.17,0,0,0,15.6,30,5.18,5.18,0,0,0,17,26.56c0-.29,0-.69,0-1.49C17,24.65,17,24.38,17,24.12Z"/>
    <path class="cls-1" d="M20.5,0A20.5,20.5,0,1,0,41,20.5,20.5,20.5,0,0,0,20.5,0ZM32,14.53A7.4,7.4,0,0,1,29.39,19a11.16,11.16,0,0,1-6.9,2.31L22,28.35a7.67,7.67,0,0,1,3.56-2,7.56,7.56,0,0,1,3.54,0l-.36,1.55a5.89,5.89,0,0,0-2.8,0,6.85,6.85,0,0,0-4.24,3.55L19.84,35,20.9,21.29H18.52c0,.13,0,.25,0,.39v1.17c0,.56,0,.9,0,1.23s0,.54,0,.92c0,.9,0,1.33,0,1.64a6.83,6.83,0,0,1-1.81,4.47,5.74,5.74,0,0,1-3.67,1.82,2.58,2.58,0,0,1-.38,0,5.48,5.48,0,0,1-4.27-1.9,5.65,5.65,0,0,1-1-4.58A7.4,7.4,0,0,1,10.11,22,11.13,11.13,0,0,1,17,19.72l.55-7.07a7.65,7.65,0,0,1-3.57,2,7.52,7.52,0,0,1-3.53,0l.36-1.55a5.89,5.89,0,0,0,2.8,0A6.85,6.85,0,0,0,17.84,9.6L19.65,6l-1,13.71H21v-.39c0-.17,0-.55,0-1.17s0-.9,0-1.23,0-.54,0-.92c0-.9,0-1.33,0-1.64a6.86,6.86,0,0,1,1.81-4.47,5.77,5.77,0,0,1,3.67-1.82A5.58,5.58,0,0,1,31.07,10,5.7,5.7,0,0,1,32,14.53Z"/>
  </g>
</svg>
