<svg id="Layer_1" data-name="Layer 1" xmlns="http://www.w3.org/2000/svg" width="15.52mm" height="18.89mm" viewBox="0 0 43.98 53.54">
  <defs>
    <style>
      .cls-1 {
        fill: #112946;
      }

      .cls-2 {
        fill: #003c69;
      }

      .cls-3 {
        fill: #fff;
      }

      .cls-4 {
        fill: #e6e6e6;
      }
    </style>
  </defs>
  <rect class="cls-1" width="43.98" height="53.54" rx="6.31"/>
  <path class="cls-2" d="M33,51.63H21V2.74H33c5,0,9,5.41,9,12.08V39.56C42.07,46.23,38,51.63,33,51.63Z"/>
  <path class="cls-3" d="M23,26.49a8.33,8.33,0,0,1,.54-3A8,8,0,0,1,25,21a6.86,6.86,0,0,1,2.16-1.66,5.82,5.82,0,0,1,2.64-.61h10.4v5.16H29.75a2.07,2.07,0,0,0-.89.2,2.38,2.38,0,0,0-.72.55,2.9,2.9,0,0,0-.48.82,2.78,2.78,0,0,0-.17,1,2.88,2.88,0,0,0,.17,1,2.77,2.77,0,0,0,.48.82,2.23,2.23,0,0,0,.72.55,2.07,2.07,0,0,0,.89.2h4.53a5.89,5.89,0,0,1,2.65.61,6.84,6.84,0,0,1,2.17,1.65,8,8,0,0,1,1.45,2.47,8.81,8.81,0,0,1,0,6,7.92,7.92,0,0,1-1.45,2.46A6.87,6.87,0,0,1,36.93,44a5.9,5.9,0,0,1-2.65.62H24.21V39.4H34.28a2,2,0,0,0,.89-.2,2.23,2.23,0,0,0,.72-.55,2.74,2.74,0,0,0,.65-1.83,2.73,2.73,0,0,0-.17-1,2.65,2.65,0,0,0-.48-.82,2.23,2.23,0,0,0-.72-.55,1.91,1.91,0,0,0-.89-.2H29.75a5.82,5.82,0,0,1-2.64-.61A6.89,6.89,0,0,1,25,32a7.69,7.69,0,0,1-1.46-2.47A8.33,8.33,0,0,1,23,26.49Z"/>
  <path class="cls-4" d="M6.67,44.46H2.51V13.66h8.31a5.68,5.68,0,0,1,2.2.44,7.18,7.18,0,0,1,2,1.25,9.59,9.59,0,0,1,1.68,1.93A13.42,13.42,0,0,1,18,19.78a16.58,16.58,0,0,1,.84,2.95A18.14,18.14,0,0,1,19.12,26a16.88,16.88,0,0,1-.65,4.78,13.84,13.84,0,0,1-1.78,3.92,9.09,9.09,0,0,1-2.64,2.64,6,6,0,0,1-3.23,1H6.67Zm0-24.63V32.15h4.15a2.94,2.94,0,0,0,1.61-.48,4.61,4.61,0,0,0,1.32-1.32,6.92,6.92,0,0,0,.89-2A8.54,8.54,0,0,0,15,26a8.47,8.47,0,0,0-.33-2.39,6.86,6.86,0,0,0-.89-2,4.61,4.61,0,0,0-1.32-1.32,2.94,2.94,0,0,0-1.61-.48Z"/>
</svg>
