<svg id="Layer_1" data-name="Layer 1" xmlns="http://www.w3.org/2000/svg" width="15.52mm" height="18.89mm" viewBox="0 0 43.98 53.54">
  <defs>
    <style>
      .cls-1 {
        fill: #b900fe;
      }

      .cls-2 {
        fill: #ed70fd;
      }

      .cls-3 {
        fill: #e6e6e6;
      }

      .cls-4 {
        fill: #fff;
      }
    </style>
  </defs>
  <rect class="cls-1" width="43.98" height="53.54" rx="6.31"/>
  <path class="cls-2" d="M33,51.63H21V2.74H33c5,0,9,5.41,9,12.08V39.56C42.07,46.23,38,51.63,33,51.63Z"/>
  <path class="cls-3" d="M20.27,45.69l-6-1-3.6-9.93q-2.2,4.47-4.4,8.93l-5-1L7.85,29.51Q4.57,22.6,1.27,15.69h5q2.19,4.29,4.4,8.57l4.6-10.57,5-1q-3.39,8.42-6.77,16.82Q16.88,37.6,20.27,45.69Z"/>
  <path class="cls-4" d="M40.27,44.15H39.2l-1.72-2.48a14.25,14.25,0,0,1-1.34,1.1,9,9,0,0,1-1.48.9,7.94,7.94,0,0,1-1.6.6,6.26,6.26,0,0,1-1.66.22A8.4,8.4,0,0,1,28,43.77a8.87,8.87,0,0,1-2.82-2,9.61,9.61,0,0,1-1.9-3,10.75,10.75,0,0,1,0-7.63,9.44,9.44,0,0,1,1.9-3,9,9,0,0,1,2.82-2,8.41,8.41,0,0,1,3.45-.73,7.35,7.35,0,0,1,1.21.11,5.17,5.17,0,0,1,1.21.33,4.58,4.58,0,0,1,1.11.6,3.32,3.32,0,0,1,.88.91V18.82h4.46Zm-4.46-9.22a5.09,5.09,0,0,0-.35-1.84,5.32,5.32,0,0,0-1-1.57,4.8,4.8,0,0,0-1.4-1.1A3.66,3.66,0,0,0,31.4,30a4.42,4.42,0,0,0-1.71.34,4,4,0,0,0-1.4,1,4.73,4.73,0,0,0-.93,1.54A6.07,6.07,0,0,0,27,34.93a5.47,5.47,0,0,0,.34,1.9,5.35,5.35,0,0,0,.93,1.57,4.43,4.43,0,0,0,1.4,1.07,3.83,3.83,0,0,0,1.71.39,3.66,3.66,0,0,0,1.71-.42,4.8,4.8,0,0,0,1.4-1.1,5.32,5.32,0,0,0,1-1.57A5.09,5.09,0,0,0,35.81,34.93Z"/>
</svg>
